<svg xmlns="http://www.w3.org/2000/svg" viewBox="0 0 80.1624222 58.9545631"><path fill="none" stroke="#FFF" stroke-linecap="round" stroke-linejoin="round" stroke-miterlimit="10" d="M79.662 41.682V3.772C79.662 1.964 78.223.5 76.455.5H3.7C1.936.5.5 1.964.5 3.772v37.91c0 1.547.005 2.793.005 2.793v.47h.012c.046 2.116 1.804 3.79 3.96 3.79h71.101c2.188 0 4.07-1.72 4.07-3.873h-.002v-.36c0-.007.016-1.286.016-2.82zM55.563 57.58c0 .834-.681.875-1.522.875H25.958c-.838 0-1.518-.04-1.518-.875v-.637c0-.836 3.245-1.512 4.084-1.512H51.48c.838 0 4.084.676 4.084 1.512v.637z"/><path fill="none" stroke="#FFF" stroke-linecap="round" stroke-linejoin="round" stroke-miterlimit="10" d="M70.624 44.475L39.371 42.14V4.76l31.253-2.29z"/><path fill="none" stroke="#FFF" stroke-linecap="round" stroke-linejoin="round" stroke-miterlimit="10" d="M64.2 44.475L39.37 42.14V4.76L64.2 2.47z"/><path fill="#FFF" d="M7.949 8.707h24.088v1.451H7.949zm0 2.888h24.088v1.451H7.949zm0 2.887h24.088v1.451H7.949zm0 2.889h24.088v1.452H7.949zm0 2.887h24.088v1.452H7.949zm0 5.776h24.088v1.452H7.949zm0-2.888h24.088v1.452H7.949zm0 5.775h24.088v1.452H7.949zm0 2.889h24.088v1.452H7.949zm0 2.888h24.088v1.451H7.949zm0 2.887h24.088v1.452H7.949zM62.075 6.68L49.27 8.82V7.24l12.804-2.344zm0 3.546L49.27 11.96v-1.58l12.804-1.937zm0 3.548L49.27 15.103v-1.58l12.804-1.534zm0 3.546l-12.804.924v-1.58l12.804-1.127zm0 3.547l-20.812.843v-1.452l20.812-1.174zm0 7.093l-20.812-.474v-1.452l20.812.144zm0-3.545l-20.812.183v-1.452l20.812-.516zm0 7.093l-20.812-1.134V28.92l20.812.804zm0 3.547l-20.812-1.794V31.81l20.812 1.462zm0 3.547L41.263 36.15v-1.451l20.812 2.122zm0 3.548l-20.812-3.113v-1.452l20.812 2.782zM43.367 15.21l-.67 3.294-.848.062 2.188-10.543 1.04-.19 2.358 10.317-.968.073-.736-3.27-2.364.258zm2.182-1.3l-.664-2.936a32.697 32.697 0 0 1-.345-1.852l-.021.003a52 52 0 0 1-.335 1.941l-.643 3.085 2.008-.24z"/><path fill="none" stroke="#FFF" stroke-linecap="round" stroke-linejoin="round" stroke-miterlimit="10" d="M37.873 48.734l-2.582-1.127-2.583 1.127V4.761h5.165zm-8.811 0l-.549 6.708h22.974l-.739-6.708zM4.527 4.761h28.181v37.38H4.527zM71.19 42.14h4.754V4.76H71.19"/><path fill="none" stroke="#FFF" stroke-linecap="round" stroke-linejoin="round" stroke-miterlimit="10" d="M75.19 2.47H4.98c-1.459 0-2.642 1.211-2.642 2.706v36.585c0 1.5.006 2.694.006 2.694l30.364.008V4.761h5.165v39.703l39.934.01s.015-1.214.015-2.713V5.176c0-1.495-1.182-2.706-2.632-2.706z"/></svg>