<svg xmlns="http://www.w3.org/2000/svg" viewBox="0 0 79.9881363 58.559063"><path fill="#EFEFEF" d="M49.526 37.422h-19.74l-1.48 18.093h23.213z"/><path fill="#EFEFEF" d="M29.655 39.045l-1.168 14.238 22.496-2.617-1.281-11.621z"/><path fill="#E6E7E8" d="M79.988 41.611V3.307c0-1.828-1.454-3.307-3.24-3.307H3.233C1.451 0 0 1.479 0 3.307V41.61c0 1.564.005 2.822.005 2.822v.475h.012c.046 2.139 1.823 3.83 4.002 3.83h71.843c2.21 0 4.112-1.738 4.112-3.913h-.002v-.364c0-.007.016-1.3.016-2.85z"/><path fill="#58595B" d="M78.129 4.725c0-1.51-1.195-2.734-2.66-2.734H4.526c-1.473 0-2.669 1.223-2.669 2.734V41.69c0 1.515.006 2.723.006 2.723l76.25.02s.016-1.228.016-2.743V4.725z"/><path fill="#FFF" d="M4.069 4.305h72.162v37.77H4.069z"/><path fill="#E6E7E8" d="M55.637 57.675c0 .843-.688.884-1.537.884H25.724c-.848 0-1.535-.04-1.535-.884v-.644c0-.844 3.28-1.527 4.128-1.527H51.51c.847 0 4.126.683 4.126 1.527v.644zM39.276 4.305h36.955v37.77H39.276z"/><path opacity=".2" fill="#414042" d="M71.964 45.178l-32.688-3.103V4.305l32.688-2.736z"/><path fill="#F1F2F2" d="M70.855 44.433l-31.579-2.358V4.305l31.58-2.314z"/><path opacity=".2" fill="#231F20" d="M65.52 46.18l-26.244-4.105V4.305L65.52.835z"/><path fill="#F7F7F7" d="M64.364 44.433l-25.088-2.358V4.305l25.088-2.314z"/><path fill="#E6E7E8" d="M7.527 8.293h27.758V9.76H7.527zm0 2.918h27.758v1.467H7.527zm0 2.917h27.758v1.467H7.527zm0 2.919h27.758v1.467H7.527zm0 2.917h27.758v1.467H7.527zm0 5.836h27.758v1.467H7.527zm0-2.918h27.758v1.467H7.527zm0 5.836h27.758v1.467H7.527zm0 2.918h27.758v1.467H7.527zm0 2.919h27.758v1.467H7.527zm0 2.917h27.758v1.467H7.527zm54.69-31.228L49.279 8.406V6.81l12.938-2.368zm0 3.583l-12.938 1.754V9.985l12.938-1.959zm0 3.585l-12.938 1.343V13.16l12.938-1.55zm0 3.584l-12.938.933v-1.596l12.938-1.14zm0 3.584l-21.03.852v-1.468l21.03-1.186zm0 7.167l-21.03-.48V25.8l21.03.146zm0-3.583l-21.03.185v-1.467l21.03-.521zm0 7.167l-21.03-1.146v-1.467l21.03.812zm0 3.585l-21.03-1.813v-1.467l21.03 1.478zm0 3.584l-21.03-2.479v-1.466l21.03 2.144zm0 3.584l-21.03-3.145v-1.467l21.03 2.81z"/><path fill="#F17046" d="M43.314 14.864l-.678 3.328-.856.063 2.211-10.653 1.05-.193 2.384 10.425-.978.074-.744-3.304-2.39.26zm2.205-1.314l-.67-2.967c-.15-.665-.251-1.277-.35-1.87l-.02.002a50.67 50.67 0 0 1-.34 1.962l-.649 3.116 2.029-.243z"/><path opacity=".2" fill="#414042" d="M37.429 48.738l-2.61-1.14-2.61 1.14V4.305h5.22z"/><path fill="#F17046" d="M37.763 48.738l-2.61-1.14-2.61 1.14V4.305h5.22z"/></svg>