<?xml version="1.0" encoding="utf-8"?>
<!-- Generator: Adobe Illustrator 17.0.0, SVG Export Plug-In . SVG Version: 6.00 Build 0)  -->
<!DOCTYPE svg PUBLIC "-//W3C//DTD SVG 1.1//EN" "http://www.w3.org/Graphics/SVG/1.1/DTD/svg11.dtd">
<svg version="1.1" id="Слой_1" xmlns="http://www.w3.org/2000/svg" xmlns:xlink="http://www.w3.org/1999/xlink" x="0px" y="0px"
	 width="20.904px" height="19px" viewBox="150.97 47.437 20.904 19" enable-background="new 150.97 47.437 20.904 19"
	 xml:space="preserve">
<title>iOS - Send a Message</title>
<desc>Created with Sketch.</desc>
<path fill="#999999" stroke="#999999" stroke-miterlimit="10" d="M169.843,47.937h-16.842c-0.842,0-1.531,0.689-1.531,1.531v11.483
	c0,0.842,0.689,1.531,1.531,1.531h2.297v3.062c0,0.383,0.23,0.536,0.536,0.23l3.292-3.292h10.718c0.842,0,1.531-0.689,1.531-1.531
	V49.468C171.374,48.626,170.685,47.937,169.843,47.937z M170.609,60.951c0,0.459-0.306,0.766-0.766,0.766h-10.718
	c-0.23,0-0.383,0.077-0.536,0.23l-2.526,2.526v-1.99c0-0.459-0.306-0.766-0.766-0.766h-2.297c-0.459,0-0.766-0.306-0.766-0.766
	V49.468c0-0.459,0.306-0.766,0.766-0.766h16.842c0.459,0,0.766,0.306,0.766,0.766V60.951z"/>
<g>
	<path fill="#999999" stroke="#999999" stroke-miterlimit="10" d="M164.068,52.217l-5.669,5.669c-0.245,0.245-0.245,0.643,0,0.888
		c0.245,0.245,0.643,0.245,0.888,0l5.669-5.669c0.245-0.245,0.245-0.643,0-0.888C164.711,51.972,164.314,51.972,164.068,52.217"/>
	<path fill="#999999" stroke="#999999" stroke-miterlimit="10" d="M158.399,53.105l5.669,5.669c0.245,0.245,0.643,0.245,0.888,0
		c0.245-0.245,0.245-0.643,0-0.888l-5.669-5.669c-0.245-0.245-0.643-0.245-0.888,0C158.154,52.463,158.154,52.86,158.399,53.105"/>
</g>
</svg>
