<?xml version="1.0" encoding="utf-8"?>
<!-- Generator: Adobe Illustrator 17.0.0, SVG Export Plug-In . SVG Version: 6.00 Build 0)  -->
<!DOCTYPE svg PUBLIC "-//W3C//DTD SVG 1.1//EN" "http://www.w3.org/Graphics/SVG/1.1/DTD/svg11.dtd">
<svg version="1.1" id="Слой_1" xmlns="http://www.w3.org/2000/svg" xmlns:xlink="http://www.w3.org/1999/xlink" x="0px" y="0px"
	 width="88px" height="99.689px" viewBox="0 0 88 99.689" enable-background="new 0 0 88 99.689" xml:space="preserve">
<g>
	<path fill="#455773" d="M15.653,50.166h21.344c1.159,0,2.099-0.94,2.099-2.099s-0.94-2.099-2.099-2.099H15.653
		c-1.159,0-2.099,0.94-2.099,2.099C13.554,49.227,14.494,50.166,15.653,50.166z"/>
	<path fill="#455773" d="M48.54,59.61H15.653c-1.159,0-2.099,0.94-2.099,2.099s0.94,2.099,2.099,2.099H48.54
		c1.159,0,2.099-0.94,2.099-2.099S49.699,59.61,48.54,59.61z"/>
	<path fill="#455773" d="M48.54,73.252H15.653c-1.159,0-2.099,0.94-2.099,2.099s0.94,2.099,2.099,2.099H48.54
		c1.159,0,2.099-0.94,2.099-2.099S49.699,73.252,48.54,73.252z"/>
	<path fill="#455773" d="M87.988,21.271c0.015-0.146,0.015-0.294,0-0.441v-0.063c-0.041-0.16-0.101-0.315-0.178-0.462l-0.063-0.115
		c-0.093-0.157-0.206-0.302-0.336-0.43L66.886,0.546C66.493,0.189,65.979-0.006,65.448,0H32.53c-5.795,0-10.494,4.698-10.494,10.494
		v5.247H10.494C4.698,15.74,0,20.439,0,26.234v62.961c0,5.795,4.698,10.494,10.494,10.494h44.965
		c5.795,0,10.494-4.698,10.494-10.494v-5.247h11.543c5.795,0,10.494-4.698,10.494-10.494V21.271H87.988z M67.547,6.957L80.58,19.172
		H69.646c-1.159,0-2.099-0.94-2.099-2.099C67.547,17.073,67.547,6.957,67.547,6.957z M61.755,89.216
		c0,3.477-2.819,6.296-6.296,6.296H10.494c-3.477,0-6.296-2.819-6.296-6.296V26.255c0-3.477,2.819-6.296,6.296-6.296h30.82v12.855
		c0,3.477,2.819,6.296,6.296,6.296h14.145V89.216z M45.511,32.813V22.698l13.033,12.214H47.609
		C46.45,34.912,45.511,33.973,45.511,32.813z M77.495,79.772H65.952V65.26h5.499c1.159,0,2.099-0.94,2.099-2.099
		c0-1.159-0.94-2.099-2.099-2.099h-5.499v-9.444h5.499c1.159,0,2.099-0.94,2.099-2.099s-0.94-2.099-2.099-2.099h-5.499V37.01
		c0.004-0.579-0.232-1.133-0.651-1.532L44.849,16.286c-0.393-0.357-0.907-0.552-1.438-0.546H26.234v-5.247
		c0-3.477,2.819-6.296,6.296-6.296h30.82v12.876c0,3.477,2.819,6.296,6.296,6.296h14.145v50.107
		C83.791,76.953,80.972,79.772,77.495,79.772z"/>
</g>
</svg>
