<?xml version="1.0" encoding="utf-8"?>
<!-- Generator: Adobe Illustrator 17.0.0, SVG Export Plug-In . SVG Version: 6.00 Build 0)  -->
<!DOCTYPE svg PUBLIC "-//W3C//DTD SVG 1.1//EN" "http://www.w3.org/Graphics/SVG/1.1/DTD/svg11.dtd">
<svg version="1.1" id="Слой_1" xmlns="http://www.w3.org/2000/svg" xmlns:xlink="http://www.w3.org/1999/xlink" x="0px" y="0px"
	 width="95px" height="93.164px" viewBox="0 0 95 93.164" enable-background="new 0 0 95 93.164" xml:space="preserve">
<g>
	<path fill="#455773" d="M89.105,8.954H73.809V2.836C73.809,1.821,72.987,1,71.974,1s-1.836,0.821-1.836,1.836v6.118H24.862V2.836
		C24.862,1.821,24.04,1,23.026,1c-1.013,0-1.836,0.821-1.836,1.836v6.118H5.895C3.203,8.954,1,11.157,1,13.849V87.27
		c0,2.692,2.203,4.895,4.895,4.895h83.211c2.692,0,4.895-2.203,4.895-4.895V13.849C94,11.157,91.797,8.954,89.105,8.954z
		 M4.671,13.849c0-0.663,0.56-1.224,1.224-1.224h15.296v6.118c0,1.014,0.822,1.836,1.836,1.836c1.013,0,1.836-0.821,1.836-1.836
		v-6.118h45.276v6.118c0,1.014,0.822,1.836,1.836,1.836s1.836-0.821,1.836-1.836v-6.118h15.296c0.663,0,1.224,0.56,1.224,1.224
		v12.849H4.671V13.849z M89.105,88.493H5.895c-0.663,0-1.224-0.56-1.224-1.224V30.368h85.658V87.27
		C90.329,87.933,89.768,88.493,89.105,88.493z"/>
	<path fill="#455773" d="M89.105,8.954v-1H74.809V2.836c0-1.568-1.27-2.835-2.835-2.836c-1.566,0.001-2.835,1.268-2.836,2.836v5.118
		H25.862V2.836C25.861,1.268,24.592,0.001,23.026,0c-1.566,0.001-2.835,1.268-2.836,2.836v5.118H5.894
		C2.646,7.958,0.004,10.6,0,13.849V87.27c0.004,3.249,2.646,5.891,5.895,5.895h83.211c3.249-0.004,5.891-2.646,5.895-5.895V13.849
		c-0.004-3.249-2.646-5.891-5.895-5.895L89.105,8.954l0.001,1c1.07,0,2.039,0.436,2.75,1.145c0.709,0.71,1.145,1.679,1.145,2.75
		V87.27c0,1.07-0.436,2.039-1.145,2.75c-0.71,0.709-1.679,1.145-2.75,1.145H5.895c-1.07,0-2.039-0.436-2.75-1.145
		C2.436,89.309,2,88.34,2,87.27V13.849c0-1.07,0.436-2.039,1.145-2.75c0.71-0.709,1.679-1.145,2.75-1.145h16.296V2.836
		C22.192,2.374,22.565,2.001,23.026,2c0.461,0.001,0.835,0.374,0.836,0.836v7.118h47.276V2.836C71.139,2.374,71.513,2.001,71.974,2
		c0.461,0.001,0.835,0.374,0.836,0.836v7.118h16.296L89.105,8.954L89.105,8.954z M4.671,13.849h1l0.07-0.153l0.153-0.07H20.19v5.118
		c0.001,1.567,1.27,2.835,2.836,2.835c1.565,0,2.835-1.268,2.836-2.835v-5.118h43.276v5.118c0.001,1.567,1.27,2.835,2.836,2.835
		c1.565,0,2.835-1.268,2.836-2.835v-5.118h14.296l0.153,0.07l0.07,0.153v11.849H5.671V13.849L4.671,13.849l-1,0v13.849h87.658
		V13.849c-0.015-1.234-0.99-2.209-2.224-2.224H72.809v7.118c-0.001,0.462-0.375,0.835-0.836,0.836
		c-0.461-0.001-0.835-0.374-0.836-0.836v-7.118H23.862v7.118c-0.001,0.462-0.375,0.835-0.836,0.836
		c-0.461-0.001-0.835-0.374-0.836-0.836v-7.118H5.895c-1.234,0.015-2.209,0.99-2.224,2.224H4.671z M89.105,88.493v-1H5.895
		l-0.153-0.07l-0.07-0.153V31.368H89.33v55.901l-0.07,0.153l-0.153,0.07v1.001v1c1.234-0.015,2.209-0.99,2.224-2.224V29.368H3.671
		V87.27c0.015,1.234,0.99,2.209,2.224,2.224h83.211L89.105,88.493L89.105,88.493z"/>
	<path fill="#455773" d="M57.904,51.582c-0.787-0.64-1.943-0.52-2.582,0.266l-9.667,11.889l-6.225-5.186
		c-0.779-0.649-1.936-0.543-2.584,0.235c-0.649,0.778-0.543,1.936,0.235,2.584l7.65,6.375c0.378,0.313,0.865,0.464,1.352,0.417
		c0.487-0.048,0.939-0.289,1.248-0.669L58.17,54.161C58.809,53.379,58.691,52.222,57.904,51.582z"/>
	<path fill="#455773" d="M57.904,51.582l0.631-0.776c-0.523-0.426-1.162-0.637-1.788-0.636c-0.82-0.001-1.642,0.359-2.201,1.046
		L45.517,62.32l-5.447-4.538c-0.528-0.44-1.177-0.658-1.814-0.657c-0.808-0.001-1.62,0.349-2.179,1.02
		c-0.44,0.527-0.658,1.176-0.657,1.814c-0.001,0.808,0.349,1.62,1.02,2.179l7.65,6.375l0.002,0.002
		c0.513,0.425,1.155,0.655,1.816,0.655l0.268-0.013l0.009-0.001l-0.005,0.001c0.753-0.074,1.446-0.444,1.926-1.033l10.84-13.332
		l-0.001,0.001c0.426-0.522,0.637-1.16,0.636-1.786c0.001-0.82-0.359-1.642-1.047-2.201L57.904,51.582l-0.631,0.776
		c0.205,0.167,0.307,0.403,0.309,0.65c-0.001,0.187-0.059,0.366-0.186,0.522l-10.84,13.333c-0.139,0.171-0.348,0.284-0.57,0.305
		h0.003l-0.08,0.004c-0.194,0-0.387-0.068-0.54-0.196l0.002,0.002l-7.65-6.375c-0.2-0.167-0.299-0.399-0.3-0.643
		c0.001-0.191,0.062-0.375,0.193-0.533c0.167-0.2,0.399-0.299,0.642-0.3c0.191,0.001,0.375,0.062,0.535,0.194l7.002,5.833
		L56.099,52.48c0.166-0.204,0.402-0.307,0.649-0.308c0.188,0.001,0.368,0.06,0.526,0.187L57.904,51.582z"/>
	<path fill="#455773" d="M47.5,38.322c-11.489,0-20.803,9.313-20.803,20.803S36.011,79.928,47.5,79.928s20.803-9.313,20.803-20.803
		S58.989,38.322,47.5,38.322z M47.5,76.257c-9.447,0-17.132-7.685-17.132-17.132S38.053,41.993,47.5,41.993
		s17.132,7.686,17.132,17.132C64.632,68.572,56.947,76.257,47.5,76.257z"/>
	<path fill="#455773" d="M47.5,38.322v-1c-12.042,0.001-21.802,9.761-21.803,21.803c0.001,12.042,9.761,21.802,21.803,21.803
		c12.042-0.001,21.802-9.761,21.803-21.803C69.302,47.083,59.542,37.323,47.5,37.322V38.322v1c5.472,0.001,10.416,2.215,14.003,5.8
		c3.585,3.587,5.799,8.531,5.8,14.003c-0.001,5.472-2.215,10.416-5.8,14.003c-3.587,3.585-8.531,5.799-14.003,5.8
		c-5.472-0.001-10.416-2.215-14.003-5.8c-3.585-3.587-5.799-8.531-5.8-14.003c0.001-5.472,2.215-10.416,5.8-14.003
		c3.587-3.585,8.531-5.799,14.003-5.8V38.322z M47.5,76.257v-1c-4.449,0-8.477-1.807-11.401-4.73
		c-2.923-2.925-4.73-6.952-4.73-11.401s1.807-8.477,4.73-11.401c2.925-2.923,6.952-4.73,11.401-4.73s8.477,1.807,11.401,4.731
		c2.923,2.925,4.73,6.952,4.73,11.401s-1.807,8.477-4.73,11.401c-2.925,2.923-6.952,4.73-11.401,4.73V76.257v1
		c10.001-0.002,18.13-8.131,18.132-18.132c-0.002-10-8.13-18.13-18.132-18.132c-10.001,0.002-18.13,8.131-18.132,18.132
		c0.002,10.001,8.131,18.13,18.132,18.132C47.5,77.257,47.5,76.257,47.5,76.257z"/>
</g>
</svg>
