<svg id="Слой_1" xmlns="http://www.w3.org/2000/svg" viewBox="-447 245 64.8 71"><style>.st0{fill:#f17046}.st1{fill:#fff}.st2{opacity:.5;fill:#455a64;enable-background:new}.st3{fill:#facb6b}.st4{fill:#ecf0f1}.st5{opacity:.3;fill:#455a64;enable-background:new}.st6{fill:#f1f2f2}.st7{fill:#576877}.st8{fill:#e6e7e8}.st9{fill:#d1d3d4}.st10{fill:#63c4c9}</style><path class="st0" d="M-440 307.6h32.5v8.2H-440z"/><path class="st1" d="M-438.2 309.4h4.7v4.7h-4.7zm7.4 0h14.9v4.7h-14.9z"/><path class="st2" d="M-440 307.6l32.4 6.5v-9.9z"/><path class="st3" d="M-440 299.3h32.5v8.2H-440z"/><path class="st1" d="M-430.8 299.3h1.6v8.2h-1.6z"/><path class="st4" d="M-435.8 305.6c1.3 0 2.3-1 2.3-2.3 0-1.3-1-2.3-2.3-2.3-1.3 0-2.3 1.1-2.3 2.3-.1 1.3 1 2.3 2.3 2.3z"/><path class="st5" d="M-407.6 299.3l-12.4 16.5 13.9.2z"/><path class="st0" d="M-397.6 280.1h5.6V316h-5.6z"/><path class="st3" d="M-392 277h9.9v39h-9.9z"/><path class="st5" d="M-392 277l-7.8 39h11.8z"/><path class="st6" d="M-407.6 277h9.9v39h-9.9z"/><path class="st7" d="M-405.5 280.1h5.6v5.6h-5.6zm0 8.9h5.6v18h-5.6z"/><path class="st8" d="M-427.6 290.8h6.9v5.3h-6.9z"/><path transform="rotate(144.069 -423.273 267.931)" class="st6" d="M-424.2 242.9h1.9V293h-1.9z"/><path transform="rotate(144.037 -422.838 267.603)" class="st9" d="M-423.3 242.6h.8v50.1h-.8z"/><path class="st10" d="M-408.2 256.3c6.5 8.6 4.7 20.9-3.9 27.4s-20.9 4.7-27.4-3.9-4.7-20.9 3.9-27.4 20.9-4.7 27.4 3.9z"/><path class="st1" d="M-407 258.4c-.3-.3-.6-1.1-1.2-1.9-.1-.1-.4.6-.5.7-.3 0-.4.3-.7.2 0 0 1.1-1 .7-1.1v-.1h-.1v-.3l-.1-.1c-.4-.6-.9-1.1-1.4-1.6 0 0-.7.4-.6.4h.1s0 .1.1.1v.1c.2.1.4-.1.6-.1 0 0 0 .1.1.1s.3 0 .3.1c.2 1.2-.7.4-1.2 1.4v.1c.3 0 .4.8.5 1 0 0 .4.3.3.4-.1 0 .4-.2.4-.2.1 0 .2.1.3.1 0 .4-.6 1.2-.1 1.6 0 .9-.5 1.6-.4 2.6.1.1.1.1.2.1v.2s.1.1.2.1c0 0 .1.7.2.7v.1h.1s-.1 0 0 .1l.1.1c0 .1.2.2.2.2s.1-.1.2-.1v.1c.6 1.1 2.8.4 3.4-.3-.3-1.7-.8-3.3-1.7-4.8 0 0 .9 1.5 0 0zm-32.8 7.9l.1-.2-.1.2zm3.5 9.9s.1-.1 0 0c0-.1-.1-.1-.1-.1h-.1c0 .1.2.5.2.1.1 0 .1 0 0 0 0 0 .1 0 0 0zm-4.1-8.8s.1-.1 0 0v-.1s0-.1.1-.1c0 0-.1 0-.1-.1 0 0 .1 0 0 0l-.1-.1s-.1.3 0 .3l.1-.1c-.2.4 0-.1-.2.2v.1h-.1v.1h.1c.1.1.3 0 .4-.2v-.1s.1 0 .1-.1c-.2.2-.3.1-.3.2 0 0 0-.1 0 0zm-.2.2c.1 0 .1 0 0 0 0 0 .1 0 0 0zm-1.5 1.7c-.1 0-.3.3-.1.2.1 0 .2-.2.2-.2h-.1c-.1 0 0 0 0 0zm2.5-3.3s.1 0 0 0zm3.9.5h.2c-.2 0-.2-.1-.3-.2h-.1v-.2c-.1 0-.2 0-.2.1l.1.1c.2.2.4.3.6.3-.1 0-.2 0-.3-.1zm1.7-10.3c-.1.1-.2.1-.3.2.2.1.3-.1.3-.2 0 0 0 .1 0 0zm6.8.5c.1-.1.1-.1.1-.2s-.1-.2-.2-.3c-.1-.1-.2 0-.3.1-.1.1-.1.2 0 .3.1.2.2.2.4.1 0-.1-.1 0 0 0zm-.6-.6s0 .1 0 0c.2 0 .1 0 0 0zm-6.2.8c.1-.1 0-.1 0 0v-.2s-.1-.1-.2-.1v.1h.1v.1c-.1.1 0 .1.1.1.1-.1-.1 0 0 0z"/><path class="st1" d="M-434.3 256.4c.2 0 .3-.2.3-.2-.1.1-.1.1-.2.1 0 0 .1 0 .1-.1h-.3s0 .1.1.2c0 0-.1 0 0 0zm7.5-.2c-.1 0-.2 0-.2.1v.1c0-.1.2-.2.2-.2-.1 0 0 0 0 0zm2.3 1.7l-.1.1.1-.1zm-10.1-1.8c.1 0 0-.1 0-.1.1-.1-.2-.2-.3-.1-.1 0 0 .1.1.1-.3 0 .1.2.2.1.1 0-.1.1 0 0zm.6-.6c.1 0-.2 0-.2.1-.1 0 0 0 .2-.1zm9.8 1.8c.1 0 .2.1.1 0 0 0 0-.1-.1 0l.1-.1-.1-.1s-.1 0 0 0c0 0 .1 0 0 0 0 0-.1 0 0 0-.1.1 0 .1 0 .2 0-.1 0-.1 0 0 0 0-.1 0 0 0 0 0-.1 0 0 0zm-5.2-3.4l-.1.1.1-.1zm7.3 6.5c.1 0 .3-.1.3-.1 0-.1-.1 0-.2 0 .1 0 .1 0 .1-.1-.2-.1-.4 0-.6.1.1 0 .2 0 .4.1-.2-.1-.2 0-.2 0h.2c.1 0-.1 0 0 0z"/><path class="st1" d="M-433.3 256.4c.1-.1 0 0 0 0 .2.1.4 0 .5-.2h-.1v-.1h.1l-.1-.1-.4-.4c-.1.1-.2.2-.3.2-.1 0-.1 0-.1-.1l-.2.2.1-.1s0 .1.1.1l-.2.2c-.1.1 0 0 .1 0 0 0 0 .1-.1.1h.1l-.1.1c-.1.1-.1.2-.2.2l.3-.3c-.1.1-.2.1-.2.3.1-.1.3-.2.4-.3.1.1.2.1.3.2-.1-.1-.1 0-.1 0h.1c.1-.1-.1 0 0 0zm-.2-.5c.1 0 .1 0 0 0h-.1c0 .1 0 0 .1 0s-.1 0 0 0zm.1.1c0 .1 0 .1 0 0 0 .1 0 .1 0 0 0 .1 0 0 0 0 0 .1 0 0 0 0zm-.2-.2c.1 0 .1 0 0 0 0 .1 0 .1 0 0 .1 0 0 0 0 0zm-.1.1c-.1 0 0 0 0 0zm0-1.1s.1 0 0 0l.1.1h.3l-.1.1c.1 0 .2 0 .3-.1 0 0 0 .1.1.1s.4-.2.4-.2c.1-.1.1-.2 0-.2h-.1c0-.1.1-.2 0-.1l-.4.2h-.1v-.2h-.1s0-.1.1-.1c-.2.1-.5.1-.7.2.1.1.2.1.2.2.1-.1.1-.1 0 0zm6.2 3.4s0-.1 0 0c0-.1-.1-.1-.2-.1 0 0-.1.1-.2.1v-.1c-.1-.1-.8.1-.8 0l.1.1c-.1 0-.1-.1-.2-.1l-.1.1c0 .1.1.4.2.5 0 .1-.1.2 0 .2h.1v.2s.2-.1.2-.2l.1.1c0 .1.1 0 .1 0 .1-.1.1-.3.2-.4.1 0 .2 0 .2-.1 0 0 0 .1.1.1h.3c-.1-.2-.1-.3-.1-.4 0 0 0 .1 0 0zm-4.6.4c0-.1 0 0 0 0-.1.1-.1.1 0 .1v-.1c0-.1 0 0 0 0zm-.2-3s-.1-.1-.1 0h.1zm5.3 3.2c0-.1 0-.2-.1-.3-.1 0-.1.1-.1.1l.1.1c-.1.1 0 .1.1.1 0-.1-.1 0 0 0zm.9 2.5c-.1.1 0 .1.2 0-.1-.1-.2-.1-.2 0-.1 0 0-.1 0 0zm-5.8-5.4c0-.1-.1-.2-.1-.2v-.1h-.4c-.1 0-.2.3-.1.3v.1c.2.1.4.1.6-.1 0 0-.1.1 0 0zm3.5 2.1c.1-.1-.2-.1-.2-.1-.1 0 .1.1.2.1z"/><path class="st1" d="M-427.7 259c.1 0 .1-.3.1-.3h-.1v-.1c0-.1-.4.3-.2.3v.1h.2c0-.1-.1 0 0 0zm-1.7-4.6c0-.1 0-.2-.1-.2v-.1c-.1.1-.3 0-.4.1-.3.2-.5.4-.8.5-.1 0-.1.1 0 0-.1 0-.4.1-.5.2v.1h-.2v-.1h-.1.1c-.1 0-.3 0-.4.1.1-.1.2-.2.3-.2h-.1l-.1-.1c-.1 0 0 0 0 .1-.1 0-.1.1-.2.1.1 0 .1-.1.1-.1-.1 0-.4.2-.5.3v-.1c-.3-.1-.4.2-.7.3v.2h.2v.1c.3-.2.6-.2.9-.1v.1l.1.1c.1.1.2.1.3.2l.1-.1h.2l.2-.2c.3.1.7-.1.9-.4v-.1c.1-.2.6.1.7-.3v-.4zm-2.2.6c-.1.1-.2.1-.1.1 0-.1 0-.1.1-.1-.1 0-.1 0 0 0zm-.7.2zm-4.4 1.6c-.1.1.1.1.2.1 0 0 0-.1-.1-.1 0 0-.1-.1-.2-.1l.1.1c-.1.1 0 0 0 0zm9.8 1.4c.1 0 0-.1 0-.1h-.1v-.1h-.2s0 .1.1.1h-.1c.1 0 .3.1.3.1.1-.1 0 0 0 0zm1.6-.7c0-.1-.1 0-.2 0-.1.1.2.1.2 0zm-7.1 1.4c.1 0 0-.1 0 0zm4.1-6.3c-.1 0-.2.1-.2.1.1 0 .3-.1.2-.1zm.2 3.9l.1-.2c-.1 0-.1.2-.1.2zm7.4 11s-.1 0 0 0c-.1.1 0 0 0 0zm9.3-14.5c-.1.1 0 .1 0 0 0 .1 0 0 0 0zm-13.8 10.1l-.3.1c.1 0 .3 0 .3-.1zm12 19.4c.1.1.1.1 0 0 .1 0 .1 0 0 0 .1.1 0 0 0 0zm-.7-1.8c-.1 0-.1 0 0 0-.1 0 .1.1 0 0 .1 0 .1 0 0 0zm1 2h.3-.3zm-6.3-15.2c.1-.1.3-.2.3-.2h-.2c-.2.1-.2.2-.1.2.1-.1-.1 0 0 0zm-4.2-14.5s.1-.1 0 0c0-.1 0-.1 0 0-.1-.1-.1 0 0 0z"/><path class="st1" d="M-419.9 267.7c.1-.1.3-.1.3-.2h-.1v-.1c0-.1-.8 0-.8 0s.1 0 0 0c-.1.1-.3 0-.3.1h.1v.1l.2.1s-.1.1-.1 0c-.1-.1-.1 0-.2.1-.1 0 0 .1 0 .1.1 0 .3-.1.4-.2v.1h-.2l-.1.1c-.1 0 0 .1 0 .1.2-.2.4-.2.6-.2v-.1c0 .1.2 0 .2 0 .1 0 0 0 0 0zm-1.5.9c-.1 0 .5-.1.4-.1h-.2s.1 0 .1-.1h-.3c-.1 0-.3.1-.1.1.1 0 .1 0 .1.1 0-.1-.1 0 0 0s-.1 0 0 0z"/><path class="st1" d="M-420.8 267.8c-.1 0-.1 0 0 0-.1-.1 0-.1-.1-.1-.3-.5-2.1.3-2.2.7.1 0 .1 0 .1-.1 0 .1 0 .1-.1.2 0-.1.4-.4.5-.4v.1c0-.1.6-.1.7-.2l.3.1s0 .1 0 0h.1v.2c0-.1.7-.5.7-.5-.1 0 0 .1 0 0zm-2 .3c0-.1.1-.1.2-.1-.1 0-.2.1-.2.1zm10.5-15.7s-.1.1 0 0c0 .1.1.1 0 0 .1 0 .1-.1 0 0zm1.1.9s-.1 0 0 0c0 .1-.1.1-.1.1h.1c0 .1 0 .2-.1.3 0 0 0 .1.1 0v.1s.1.1.1 0c0 0 0-.1.1-.1h.1s-.1.1-.1 0c0 .1.1.3 0 .4 0 0 .1 0 .1-.1 0 .1 0 .1-.1.2.2-.1.3-.4.4-.4h.2l-.1-.1-.2-.2-.3-.3s-.1.1-.2.1-.1 0 0 0zm-1.3-1s0-.1 0 0c.1.1.1 0 .1-.1l-.1-.1-.1-.1c.1.1.1.2.1.3-.1-.1 0-.1 0 0 0 0 0-.1 0 0zm.5.1zm-.1 0l.1.1s0 .1.1 0v.2s0-.1.1-.1v.1s0-.1.1-.1v.1h.1s0-.1-.1-.1c0 0-.1 0-.1-.1-.1-.1-.1-.1-.2-.1v.1l-.1-.1h.1s-.1-.1-.1 0c0-.1 0 0 0 0zm-13.7-4h.2c-.1 0-.2.1-.2 0-.2.1-.1.1 0 .1s.2 0 .3-.1c.1 0 .1-.1 0-.1h.2c-.2.1-.3.1-.5.1.1 0 .2 0 0 0z"/><path class="st1" d="M-427.3 249.6c0 .1 0 .1 0 0 0 .1.2.2.1.2s-.3.1-.4.1c0 .1.1.1.1.2-.1 0-.2 0-.3.1-.1.2-.3.4-.4.6h.1v.1c0 .1.5-.2.6-.2l.1.2c-.1.4-1.2.8-1.2 1.1 0 0-.1.3 0 .3v.1c.1 0 .1 0 .2.1.1-.1.3-.1.4-.2 0 .1 0 .1.1.1h.1c.4-.2-.3.2-.3.2 0 .1-.1.1 0 .1 0 0-.1.1 0 .1h.5v.1c.2.1.4 0 .6-.1 0 0-.2 0-.1-.1.1 0 .2-.1.2-.2.1.1 0 .1.1.1.4-.3 1-.8 1.5-.6v.1c.1.1.7.3.9.4v.1s0 .1 0 0c0 0 0-.1.1-.1 0 0 .1 0 .1.1l.1.1s-.1 0-.1-.1h-.1s.1 0 0 0c0 0-.1.1 0 .1h.1s-.1.1 0 .1h.1s-.1.1 0 .1h.1s.3.3.4 0v-.2h.1c0 .1-.1.2 0 .1.1 0 .2 0 .3-.1-.1 0-.1.1-.1.1.1 0 .1 0 .2.1-.1 0-.2 0-.4.1 0 0 0-.1 0 0v.1c-.1 0-.1 0 0 .1h.1s-.1.1 0 .1c-.1 0-.2.1-.1.1h.1l-.1.1v.2s0 .1 0 0c.1 0 .2-.1.2-.1v.1c.2-.1.3-.2.3-.3h-.1s.1-.1 0-.1c0 0-.3.1.1-.1v.2s0 .1.1 0c0 0 .1-.1 0-.1h-.1v-.1s0 .1.1.1c-.1 0 0 .1 0 .1h.1s0 .1-.1.1v.2c0 .1-.1.1-.2.1 0 .1-.1.1-.1.1h.1s0 .1-.1.1c0 .1 0 .1-.1.2 0 0 0 .1 0 0 0 0 0-.1.1-.1 0 .1-.1.1-.1.2 0 0 0 .1 0 0l.1-.1-.1.1s0 .1 0 0l.1-.1-.1.1h.2c-.1 0-.2.1-.1.1l.1.1s.1.1.1 0l.1-.1c0 .1-.1.1-.1.1h.1c.1.1.1.1.2 0 0 .1.1.1.1.1v.1c.1.2.1.1.1-.1l.1.1v.1h.1v.1h.1v.1s0-.1.1 0c.1 0 0 .1.1.1s.1.1.1.1h.2c.1 0 .1 0 .1-.1 0 .1 0 .1.1.1.1.1.7 0 .7-.1 0 0 .1 0 .1.1v-.1h.1v.1h.2v.1c0-.1.1 0 .1 0s0-.1.1-.1l.1.1c0-.1.1-.1.1-.2h-.1l.1-.1h-.1c0-.1.1-.1 0-.1l.1-.2h-.1l.1-.1-.1-.2v-.1c.1 0 .2-.1.1-.1h-.1c.1 0 .1-.1.2-.1h-.1s.2-.1.1-.1c0-.1 0-.1-.1-.1 0 0 .1 0 .1-.1 0 0 0-.1-.1-.1 0 0 .1 0 0 0l.1-.1h-.1s.1 0 0-.1l-.1-.1s.1-.1.1 0c0-.1.1-.1.1-.1h-.1s.1-.1 0-.1c.1 0 .3-.2.3-.2s-.1 0-.1-.1 0-.1.1-.2v.2c0-.1.1-.1.1-.2.1 0 .7-1 .6-1.1l-.1-.1-.1-.1c.1 0 .2.1.3 0l.2-.2s-.1 0 0-.1c.2-.2 1.4-1.4 1-1.3.1-.1.1-.2.1-.2-.3.2-.6.3-.9.4.1-.1.2-.1.2-.2s-.1-.1-.1-.2c.1-.1 0-.1-.1 0 .2-.1.4 0 .5.1.2 0 .2-.1.2-.2 0 0 .1.1.1 0 0 .1-.1-.7-.2-.5 0 0 0 .1-.1.1v-.1h-.3c.1 0 .3 0 .3-.1 0 0-.1 0-.1-.1h.1s0-.1-.1-.1c.3.1-.1-.1-.1 0-.1 0-.2-.1-.2-.1s-.1 0-.1.1h-.1c-.1 0-.2.1-.2.1s.2-.1.3-.1c-.1 0-.1.1-.1.1h.1v.1h.1-.2v-.1h-.2c.2-.1.2-.1 0-.1 0-.1.1-.1 0-.1.1-.1.2-.1.3-.1h-.1s-.1 0-.1.1h-.1l-.2-.1h.3c-2.2-.6-4.5-.9-6.9-.7h.2c-.1 0-.5.1-.6.1h.1-.2c-.1 0 0 .1 0 .1 0 .1-.1.2-.1.3 0-.1-.1-.4-.2-.3-.4.1-.6.5-.9.7h.1c-.2 0-.3.1-.4.2.2.7.2.7.3.7 0 .1 0 0 0 0zm-.1 2.4zm-.3.2l.3-.1c-.1.1-.3.2-.3.1-.1.1-.1.1 0 0 0 .1-.1.1 0 0zm4.4.5zm-.1.1c-.1 0-.1 0 0 0-.1 0 0 0 0 0-.1 0 0 0 0 0zm.2.2c.1 0 .1-.1 0 0 .1-.1.2-.1.2 0h-.2zm-.1.3c.1 0 0 0 0 0zm.7 1.2c0 .1 0 0 0 0zm.3-.4s-.1.1 0 0c-.1 0-.1 0 0 0zm-.2-.1zm0-.1zm0 .1s-.1.1 0 0c-.1 0-.1 0 0 0 0 0-.1 0 0 0zm.2-.1h-.3c.1-.1.2-.1.3 0-.1-.1-.1-.1 0 0-.1-.1-.1 0 0 0 0-.1 0-.1 0 0 0-.1 0-.1 0 0zm-.2-.2s-.1 0 0 0c-.1.1-.1.1 0 0-.1 0-.1 0 0 0zm-.1-.1c0 .1 0 .1-.1.1l.1-.1s-.1.1 0 0zm-.2.4c0-.1 0-.1 0 0 0-.1 0-.1 0 0 .1-.1.1-.1.2-.1-.1 0-.2.1-.2.1zm.9.8c.1 0 .1 0 0 0h.1c0 .1 0 .1-.1 0 .1.1.1.1 0 0 .1.1 0 .1 0 0 0 0 .1.1 0 0zm.2.1s0 .1 0 0c0 .1 0 .1 0 0zm1.4.5zm1.8-4.8l-.1.1c0-.1 0-.1.1-.2-.1 0 0 .1 0 .1.1-.1 0-.1 0 0 0 0 0-.1 0 0zm-.3-.9l.1-.1c-.1 0-.1 0-.1.1 0 0 0-.1 0 0zm0-.2c-.1 0-.1 0 0 0-.1 0-.1 0 0 0-.1 0 0 0 0 0-.1 0 0 0 0 0zm.5 1.1s-.1 0 0 0c-.1 0-.1 0 0 0-.1 0 0-.1 0 0 0-.1 0 0 0 0zm-.2-1.4s-.1 0 0 0zm-21.2 16.8l-.1.2.1-.2zm-2.4 3.2h-.1c-.1 0-.3.3-.1.2.1 0 .2-.2.2-.2zm-.4.5c0-.1-.1 0-.1.1v.2s.1 0 .1-.1v.2c0-.1.1-.1 0-.4 0 .1 0 .1 0 0 0 .1 0 .1 0 0 0 0 0 .1 0 0zm5.4-4.3c-.1.1-.1.1 0 0 0 0-.1.1 0 0zm1.9-10.1s0 .1 0 0c.1.1.2.1.2.1.1 0 0 0 .1-.1h.1c-.1 0-.1.1-.2.1h.2s-.1 0-.1.1c.2 0 .3 0 .4-.2.1 0 0 0-.1.1.2-.2.4-.1.6-.2.1 0 .2-.1.2-.2 0 0 0-.1-.1-.1-.1-.1-.2-.1-.3-.2.1.1-.5.1-.5.1 0 .1 0 .1-.1.1v-.1c-.2.1-.4.1-.5.2 0 .2.1.2.1.3zm.5 0zm0 .2s0-.1 0 0c.1-.1.1-.1 0 0 .1-.1 0-.1 0 0 0 0 0-.1 0 0zm10.1 2.4s.1-.1 0 0c0-.1-.1 0 0 0zm-9.3-1.7c-.1.1-.1.2-.2.3.1-.1.2-.2.2-.3-.1.1.1 0 0 0zm-.4-.7c-.1.1.1.1.2-.1.1-.1-.1 0-.2.1zm0-1.1c0 .1.1.1.2.1 0-.1-.1-.2-.1-.2-.1 0-.2.1-.2.2 0-.1 0-.1.1-.1 0 0-.1 0 0 0zm4.7-.5s.2-.1.1-.1l-.1.1zm7.4 13.2s0 .3.1.2c.1-.1 0-.1-.1-.2 0 0 .1 0 0 0zm-9.5-12.3c.1 0 .1-.1 0-.1-.1-.1-.1.1 0 .1z"/><path class="st1" d="M-433.8 253.6h.1s0 .1-.1 0l.1.1h-.1.1c-.1 0-.1.1-.2.1h.2s.1 0 0 0c0 .1-.1.1-.1.1s-.1 0 0 0c0 0 .1 0 .1.1.3.1.2 0 .3 0v.1c.2 0 .5-.3.6-.3-.1 0-.2.1-.3.3h.1c-.1.1.1.2.2.1s.2-.1.3-.1l-.1.1c.1 0 .5-.2.5-.2h.1l-.1-.1h.3v-.2l.1.1v-.1c0-.1 0-.1-.1-.1.1 0 .1 0 .2.1 0-.2.1-.3.2-.3-.1.1-.1.2-.2.2 0 0 0 .1.1.1-.1.1.3 0 .3 0 .1 0 .1 0 .1-.1h.1c0 .1-.1.1-.1.2h.1v.1l.1-.1c0 .1 0 .1-.1.2-.2 0-.2-.2-.4 0-.1.1-.3.1-.2.2h.1s-.1.1 0 .1.2.1.3 0c-.2.1-.3.2-.4.4l.1.1c0 .1.1.1.1.1s.1 0 .1-.1-.1-.1 0-.1c0 0 0 .1.1.1 0 0 .4-.2.3-.2 0 0-.1.1.1 0s.3-.1.3-.2h-.1.1v-.1h.2s-.1-.1 0-.1h.2c.1 0 .1-.1.1-.1-.1 0-.1 0 0-.1h.2s0 .1 0 0l.1-.1s-.1.2 0 .2c0 0 .6-.5.5-.6l-.1-.1c0-.1-.1-.1-.1 0-.1.1-.1.1-.2.1 0-.1.1-.1.1-.2v-.3c.1-.1.2-.2.4-.3h-.2s.3-.2.2-.2h-.2l.2-.2h-.1c.1-.1.1-.1 0-.1.1 0 .1-.1 0-.1 0 0 0-.1-.1 0-.1 0-.5.2-.4.2h-.1c-.1 0-.2.1-.1 0s.5-.3.6-.3c.1-.1.2-.1.2-.2h-.2c.1-.1.2-.1.1-.1h-.1c.2-.1.4 0 .5-.3v-.1l-.1.1c0-.1.1-.1.2-.2h-.1s.1-.1.2-.1c.2-.2.4-.9.7-1 0 0-.1.1-.3.2.1-.1.2-.2.2-.3-.4.1-.4.4-.7.5.2-.1 1.4-.9 1.3-1.1 0-.1 0-.1-.1 0v-.1c0-.1-.7.2-.8.1-.1 0-.1-.1-.1 0-.1.1-.2.2-.3.2 0 0-.1.1-.2.1.1-.1.2-.3.2-.2l-.9.4h.1s-.7.2-.6.2h.1c-.1 0-.9.4-.8.4h.2c-.2.1-.5.3-.7.3h.3c-.1.1-.2.1-.3.1-.1 0-.2.1-.3 0l.1.1h-.1c-.1 0-.3.1-.2.1h.2c-.1 0-.2.1-.1.1h.1l-.1.1h.2c-.1 0-.7.1-.8.2h.1l-.2.2c.1-.1.2-.1.2-.1 0 .1-.1.1-.2.1s0 .2-.1.2-.1-.1-.2 0c-.2.1-.4.5-.6.6.1 0 .2-.1.3-.1-.1.1-.2.1-.2.2.1 0 .2-.1.3-.2 0 .1 0 .1-.1.1l.1-.1v.1h.1v.1c.1.1.3-.1.4-.1-.1 0-.1.1-.1.1h.4c.1-.1.1-.1.1-.2h.1c0 .1-.1.1 0 .1.2-.1.4-.4.5-.4.1 0 .2-.1.3-.2l-.2.2s.1 0 .1-.1c-.1.1-.2.1-.1.1h.1l-.1.1h.4c-.1 0-1.2-.1-1.1.2l.1.2h.1l-.2.2v-.1c-.1 0-.1.1-.1 0v-.1h-.2v-.1s-.1-.1-.2 0-.2.1-.1.1h.1c-.1 0-.1.1-.1.1-.1 0-.1 0-.2-.1-.4.1-.8.1-1.1.2 0 0 .2-.1.2 0l-.2.1h.1c0 .1-.2.1-.2.2 0 0 0 .1 0 0h.1l-.1.1s0 .1 0 0c.4.4.2.4.2.4.1 0 0 0 0 0zm1.8-1.6s-.1.1 0 0c-.1 0 0 0 0 0zm1.6-1.2zm.5 1.8c-.1 0 0 0 0 0zm-.3 1s-.1 0 0 0zm.6-1.2zm-.2-.1zm-1.3 1.2c.1 0 .1.1 0 0 .1.1 0 .1 0 0 .1 0 0 0 0 0zm-.3-.1c.1 0 .1-.1 0 0 .1-.1.1 0 0 0 .1 0 0 0 0 0zm.7-.3s.1 0 0 0h-.1.1s-.1 0 0 0zm-.5 0c.4-.2 0 .1-.1.2 0 0 .1-.1 0-.1h-.1c.1-.1 0-.1 0-.1h.2zm.1.5s.1 0 0 0c0 0 .1 0 0 0zm.3.2l-.1.1.1-.1zm1-1.3s-.1 0 0 0l-.1.1c0-.1 0-.1.1-.1 0 0-.1 0 0 0zm-2.2.1l.3-.3-.3.3zm1.3-.5c.2-.3.3-.4.2-.3h.1c0 .1-.1.2-.2.2.1-.1.4-.2.3-.1-.2.1-.4.3-.6.4l.2-.2c.1-.1 0 0 0 0z"/><path class="st1" d="M-432.1 254.4s0 .2.1.2v.1c.1 0 .2-.1.3-.2 0 0 0-.1-.1 0v-.1c.1-.1-.2-.1-.3 0-.1 0 .1-.1 0 0zm-5.7 3.9c0 .1 0 .1 0 0l.1.1.3-.2h.2v-.2h.1c0-.1 0-.1-.1-.2.1 0 .1-.1.1-.2v.2h.1c-.1.1-.3.3-.2.3h.1c0 .1-.1.1 0 .1s.2 0 .2-.1.1-.3 0-.3l-.1.1v-.2l.1-.1v-.1l.1-.1-.1-.1v-.1s0-.1-.1-.1v-.2h-.1v-.1h-.2c-.1 0 0 0 0 .1-.1-.2-.8.9-.9 1l.4.4c-.1 0 0-.1 0 0zm5.6.2c-.1 0 0 .1 0 0 .1 0 0 0 0 0 .1-.1 0 0 0 0-.1 0 0 0 0 0zm-.3-3s.1.1.1 0c.1 0 0-.1-.1 0zm.4 1.4c-.1 0-.1 0-.1-.1h-.1v.1h.1v.1l-.2-.1h.1v-.1s-.1 0 0 0v-.1h-.1v-.1h-.2c-.1 0 0-.1 0-.1-.1.1-.2.1-.3.2h.1c-.1.1-.1 0-.2.1-.1 0-.2.1-.2.1h.1v.1h-.1c-.1 0 0 0-.1.1h.1c-.1 0 0 0-.1.1h.3c0 .2-.6-.1-.4.2 0 0 0 .1.1.1 0 0 .9.1 1 .1.2 0 .2-.1.1-.1h-.1c.1 0 .2 0 .2-.2v-.2c.1 0 .1-.1 0-.2 0 .1 0 .1 0 0-.1-.1 0 0 0 0zm5.9 4.3s-.1 0 0 0c.1.1.2 0 .2 0 0-.1-.1-.1-.2 0 0 0 .1-.1 0 0zm-2.6-3.3s.1.1.1 0h-.1zm2.6 2.2c-.1 0-.1.1-.1.1h.1v.1h.1c.1 0 .1 0 .1-.1 0 0 0-.1-.1-.1h-.1c.1 0 .1 0 0 0 0-.1.1 0 0 0zm-1.9-4.1c-.1 0-.1.1-.1.1.1 0 .2-.1.1-.1zm-7.9 1.2c-.1 0-.1.1-.2.1s-.1 0-.1-.1h-.1c0 .1-.1.1-.2.2 0 .1.1 0 .1 0s-.2.2-.2.3h.1s-.2.2-.1.2c.1-.1.2-.1.3-.2l-.3.3c-.1 0 0 .1 0 .1s.1 0 .2-.1c-.1 0-.1.1-.1.1-.1 0 0 .1 0 .1.1-.1.2-.1.3-.1.1 0 0 0 0-.1 0-.3.3-.2.4-.2l-.1.1c0 .1 0 .1.1 0v.1c-.1.1.1.1.2 0 .2 0 1.2-.9 1.3-1.1 0 0-.1-.4-.2-.4h-.2c-.1 0 0 .1 0 .1.1.4-.7-.3-.6-.2-.1.1-.2.2-.2.3h.1v.1c0 .1.1 0 .1 0h.1s-.1 0-.1.1c-.1.1 0 0 .1 0-.1.1-.2.1-.3.2.2.1-.7.2-.4.1-.1 0 .1 0 0 0z"/><path class="st1" d="M-436.3 257.1h-.2c0 .1.2.1.2 0zm7.8-4.5l.2-.1c-.1 0-.2.1-.2.1zm-7.8 3.7c0 .1 0 .1-.1.2.1-.1.2-.1.3-.1-.1.1-.2.2-.2.3h.1v.1c.3.1.5 0 .6-.2 0-.1 0-.1-.1-.1 0 0 0-.1.1-.1.1-.1 0-.1-.1-.1.1-.1.1-.1 0-.1l.1-.1h-.1l.1-.1c.1-.1-.3-.1-.3 0-.1.1-.2.3-.4.4-.1 0-.1-.1 0-.1zm8.2.1c0-.1.1-.2.1-.3 0 0-.1 0-.1.1 0 0-.1.2 0 .2 0 0-.1 0 0 0zm7.3 11s-.1 0 0 0c0 .1 0 0 0 0zm.9-7.9c0 .1 0 .1 0 0 0 .1 0 .1 0 0 .6-1-2.2 3.4-.1-.1 0 0-.1.5 0 .3v.2s0-.1.1-.1c0 0 0 .2.1.1 0-.1.1 0 .1-.1-.1 0-.1-.1-.2-.3 0 .1 0 0 0 0zm2.9-7.8s.1.1 0 0c0 .1.1.1.1 0 0 .1 0 .1-.1 0 0 .1.1.2 0 .2.1 0 .3-.2.4-.2l-.3.3c.1 0 .2-.1.3-.1-.1 0-.2.1-.2.2.1-.1.2-.1.4-.1l.1-.1c0 .1-.1.1-.1.2h.1s0 .1-.1.1l.5-.1c.6-.1.7-.6 1-1 .1-.1-.1-.2-.1-.2h-.1v-.1c-.2 0-.2-.1-.3-.1-.1 0-.1.1-.1 0v-.1l-.1.1s-.1-.1-.1 0c-.1 0-.1 0-.1.1 0 0 .1 0 .1.1 0 0-.2.1-.2.2h-.1s0 .1.1.1c-.1 0-.2-.1-.3 0v.2h-.2s0 .1.1.1v.1h-.1l-.1.1-.2-.1s.1 0 0-.1c-.1 0-.3-.1-.3-.1-.1 0-.1 0-.1.1h.2-.2c-.1 0-.1.1 0 .1s.1 0 .1.1c.1-.1.1-.1 0 0 .1 0 .1 0 0 0 .1 0 .1 0 0 0 .1 0 .1 0 0 0 0 0 .1 0 0 0zm.4-.1c-.1 0-.1 0 0 0zm5.1 1.3c0 .1 0 .1 0 0 0 .1 0 0 0 0zm-.7-.6s0 .1 0 0c0 0 .1 0 0 0zm.1.2v-.1.1zm0 0s0 .1 0 0c.1 0 .1 0 0 0 0 0 .1 0 0 0zm-1.9 28.1s-.1 0 0 0c-.1 0 .1.1 0 0 .1.1.2 0 0 0 .1 0 0 0 0 0z"/><path class="st1" d="M-410.2 271.7c-.1-.2-.2-1.1-.4-1.2h.1s0-.1 0 0l.1-.1c.2-1.4-.7-2.7-2.2-1.4-.1.1-1-.3-1 .1v.1l-.1-.1h-.4s0-.2-.1-.2v-.1c-.3-.6-1.2-.3-1.6-.2.1 0-.3.1-.2.1-.4 0-.7-.3-1-.1l-.1-.2c0-.1-.1-.2-.2-.2v.2c.2.1-.3 0-.1 0h.1c-.1 0-.1 0-.2.1 0 0-.1 0 0 0 0-.1.2-.1.1-.1-.2-.1-.4.4-.5.4-.3.1-.7.1-.9.1-.1.1-.2.1-.3.1v-.1c0-.1-.1-.1-.1 0v.1s.1 0 0 0c-.1.1-.1.2-.2.3h.1v.1s.1.1.2.1v.1h-.2v-.2h-.1c0-.1 0-.1-.1-.1v-.2h-.1v-.1c-.1 0-.1 0-.1.1s-.3.4-.3.4v.1h-.1c-.1 0 0 .8-.1.8-.6 0-1 .5-1.7.1-.1-1.4-.6-.4-1.4-.4 0-.1-.1-1.1-.2-1.1v-.1s0-.1-.2 0c-.1.1-.5.3-.5.4 0 .1.1.5 0 .6 0 0-.5.4-.6.4-1.1-.2-.8-.7-1.3-1.2 0-.1-.1-.2-.2-.2v-.1c0-.1.3-.6.3-.6h-.1c.2 0 .7-.2.8-.3l.1-.2h.2v-.1c-.1 0-.1 0-.1-.1h.1v-.1s-.1 0-.1-.1c0 0 .2-.2.3-.2.1-.1.2-.2.4-.2.4 0 0-.1.4-.1.1 0 .3.1.4.1v.2l.1.1c.1.2.1 0 .2.1 0 0 0 .1.1.1s.2 0 .3.1v-.1.1c.1-.5-.6-.9-.9-1.2-.1-.5.5-.9.6-1.3v-.1c-.1.1-.1.1-.1 0h.1c.1-.2 0-.1 0-.2 0 0 .1-.1 0-.2v-.1c-.2-.1.1-.3 0-.5v-.1s-.1-.1-.2-.1v-.1.1c.1.1.1.1.2.1v-.4c-.1 0 0-.1-.1-.2 0 0 0 .1 0 0 0 0 .4-.5.4-.4 0 0-.1-.1 0-.1 0 0 0 .1.1 0l.1-.1c0-.1.2 0 .1-.1h-.1s-.1 0 0 0v.1c-.1-.1.1 0 .1-.2 0 0-.1 0 0 0v.1h-.1l-.1-.1c0-.1.1-.6.2-.6h.1c.3-.1.3-.6.5-.7 0 .1-.2.5 0 .6h.1c.1 0 .2-.4.2-.4 0 .1.4-.3.5-.4l-.1-.1s.1 0 0 0c0-.1 0-.1.1-.2v.1s0 .1.1 0v-.3s-.1 0-.1.1v-.1h-.1c-.1.1-.1.2 0 .3l-.2.1s0-.1.1-.1c0 0-.1 0-.1.1 0 0 0-.1.1-.2-.1.1-.2.1-.3.1h-.1v.2c-.1 0-.1-.1-.2-.1 0 0 0-.1-.1-.1v-.1c0-.1.1-.1.1-.1l-.1-.1s-.1 0-.1-.1c-.2.1-.7.2-.8.7 0-.1.3-.5.3-.4v-.2c.3-.6 1.2-.5 1.4-1.2.1 0 .2-.1.3-.2 0 .1 0 .8-.1.8h.1s-.1.1 0 .1v.2h.1v.1c.1 0 .7-.3.7-.3v.1s0-.1.1-.1v.2c.1-.2.2-.4.2-.6 0 0 0-.1 0 0v-.1s0-.1 0 0h-.1s.1-.1 0-.1c1.8-.5-2.7.8-.1-.1-.1.1-.1.1-.2 0v.2s-.4-.1-.2-.1c-.1 0-.1-.1-.1 0v-.3h-.1v-.1h-.1v-.1s0-.1-.1-.1c0 0 0-.1-.1-.1v-.3c-.2 0-.2.1-.3.1l-.1-.1h-.1c.1-.1 0-.1-.1-.1 0 0-.4.1-.4.2v-.1s-.1 0-.1.1c0 0 0-.1-.1-.1h-.4v-.2h-.1s.1-.1 0-.1h-.2v-.1h-.2l-.1.1v-.1h-.1c0-.1-.1-.2-.1-.1-.1.1-.4-.2-.4-.3 0 0-.1.1 0 .2v.2c-.1 0 0 .2 0 .2l-.1.1.1.1h-.2s-.2.4-.2.2c0-.1-.1-.1-.1 0v-.1l-.1-.1-.1.1v-.1h-.1v-.1h-.1v-.3s0 .1-.1.1-.2 0-.4.1c-.1 0 0-.1-.1-.1h-.2s-.1 0-.1-.1h-.2c-.2.2-.5.2-.7.4-.1.1-.1.1 0 .2v.1h.1c0 .1 0 .2.1.2v.1c.1 0 .4.6.2.6v.1s.5 0 .5.2c.2.3.1.6-.2.8l.5.8c.1 0 0 .1.1.1h-.1c-.1 0 0 .1 0 .2h-.2c-.3-.1-.4-.3-.7-.4v-.2c-.1-.1-.6.1-.6.3 0-.1 0-.1-.1-.1-.5-.1-1.1 0-1.5.3-.1-.2-.1-.1-.4-.4-.1 0-.2 0-.3.1-.1-.2-.3-1-.1-1.2h.1v-.1h-.1v-.1h.2v-.2s0-.3.1-.2l-.1-.1v-.1s.2 0 .2-.1c.1-.1.1-.3.2-.4 0 0 0-.1-.1-.1 0-.1.1-.4 0-.4v-.1h-.1c.1 0 .3-.1.4-.1.1 0 .2.1.2 0h-.1l-.1-.1s.1 0 .1-.1c0 0 .3.1.3 0l.1-.4c0-.1-.1-.2-.1-.2-.1 0-.2 0-.3-.1.1 0 .2-.1.2-.1h-.1l.1-.1-.1-.1h-.1v-.1h-.4l.2-.1h-.1c.1 0 .8 0 .6-.2h-.1v-.1c.1 0 .1-.1.2-.1l-.1-.1-.1-.1h.2c.1 0 0 0 .1-.1l.1.1.1-.1s0 .1.1.1c-.1 0 0 .1.1.1s.1-.1 0-.1h.2c-.1 0-.1.1 0 .2v.1l.3-.3s.2.1.2.2v.1c.1 0 .2-.1.2-.1h-.2v-.1l.1.1h.1c.1.1.2.1.3.2 0 .1-.1.2 0 .2-.2.1-.2.1-.2.3l.1.1.1.1-.6.3c0 .1-.1.2-.1.2-.1.2.3.2.4.2-.2 0 .5-.3.4-.3.1 0 0-.1 0-.1.1 0 .1 0 .2-.1.1 0 .3.1.5.1h.1s0 .1-.1.1c.4.2.9-.2 1.3-.2.1 0 0-.1-.1-.1-.1-.2-.3-.2-.5-.2v-.1c0-.1.1.1.2.1s.1 0 0-.1c0 .1.6 0 .6 0-.1 0-.1 0-.2-.1 0 0 .2 0 0 0l-.1-.1h.1v-.1c0-.1 0-.1-.1-.1 0-.1 0 0 0 0-.1-.1-.3-.1-.3-.3-.1-.1 0 0 0 0 0 .1 0 0-.1-.1h-.1l-.4-.1s.1-.1 0-.1h-.1v-.1h.3c.1 0 .1 0 .1-.1 0 0 .1 0 0 0v.1c0-.1.1-.1.2-.1v.1c0 .1.1 0 .1 0v.1h.1v.1c0-.1.4-.1.3 0 .1 0 0 0-.1-.1.1 0 0 0 0-.1s0-.1-.1-.1l.1-.1s-.1 0-.1-.1h.1v-.1c-.1 0 0-.1.1-.1v-.1h-.1s.1 0 0-.1c0 0-.1 0-.2-.1l-.1.1s0-.1 0 0l-.4.1v-.1c-.1 0-.1 0-.1.1s0 0-.1-.1c0 0-.1 0-.2.1 0-.1-.6 0-.6 0v-.1h-.1c.1-.1.2-.1.3-.2-.1 0-.2 0-.3.1.1-.1.2-.1.3-.2h-.3s.1 0 .1-.1l-.1-.1c.1 0 .1-.1-.2-.1 0 0-.1.2-.2.2v-.2h-.1v-.1s-.1 0-.3.1c-.1.1 0 0 0-.1-.1 0-.1.1-.1.1-.1 0-.1-.1-.1-.1 0 .1-.1.1-.1.2 0 0 .1-.1 0-.1h-.1v-.1c0-.1-.3 0-.3 0l-.1.1v.2c0-.1-.1-.2-.1 0l-.1-.1h-.1l.1-.1c-.1 0-.2 0-.2.1h-.1s.1 0 .1-.1-.3 0-.3 0h.1l-.1-.1h.1s-.3-.1-.4-.1l-.6.3v.3c-.2-.1-.2-.2-.4-.1l-.2.2s-.2.1-.3.1h.2s-.1 0-.2.1c-.1 0 0 0-.1.1l.1.1s0 .1.1.1h.1l-.1.1h.1c-.1 0-.1-.1-.2-.1v-.1h-.1c0-.2.1-.3.2-.4h-.1s0-.1.1-.1c.1-.2-1.4 1.7-.3 1.4l.1.1.1.1c.1.1.8-.1.8-.1s.1 0 0 .1v.1h.2c-.1 0-.1.1-.1.2v.4c0-.1-.1-.1-.1-.2h-.1s0 .1.1.1v.1h.1c0 .1-.1.1-.1.2-.1-.1-.2-.1-.3-.1 0-.1.1 0 0-.2-.1-.1-.2-.2-.4-.1-.1 0-.1.1-.1.1 0 .1.1.2.1.2l-.1.1-.1-.1h.1v-.1h-.1v.1h-.1.1v-.1h-.1v.1c-.1 0-.2.1-.3.1v-.1h-.1.1c-.1 0-.1 0-.2-.1l-.5-.2h-.1v-.2h-.1v-.1c.1-.1.2-.1.3-.1 0-.2.1-.4.1-.5h-.1c0-.2-.8.1-.9.3h.1c-.1.1-.2.1-.1.2.1.3.3.4.4.6v.2h.1l-.2.2v.3h.1v.2c.1.3.4 0 .5 0h.1v.2s0 .1.1.1c0-.1.1-.1.1-.2 0 .1-.2.5-.2.5h.1v.1s0 .1-.1.1c0 0 0-.2-.1-.2v-.1s-.1 0-.1.1c.1 0 .2-.1.2-.2 0 0-.1.1-.1 0v-.1s-.1.1-.1 0c0 0 .1-.1 0-.1s-.5-.1-.5 0v.2c0 .1-.1.1-.1.2 0 0 0 .1.1.1 0 0 0 .1.1.1h.2v.1c-.6.5-1 .3-1.6.5.2-.1.6-.1.7-.3v-.2h-.1l.1-.1h-.1v-.1l-.1.1-.1-.1s.3-.1.4-.1c0-.1-.1-.1-.1-.2 0 0-.8.1-.9 0 0-.1-.4-.4-.5-.4 0 0 0-.2.1-.3h-.1c0-.1-.1 0-.2 0-.2 0-.3.1-.3.3h.1s0 .1-.1.1h-.2v.1l.1.1s.3.2.4.3l-.1.1c.1-.1-.6-.3-.7-.2.1 0 .2 0 .2.1h-.2.2s-.2.2-.3.2l-.1-.1s0-.1-.1-.1-.3.1-.3.1v.1l-.1.1c0-.1-.1-.2-.1-.2s-.2.1-.3.1h-.1s.1-.1 0-.1c-.6-.2-1.5.3-1.9.6l.1.1c-.1 0-.1.1.1.1v.3s.1 0 .1.1c-.1.1-.1.5 0 .4v.1c.1-.1 1.2 0 1.1-.4-.1-.4.1-.5.3-.8 0 .1-.1.2-.1.2 0 .1 0 0 .1 0 0 .1-.1.2-.1.3h.1v.1c0 .1.2 0 .2-.1.1 0 0 0 0 .1h.1c-.1.1-.1.2 0 .2-.1.1.1.1.2.1.3 0 .6-.4.9-.5-.3.1-.6.3-.8.5l.1.1c.3.2.5.1.8-.1.4-.2.9-.3 1.4-.8 0 0 .1.1.2 0 0 0-.5.4-.4.5h.1v.1h.2v.1h.1c0 .1 0 .1.1.1v.1h-.2s.1 0 0-.1h-.1s.1 0 0-.1h-.1v.1h-.1v-.1l-.1.1s0-.1-.1-.1c-.1.1-.1.1-.2 0-.3.2-.5.4-.9.6 0-.1.1-.1.1-.2h-.1c.1 0 .1-.1 0-.1-.3-.1-1.8.3-1.9.5 0 0 0 .2-.1.2 0 0-.1 0-.1.1.2-.1-.1.1-.1 0 0 0 .1-.2 0-.1-.1 0-.1.1-.1 0l-.1-.1-.1.1h.1v.2s0-.1.1-.1c-.1 0-.1.1-.1.2-.3.1-.5-.3-.7-.2 0 .1.1.1.2.1h-.1v.1s.1.1 0 .1l-.1.1v-.1l-.1.1-.1.1c0-.1.1-.1.1-.2 0 0 0-.1 0 0-.1.1-.7.6-.7.7v-.1h-.1l-.2.3h.1v.1c.1.1-.6.1-.7.1-.1 0-.1 0-.1-.1-.6.5-2.4.4-2.8 1.1v-.1l-.4.2c-.2.7-.3 1.4-.4 2h.1c0 .1 0 .1-.1.1-.2.3-.2.6-.1.8v-.1.2c.1-.1.1-.3.2-.3l.1.1.1.1c0 .1-.1.2-.2.2 0 0 0 .2-.1.2s-.2.1-.2.1v.2c-.1.2-.1.3 0 .5h.1v.1h.1v-.2c0 .1.1.1.1.2v.1c.1 0 .2 0 .3.1.1-.1.2-.1.2-.2 0 0-.1-.1 0-.2l.2.2h.1v.3s0 .1 0 0c.1-.2.1-.2.1-.1v-.2c.1-.1.3 0 .4 0v-.3h.1v.1c.1 0 .1-.1.2-.1 0 0 0 .1.1.1 0 .3-.3.7-.3.9 0 0 0 .1 0 0h-.1c-.1.1-.2.2-.2.3 0 0 0 .1.1 0v.1s0 .1.1 0c0-.1 0-.2.1-.2v.1s0-.1.1-.1h.1c.1 0 .2-.5.3-.5 0 0-.1 0-.1-.1.3-.2.4-.3.2-.4.1-.1.4-.5.4-.7h-.1c.1-.1 0-.1-.1-.1 0-.1 0-.2.1-.2 0-.1-.1-.1 0-.2.1 0 .2-.4.2-.4v.3c0 .1 0 .1.1 0 0 .1 0 .2.1.1 0 .1 0 .1-.1.2.1 0 .5-.6.5-.6s0-.1-.1-.1v-.2c.1-.1.2-.1.3-.1 0 0 .4-.2.3 0 0 0 0-.2.1-.1 0 .2 1-.3 1.1-.3v.1h.7l.1-.1h-.1.1l-.1.1h.2s.1 0 .1.1v-.1h.1c-.1 0-.1.1 0 .1h.1l.2.2c.1 0-.2-.4-.2-.3h-.1.1v-.1h-.2c-.1 0 0 0 0 0 .1 0 .1-.1 0-.1.1 0 0-.1-.1-.1 0 0 .3.1.3.2l.1.1h.1v.1s.1 0 .1.1c.1 0 .1.1.1.1 0-.1-.1-.2-.1-.3 0 0 0-.1-.1 0v-.2s-.1-.1-.1-.2c0 0 0-.1 0 0 0 0 .2.2.2.1 0 0 .1 0 .1.1h-.1c.1 0 .1 0 0 .1-.1 0 .1 0 0 .1l.1.1v-.1.1h.1v.1h.1v.2c.1 0 .1.1.1 0 0 0-.1 0-.1-.1h.2l-.1-.1-.2-.2v-.1h-.3c0-.1 0-.1 0 0h.1-.1.4v.3s.1 0 .1-.1l.1.1s0-.1 0 0c.1 0 .2.1.3 0v.2l.1.1c-.1 0 .1.2.2.2l.1-.1v-.1h.1v.2l.1-.1h.1v.1s.1.1.1 0h.1v.1s.1 0 .1-.1v.1s0 .1 0 0c.1 0 .1 0 0 0v.1c-.1 0-.1 0-.1.1 0 0 0 .1 0 0 .1-.1.1-.1.2 0h-.2v.1h.1s.1.1 0 0c-.1 0-.1 0 0 .1h.4c.1 0 .1-.1.1 0 0 0 0 .1 0 0l.1-.1c.1 0 .1 0 .2.1s.3.2.4.4c0 .3.4 1.1.6 1.3v.1c0 .1.5.4.6.4v-.1l.1.1s-.1 0 0 0c.1.1.1.1.2.1v.1c.2 0 .3.1.5.2.5-.1 1.7.3 1.9.7-.1 0-.2 0-.1.1h.1s-.1 0-.1.1c.2.1.5-.1.7.1v.2l.7.1v-.2c-.1 0-.2 0-.3-.1v-.1c-.4-.4-1.1-.4-1.5-.9l.4-.1c-.2-.1.4.3.3.3l.1.1v-.1c.1 0 .6.3.7.2h.1v.1c.2.2.9.2 1.1.3v.1h.1v.1h.1v.2c.3.3 3.8-.1 4.1-.5 0 0 0-.1.1-.1v.1c0 .1.5.1.5.1v.2h.2s.1 0 .1-.1h-.1c.1.1.4.1.5.1.1 0 .5-.2.5-.1 0 0 0-.1 0 0 0 0 0 .1.1.1s.1-.1.1-.1h-.1v-.1c0-.1 0-.2.1-.3h.2v.1l.6.7c0 .2 0 .3-.1.3v.3c-.1 0-.1.1-.2.2.1.1.1.2 0 .3.1.1 0 .4.1.4 0 .1.1.1.2.1v-.1c0 .1-.1.5 0 .5v.1s.1 0 .1.1v.1h.1s-.1 0 0 .1c.2.2 1.4.8 1.7.9 0 0 .1 0 .1.1.2.4 1.3 0 1.6.3.2.3.3.8.5 1 .4.3.2 1 .5 1.3 0 .3.3.5.3.8 0 .5.1 1.6.5 2 0 0-.1 0-.1.1l.1.3v.1c0 .1.1 0 .1-.1v-.1s-.1-.2-.2-.3l.1-.1h.1c0 .1.1.4.1.5h.1v.2s0 .1.1.1c-.1.1-.1.1 0 .1 0 .1.1.1.1.1l-.3-.1s0 .1-.1.1v.1c0 .1-.1.1-.1.2h.1v-.1h.1s-.1.1-.1.2h.1v-.1s.3-.1.2-.1v.3h.1v.3h.1v.1h-.1c.1 0-.1.1-.1.1h-.1v-.1s0-.1 0 0c0 0 0 .1.1.1v-.1c0-.1-.1-.2-.2-.3v-.1c-.1 0-.1 0-.1-.1v.1s-.1-.1-.1 0v.2s0-.1.1 0c0 0 0 .1 0 0v.1s.1.4.1.3c0-.1 0-.1.1.1v-.1c.1 0 .1 0 .1.1h-.1c0 .1.1 0 .1 0v.1s-.1.1 0 .1h.1s.1-.1 0-.1v-.1s0 .1 0 0c0 0-.1.2.1-.1v.2h.1s0 .1-.1.1h.1l-.1.1s.1 0 .1.1c.2 0-.1.1.2 0v.1h-.3c.3 0 .4 0 .7-.2 0 .1-.1.1-.2.2v.1c.2-.1.1 0 .3-.2 0 0-.1-.1 0-.1 0-.1 0-.1.1-.1v.2c.1-.1.2-.2.4-.3h-.1s.1 0 .1-.1-.2 0-.2 0 .1-.1.2 0c0 0-.1 0-.1-.1h.1c-.1-.1-.2-.1-.3-.3 0-.1 0-.1.1-.2h-.1c.1-.1 0 0 .1 0 0 0 .1 0 .1-.1 0 .1.1-.8.1-.7h-.1v-.2h-.1v-.1s0-.1-.1-.1-.2.1-.4 0c-.1-.3.2-.3.2-.4 0-.1-.1-.3-.1-.4 0-.1.1-.1.1-.2h-.1v-.1h.2v-.2s0-.1-.1 0c0 0 0 .1-.1.1h-.1c-.1 0-.2-.1-.2-.2l.5-.2v-.1l-.1-.1v-.1c0-.1 0-.2-.1-.2v-.1h-.1l.1.1c-.1-.2 1-.6.7-1.1h-.1v-.1c0-.1-.1-.1-.2-.1v-.2c.3.3 1-1.9.6-2.8 0 0 .3-.8.5-.7h-.1c0-.1.1-.2.1-.2 0 .1.3-.3.2-.2 1.9.6 2.2-.3 2.1-.6zm-22.6-13zm20.1 23.6l.1.1s0-.1-.1-.1c0 .1-.1.1-.1.1.1-.1 0-.1.1-.1 0-.1 0-.1 0 0zm.3.1c-.1 0-.1 0 0 0-.1 0 0 0 0 0-.1 0 0 0 0 0zm-.4-.1c0-.1 0-.1 0 0 0-.1 0-.1 0 0 0-.1 0 0 0 0zm0 0s-.1-.1 0 0c0-.1 0 0 0 0zm-.2-.1zm-1.3-12.8c0 .1 0 .1 0 0 0 0 .1 0 0-.1 0 0 0-.1.1-.1 0 .1.1.2.1.2-.1 0-.1-.2-.2 0zm-6.3.9c-.1 0-.1 0 0 0-.1 0-.1 0 0 0-.1 0-.1 0 0 0-.1 0-.1 0 0 0zm-6-7s0 .1 0 0c0 .1-.1.1 0 0-.1 0 0-.1-.1-.1-.1.1-.2.4-.4.5h-.1l-.1.1c0-.1.5-.7.4-.8.1 0 .2 0 .3-.1.1.1.2.1.4.1l.2.2h-.1s0-.1-.1-.1c-.1.2 0 .3-.4.2zm.4.6s0-.1 0 0c0-.1 0 0 0 0 0-.3.1-.5.3-.6v.2c-.4 0 .2.6.2.7 0 .1-.1.2-.2.2 0 0-.3-.3-.3-.5zm.5-.7c.4-.1.5-.3.9-.1 0 0 0 .1-.1 0h-.3s.1 0 .1.1h-.1.1c0 .1 0 .2.1.3l-.1.1c0-.1-.1-.1-.2-.2 0 0-.1.1-.1.2 0-.1 0-.2-.1-.3 0-.1-.1-.1-.1-.1h-.1c.1.1.1.1 0 0h-.1.1c.1 0 0 0 0 0zm1.2.4c.1 0 .1 0 0 0 0 .2-.2.3-.4.5.1 0 .1-.2.1-.3.2 0 .3-.1.3-.2.1 0 0 0 0 0zm-.5.4s0 .1 0 0c.1.1.2.1 0 0zm-.8-.7zm1.5.1h-.1.1zm-.2-.1c0-.1.3-.4.4-.4h.1v.1c-.1.1-.3.3-.5.3.1 0 .1 0 0 0zm1.5 1.5zm.1.1s-.1 0 0 0c-.1 0-.1 0 0 0-.1 0 0 0 0 0zm-.2-.5h-.2.1c-.1-.1-.2-.1-.3-.1v-.1.1h.1c0-.1-.1-.2-.1-.2v-.1c.1.1.1.2.2.3.2 0 .2 0 .2.1v-.2c.1.1 0 .2 0 .2zm1.3-3.1s-.1 0 0 0c-.1 0 0 0 0 0zm.1-.1zm.1-.1zm-.2 0zm-.1.2zm.2-.3c.1-.1.1 0 .1 0h-.1c-.1 0 0 0 0 0zm-.1 0h-.1.1s-.1 0 0 0zm-1.4.3v-.1.1zm1.3-2.5c0-.1-.1 0 0 0 0-.1 0-.1 0 0 0-.1 0-.1 0 0 0-.1 0-.1 0 0zm-7.5 4.2c-.1 0 0 0 0 0 0-.1-.1-.1-.1-.1v-.1c.1-.2.5.2.6.3-.1 0-.1 0-.2-.1-.1 0 0 0 0 .1 0 0-.2 0-.3-.1 0 0 .1 0 0 0 .1 0 0 0 0 0zm.6.2c.1-.1.1 0 .1.1s0 0-.1 0v-.1s0 .1 0 0zm-.3-8.1c.1 0 .2.1.2.1.1 0 .1-.1.2-.1s.1.1.2.1h-.2.1c-.1 0-.1-.1-.1-.1l-.2.3c0-.1 0-.1 0 0v-.2c-.2.1-.2 0-.2-.1 0 .1 0 .1 0 0 0 .1 0 0 0 0 .1 0 0 0 0 0zm-.7 4.3zm.2-.9h.2-.2zm0 1.2zm.4-3.1c.1 0 .1-.1 0 0 .1-.1.1 0 0 0zm.7-.3c-.1.1-.1 0-.2 0s0 0 0-.1l.2.1c0 .1 0 0 0 0zm.7-1.2zm.3 1zm2.4.9c-.1 0-.1 0 0 0zm-1-.7v.1l-.1-.1v-.1h.3c0 .1-.1.1-.2.1zm-.3-1.1zm-.5-.1zm-.1-.1c.1 0 .1 0 0 0 .1 0 .1 0 0 0 .1 0 0 0 0 0zm-.1 0c-.1.1-.1.1 0 0-.1.1 0 0 0 0zm-.9 0s-.1 0 0 0zm-1.7 1.1c0 .1.1.1 0 0l.1.1c0 .1-.1 0-.1-.1 0 .1 0 .1 0 0zm-.5.5s-.1 0-.1.1c0-.1.1-.1.1-.1zm.8.1s-.1 0 0 0c-.1 0 0 0 0 0zm-4 2.9s0-.1 0 0zm-.4 6.8s0-.1 0 0c0 0 0-.1 0 0zm-.4 0zm.9-4.4c0 .1 0 .1 0 0 0 .1 0 .2-.1.2-.2.2 0 .4-.5.4 0-.1.1-.2.2-.3h-.1l.1-.1c-.1 0-.1 0-.2-.1.2 0 .4.1.6-.1 0 0-.1.1 0 0zm.1-.2s0 .1-.1.1c.1-.1.1-.3.3-.4-.1.1-.1.2-.2.3 0 0 0-.1 0 0zm-.1 4.9s-.1 0-.1.1h-.1c.1 0 .1 0 0-.1-.2-.1-.4-.1-.6-.2v-.1.1h.1v.1h.1v.1l.2-.1c.1 0 .5.3.4.4h-.1c0-.1 0-.1-.1-.1l.2-.2c-.1 0 0 0 0 0zm.1-7.5c-.1 0-.1 0-.1.1l.1-.1zm-.2.7s0 .1 0 0c0 .1 0 .1 0 0zm-2.3 5.8zm.2-4.2c.2 0 .4-.1.4-.3 0 .1 0 .2-.1.3-.1 0-.2.1-.2.2h.1l-.1.2h-.1v-.1s-.1.1-.2.1c-.1.1 0 .1 0 .1s-.1.1-.2.1c-.1-.1.1-.2 0-.2.1 0 .1 0 .2-.1h-.2s.1-.1.2-.1h-.1c-.1.1-.2.1-.3.2.1-.2.4-.5.6-.5v.1h.1c-.1-.1-.1-.1-.1 0 0 0 0-.1 0 0zm-2.9.4s0 .1-.1.1l.1-.1zm.3-.5c0 .1 0 .1-.1.2 0-.1 0-.1.1-.2 0 .1 0 .1 0 0zm-.2.1l-.1.1.1-.1zm-.4.6zm-4.3 5.5zm1.2 1.2zm.1 0c0-.1 0-.1 0 0zm28.5 13.3s-.1 0 0 0zm0 0c.1 0 .1 0 0 0zm.8-3c.1 0 .1 0 0 0 .1 0 .1 0 0 0 0 .1 0 .1 0 0 .1 0 0 0 0 0z"/><path class="st1" d="M-419 267.2h-.2c-.1.2 0 .2.2 0-.1 0 .1 0 0 0zm-4.6-14.2c-.1 0-.1 0 0 0s0-.1 0 0zm-4.6-.5l.2-.1c-.1 0-.3.1-.2.1zm15.7 1.1s-.1.1 0 0c0 0 0 .1 0 0 0 0 .1 0 0 0l.1.1h.1s-.1.1 0 .1h.1v.4l.1-.1v.1s-.1.1 0 .1c.1-.1.1-.1.1 0l.1-.1.1.1c0-.1.4-.4.5-.5.1-.1-.1-.4-.2-.5.1 0 .1-.1.1-.2h-.1v-.1l-.2-.1c-.1 0-.3.2-.4.3v.1h.1c-.3 0-.5.2-.5.3 0-.1 0-.1 0 0 0 0-.1 0 0 0 0 0-.1 0 0 0zm.1-1.2h.1v-.1s-.1 0-.1.1c.1 0 0 0 0 0z"/><circle class="st8" cx="-408.1" cy="288.8" r="1.7"/><path class="st6" d="M-429.1 294.8h10v2.2h-10z"/><path class="st8" d="M-429.1 296.4h10v1h-10z"/><path class="st9" d="M-432.6 296.9h17v2.4h-17z"/><path class="st8" d="M-436.8 246.7c0 .9-.7 1.7-1.7 1.7-.9 0-1.7-.7-1.7-1.7 0-.9.7-1.7 1.7-1.7.9 0 1.7.8 1.7 1.7z"/><path class="st9" d="M-439.9 247.5c.3.5.8.8 1.4.8.9 0 1.7-.7 1.7-1.7 0-.2 0-.5-.1-.7-.6 1.1-1.6 1.7-3 1.6zm33.1 40.2c-.3-.4-.8-.6-1.3-.6-.9 0-1.7.7-1.7 1.7 0 .2 0 .3.1.5.6-1.2 1.8-1.6 2.9-1.6zm-20.8 3.1v2.7l6.9-2.4z"/><path class="st6" d="M-424 291.4c-1.2 0-2.4-.1-3.7-.3-6.1-1-11.4-4.2-14.9-9.2-7.4-10.2-5.1-24.6 5.1-32l1.1 1.5c-9.4 6.8-11.5 20-4.7 29.4 3.3 4.5 8.2 7.5 13.7 8.4 5.5.9 11.1-.4 15.6-3.7l1.1 1.5c-3.9 2.9-8.5 4.4-13.3 4.4z"/></svg>