<svg id="Слой_1" xmlns="http://www.w3.org/2000/svg" viewBox="-447 246 65 71"><style>.st0{fill:none;stroke:#fff;stroke-linecap:round;stroke-linejoin:round;stroke-miterlimit:10}</style><path class="st0" d="M-439.6 308.2h32v8.1h-32z"/><path class="st0" d="M-437.8 310h4.6v4.6h-4.6zm7.3 0h14.7v4.6h-14.7zm-9.1-10h32v8.1h-32z"/><path class="st0" d="M-430.6 300h1.6v8.1h-1.6zm-4.9 6.2c1.3 0 2.3-1 2.3-2.3 0-1.3-1-2.3-2.3-2.3-1.3 0-2.3 1-2.3 2.3 0 1.3 1.1 2.3 2.3 2.3zm37.7-25.1h5.6v35.4h-5.6z"/><path class="st0" d="M-392.3 278h9.7v38.5h-9.7zm-13.2 3.1h5.6v5.6h-5.6zm0 8.8h5.6v17.7h-5.6zm-15 2v3.8h-6.9v-3.8m19.1-34.3c6.4 8.5 4.7 20.6-3.8 27-8.5 6.4-20.6 4.7-27-3.8-6.4-8.5-4.7-20.6 3.8-27 8.5-6.4 20.6-4.7 27 3.8z"/><path class="st0" d="M-407 259.7c-.3-.3-.9-1.5-1.1-1.9-.3.3-.6 1-1.2.8 0-1.1.7-2.7-1.4-2.9.2 0 0 .1 0 .1 2.6 0-1.7 2.1 1.3 2.9.2 1.9-1.2 3.7.2 5.4.2.3.3.3.6.4 3.8 2.2 3.1-2.1 1.6-4.8 0 0 .8 1.5 0 0zm-32.4 7.8l.1-.2-.1.2zm3.5 9.7c-.1.2-.2 0 0 0zm-4.1-8.7c0-.8-.3.3-.4.2.4.4.4-.2.4-.2zm-.1.3c-.1 0-.1 0 0 0zm-1.6 1.6c-.6.3.4-.1 0 0 0 0 .1 0 0 0zm2.5-3.2s.1 0 0 0c0-.1 0 0 0 0zm3.9.5c0 .3-.2-.4-.2-.4-.2.2 0 0-.1 0-.4.2.4.5.5.5-.1 0-.2-.1-.2-.1zm1.6-10.1c.1-.1-.6.3-.3.2.2 0 .3-.2.3-.2 0-.1 0 0 0 0zm6.7.4c.7-.7-.5.5 0 0 .1-.1-.1.1 0 0zm-.6-.6c0 .1.1.1 0 0 .2 0 .1 0 0 0zm-6.1.8c.2-.1-.4.1 0 0 .1-.1-.1 0 0 0zm-.3-.5c.3-.6 0 0 0 0zm7.4-.2c-.1 0-.3-.1 0 0 0 0 .1 0 0 0zm2.3 1.7l-.1.1.1-.1zm-10-1.7c0-.1-.3.2 0 0 .1-.1 0 0 0 0zm.6-.7c.1 0-.2 0-.2.1-.1 0 .1 0 .2-.1zm9.7 1.8c.3 0-.3 0 0 0 0 0-.1 0 0 0zm-5.2-3.4l-.1.1c.1 0 .2-.1.1-.1zm7.3 6.4c.5 0 .3-.2.1-.2-.5 0-.4.2-.1.2 0 0-.1 0 0 0z"/><path class="st0" d="M-433 257.7c1 0 0-1.2-.6-.5.1-.1-.3.7.2.4-.3.3.3.1.4.1.1 0-.1 0 0 0zm-.2-.4c.2-.1-.3 0 0 0 .1-.1 0 0 0 0zm.2.1c-.1 0-.1 0 0 0 0 0-.1 0 0 0zm-.2-.2c.1-.1-.3 0 0 0 0-.1-.1 0 0 0zm-.2 0s-.1 0 0 0zm0-1.1c-.2.1.9 0 1.2-.1-.1.1-.1 0-.1-.1-.2.1-.6.2-.4-.1-.1.1-.7.3-.7.3s.1 0 0 0zm6.2 3.4c.1-.1-1.2-.2-1.2-.2.1.2.1 0-.1 0-.1 0 .2 1 .1.9.1 0 1.1-.6 1.2-.7 0 0-.1 0 0 0zm-4.6.3c0 .1-.1.2 0 0 0 0 0 .1 0 0zm-.2-2.9s-.1-.1-.1 0c-.1 0 0 .1.1 0zm5.2 3.2c.4-.3-.3.1 0 0 .1-.1-.1 0 0 0zm.9 2.4c-.1.1.4-.3 0 0-.1.1 0 0 0 0zm-5.8-5.3c.3-.7-.3 1 0 0 .1 0 0 .1 0 0zm3.5 2c.1-.1-.2-.1-.2-.1 0 .1.2.2.2.1zm.7 1c.6-.3-.4.3 0 0 .1 0-.1.1 0 0zm-1.6-4.5c-.1 0-2.1.4-2.5.6.1-.1.2-.1.3-.2-.1 0-.1 0-.2-.1-.2 0-.9.4-1.3.5l.1.2c1.4-.4 2.1-.2 3.6-1zm-2.2.6c-.2.2-.2.1 0 0-.1.1-.1 0 0 0zm-.7.2s0 .1 0 0zm-4.3 1.6c.2-.2 0 0 0 0-.1.1 0 0 0 0zm9.7 1.3c.2-.1-.3.2 0 0 0 0-.1.1 0 0zm1.5-.6c0-.1-.1 0-.2 0-.1.1.2.1.2 0zm-7 1.4c.1 0 0-.1 0 0zm4.1-6.2c-.1 0-.2.1-.1.1 0-.1.1-.1.1-.1zm.1 3.8l.1-.2c-.1 0-.1.2-.1.2zm7.3 10.9c0-.1-.1-.1 0 0zm9.2-14.3zm-13.6 9.9l-.3.1c.1 0 .3 0 .3-.1zm11.9 19.2c.2 0-.1 0 0 0s-.1 0 0 0zm-.8-1.8c0-.2.2.2 0 0 0 0 .1 0 0 0zm1 2h.3c-.1-.1-.3 0-.3 0zm-6.2-15.1c.7-.3.1 0 0 0 .1 0-.1.1 0 0zm-4.1-14.3c.1-.2-.1.2 0 0 0 0 0 .1 0 0zm3.4 14.6c.9-.6-.8-.3-.8-.1 0 .4.3-.1 0 .4 0 0 .5-.2.3-.1-.1.1-.2-.1-.3.2.5-.1.6-.3.8-.4.1-.1 0 0 0 0zm-1.5.8c.8.1 0 0 0 0 .2 0 0 0 0 0zm.6-.8c-.3-.5-2.1 0-2.2.6 0 .1.2-.3.1.1 0-.3 2.2-.5 2.1-.7 0 0 0 .1 0 0zm-1.9.4c0-.1.1-.1.2-.1-.1 0-.2 0-.2.1zm10.3-15.5c-.1.1.1-.2 0 0 0 0 .1-.1 0 0zm1.1.8c.1.2-.2.5.2.4-.1.1 0 .3-.2.4.2-.1.1.1.1.1 1.1-.5 0-.8-.1-.9zm-1.3-1c.4.2-.3-.2 0 0 .1 0 0 0 0 0zm.5.2zm-.1 0l.2.4c0-.1 0 .1.1.1 0-.1 0-.1.1-.1-.1-.3-.3-.4-.4-.4z"/><path class="st0" d="M-427 251s-.9 1-.9 1.2c.1 0 .1 0 .1.1s.5-.2.6-.2v.1s0 .1.1.1c-.2.8-1.9 1.8-.7 1.5 1-.4 4.6.5 4 .6.1 0 .8-.6.8-.3-.2.2.2.1.1.2.1-.1-.7.9-.3.7.5-.2.6-.4.7-.6-1.4 2.2 3 1.9 2.9 2.4.2-.7-.6-2 .2-2.6 0 .1.1.1.1.2.1-.3 1-1.1.6-1.4.8.1 1-1.2 1.6-1.6-.2.1-.2.1-.1-.1-.3.2-.6.3-.9.4.2-.1.2-.4 0-.4.1-.1.8.1.8-.1.1-.4-.4-.5-.6-.5.5 0 0-.5-.5-.2.4-.2.1.1.3.2h-.2c0-.1-.1-.1-.1-.1-.1 0-.1-.4.3-.3-.2 0-.7.1-.2-.1-2.3-.7-5.5-.8-7.2-.6h.1c0 .3-1.7 1.4-1.6 1.4-.1.1 0 0 0 0zm-.1 2.4c-.1 0-.1 0 0 0 0 0-.1 0 0 0zm-.4.2l.3-.1c.3-.2-.5.4-.3.1zm4.4.4s-.1.1 0 0zm-.1.2c-.2 0 .1-.2 0 0-.1 0 0 0 0 0zm.2.1c.2-.2 0 0 0 0s0 .1 0 0zm-.1.3h.1c-.2.1-.2 0-.1 0zm.7 1.3c-.1 0 0 0 0 0zm.2-.4s-.1 0 0 0c.1-.1 0 0 0 0zm-.1-.1zm-.1-.1zm0 .1c.2 0-.2 0 0 0zm.2-.2c-.5.1 0 0 0 0s.1 0 0 0zm-.2-.1s-.1 0 0 0zm-.1-.1s-.2.1 0 0c.1 0 0 0 0 0zm-.1.3c.2-.2-.1.1 0 0zm.9.9s.2.1 0 0c0-.1 0 0 0 0zm.1.1c.1 0 .1 0 0 0zm1.4.4s0 .1 0 0zm1.8-4.7c-.2.1.1-.4 0 0 0 0 .1-.1 0 0zm-.3-.9s.3-.3 0 0c0 0 0-.1 0 0zm0-.2c-.2.1.1 0 0 0zm.5 1.1c-.2.1.1-.3 0 0zm-.2-1.3c-.2-.1.2 0 0 0 0-.1 0 0 0 0zm-20.9 16.5l-.1.2.1-.2zm-2.3 3.1c-.2.1-.6.2 0 0 0 0-.1.1 0 0zm-.5.6c.1.1.2.3 0 0 0-.1.1 0 0 0zm5.4-4.3c.1-.1-.2.1 0 0 0 0-.1.1 0 0zm1.9-10c0-.2.4.4.3.3 0-.1 1.2-.1 1.2-.4-.1 0-.1-.1-.1-.1 0-.3-1.7 0-1.4.2 0 .1-.1 0 0 0zm.4 0c.1 0 0 .1 0 0 0 .1 0 0 0 0zm0 .2c.2-.1.1 0 0 0 0 0 .1 0 0 0zm10 2.4s.1-.1 0 0c0-.1-.1 0 0 0zm-9.2-1.7c-.1.1-.1.2-.2.3.1-.1.2-.2.2-.3-.1.1.1 0 0 0z"/><path class="st0" d="M-434 256.8c-.1.1.1.1.2-.1.1 0-.1 0-.2.1zm.1-1.1c-.1.1.4-.2 0 0-.1 0-.1 0 0 0zm4.6-.5s.2-.1.1-.1-.1.1-.1.1zm7.3 13.1c.1 0 .3.1 0 0 0-.1.1 0 0 0zm-9.4-12.2c.1 0 .1-.1 0-.1s-.1.1 0 .1z"/><path class="st0" d="M-433.4 255s.2.3 1 .3c-.1.1-.3.3-.2.4.5.1 1.5-.3 1.1-.6 0 .2.3-.2.4-.2.3.1-.4.3.4.2-.1.2-.1.3.1.1 0 .2-.6.3-.7.3.1 0 .2.1.3.1-.2.1-.3.2-.4.4 0 0 .1.2.2.2.3-.1 2.2-1.1 2.1-1.3 0-.1-.3-.2-.4 0 .1-.3.1-.6.5-.7-.3.1.2-.4 0-.5-.1 0-.1 0 0-.1-.1 0-.5.1-.7.2.3-.2 1-.7.7-.6.9-.4.1-.9 1.3-1.6-.2.1-.5.2-.1-.1.6-.2-.6.4-.7.5.2-.1 1.4-.8 1.2-1.1-.1 0-.1 0 0-.1-.3-.6-3.3 1.5-3.8 1.6h.3c-.3.2-.9.7-.5.6-.1 0-.7.1-.8.2.2 0 .2.1-.1.3.1-.1.1-.1.2-.1-.1.1-1.4 1-.8.7-.3.2 1.1.5 1.9-.4-.4.4.1.1.3.4-.6 0-1 .5-.9.4l-.2.2c.1-.4-1.1-.1-1.7 0 .4-.2.1.3 0 .3 0 0-.1 0 0 0zm1.7-1.6s-.2 0 0 0zm1.6-1.2c-.1.1 0 0 0 0zm.4 1.7c0 .1 0 0 0 0zm-.3 1.1c0-.1.1-.1 0 0 0 0 0-.1 0 0zm.7-1.3zm-.2-.1zm-1.3 1.3c.1 0 .1 0 0 0 0 0 0-.1 0 0zm-.3-.2c.1-.1 0 0 0 0zm.6-.2c.3-.2-.3.2 0 0 .1 0 0 0 0 0zm-.4 0c.3-.1-.3-.1 0 0zm.1.5c0-.1.1 0 0 0zm.3.2l-.1.1c0-.1.1-.2.1-.1 0 0 0-.1 0 0zm1-1.4c-.1.1-.2.1 0 0-.1 0-.1 0 0 0zm-2.2.2c.1-.3.4-.4 0 0 0-.1 0 0 0 0zm1.3-.5c.5-.8.1-.1-.2.2.1-.1.1-.2.2-.2 0-.1-.1 0 0 0z"/><path class="st0" d="M-431.8 255.7c-.3.1.7-.2 0 0-.1.1.1 0 0 0zm-5.7 3.9c-.2.4 1-.7.8-.7v.6c.5 0 .2-1 .3-1.1-.2.3-1 .6-1.1 1.2 0 0 0-.1 0 0zm5.6.2c-.1.1.1-.2 0 0-.1 0 0-.1 0 0zm-.3-3s.1.1.1 0h-.1zm.4 1.4c-.1 0-.6-.1-.5-.4-.1.2-.3.3-.6.4.3-.2 0 .2 0 .1.1-.1.3.2.3.2 0 .2-.6-.1-.4.2 0 0 0 .1.1.1.3.8 1.7-.4 1.1-.6-.1-.1 0 0 0 0zm5.8 4.2c-.1.1.4-.3 0 0 0 .1.1 0 0 0zm-2.5-3.2s.1.1.1 0h-.1zm2.6 2.1c-.3 0 .3.1 0 0-.1 0 0 0 0 0zm-1.9-4c-.1 0-.1.1-.1.1s.2-.1.1-.1zm-7.9 1.2c-.4 0-.5.6-.6.6.5 0 0 .3.2.1-.6.4.7-.3.5-.3.1 0 0 .3 0 .3.3-.4 1.3-.6 1.5-1.2 0 0-.7 0-.9-.3-.1.1-.2.2-.2.3 0 .1.2.1.3.2-.1 0-.1.1 0 .1-.2.4-.4.2-.8.2 0 0 .1 0 0 0zm-.2-.1h-.2c-.1.1.1 0 .2 0zm7.7-4.5l.2-.1c-.1.1-.3.2-.2.1zm-7.8 3.7c.2-.1-.1.3 0 .5.4.5.7-.5.5-.5.5-.3-.7.2-.5 0zm8.1.1c.4-.3.1 0 0 0zm7.3 10.9c0-.1-.1 0 0 0-.1 0 0 0 0 0zm.9-7.8c-.2.3-.3.4 0 0-.1 0 0 0 0 0zm2.8-7.7c-.1.1.2 0 .4 0l-.2.2c.6-.2.2.1.1.1.1 0 .3 0 .4-.1-.1.1-.1.2 0 .3-.3-.8 2-.5.9-1.5-.2-.2-.8 1.1-1.4.7.1.1-.1.2-.2.3 0 0 .1-.1 0 0zm.3-.1s.1 0 0 0c0 0 .1 0 0 0zm5.1 1.3s0 .1 0 0c0 .1 0 0 0 0zm-.6-.6c-.1 0-.1 0 0 0 0 0 0-.1 0 0zm0 .2v-.1.1zm.1 0v.1c-.1 0 0-.1 0-.1-.1 0 0 0 0 0zm-1.9 27.7c-.1-.1.1.3 0 0z"/><path class="st0" d="M-410.2 272.8c-.1-.3-.2-2.7-.2-2.7-.9-.8-2.8.1-3.7.1-.4 0-3.3-.6-3.1-.6-.1 0-1.5.2-1.9.4 0 0 0 .8.1.7-.3.2-.2-.5-.3-.5-.1 0-.1 0-.1-.1-.4-.1-.7 1.4-.6 1.4-1.5-.1-1.6-.3-3-.3 0-.1-.1-1.2-.2-1.2 0 0-1.7 2.5-2.4.1-.4-1.3 1.2-.8 1.2-1.4.1-.7 2.2-.5 2.1 0 .2-.6-.4-3.2-.7-3.6-.2-.3.8-.8.8-1.1 0-.2-.1.1-.1 0-.2.2-.1-1.1.6-1.4 0 .1-.2.5 0 .5.2.1.9-1.2.9-1.2-.1 0 0-.1-.1-.1-.1.1-.1.1-.1 0 0 0-.1 0-.1-.1 0 .6-.8.4-.7.5-.4.1-.2-.6-.3-.6-.4 0-.8.4-.9.7.2-1 1.5-1.2 2-2 0 .2-.1 1.1 0 1.1s1.1-.6.8-.2c.7-.9-.5-.9-.6-.7 0-1.2-2-1.4-3-2 1.4.7-1.9.9-1 .4-1 .6-1.3-.2-1.5 1 0 .2.8 2.4 1.1 2.5 0 .1-.1 0-.1.2-.9-.2-3.6-.2-4.1-.8-.3-.4.9-2.8.5-2.8l.6-.1-.2-.1c.4-.5.1-1.4-.2-1.3.1 0 1.1-.5.6-.5.2-.1 1.4.2 1.5.2-.2-.1-.2.1-.2-.1 0-.3.6 2.1-.1 1.8.1 0 2.2-.5 2.7-.5l-.1-.1c-.1 0-.5-.2-.5-.3 0-.1 1.1.2.6-.2 0 0-.4-.6-.9-.5.1 0-.1-.2-.1-.2 0-.1 1.3.3.9-.2.1 0 .3-.4.2-.6-.1-.2-1.7 0-1.7.1.1-.1.2-.1.3-.2-.5.3.1-.2-.3-.1.2-.2-.1-.2-.3 0-.5.6-2.2-.8-3.6.4.2-.1.1.6.1.7-.4 0-.2-.7-.2-.8-1.1 1.4-.1 1.5.9 1.7 0 .2-.1.8-.2.4 0 0 .1.3.2.2 0 .1-.1.1-.1.2.1 0-1.4-.8-.8-.1-.1-.1-.3-.3-.1-.3-1.2-.4-.3-.5-.8-1.4-.1 0-.1 0-.1-.1.2.3-1.6 1.7.4 2.1 0 .3-.4.5-.1.6h-.2c0-.2-.1-.2-.2-.2.6-.2-.4-.6-.5-.4.1.2 0 .3-.1.4-.1.2.7.4-1.2.8.3-.1.6-.2.8-.3v-.1c.1-.1-.7.2 0-.3 0-.1-.1-.1-.1-.2-.2-.4-1.5.3-1.3-.8 0 .3-1.2.2-.2.9-.2.2-.5-.2-.8-.1.2-.1.1.1.2.1-.5.6-1.3-.1-1.7.1-.6.4-1.2 1.8-1.2 1.8 1-.5.6-.3 1.4-1.2-.6 1 .9.5 1.4.4-.3.1-.6.3-.8.5.1 0 .1.1.1.1-.2.4 2.4-.9 2.3-.9 0 0-.5.3-.4.5 0 0 .3.3.4.3v.1c.2-.4-1.3.3-1.5.4.2-.6-2.2.5-2.3.4 0 0 0 .1.1.1.2.2-.6-.1-.7 0 .4-.1-.2.4-.3.5.1-.1-.9.6-.8.9-3.1.4-4.2 1.1-4.4 4.1 0 0 .1-.2.1.1.1 0 .2-.3.3-.3 0 .1.1.2.2.2 0 .3.1 2.4.3 1.2.1.1.4.4.4.5.2-.3.6-.4.8-.5 0 0 0 .1.1.1 0 .2-.6 1.3-.6 1.3.1 0 .1 0 .1.1.1.3 1.2-2.5 1.3-2.8-.1.2.2.6.1.6-.4 0 3.2-2.2 3-1.5 0 0 .4.4.6.5-.2-.1-.4-.6-.5-.5.1 0 .1-.1 0-.1.1 0 0-.1-.1-.1.1.1.5.4.5.5-.1.1.1.1.1.2.1-.5-.6-.5 0-.5.1.2.1.3.5.7-.2-.2.1-.1.1-.1l-.1-.1c-.1-.2-.5-.4-.5-.4.2 0 .3.1.4.1 0 .1 2 1 1.4 1.1.3 0 6.4 5.1 6.7 4.1.1-.4-1.7-.9-1.9-1.3-.3.9 8.2 1.3 8.4 1.4.7.2.6-.7.9-.4.9.8 0 1.4.4 1.9.7.8 2.6 1.3 3.6 2.3.9.9 2.1 4.3 2.1 5.6v-.4l.1-.1c.1.1.4 1 .4 1.1 0-.1-.5 0-.4.3 0 .1 0-.1.1.1-.1-.2 1 .6.7.7-.1 0 0 .1 0 .1h-.1c0 .1-.3-.7-.3-.7v.1c.2.3.5.9.6.9 0 0 .1-.2 0-.2.1 0 .1 0 .1-.1 0 .2.6.5.1.5.2 0 1-.1.5.1.4-.2.4-.3.8-.5-.1-.1-.2.1-.1-.1-.2-.5-.6-.4-.2-1.5-.4-.7-.3-1.2-.7-1.6 0-.2 2-2.1.6-2.1 0-.3 1.6-4.8 1.4-5.3zm-22.3-12.8s0-.1 0 0zm19.8 23.2c-.1.2.1 0 0 0 .1 0 0 .1 0 0zm.3.2c-.1 0 .2-.1 0 0 0 0 0-.1 0 0zm-.3-.2c-.1-.1 0 0 0 0zm-.1.1c-.1-.2.1.1 0 0 0-.1 0 0 0 0zm-.2-.1zm-1.2-12.6c0-.3 0-.2 0 0 0 0 0-.1 0 0zm-6.3.9c-.1 0 0 0 0 0zm-5.9-7s-.4.2-.6.4c.2-.6.8-1.2 1.3-.6-.1.2-.6.2-.7.2 0 0 .1 0 0 0zm.5.6c-.1-.3.3-.5.3-.5-.2.4.2.5.2.8-.2.6-.6-.1-.5-.3zm.5-.7c.3-.1.5-.3.9-.1.1-.5-.4.8-.2.6-.2.1-.8-.5-.7-.5 0 0-.1 0 0 0zm1.1.4c-.1.1-.6.7 0 0 .1 0 0 0 0 0zm-.5.4c0 .1 0 .2 0 0zm-.8-.7zm1.4.1c-.1.2 0 0 0 0zm-.1 0c.3-.7.9-.3 0 0 0-.1 0 0 0 0zm1.5 1.4c-.1 0 0 0 0 0zm.1.1c-.2.1-.1-.1 0 0-.1 0-.1 0 0 0zm-.2-.5c-.3 0-.3-.2-.3-.4 0 0 .5.4.3.4zm1.2-3zm.2-.1zm0-.2zm-.1.1c-.1 0 0 0 0 0zm-.1.1c-.1 0-.1 0 0 0-.1 0-.1 0 0 0zm.1-.2c.2 0 0 0 0 0 .1 0 0 0 0 0zm-.1 0c.2 0-.2-.1 0 0 .1 0 0 0 0 0zm-1.3.3c0-.1 0-.1 0 0 0 0 0-.1 0 0zm1.2-2.6c-.1.2.2-.2 0 0 .1 0 0 0 0 0zm-7.3 4.3c0 .1.5-.5 0 0 0 0 0-.1 0 0zm.6.1c-.2-.3.2.5 0 0 0 0 0 .1 0 0zm-.3-8c.6.1.3.1.5.1-.3 0-.1.1 0 .1-.7.2-.3-.1-.5-.2.1.1-.1 0 0 0zm-.7 4.3c-.1 0 .1-.1 0 0-.1 0 0 0 0 0zm.2-.9h.2-.2zm0 1.2zm.4-3.1c.1 0 0 0 0 0zm.7-.3c-.3.3.1-.1 0 0zm.7-1.2c-.1 0 0-.1 0 0zm.2 1c.1-.1 0 0 0 0 .1 0 0 0 0 0zm2.4.9c-.1-.1 0 0 0 0zm-.9-.6c-.6.2.5-.3 0 0-.1 0 0-.1 0 0zm-.4-1.2zm-.4-.1c-.1 0-.1 0 0 0zm-.1-.1c.1-.2 0 .1 0 0zm-.2.1s0-.1 0 0c.1-.1 0-.1 0 0 0 0 0-.1 0 0zm-.8-.1c-.1.1-.1 0 0 0 0 0-.1 0 0 0zm-1.7 1.1c.3 0-.3.1 0 0zm-.5.5c.2-.1-.1.1-.1.1 0-.1 0-.1.1-.1 0 0-.1 0 0 0zm.7.1c.2-.1-.1.1 0 0zm-3.9 2.9c-.1-.1.1 0 0 0 0-.1 0 0 0 0zm-.4 6.7c.1 0 0 0 0 0s0-.1 0 0zm-.4-.1s0 .2 0 0c0 0 0 .1 0 0zm.9-4.3c.2 0-.3.6-.5.6.1-.1.2-.3.5-.6 0 0-.1.1 0 0zm.1-.2s0 .1-.1.1c.3-.4.3-.5.1-.1 0 .1 0 0 0 0zm-.1 4.8c-.2 0-.7-.1-.7-.3-.1.1 1.1.3.7.3-.1 0 0 0 0 0zm.1-7.3c-.1.1 0 0 0 0s.1-.1 0 0zm-.2.7c.1 0 0 0 0 0zm-2.2 5.7zm.1-4.2c-.1-.2.6.3-.3.6-.1-.1 0-.2.1-.3-.1.1-.4.1-.1-.1-.1.1-.2.1-.4.2.5-.6.6-.6.7-.4.1.1 0 0 0 0zm-2.8.4s-.1.2 0 0zm.3-.4c0 .1-.2.2 0 0zm-.2.1c-.1.2-.1 0 0 0zm-.4.5c-.1.1-.1 0 0 0zm-4.3 5.5c.1 0 .1 0 0 0zm1.2 1.2c0-.1.1-.1 0 0zm.1-.1s.1 0 0 0zm28.1 13.2s0-.1 0 0zm0 0c0-.1.2 0 0 0 0 0 .1 0 0 0zm.9-3c.2-.1-.3.1 0 0 0 0-.1 0 0 0z"/><path class="st0" d="M-418.9 268.3c-.2.1-.4.1 0 0-.1.1.1 0 0 0zm-4.6-14s0 .1 0 0c.1 0 .1 0 0 0zm-4.5-.5s.2-.1.1-.1l-.1.1zm15.5 1.2s.4.5.3.6c.1-.1.1-.1.1 0 1-1.6.2-1-.4-.6.1-.1-.1 0 0 0zm.2-1.3c.3 0-.1 0 0 0 0 0-.1 0 0 0z"/><circle class="st0" cx="-408.1" cy="289.6" r="1.6"/><path class="st0" d="M-428.9 295.6h9.8v2.1h-9.8z"/><path class="st0" d="M-432.3 297.7h16.8v2.3h-16.8zm-4.2-49.6c0 .9-.7 1.6-1.6 1.6-.9 0-1.6-.7-1.6-1.6 0-.9.7-1.6 1.6-1.6.9 0 1.6.7 1.6 1.6z"/><path class="st0" d="M-436.6 248.8c-.1.3-.3.5-.5.6l2.7 3.7.7-.5-2.9-3.8zm12.8 43.4c-1.2 0-2.4-.1-3.6-.3-6-1-11.2-4.2-14.7-9.1-7.3-10.1-5-24.3 5.1-31.6l1.1 1.5c-9.3 6.7-11.3 19.7-4.6 29 3.2 4.5 8 7.4 13.5 8.3 5.5.9 11-.4 15.4-3.7l1.1 1.5c-4 2.9-8.6 4.4-13.3 4.4z"/><path class="st0" d="M-436.6 248.8c-.3.6-.8.9-1.5.9l-.1.1 2.9 4 1.5-1.1-2.8-3.9z"/><path class="st0" d="M-439.5 248.9c.3.5.8.8 1.4.8.9 0 1.6-.7 1.6-1.6 0-.2 0-.4-.1-.6-.6.9-1.5 1.5-2.9 1.4zm31.3 39.1l-2.9-4-.7.5 2.8 3.8c.2-.2.5-.3.8-.3z"/><path class="st0" d="M-408.2 288l-2.9-4-1.5 1.1 3 4.1c.1-.7.7-1.2 1.4-1.2z"/><path class="st0" d="M-406.9 288.6c-.3-.4-.8-.6-1.3-.6-.9 0-1.6.7-1.6 1.6 0 .2 0 .3.1.5.6-1.1 1.7-1.5 2.8-1.5z"/><path class="st0" d="M-406.5 278c-.3.7-.7 1.3-1.1 1.9v8.2c.6.2 1.1.8 1.1 1.6 0 .7-.5 1.3-1.1 1.6v25.3h9.7V278h-8.6z"/></svg>