<svg id="Слой_1" xmlns="http://www.w3.org/2000/svg" viewBox="-460 245.3 37.1 71.7"><style>.st0{fill:#63c4c9}.st1{fill:#fff}.st2{fill:#f1f2f2}.st3{fill:#58595b}.st4{fill:#d1d3d4}.st5{fill:#ed6f5d}.st6{fill:#e94b35}.st7{fill:#5c6d84}.st8{fill:#414042}.st9{fill:#6a707d}.st10{fill:#454c5d}.st11{fill:#facb6b}.st12{fill:#231f20}.st13{fill:#edf8fa}.st14{fill:#e6e7e8}.st15{fill:#bc9850}.st16{fill:#fbd589}.st17{opacity:.4;fill:#f1f2f2;enable-background:new}</style><path class="st0" d="M-427.9 251.5c5 6.6 3.6 16-3 20.9-6.6 5-16 3.6-20.9-3-5-6.6-3.6-16 3-20.9 6.6-4.9 16-3.6 20.9 3z"/><path class="st1" d="M-426.9 253.1c-.3-.3-.6-1.1-.9-1.5-.2.2-.5.8-.9.7 0-.2.5-.5.5-.8 0-.2-.1-.5-.2-.6-.2-.3-.9-1.3-1.3-1-.1.1-.2.3-.1.3.1.1 1.2-.2.8.6-.1.3-.9.2-1 .6l.3.6c.1.2.2.4.4.4.1 0 .1-.3.4-.1.3.2-.1.5-.1.7 0 .3.1.5.1.7-.1.4-.3.7-.3 1.2 0 .7.2.8.5 1.3.1.2.1.3.2.5.3.2.8.5 1.3.6.2.1.6.1.8 0 .2-.1.8-.5.9-.6.1-.3-.4-1.6-.5-1.8l-.9-1.8s.6 1.2 0 0zm-25.1 6s.1-.1 0-.1c.1 0 0 .1 0 .1zm2.7 7.6c0-.1-.1-.1-.2-.1 0 .4.4.1.2.1 0-.1 0 0 0 0zm-3.2-6.8s-.1-.4-.1-.3v.2l.1-.1c0 .1-.2.4-.2.4.3.2.3-.2.2-.2 0 0 .1 0 0 0zm-.1.2s.1 0 0 0zm-1.2 1.3s-.2.2-.1.2.3-.3.1-.2c0 0 .1 0 0 0zm1.9-2.5s.1 0 0 0c.1 0 0 0 0 0zm3 .4h.2c-.1 0-.3-.3-.3-.2v-.1c-.3.1.2.4.4.4-.1 0-.3-.1-.3-.1zm1.3-7.9c0-.1-.2.2-.2.2.2 0 .2-.1.2-.2 0 0 0 .1 0 0zm5.2.4c.2-.2 0-.5-.2-.3-.2.1 0 .4.2.3.1-.1 0 0 0 0zm-.4-.5c-.1.1 0 .1 0 0 .1 0 0 0 0 0zm-4.8.6c.1 0-.1-.2-.1-.2-.1.1 0 .2.1.2s-.1 0 0 0z"/><path class="st1" d="M-447.8 251.5s.2-.1.2-.2c0 0-.1.1-.2.1.1-.1 0-.1-.1-.1 0 .1.1.2.1.2s-.1 0 0 0zm5.7-.1h-.2c0 .2.3 0 .2 0 0 0 .1 0 0 0zm1.8 1.3c-.1 0-.1 0 0 0-.1.1 0 0 0 0zm-7.7-1.4c.1-.1-.2-.2-.3-.2-.1 0 .1.1 0 .1s.2.2.3.1c0 0-.1.1 0 0zm.4-.4h-.2s.1.1.2 0zm7.5 1.3h.1l-.1-.1v.1c0-.1.1 0 0 0 .1 0 0 0 0 0zm-4-2.6s-.1.1 0 0c0 .1.1 0 0 0zm5.6 5c.1 0 .2 0 .3-.1 0-.1-.1-.1-.1 0 .3-.1-.2-.1-.3 0l.1.1c-.3 0-.1 0 0 0s-.1 0 0 0zm-8.5-3.1c.2 0 .3-.2.4-.2-.1 0-.4-.6-.8-.1l.1-.1c-.1.1-.1.1-.2.1.1-.1 0 .1.1.1 0 .1-.1.3-.2.3.1-.1.2-.1.3-.2 0 0-.2.1-.2.2 0 0 .4-.2.5-.1-.1 0-.1 0 0 0s-.1 0 0 0zm-.2-.3c.1 0 .1 0 0 0 .1 0 0 0 0 0zm.1.1zm-.1-.2s-.1 0 0 0c-.1 0-.1 0 0 0zm-.2.1c.1-.1.1 0 0 0 .1-.1 0 0 0 0zm.1-.9c-.1 0 .2.1.3.1-.2.2.1 0 .2 0-.1.1.4.1.4-.2 0-.2-.3.1-.4 0v-.1h-.1v-.1c.1.1-.4.3-.4.3s.1 0 0 0zm4.7 2.6c0-.1-.9-.1-.9-.2 0 .1.1 0-.1 0 0 0 0 .7.1.6v.1c.4 0 .2-.2.4-.3.1.1.5 0 .5-.2zm-3.5.3s-.1 0 0 0c0 .1 0 .1 0 0zm-.2-2.3c-.1 0 0 .1 0 0zm4.1 2.5c.1 0 0-.3-.1-.3-.2.1 0 .3.1.3 0-.1-.1 0 0 0zm.6 1.9c-.1.1.2 0 .2 0 0-.1-.1-.1-.2 0 0 0 .1-.1 0 0zm-4.4-4.1c.1-.2-.2-.3-.3-.2-.6 0 .2.6.3.2 0-.1 0 0 0 0z"/><path class="st1" d="M-443.3 252.7h-.2s.1.1.2 0zm.5.8c.1-.1 0-.3 0-.3 0-.2-.3.5 0 .3.1 0 0 0 0 0zm-1.2-3.5l-.1-.2c-.2 0-.9.3-.9.5h.1c-.1.1-.5.2-.6.2 0-.1-.1-.2-.3 0 0 0 .2-.1.3-.1-.2 0-.1-.1-.3.1.1 0 .1 0 .1-.1-.1 0-.3.1-.4.2-.2-.1-.5 0-.6.2h.1l-.1.1s.7-.2.8-.1c.2.1.1.3.5.3.2 0 .2-.2.3-.2.2-.1.5-.2.7-.3 0 0 .2 0 .3-.1-.1-.2.1-.5.1-.5zm-1.8.5s-.1.1 0 0zm-.4.1c-.1 0-.1 0 0 0 0 0-.1 0 0 0zm-3.4 1.2c-.1.1.1.1.2.1 0 0-.2-.2-.2-.1-.2 0 0 0 0 0-.1.1 0 0 0 0zm7.5 1.1c.1-.1-.1-.2-.2-.1 0-.1.1.2.2.1 0 0-.1 0 0 0zm1.2-.5c0-.1-.1 0-.1 0-.1.1.1.1.1 0zm-5.4 1.1s0-.1 0 0c-.1 0-.1 0 0 0zm3.1-4.8s-.2.1-.1.1c0-.1.1-.2.1-.1zm.1 2.9s.1-.2 0-.2v.2zm5.7 8.4s-.1 0 0 0c-.1.1 0 .1 0 0zm7.1-11zm-10.5 7.7l-.2.1s.2 0 .2-.1zm9.2 14.8c.1.1-.2 0 0 0 0 0-.1 0 0 0zm-.6-1.4c-.1-.2 0 .2 0 0 .1 0 .1 0 0 0 0 0 0 .1 0 0zm.7 1.6zm-4.8-11.7c.1 0 .3-.1.2-.1-.1 0-.2.1-.2.1.1 0 0 0 0 0zm-3.2-11.1c.2-.1-.1.2 0 0 .1 0 0 .1 0 0z"/><path class="st1" d="M-436.8 260.2c.8-.4-.6-.3-.6-.1l.2.2c0 .1-.3 0-.2.1 0 .1.3-.1.3-.1 0 .1-.3.1-.3.2 0 0 .4-.1.5-.1-.1 0 .1-.2.1-.2zm-1.2.7s.4 0 .3-.1c-.1-.1-.1-.1 0-.1-.1-.1-.3 0-.3.1 0-.1.1.1 0 .1.1 0 0 0 0 0zm.5-.6c-.2-.4-1.6 0-1.7.4 0 .1.1 0 .1 0s-.1.1 0 .1c.2-.1.2-.3.4-.3v.1c.1-.2.7 0 .8-.1v.1c-.1 0 .4-.3.4-.3 0-.1 0 0 0 0zm-1.5.2c0-.1.1-.1.2-.1-.1 0-.2.1-.2.1zm8-12c0 .1.1 0 0 0 .1 0 .1-.1 0 0zm.9.7c0 .1-.1.3 0 .4l.2-.1c-.1.1 0 .2-.1.3h.1v.1h.1c-.1 0 .4-.4.4-.4 0-.1-.2-.2-.2-.2-.6-.3-.6-.2-.5-.1zm-1-.8c.1 0 .2 0 0-.2-.1.1-.1.1 0 .2zm.4.1zm-.1 0l.1.1v.1c0-.1.1 0 .1 0v.1l.1-.1c-.1 0-.1-.1-.3-.2.1.2-.1-.2 0 0zm-10.5-3h.1c-.1-.1-.1 0-.1 0 0 .2.4 0 .4 0-.1-.1-.3-.1-.4 0z"/><path class="st1" d="M-442.4 246.4s.1.1.1.2-.4 0-.2.3c-.4.1-.8.9-.1.5 0 .5-.9.6-.9 1.1 0 .3.5.2.7.1.3-.1-.3.1-.2.1-.1 0 .3.1.3.1h.5c.3-.2.9-.5 1.4-.5.2 0 .9.3.8.5.2-.2.1.1.1.1h-.1c.1 0 0 .2.1.2-.3.1.7.3.3-.1 0 .1.1 0 .1 0v.1c.1 0 .1 0 .2-.1 0 0 .1.1.1.2h-.3c.1 0-.1.1-.1.1h.1s-.1.1 0 .1c-.1 0-.1 0-.1.1.1 0 0 .2.1.2.3.1.4-.3.3-.3.1 0 .1 0 .1-.1l.1.1v-.2h.1s-.1.1 0 .1c0 0-.1.5-.3.4h.1s-.1.4 0 .2c0 .1-.1.1-.1.2 0 0 .1 0 .1-.1l-.1.1s.1 0 .1-.1c-.2.1 0 .1.1.1-.2 0 0 .3 0 .2 0 0 0-.1.1-.1-.1 0-.1.1 0 .1l.1-.1s.1.2.1.1c0 0 .2.2.2.3 0-.1 0-.1.1-.2 0 .2.1.2.2.3 0 0 1 .4 1 .1v.1c0-.1.1-.1.1-.1v.1c0 .1.1 0 .1-.1v.1l.1-.1.1.1c0-.1 0-.4.1-.4h-.1s0-.1.1-.1c-.1 0-.1-.5-.1-.4l.1-.1h-.1c.2-.1.1-.5 0-.5.1-.1.1-.4.3-.5 0 .1.1.1.1.2.1-.2.8-.8.5-1.1.7.1.8-.9 1.3-1.2 0 0-.1 0-.1.1l.1-.1c-.2.1-.5.2-.7.3.2-.1.2-.3 0-.3.2-.2.6.2.6-.1 0-.3-.3-.3-.5-.3h.2l-.2-.2c-.2-.1-.3 0-.4.1.1 0 .1 0 .2-.1-.1.1 0 .2.1.2-.1 0-.2-.1-.3 0 0 0-.1-.3.3-.3-.1 0-.3 0-.4-.1h.2c-.4-.1-5.3-1-5.3-.5h.2c-.1.1-.4 0-.5.1h.1s-.2 0-.2.1c.1.1 0 .2 0 .2-.1-.6-1 .2-.8.2-.2 0-.6.2-.4.3zm-.1 1.8c-.1 0-.1 0 0 0 0 0-.1 0 0 0zm-.3.2l.2-.1s-.1.1-.2.1zm3.4.3c.1-.1-.4.3 0 0zm-.1.1c-.1 0-.1 0 0 0 0 0 .1-.1 0 0zm.2.1c.1-.1.1-.1.1 0s0 .1-.1 0zm-.1.3c.1 0 .1 0 0 0 .1 0 0 0 0 0 .1 0 0 0 0 0zm.5.9zm.2-.3c.1 0 .1 0 0 0 .1 0 0 0 0 0zm-.1-.1zm0 0zm0 0s0 .1 0 0zm.2-.1zm-.2-.1s-.1 0 0 0zm-.1-.1s0 .1 0 0c0 .1 0 .1 0 0zm-.1.3s.1-.1.1 0h-.1zm.7.6h.1c0 .1-.1 0-.1 0s0 .1 0 0zm.1.1c0 .1 0 .1 0 0zm1.1.4zm1.4-3.7c-.2.1-.1-.1 0 0-.1.1.1-.2 0 0zm-.3-.7s.1-.1 0 0c.1 0 .1 0 0 0zm0-.1c-.1 0 .1 0 0 0zm.4.8c-.2.1.1-.2 0 0zm-.1-1c-.1 0 0-.1 0 0zm-16.3 12.8s-.1.1 0 .1c0 .1.1-.1 0-.1zm-1.7 2.4c-.1 0-.2.2-.2.2.1 0 .1-.1.2-.2 0 0-.1.1 0 0zm-.4.4c-.1-.1-.1.2-.1.2.2-.1.1.1 0 .1.2-.1.2-.2.1-.3 0 0 0 .1 0 0zm4.1-3.2c.2-.1-.1 0 0 0 .1-.1 0 0 0 0zm1.5-7.8c0 .2.3 0 .3 0s-.1 0-.1.1h.1c-.3.2.4-.2.2 0 .1-.2.8-.1.5-.4-.1-.2-.5-.1-.6 0 0-.1-.5.2-.4.3zm.4 0zm0 .1c.1 0 0 0 0 0zm7.7 1.9s.1-.1 0 0c0-.1 0 0 0 0zm-7.1-1.3c-.1.1-.1.2-.2.2.1 0 .2-.2.2-.2-.1 0 .1 0 0 0zm-.3-.6h.2c0-.1-.1 0-.2 0zm0-.8c-.2.2.2 0 .2 0-.1-.2-.3 0-.2 0zm3.6-.4c.1 0 .1-.1 0 0 .1-.1 0 0 0 0zm5.7 10.1s0 .2.1.2l-.1-.2c-.1 0 0 0 0 0zm-7.3-9.4s0-.1 0 0c-.1-.1-.1 0 0 0zm-1.6-.9h.1c-.1.1 0 0 0 0l-.1.1h.1c-.1 0-.1.2.2.2-.2.1.5-.2.5-.2-.4.2-.1.3.2.3 0 0-.1 0-.1.1 0 0 .5-.1.5-.2 0 0-.1 0-.1-.1.3.1.1-.1.2-.1 0 0 .1 0 0-.2 0 .1.3-.1.3-.2-.3.5.2.2.3.2l-.1.1c.1-.1-.1.1.1 0 0 .1-.9.3-.3.3-.2.1-.3.2-.3.4s.2 0 .2 0c.2 0 .6-.3.6-.3.1 0 .3-.2.2-.1h.1l.3-.1v.1c.6-.3.2-.7.1-.5 0-.2.1-.5.4-.6h-.2c.1 0 .3-.2 0-.1.2-.1.1-.3.1-.3-.2 0-.3.1-.5.2.2-.1.7-.5.5-.4 0 0 .2-.1 0-.1.2-.1.4-.4.3-.3.1-.1.2-.1 0-.2.2-.2.4-.7.7-.8l-.2.2c.1-.1.1-.2.2-.2-.2.1-.3.3-.5.4.2-.2 1.2-.7.8-.9-.2-.1-.7.2-.8.3 0 0-.1.1-.2.1.1-.1.2-.2.1-.2-.1.1-.4.1-.5.2-.3.1-.1.1-.1.1s-.6.1-.3.2c0 0-.9.3-.5.3-.1.1-.4.2-.5.2h.2s-.3.2-.4.2c0 0 .1 0 .1.1 0 0-.1 0 0 0-.1 0-.2.1-.2.1.3-.1-.2.1.1.1l-.1.1h.1c-.1 0-.5 0-.6.1 0 0 0 .2-.1.2.1 0 .1-.1.2-.1-.1.1-.7.6-.8.6.1 0 .1-.1.2-.1l-.2.2.3-.1-.1.1c.1-.2.1.1.1.1.1 0 .2-.1.3-.1-.1 0-.1 0-.1.1.2 0 .3-.1.4-.2-.1.2.6-.3.6-.4 0 0-.2.2-.1.2 0 0 .1 0 .1-.1-.1.1-.1.1 0 .1-.1 0-.1 0-.1.1h.3c-.3-.1-.6 0-.8.2 0 0 .1.2.2.1 0 0-.1.1-.2.1 0-.1-.2-.3-.4-.1 0 0 .1.1.1 0-.2.1-.8 0-1.1.1 0 0 .2-.1.2 0 0 0-.1.1-.2.1h.1s-.2.1-.2.2h.1c-.1 0-.1.1 0 .1h.2zm1.3-1.2s-.1 0 0 0zm1.3-.9zm.4 1.3c-.1.1-.1 0 0 0-.1 0-.1 0 0 0zm-.3.8s.1 0 0 0zm.5-.9zm-.1-.1zm-1 .9c0 .1 0 .1 0 0 0 .1 0 0 0 0 0 .1 0 0 0 0zm-.2-.1s-.1 0 0 0c0 0-.1 0 0 0zm.4-.2c.2 0 0 .1 0 0 0 .1 0 .1 0 0 0 0 0 .1 0 0zm-.3.1h.2c-.1 0-.2.1-.3.1 0-.1 0-.2-.1-.2.1 0 .1 0 .2.1 0 0 0-.1 0 0zm.1.3zm.2.2s-.1 0 0 0c-.1 0 0 0 0 0zm.7-1.1c0 .1-.1.1 0 0zm-1.7.2c0-.1.1-.2.2-.2l-.2.2c.1-.1.1 0 0 0zm1.1-.4c.1-.1.1-.2.2-.4 0 0 0 .1-.1.1h.1c-.1 0-.1.1-.2.3.1-.1.3-.2.3-.2-.1.1-.3.2-.4.3 0-.1 0-.1.1-.1 0-.1-.1 0 0 0z"/><path class="st1" d="M-446.1 250s0 .2.1.2c0 .1.3-.3-.1-.2-.1 0 .1 0 0 0zm-4.4 3l.1.1c.2-.2.5-.2.4-.5l.1-.1s0 .2.1.1c-.1.1-.2.3-.1.3.2 0 .2-.3.1-.2 0-.3.3-.4 0-.6-.1-.1-.1 0-.2.1s-.6.6-.5.8c-.1-.1 0-.1 0 0 0 0 0-.1 0 0zm4.3.2c-.1.1.1-.2 0 0 0 0 0-.1 0 0zm-.2-2.4c0 .1 0 .1 0 0 .1 0 0 0 0 0zm.3 1.1s-.1-.1-.2-.1c0 0 .1.1.2.1h-.3c.1-.1 0-.1 0-.2 0 0-.2.1-.1-.1l-.2.2h.1s-.3 0-.2.1l-.2.1h.1c-.1 0-.1 0-.1.1h.2s-.1 0-.1.1h.2c0 .2-.4-.1-.3.2 0 .1.5.1.6.1.2 0 .3 0 .4-.2-.1 0 0-.4-.1-.4zm4.5 3.3c-.1.1.2 0 .2 0-.1-.1-.2 0-.2 0zm-2-2.5s.1.1.1 0h-.1zm2 1.6c-.2 0 0 .2-.1.2h.1c.1 0 .1-.2 0-.2 0 0 .1 0 0 0zm-1.4-3.1c-.1.1-.1.1 0 0-.1.1 0 0 0 0z"/><path class="st1" d="M-449.1 252.2s-.4.1-.2 0c-.1.1-.1 0-.3.2h.1l-.2.2v.1l.3-.1c0 .1-.3.2-.3.3 0 .1.1 0 .2 0-.1 0-.1 0-.1.1.1.2.5-.3.5-.3.1 0-.1.3 0 .2.2 0 .4-.2.7-.4.2-.2.6-.3.4-.6-.1-.1-.3 0-.5.1-.1 0-.1-.3-.2-.2-.1.1 0 .3.1.3h.1c-.1.1-.1.1 0 .1-.2.1-.3-.1-.6 0-.1 0 .1 0 0 0zm-.2-.1h-.1c-.1.1 0 0 .1 0zm6-3.5l.1-.1c-.1.1-.2.1-.1.1zm-6 2.9l-.1.1c.1 0 .1-.1.2-.1-.6.5.6.2.4-.1h-.1c.1-.1 0-.2 0-.2-.3-.1-.4.3-.5.3h.1c0-.1-.1 0 0 0zm6.2 0l.1-.2c-.1.1-.1.2-.1.2s0 .1 0 0zm5.6 8.5c0-.1 0 0 0 0s.1 0 0 0zm.7-6s-.1 0 0 0c-.2.1-.1.1-.1.3v-.1.1c0-.1 0-.1.1-.1.1.3.1-.3 0-.2zm2.3-6.1c-.1 0 0 .1.1 0l-.1.1s.3-.1.4-.1c-.1.1-.2.1-.2.2l.2-.1c-.1 0-.2.1-.2.1.1-.1.3 0 .3-.1 0 .1-.1.2 0 .1 0 0-.1.1 0 .1.4 0 1.2-.6 1.1-1 0-.1-.4-.2-.3-.2 0 .1-.2.1-.3.1.1.1-.1.2-.1.3-.3-.1-.1.1-.2.1h-.2c.1-.1 0 .3 0 .3-.1-.1-.2-.2-.4-.2l.1.1c-.3 0-.2.2-.2.2zm.2 0zm3.9 1zm-.5-.5s0 .1 0 0zm.1.2c-.1 0 0-.1 0 0-.1-.1-.1 0 0 0 0 0-.1 0 0 0zm0 0c0 .1 0 0 0 0zm-1.5 21.5c0-.2.1.1 0 0 .1 0 .1-.1 0 0z"/><path class="st1" d="M-429.4 263.2c-.1-.2-.3-.7-.3-.9.2 0 .1-.3.2-.5 0-.2.1-.4 0-.6-.2-.4-.3-.2-.6-.2s-1.9.1-2 .4c0 0-.9-.5-.9-.6-.4-.1-.6.2-.9.2-.2 0-.7-.3-.8 0 0-.1-.2-.3-.2-.3-.1 0 0 .2 0 .2-.1.1-.1 0-.1 0h-.1s0-.1.1-.1c-.1 0-.6.3-.7.4-.2.1-.4.1-.6.1 0 0 0-.1-.1-.1 0 0 0 .6.1.5-.2.1-.2-.5-.2-.5-.3 0-.6 1.1-.5 1.1-.3 0-.3 0-.6.1-.2.1-.4.2-.7 0-.1-.1 0-.6-.2-.6-.3-.2-.6.3-.8.3.1-.2-.1-.9-.3-1-.4-.1-.3.5-.3.6-.1.2-.3.4-.6.4-.5 0-.8-.5-.9-.9-.1-.3-.1-.1-.1-.4 0-.1.3-.3.1-.3.1-.2.9-.3.9-.4h-.1s.1.1.1 0h-.1c.2-.3.8-.4 1.1-.3.1 0 .6.6.6.4.1-.4-.6-.7-.7-1.1 0-.3.3-.5.4-.8 0-.1-.1 0-.1 0s.1-.2.1-.3l-.1.1v-.1s-.1 0-.1-.1-.1-.6-.1-.5c.2.2.1-.1.1-.3 0 .1.3-.3.3-.3s.2 0 .2-.1h-.1l.1-.1s-.3.1-.1-.3c0-.1.4-.6.6-.7-.2.7.3.3.2.1.1.1.4-.5.3-.4 0 0 .1-.1.1-.2 0 0 0 .1.1.1.2-.1-.2-.3-.2-.3-.1 0-.1.2 0 .3l-.2.1c.1-.2-.2-.1 0-.2-.1.1-.3.1-.4.1 0 0 0 .1.1.1-.3 0-.1-.5-.2-.5-.2 0-.6.3-.7.5.1-.4.3-.5.6-.7l.6-.3c.2-.2.2-.3.4-.5 0 .2-.1.9 0 .9.2 0 .6-.3.6-.3v.2c0-.1.3-.5.1-.4 0-.1-.1-.1-.2-.1 0 0 .1-.1 0-.1 0 0-.3.1-.2.2 0 0-.3-.1-.2-.1-.1 0-.1 0-.1.1 0-.3 0-.5-.2-.7-.2-.1-.5-.2-.8 0 0 0-.3-.3-.5-.2.1-.2-.3-.4-.4-.3 0 0 .1-.1 0-.1-.2-.1-.3-.2-.5-.3v.6l-.3.2c0 .2-.6-.5-.5-.5-.3-.1-.7 0-1 .2-.6.3-.3.3-.1.6v.4c.2.3.5.1.5.6 0 .2-.2.2-.2.4 0 .1.2.1.2.2l.2.3c0 .1-.1 0-.1.1-.2-.1-.2 0-.5-.1-.1-.1-.2-.4-.3-.4-.2-.1-.5.1-.7.1-.4 0-.6-.1-1 .2-.1-.1-.3-.2-.4-.3-.2-.2-.2.2-.3-.3 0-.1.1-.7.1-.6.1-.1.6-1.4.4-1.3.1 0 .4-.1.5-.1 0 0-.1-.1-.2-.1 0 0 .1 0 0 0h.2c.1 0 0-.5-.2-.6.1 0 .1-.1.1-.1h-.1c.1-.1 0-.1-.1-.1 0 0 .1-.1 0-.1h-.3s.2-.2.2-.1h-.1.5v-.1c.1-.1.2-.3 0-.3.1-.1.4.1.4.1l.2-.1c-.1.1 0 .1 0 .2-.2-.3.5 0 .4 0 .1 0 .1 0 .2-.1-.1.1-.1 0-.2 0v-.1s.5.3.4.3c-.2.1-.2.3 0 .4-.1.1-.6.2-.5.4.1.4.4 0 .6-.1.2-.1.4 0 .6-.1v.1c.3.1.7-.1 1-.1l-.4-.3s.2.1.2 0 .3 0 .4 0c0 0-.1 0-.1-.1h.1c-.1 0-.1-.1-.1-.1.2.1-.1-.1.1 0 .1 0-.1-.1-.1-.1h.1c-.1-.1-.3-.1-.3-.2 0 .2-.5-.2-.5-.2s.2 0 .3-.1v.1s.1 0 .1-.1c-.1.1.3.1.4.1l-.1-.2h.1c.3-.4-.5-.4-.5-.3 0-.1-.6 0-.7 0 .1-.1-.1 0-.1 0 .1-.1.2-.1.3-.2.1-.1-.4.1-.2 0 .1 0 .1-.1.2-.1h-.2c.2-.2-.1-.1-.3 0 .2-.2-.2-.2-.2-.2l-.1.1c-.1 0 0-.1-.1-.1l-.1.1c.1 0-.3-.4-.3.1v-.1s-.1 0-.1.1c0-.1-.1-.1-.2-.1.2-.1-.1-.1-.2-.1.2-.1-.2 0-.2 0 .1 0 0-.1-.1-.1.1 0-1-.2-.7.3-.1 0-.6-.1-.4.2l-.2.1h.1s-.1 0-.1.1h.2c-.1.1-.3.3-.1.2-.1.1-.1.1 0 .1-.1.1-.2-.1-.2-.1 0-.1.1-.5.1-.4-.1.2-.5.2-.5.5-.1.4.2.5.4.6-.2.1.7 0 .6 0 .1 0 .1.2.2.2 0 .1-.1.3-.1.4l-.1-.1c-.1 0 0 .3.1.2.1.2-.3.1-.3 0 0-.2.1-.2-.3-.3-.2 0 .1.3-.1.3s-.1-.2-.1-.1h-.1s.2-.1.1-.1-.2.1-.3.1c.1-.1 0-.1 0-.2 0 0-.5-.3-.6-.2v-.3l.3-.3c.1-.5-.5-.3-.7 0h.1c-.3.3.3.4.2.7h.1c-.3.2 0 .4.2.5 0 0 .6 0 .4.2 0 0 0-.1.1-.1 0 .2-.3.4-.1.5h-.2s0-.2-.1-.2h-.1c.3-.1.1-.2.1-.2.1-.1-.2-.3-.4-.2-.2.1-.2.4.1.4.1.4-.8.4-1.2.5.2-.1.4-.2.6-.2v-.1h-.1s0-.1.1-.1h-.2l.3-.1c.2-.1-.7-.1-.7-.1-.1 0-.2-.3-.4-.4.1-.4-.2-.3-.4-.1h.1c-.1.3-.3.2.1.5-.1.1-.4-.2-.6-.1h.2s-.2.1-.2.2c0-.3-.4.1-.4.1 0-.2-.3-.2-.3-.1-.4-.1-1 0-1.5.4.1-.1.2.7.2.7 0 .1.4.1.6 0 .3-.2.2-.6.5-.9-.1.2 0 .3-.1.5l.2-.1c-.1.5.6 0 .9-.1-.7.4-.8.5 0 .4.3 0 .4.1.7-.2 0 0 .5-.4.4-.5 0 0 0 .1.1 0 0 0-.4.3-.3.4.4.5-.4-.7 0 .1 0 0 .4 0 .3.2l-.2-.2c-.1-.1-.7.3-1 .5 0-.1.1-.1.1-.1.1-.1-.5 0-.6 0-.3.1-.6.1-.8.2l-.3.3-.1-.2-.1.1v.1c-.1.1 0 .1-.2.1-.1 0-.2-.2-.4-.1 0 0 .1.1.2.1-.2-.1 0 .3-.2.3-.1 0-.1 0-.2.1l.1-.1c0-.1-.5.5-.5.5-.1.1-.2 0-.2.3-.2.1-.4 0-.6.1-.3.1-.7.3-1.1.4-.1.1-1.3.5-1.4.5-.1.5-.2 1.2-.2 1.6 0 0-.2.9-.1.6v.2c.1 0 .1-.3.2-.3 0 .1.1.1.1.2s-.2.2-.2.3c-.1.2-.4.4-.1.7v-.1c.1 0 .4.6.5 0 .1.2.2.2.2.3h.1v.1l.1-.1v.1c.1-.2.1-.1.3-.1v-.2h.1v.1c.1 0 .1-.1.1-.1s-.1.5-.1.6c-.1.2-.4.4-.2.6l.1-.2s.3-.4.5-.6c.1-.1.5-.9.2-.8.1-.2.1-.3.2-.6 0 .1 0 .5.1.3v.1c.2 0 .3-.5.4-.5.1-.1.1-.1.3-.2.3-.1.8-.1 1.1-.4 0 .3.6.1.6 0h.1c-.2.1.2.2.2.2.1 0 .1.1.2.1l-.2-.2c-.2.1 0-.1 0-.1h-.2c.1-.1 0-.1 0-.2.1.1.5.4.5.5 0-.1 0-.2-.1-.2.1-.1-.1-.2-.1-.3l.2.1c0 .1-.1-.1-.1.1 0 .1.2.1.2.1s0 .1-.1.1h.1l-.1.1c.1-.1.2.2.3.2 0 0-.1 0 0-.1h.1l-.4-.4c.2 0 .2.1.3.1v.1s.3-.1.4.1v.1c0 .2.3.1.3 0l.1.2s.1-.1 0-.1l.2.2h.1c-.1 0 0 .1.1.1l-.1.1h.2-.1.1c0 .1.4 0 .3.1.3-.5 1.1 1.4 1.3 1.5.2.2.6.5.9.6.3.1.4 0 .7.1.1 0 .8.4.8.5 0 0-.2 0-.1.1-.1 0 1.2.4 1.2.4.1-.3-1.3-.7-1.5-1 0-.2.6.1.5.2v.1c.1-.1 1 .3 1.2.3.4.2.4.4.8.5.3.1 1.1 0 1.4-.1.2-.1.3-.2.5-.3.1 0 .3.1.5.1s.5-.1.6-.1c.2 0 .4.3.6.3.1-.1.1-.1 0-.1.2.1.8.1 1 0 0 0-.1-.4.3-.2s.3.5.3.9c0 0-.1 1 .1.8v-.1c0 .2-.1.4.1.6.1.2.9.5 1.2.7.3.2.4.2.7.3.7.1.7 0 1 .7.3.6.5 1.2.7 1.8.1.2 0 .5 0 .7 0 .1.2.2.2.3.1.2.2.6.2.8v-.3l.1-.1c.1 0 .3.8.3.9l-.2-.1c-.1.1 0 .3 0 .3v-.1.1s.1-.1.2-.1c0 .1.2.3.2.4v.1c.1 0 0-.1 0-.1v.3c-.1.1-.1-.1-.1-.1 0-.1 0 0 .1 0 .1-.1-.3-.4-.3-.4 0 .1 0 .3.1.2.1.1 0 .1 0 .1l.1.3v.1c0-.1 0-.1.1 0-.1 0 0 0-.1.1v.1h.1v-.2c0 .1.1 0 .1 0v.1s0-.1.1 0c0 .2-.1 0 0 .1 0 .1 0 .2.1.1 0 .1-.2.1-.2.1.2 0 .4 0 .5-.1l-.1.2c.2-.1.1-.2.3-.3 0 .2.2 0 .3-.1-.1 0-.1 0 0-.1h-.2.1s-.4-.4-.3-.4c.1-.1.1-.5.2-.7-.1-.1-.2-.1-.2-.1-.2-.3 0-.1 0-.4 0 0 .1-.5 0-.5 0-.1.2 0 .1-.2s-.2.1-.3-.2c0-.1.7-.2.2-.6 0-.2.7-.3.6-.8 0-.1-.3-.3-.4-.3.5 0 .6-.2.7-.7.1-.3.2-.6.2-.9 0-.2-.2-.4-.2-.5.1-.8 1.3-.9.8-1.8zm-17.2-9.9zm15.3 18c0 .1.1 0 0 0 0 .1.1-.1 0 0 0 0 0 .1 0 0zm.2.1s.1 0 0 0zm-.2-.1s-.1 0 0 0zm-.1 0c-.1-.1.1.1 0 0zm-.1 0zm-1-9.8v-.2c0 .1.1.2.1.2l-.1-.1v.1zm-4.9.7c-.1 0 0 0 0 0zm-4.5-5.4c-.1.2 0 0 0 0-.2 0-.4.2-.5.3.2-.5.6-.9 1-.4 0 .1-.4.1-.5.1 0 .1 0 0 0 0zm.3.5c0-.1 0-.1 0 0 0-.2.1-.3.3-.4-.1.2 0 .4 0 .6-.1.5-.3-.1-.3-.2zm.4-.5c.3-.1.4-.2.7-.1 0 .1-.3.1-.3 0 .1 0 .2.3.1.5.2-.2-.4 0-.2 0 0-.3-.5-.4-.3-.4zm.9.3c0-.1.1-.1 0 0 0 .1-.2.3-.3.4.1-.2.2-.3.3-.4 0-.1 0 0 0 0zm-.4.3s0 .1 0 0c0 0 0-.1 0 0zm-.6-.6zm1.1.1c-.1.1 0 0 0 0zm-.1 0s.3-.3.4-.3c0 .1-.3.2-.4.3 0-.1 0 0 0 0zm1.1 1.1s.1-.1 0 0zm.1 0c-.1.1 0 0 0 0zm-.1-.3c-.1 0-.2-.1-.3-.2 0 0 .1.2.1.1 0 0-.1-.2 0-.2 0 .1.2.1.2.3v-.1c.1.3 0 .1 0 .1zm.9-2.4zm.1-.1s.1 0 0 0zm.1-.1zm-.1.1c-.1-.1 0 0 0 0-.1 0 0 0 0 0zm-.1.1s-.1 0 0 0zm.1-.2c.2 0 0 0 0 0zm-.1 0c.1 0 0 0 0 0 .1 0 0 0 0 0zm-1 .2c0-.1 0 .1 0 0zm1-1.9c0-.1-.1 0 0 0-.1-.1 0-.1 0 0 0-.1 0-.1 0 0 0-.1 0-.1 0 0zm-5.7 3.2c0-.1-.1 0-.1-.2 0-.1.5.2.4.3l-.3-.1zm.4.2s-.1-.2 0 0c0-.1.2.2.1.1-.1 0-.1-.1-.1-.1 0-.1 0 0 0 0zm-.2-6.2c.1.1.2.1.3-.1h.1c-.1 0 .1 0-.1.1 0 0 .2.1.2 0h-.1.1c-.2 0-.2-.1-.3.1-.2.1-.3-.1-.2-.1.1 0 0 0 0 0zm-.6 3.3s0-.1 0 0c.1-.1 0 0 0 0zm.2-.7h.2-.2c0-.1 0 0 0 0zm0 .9zm.3-2.4c.1 0 .1 0 0 0 .1 0 .1 0 0 0zm.5-.2h-.1c0-.1.2-.1.1 0zm.6-1zm.2.8zm1.8.7zm-.7-.5s0 .1-.1.1c-.2-.2.1-.1.2-.2 0 .1-.1.1-.1.1zm-.2-.9c-.1 0-.1 0 0 0-.1 0-.1 0 0 0zm-.4 0s0-.1 0 0zm-.1-.1zm-.1 0c-.1 0 0 0 0 0zm-.7 0zm-1.3.8c.1 0 .1.1 0 0 0 .2 0 0 0 0zm-.4.4c.1 0 .1 0 0 0zm.6 0c0 .1 0 .1 0 0 0 .1 0 .1 0 0 0 0 0 .1 0 0zm-3 2.3c-.1-.1.1 0 0 0zm-.3 5.2zm-.4 0c.1-.1 0 .1 0 0 .1 0 0 0 0 0zm.7-3.4c.1 0-.3.5-.4.5.3-.1-.1-.4 0-.4s.3 0 .4-.1c0 0 0 .1 0 0zm.1-.1s0-.2.2-.2c-.1 0-.1.1-.2.2 0 0 0-.1 0 0zm-.1 3.7c-.2 0-.5-.1-.6-.3 0 .1.3.2.2.1v.1c.1-.2.5.2.4.2.1 0 0-.1 0-.1s.1 0 0 0zm.2-5.7c-.2.1 0 0 0 0zm-.2.6c.1-.1 0 0 0 0zm-1.8 4.4c.1 0 0 0 0 0s0-.1 0 0zm.2-3.3c.1.1.3-.2.3-.2 0 .2-.2.3-.3.5 0 0-.1-.1 0-.1 0 0-.2.3-.3.3-.1-.1.1-.2.1-.2h-.2l.1-.1c-.1 0-.2.1-.3.1.1-.1.3-.4.5-.4l.1.1c0 .1 0 0 0 0zm-2.2.3s-.1.2 0 0zm.2-.3c0 .1 0 .1-.1.1.1 0 .1-.1.1-.1zm-.1.1c-.1 0-.1 0 0 0-.1 0-.1 0 0 0zm-.4.4zm-3.3 4.2c.1 0 .1 0 0 0 .1 0 .1 0 0 0zm.9 1c0-.1.1-.1 0 0 0-.1 0-.1 0 0zm.1-.1c.1 0 .1 0 0 0zm21.8 10.2zm0 0c0-.1.1 0 0 0zm.7-2.3c.2 0-.3.1 0 0z"/><path class="st1" d="M-436.1 259.8c-.1 0-.2 0-.2.1-.1.1.2-.1.2-.1-.1 0 .1 0 0 0zm-3.6-10.9s0 .1 0 0c.1 0 .1 0 0 0zm-3.5-.4l.1-.1c0 .1-.1.1-.1.1zm12 .9s.1.2.2.2c0 .1 0 .1-.1.2 0 0 .1 0 0 .1h.1v.1s.1 0 0 .1c.2-.2.6-.2.4-.7 0-.1.1-.2 0-.2s-.4.1-.4.2h.1c-.1-.2-.3 0-.3 0 .1 0 0 0 0 0zm.2-.9s.1 0 0 0c0-.2-.1 0 0 0 0 0-.1 0 0 0z"/><path transform="rotate(-109.111 -449.644 267.194)" class="st2" d="M-471.7 263.9h44v6.7h-44z"/><path transform="rotate(-108.984 -454.52 245.812)" class="st3" d="M-454.8 244.9h.5v1.9h-.5z"/><path transform="rotate(-108.99 -453.495 246.995)" class="st3" d="M-453.7 246.6h.5v.7h-.5z"/><path transform="rotate(-109.033 -453.04 248.371)" class="st3" d="M-453.3 248h.5v.7h-.5z"/><path transform="rotate(-108.984 -452.554 249.743)" class="st3" d="M-452.8 249.4h.5v.7h-.5z"/><path transform="rotate(-109.015 -452.093 251.14)" class="st3" d="M-452.3 250.8h.5v.7h-.5z"/><path transform="rotate(-108.924 -452.165 252.704)" class="st3" d="M-452.4 251.7h.5v1.9h-.5z"/><path transform="rotate(-109.244 -451.132 253.871)" class="st3" d="M-451.4 253.5h.5v.7h-.5z"/><path transform="rotate(-109.154 -450.67 255.257)" class="st3" d="M-450.9 254.9h.5v.7h-.5z"/><path transform="rotate(-109.263 -450.179 256.62)" class="st3" d="M-450.4 256.2h.5v.7h-.5z"/><path transform="rotate(-109.219 -449.684 257.967)" class="st3" d="M-449.9 257.6h.5v.7h-.5z"/><path transform="rotate(-109.123 -449.767 259.556)" class="st3" d="M-450 258.6h.5v1.9h-.5z"/><path transform="rotate(-109.111 -448.742 260.73)" class="st3" d="M-449 260.4h.5v.7h-.5z"/><path transform="rotate(-109.294 -448.287 262.112)" class="st3" d="M-448.5 261.7h.5v.7h-.5z"/><path transform="rotate(-109.02 -447.798 263.48)" class="st3" d="M-448 263.1h.5v.7h-.5z"/><path transform="rotate(-108.972 -447.314 264.857)" class="st3" d="M-447.6 264.5h.5v.7h-.5z"/><path transform="rotate(-108.99 -447.375 266.395)" class="st3" d="M-447.6 265.5h.5v1.9h-.5z"/><path transform="rotate(-109.214 -446.368 267.602)" class="st3" d="M-446.6 267.2h.5v.7h-.5z"/><path transform="rotate(-109.201 -445.882 268.961)" class="st3" d="M-446.1 268.6h.5v.7h-.5z"/><path transform="rotate(-109.171 -445.387 270.31)" class="st3" d="M-445.7 270h.5v.7h-.5z"/><path transform="rotate(-109.154 -444.963 271.726)" class="st3" d="M-445.2 271.3h.5v.7h-.5z"/><path transform="rotate(-108.922 -444.989 273.257)" class="st3" d="M-445.2 272.3h.5v1.9h-.5z"/><path transform="rotate(-108.972 -443.985 274.446)" class="st3" d="M-444.2 274.1h.5v.7h-.5z"/><path transform="rotate(-109.056 -443.515 275.841)" class="st3" d="M-443.8 275.5h.5v.7h-.5z"/><path transform="rotate(-109.244 -443.046 277.2)" class="st3" d="M-443.3 276.8h.5v.7h-.5z"/><path transform="rotate(-109.219 -442.55 278.552)" class="st3" d="M-442.8 278.2h.5v.7h-.5z"/><path transform="rotate(-109.123 -442.631 280.142)" class="st3" d="M-442.9 279.2h.5v1.9h-.5z"/><path transform="rotate(-109.08 -441.595 281.292)" class="st3" d="M-441.9 280.9h.5v.7h-.5z"/><path transform="rotate(-109.299 -441.138 282.678)" class="st3" d="M-441.4 282.3h.5v.7h-.5z"/><path transform="rotate(-109.251 -440.657 284.06)" class="st3" d="M-440.9 283.7h.5v.7h-.5z"/><path transform="rotate(-109.111 -440.181 285.439)" class="st3" d="M-440.4 285.1h.5v.7h-.5z"/><path transform="rotate(-108.924 -440.272 287.015)" class="st3" d="M-440.5 286.1h.5v1.9h-.5z"/><path transform="rotate(160.9 -451.227 267.733)" class="st4" d="M-452.9 245.7h3.3v44h-3.3z"/><path class="st2" d="M-442.3 251.3c-1.9.2-3.3 2-3.1 3.9.2 1.9 1.9 3.3 3.9 3.1 1.9-.2 3.3-2 3.1-3.9-.3-1.9-2-3.3-3.9-3.1zm.7 5.8c-1.3.1-2.4-.8-2.5-2-.1-1.3.8-2.4 2-2.5 1.3-.1 2.4.8 2.6 2 0 1.2-.9 2.3-2.1 2.5zm6.7-6.6c-1.9.2-3.3 2-3.1 3.9.2 1.9 1.9 3.3 3.9 3.1 1.9-.2 3.3-2 3.1-3.9-.3-2-2-3.3-3.9-3.1zm.6 5.7c-1.3.1-2.4-.8-2.5-2-.1-1.3.8-2.4 2-2.5 1.3-.1 2.4.8 2.6 2 .1 1.2-.8 2.4-2.1 2.5z"/><path transform="matrix(-.9996 -.02663 .02663 -.9996 -878.705 513.151)" class="st2" d="M-436.7 256.5h1.5v11.8h-1.5z"/><path transform="rotate(-104.697 -438.486 262.717)" class="st2" d="M-444.4 261.9h11.8v1.5h-11.8z"/><path class="st2" d="M-441 277.7l1 3.1c.2.6.7 1.1 1 1l1.7-.6c.4-.1.5-.7.3-1.4l-1-3.1-3 1z"/><path transform="rotate(-18.103 -443.3 265.886)" class="st5" d="M-444.8 255.2h3.2v21.3h-3.2z"/><path transform="rotate(-18.024 -442.455 265.576)" class="st6" d="M-443.3 254.9h1.6v21.3h-1.6z"/><path class="st4" d="M-441 278.3l3.3-1.1-.7-1.7-.1-.3-3 1 .1.3z"/><path transform="rotate(-18.103 -439.602 277.036)" class="st7" d="M-441.3 275.9h3.4v2.1h-3.4z"/><path class="st2" d="M-448.1 251.1l3.1 4.1-3.1 1z"/><path class="st8" d="M-448.1 251.1v1l.7-.2z"/><path class="st2" d="M-436.5 282.3l-.6 3.5c-.1.7.1 1.4.5 1.5l2 .4c.4.1.9-.5 1-1.2l.6-3.5-3.5-.7z"/><path transform="rotate(10.391 -432.542 269.753)" class="st9" d="M-434.2 258.1h3.5v23.3h-3.5z"/><path transform="rotate(10.433 -431.518 269.902)" class="st10" d="M-432.5 258.3h1.7v23.3h-1.7z"/><path class="st4" d="M-436.8 282.9l3.7.7.3-2v-.3l-3.4-.6-.1.2z"/><path transform="rotate(10.375 -434.655 282.328)" class="st7" d="M-436.6 281.2h3.7v2.3h-3.7z"/><path class="st2" d="M-429.4 253l.8 5.6-3.5-.6z"/><path class="st8" d="M-429.4 253l-.5 1.1.7.1z"/><path class="st11" d="M-444.1 304.8s.6-.6 1.3-1.2c.7-.7 1.3-2.7 1.3-4.5v-5.3h3.9v5.3c0 1.8.6 3.8 1.3 4.5l1.3 1.2h-9.1z"/><path class="st12" d="M-445.5 304.8h12.2c1 0 2.3.4 2.9.9l1 .9h-20.4s.5-.4 1.2-.9c.8-.5 2.1-.9 3.1-.9z"/><path class="st8" d="M-451.3 306.5h23.6V317h-23.6z"/><path class="st13" d="M-429.6 314.4v-5.3c-.4 0-.7-.3-.7-.7h-18.5c0 .4-.3.7-.7.7v5.3c.4 0 .7.3.7.7h18.5c0-.3.3-.7.7-.7z"/><path class="st14" d="M-445.7 309.6h12.4v.5h-12.4zm1.3 2h9.7v.5h-9.7zm1.1 1.9h7.6v.5h-7.6z"/><path class="st15" d="M-441.5 293.8v5.3c0 1.8-.6 3.8-1.3 4.5-.7.7-1.3 1.2-1.3 1.2h3.8l2.8-6.3v-4.6h-4z"/><path class="st16" d="M-450 288.4c-3.4 0-6.1-2.7-6.1-6.1l-.1-8.9h6.1v.9h-5.2l.1 8.1c0 2.9 2.3 5.2 5.2 5.2v.8zm21 0c3.4 0 6.1-2.7 6.1-6.1l.1-8.9h-6.1v.9h5.2l-.1 8.1c0 2.9-2.3 5.2-5.2 5.2v.8z"/><path class="st11" d="M-425.6 269.9l-2.4 1.7c-.3.2-.5.7-.5 1v15c0 6-4.9 10.9-10.9 10.9s-10.9-4.9-10.9-10.9v-15c0-.4-.2-.8-.5-1l-2.4-1.7h27.6z"/><path class="st17" d="M-428 269.9l-2.4 1.7c-.3.2-.5.7-.5 1v15c0 5.7-4.4 10.4-10 10.9h.9c6 0 10.9-4.9 10.9-10.9v-15c0-.4.2-.8.5-1l2.4-1.7h-1.8z"/><path class="st15" d="M-426.5 270.5l-26.1-.1-.8-.5v-2.6h27.8v2.6z"/><path class="st11" d="M-453.4 267.3h27.7v2.6h-27.7z"/><path class="st1" d="M-434.2 276.3c-1.7.2-1.8.4-2.1 2.1-.2-1.7-.4-1.8-2.1-2.1 1.7-.2 1.8-.4 2.1-2.1.3 1.7.5 1.9 2.1 2.1zm2.8 3.7c-1.3.2-1.5.3-1.7 1.7-.2-1.3-.3-1.5-1.7-1.7 1.3-.2 1.5-.3 1.7-1.7.2 1.4.4 1.5 1.7 1.7zm.3-4.5c-1 .1-1.1.2-1.2 1.2-.1-1-.2-1.1-1.2-1.2 1-.1 1.1-.2 1.2-1.2.1 1 .2 1.1 1.2 1.2z"/></svg>