<svg id="Слой_1" xmlns="http://www.w3.org/2000/svg" viewBox="-459 244.3 39.5 72.7"><style>.st0{fill:none;stroke:#fff;stroke-linecap:round;stroke-linejoin:round;stroke-miterlimit:10}.st1{fill:#fff}.st2,.st3{fill:#f2f2f2}.st3{stroke:#e4ac02;stroke-linecap:round;stroke-linejoin:round;stroke-miterlimit:10}</style><path class="st0" d="M-450.5 270.3l-8-23.2 6.6-2.3 8 23.2"/><path class="st0" d="M-455.2 246l-3.3 1.1 7.1 20.6 3.9.1z"/><path class="st1" d="M-450.1 259.3l.1-.2c0 .1-.1.2-.1.2zm2.8 7.9s.1 0 0 0c0-.1-.1-.1-.1-.1h-.1v.1s0 .1.1.1c0 0 0 .1.1 0 0 .1.1 0 0-.1.1 0 .1 0 0 0zm-2.7-8.1s.1 0 0 0c.1-.1 0 0 0 0zm3.2.4c0-.7-.7.3.2.1-.1-.1-.1-.1-.2-.1zm1.4-8.3c.1-.1-.5.2-.2.2.1 0 .2-.1.2-.2 0 0 0 .1 0 0zm5.4.4c.6-.6-.6.4 0 0 0 0-.1 0 0 0zm-.5-.5c0 .1.1.1 0 0 .2 0 .1 0 0 0zm-4.9.6c.1 0-.4.2 0 0 0 0-.2.1 0 0z"/><path class="st1" d="M-445.7 251.3s0 .1 0 0c.2-.4 0 0 0 0zm6-.1h-.2v.1c.1 0 .3-.1.2-.1zm1.9 1.4c-.1-.1-.1 0 0 0-.1 0 0 0 0 0zm-8.1-1.4c-.1 0-.3.1 0 0 0-.1-.1 0 0 0zm.4-.6h-.2c0 .1.1.1.2 0zm7.9 1.5s.1.1.1 0c0 0 0-.1-.1 0 .1-.1.1-.1 0 0 .1-.1 0-.2 0-.2 0 .1-.1.1 0 .2 0-.1 0-.1 0 0 0-.1 0-.1 0 0 0-.1 0-.1 0 0zm-4.2-2.8s-.1.1 0 0c0 .1.1 0 0 0zm5.9 5.2c.1 0 .3 0 .3-.1s0 0-.2 0h.1c0-.1-.1 0-.2 0s-.3.1-.3.1h.3c-.1-.1-.2 0-.2 0s.1.1.2 0zm-9-3.2c.8 0 0-1-.5-.4.1-.1-.2.6.2.3-.2.3.2.1.3.1.1 0 0 0 0 0zm-.2-.3c.2-.1-.2.1 0 0 .1 0 0 0 0 0zm.2.1s-.1 0 0 0zm-.2-.2c.1 0-.2.1 0 0zm-.1.1c0-.1-.1 0 0 0 0-.1 0 0 0 0zm0-.9c.3-.2 1.2-.5 0 0zm5 2.7s-.6 1.5 0 0c0 0 0 .1 0 0zm-3.7.3s-.1.2 0 0zm-.2-2.4s-.1 0 0 0c-.1 0 0 .1 0 0zm4.3 2.6c.3-.3-.3.2 0 0 0-.1-.1 0 0 0zm.7 2c-.1 0-.1 0 0 0 0 .1.2 0 .2 0-.1-.1-.2-.1-.2 0zm-4.7-4.3c.2-.6-.2.7 0 0 0-.1 0 0 0 0zm2.8 1.6c0-.1-.1 0-.2 0 0 0 .2.1.2 0z"/><path class="st1" d="M-440.4 253.4c.5-.2-.3.2 0 0 0 0-.1 0 0 0zm-1.3-3.7c-1 .7-2.1.6-2.9.8.1 0 0 .1 0 .1.1-.1.2-.1.2 0 .4-.3 2-.5 2.7-.9zm-1.8.5c-.2.2-.1.1 0 0-.1.1-.1.1 0 0zm-.6.2c.1 0 0 .1 0 0zm-3.5 1.3c.2-.1 0 0 0 0-.1 0 0 0 0 0zm7.9 1.1c.2-.2-.2.1 0 0 0-.1-.1 0 0 0zm1.2-.5c0-.1-.1 0-.1 0h.1zm-5.6 1.1s0-.1 0 0c-.1 0-.1 0 0 0zm3.3-5.1s-.2.1-.1.1l.1-.1zm.1 3.1s.1-.2 0-.2v.2zm5.9 8.9c0-.1-.1 0 0 0zm7.5-11.6s0-.1 0 0zm-11.1 8l-.2.1c.1 0 .2.1.2-.1zm9.1 14.2s0-.1 0 0c-.1 0-.1 0 0 0-.1 0 0 0 0 0 0 .1 0 .1 0 0 .1 0 .1 0 0 0zm-4.3-10.7c.5-.2.1 0 0 0 .1 0 0 .1 0 0zm-3.3-11.6s-.1 0 0 0c-.1 0-.1 0 0 0-.1 0-.1 0 0 0zm2.8 11.9c.3-.2-1.5.7 0 0 0-.1 0 0 0 0zm-1.2.6c.6.1-.1 0 0 0s-.1 0 0 0zm.4-.6c-.8-1.3.1.2 0 0 0 0 0 .1 0 0zm-1.6.3c0-.1.1-.1.2-.1-.1 0-.1 0-.2.1 0 0 .1-.1 0 0zm8.5-12.7c-.1.2 0-.1 0 0zm.9.8c0 .3.2.5.1.6.1-.2.6-.4-.1-.6zm-1.1-.9c.4.1-.3-.2 0 0zm.4.2zm-.1-.1c.3.6.1.3 0 0 0 .1 0 0 0 0zm-11-3.1c-.1 0 0 .1 0 0 0 .1.2.1.2 0 .1 0 0 0 0 0h.2c-.1-.1-.2 0-.4 0z"/><path class="st1" d="M-440 245.9c-.3.3-1.2 2.4-.7 2.3 2.8-.5 4 .6 4.1.6-.2-.6 1.3 3.3 2.5 1.8 0 0 .2-.3.1 0 .3-1.1-.5-3.1 2-4.3-.2.1-.2.1 0-.1-.7.4-.5-.3-.5-.7-.6.4-.3-.1-.2-.1-.2 0-.6-.1-.2-.1-3.4-.6-3.8-.7-5.8-.5h.1c-.1.2-1.5 1.1-1.4 1.1-.1.1 0 0 0 0zm-.1 1.9c-.1 0-.1 0 0 0 0 0-.1 0 0 0zm-.3.2s.2-.1.3-.1c.1 0-.5.3-.3.1 0 .1 0 0 0 0zm3.5.4zm-.1.1c-.1 0 .1-.1 0 0 0 0 .1 0 0 0zm.3.1c.1-.1.1-.1 0 0zm-.1.3c-.1 0-.1 0 0 0 0 0-.1 0 0 0zm.5 1c-.1 0 0 0 0 0zm.2-.4s-.1.1 0 0c.1 0 0 0 0 0zm-.1 0zm0-.1zm0 .1c.1 0-.2 0 0 0 0 0-.1 0 0 0zm.1-.2c-.4.1 0 0 0 0zm-.1-.1c0 .1-.1.1 0 0zm-.1-.1c0 .1-.2.1 0 0 0 0 0 .1 0 0zm-.2.3c.2-.1 0 0 0 0zm.8.7c0 .1.1.1 0 0zm.1.1zm1.2.4zm1.4-3.9c-.2.1.1-.3 0 0 0 0 0-.1 0 0zm-.3-.7s.3-.3 0 0c0 0 .1-.1 0 0zm0-.1c-.1 0 .1-.1 0 0 0 0 0-.1 0 0zm.5.8c-.2.1.1-.2 0 0-.1 0 0 0 0 0zm-.2-1.1c-.2 0 .2 0 0 0zm-17.1 13.5s-.1.1 0 .2c0-.1.1-.2 0-.2zm2.2-.5s-.1 0 0 0c-.1.1-.1 0 0 0zm1.5-8.1c0-.7 1 1 0 0zm.4 0zm0 .1c.1-.1 0 0 0 0zm8.1 1.9c0 .1 0 0 0 0s-.1 0 0 0zm-7.4-1.3l-.2.2c.1 0 .1-.1.2-.2-.1 0 0 0 0 0zm-.4-.6c-.1 0 .1.1.2 0 0-.1-.1-.1-.2 0zm0-.9c0 .1.3-.1 0 0 0 0 0 .1 0 0zm3.8-.4c.1 0 .1-.1 0 0 0 0 0 .1 0 0zm6 10.7s.3.1 0 0c-.1-.1 0 0 0 0zm-7.7-10c-.1-.1-.1 0 0 0z"/><path class="st1" d="M-445.3 249.1c.4 0 .9 1.1 1.9-.2.3.3-.3.2.4.2-.1.1-.1.2.1.1 0-.2-.9.9-.5.8 2.3-.5 1.2-2.2 1.8-2.4.6-.2 1.4-2 1.5-1.9-.1 0-.1 0 0-.1-.5-.8-4.7 2.8-4.4 2.6-.5.4 1.7-.1 1.5-.1-.2.2.2.1.2.1-1 .4-1.9.9-2.5.9.1 0 0 0 0 0zm1.5-1.2s-.2 0 0 0c0 0-.1 0 0 0zm1.3-1c-.1 0-.1 0 0 0zm.3 1.4c0 .1 0 0 0 0zm-.2.8c-.1 0 .1 0 0 0zm.5-1zm-.1-.1zm-1.1 1c.1.1 0 .1 0 0 0 .1 0 0 0 0zm-.2-.1s0 .1 0 0zm.5-.2c.2 0-.2.2 0 0 0 0-.1 0 0 0zm-.4 0c.3 0-.3 0 0 0zm.1.4zm.2.2s0 .1 0 0c0 0 .1 0 0 0 0 0 .1 0 0 0zm.8-1.1c0 .1-.2.1 0 0zm-1.8.1c.2-.2.4-.3 0 0 .1 0 .1 0 0 0zm1.1-.4c.4-.6.1-.1-.2.1.1 0 .2-.1.2-.1.1-.1 0 0 0 0z"/><path class="st1" d="M-443.9 249.7c-.3.2.6-.2 0 0-.1.1.1 0 0 0zm-4.6 3.2c1-1.5 0-.5 0 0 0 0 0-.1 0 0zm4.5.1c0 .1 0 .1 0 0 0 .1 0 .1 0 0 .1 0 0 0 0 0zm-.2-2.4c-.1 0 0 .1 0 0 .1 0 0 0 0 0zm.3 1.1c-.7-.3-1-.3 0 0-.1 0 0 0 0 0zm4.7 3.5c0 .1.2 0 .2 0 0-.1-.1 0-.2 0zm-2-2.6s.1.1.1 0h-.1zm2.1 1.7c-.3 0 .3 0 0 0-.1 0 0 0 0 0zm-1.6-3.3c0 .1-.1.1 0 0 0 .1.1 0 0 0zm-6.4 1c-.7.1-.3.6-.3.6 1-.6 2.1-.8.3-.6 0 0 .1 0 0 0zm-.2-.1h-.1c-.1.1.1.1.1 0zm6.3-3.6l.1-.1c0 .1-.1.1-.1.1zm-6.3 3c-.6.4 1.1-.8 0 0 0 0-.1 0 0 0zm6.6.1c.3-.3 0-.1 0 0 0-.1-.1 0 0 0zm5.9 8.8s-.1 0 0 0c-.1 0 0 0 0 0zm.7-6.3c-.1 0-.1 0 0 0-.1 0-.1.1 0 0-.1 0-.1-.1 0 0-.1 0-.1 0-.1.1v.2h.1v-.1c.1-.1.1-.2 0-.2zm2.3-6.3c.4-.2.4 1 1.7-.5v-.1s-.1-.1 0-.1c0 0-.1-.1 0-.1-.8.2-1.3.6-1.7.8zm.3-.1zm4.1 1.1zm-.5-.5zm0 .1s0 .1 0 0zm.1 0c0 .1 0 .1 0 0 0 .1 0 0 0 0-.1.1 0 0 0 0zm-1.6 22.6s-.1 0 0 0c0 0 .1 0 0 0 .1.1.1.1 0 0 .1.1.1 0 0 0 .1 0 0 0 0 0zm-4-10.8h-.2c-.1 0-.1.2 0 .1.1 0 .3-.1.2-.1zm-3.7-11.4c-.1 0 0 .1 0 0 .1 0 0 0 0 0zm-3.7-.4l.1-.1s-.2.1-.1.1zm12.6.9c-.3.2 1.5-.7 0 0 0 0-.1 0 0 0zm.1-1c.3 0-.1 0 0 0z"/><path class="st0" d="M-450.1 251.6c.3-.4.6-.8.9-1.1.7-.8 1.5-1.6 2.5-2.3 6.9-5.2 16.8-3.8 22 3.1 3.7 4.9 4.1 11.3 1.5 16.4"/><path transform="rotate(-108.984 -453.078 245.941)" class="st2" d="M-453.3 245h.5v2h-.5z"/><path transform="rotate(-108.99 -452.002 247.184)" class="st2" d="M-452.3 246.8h.5v.8h-.5z"/><path transform="rotate(-109.033 -451.525 248.63)" class="st2" d="M-451.8 248.2h.5v.8h-.5z"/><path transform="rotate(-108.984 -451.014 250.07)" class="st2" d="M-451.3 249.7h.5v.8h-.5z"/><path transform="rotate(-109.015 -450.529 251.535)" class="st2" d="M-450.8 251.1h.5v.8h-.5z"/><path transform="rotate(-108.924 -450.605 253.178)" class="st2" d="M-450.8 252.2h.5v2h-.5z"/><path transform="rotate(-109.244 -449.52 254.405)" class="st2" d="M-449.8 254h.5v.8h-.5z"/><path transform="rotate(-109.154 -449.034 255.86)" class="st2" d="M-449.3 255.5h.5v.8h-.5z"/><path transform="rotate(-109.263 -448.519 257.292)" class="st2" d="M-448.8 256.9h.5v.8h-.5z"/><path transform="rotate(-109.219 -448 258.708)" class="st2" d="M-448.3 258.3h.5v.8h-.5z"/><path transform="rotate(-109.123 -448.086 260.375)" class="st2" d="M-448.3 259.4h.5v2h-.5z"/><path transform="rotate(-109.111 -447.01 261.609)" class="st2" d="M-447.3 261.2h.5v.8h-.5z"/><path transform="rotate(-109.294 -446.531 263.06)" class="st2" d="M-446.8 262.7h.5v.8h-.5z"/><path transform="rotate(-109.02 -446.018 264.496)" class="st2" d="M-446.3 264.1h.5v.8h-.5z"/><path transform="rotate(-108.972 -445.51 265.943)" class="st2" d="M-445.8 265.5h.5v.8h-.5z"/><path transform="rotate(-108.99 -445.575 267.56)" class="st2" d="M-445.8 266.6h.5v2h-.5z"/><path class="st1" d="M-439.9 251.1c-2 .2-3.4 2-3.2 4.1.2 2 2 3.4 4.1 3.2 2-.2 3.4-2 3.2-4.1-.3-2-2.1-3.4-4.1-3.2zm.7 6.1c-1.3.2-2.5-.8-2.7-2.1-.2-1.3.8-2.5 2.1-2.7 1.3-.2 2.5.8 2.7 2.1.2 1.3-.8 2.5-2.1 2.7zm7-7c-2 .2-3.4 2-3.2 4.1.2 2 2 3.4 4.1 3.2 2-.2 3.4-2 3.2-4.1-.3-2-2.1-3.4-4.1-3.2zm.7 6.1c-1.3.2-2.5-.8-2.7-2.1-.2-1.3.8-2.5 2.1-2.7 1.3-.2 2.5.8 2.7 2.1.2 1.3-.8 2.5-2.1 2.7z"/><path class="st1" d="M-432.6 267.8l-1.6-.1.3-11.1h1.6z"/><path class="st1" d="M-435.5 268.2l-2.8-10.9 1.6-.4 2.8 10.8z"/><path class="st0" d="M-446 250.9l3.2 4.3-3.2 1.1z"/><path class="st3" d="M-426.3 252.9l-.6 1.1.7.1z"/><path class="st0" d="M-439.1 297.8v.8c0 1.9-.6 4-1.4 4.7-.8.7-1.4 1.3-1.4 1.3h9.7l-1.4-1.3c-.8-.7-1.4-2.8-1.4-4.7v-.8c-.7.1-1.4.2-2.1.2-.6 0-1.3-.1-2-.2zm-4.1 6.8c-1.1 0-2.5.4-3.2 1-.5.4-.9.7-1.1.9h21.1l-1-.9c-.6-.5-2-1-3-1h-12.8z"/><path class="st0" d="M-449.4 306.4v10.1h24.8v-10.1h-24.8zm22.9 7.4c-.4 0-.8.3-.8.8h-19.4c0-.4-.3-.8-.8-.8v-4.7c.4 0 .8-.3.8-.8h19.4c0 .4.3.8.8.8v4.7z"/><path class="st0" d="M-427.3 308.3h-19.4c0 .4-.3.8-.8.8v4.7c.4 0 .8.3.8.8h19.4c0-.4.3-.8.8-.8v-4.7c-.5 0-.8-.3-.8-.8z"/><path class="st1" d="M-448.4 286.4c-2.8-.2-5.1-2.6-5.1-5.5l-.1-5.8h5.2v-.9h-6.1l.1 6.7c0 3.4 2.7 6.2 6.1 6.4-.1-.2-.1-.5-.1-.9zm22.9-12.1v.9h5.1l-.1 5.8c0 2.9-2.2 5.2-5 5.5v.9c3.3-.2 6-3 6-6.4l.1-6.7h-6.1z"/><path class="st0" d="M-425.5 286.4v-12.9c0-.4.2-.9.6-1.1l2.6-1.8-.9.6-27.4-.1-.8-.6 2.6 1.8c.3.2.6.7.6 1.1v13.8c.4 5.2 4.3 9.5 9.3 10.4.7.1 1.4.2 2.1.2.7 0 1.4-.1 2.1-.2 5.1-.9 8.9-5.2 9.3-10.4-.1-.1-.1-.4-.1-.8z"/><path class="st0" d="M-423.3 271.3l.9-.7h-29.1l.8.6zm.9-3.4h-29.1v2.7h29.1zm-23.6-11.6l3.2-1.1 4.3 12.7-3.7-.1z"/><path class="st0" d="M-444.4 255.7l1.6-.5 4.3 12.7-1.9-.1z"/><path class="st1" d="M-444.3 253.1zm0 0c0 .1 0 .1 0 0 .1.1.1 0 0 0 .1 0 0 0 0 0zm.1.2c0-.1 0-.1 0 0 0-.1 0-.1 0 0zm-4.2.3c-.5.5.5.8 1.2-.2-.5.8.7.4 1.1.3-2.5 1.4 2-1.7-.1-1h.2c-.2 0-.2 0 0 0-.3.2-2.2 1-2.4.9-.1 0-.1 0 0 0zm4-.5c.2-.1.2-.4 0 0 .1-.1 0 0 0 0zm-3.6 1.8zm0 0s0-.1 0 0c0-.1 0-.1 0 0zm21.7 8.7c0 .2.7 1.4 0 0-.1 0 0 0 0 0z"/><path class="st1" d="M-430.8 266.8c-.2 2 1.3-7 1.1-5.5-2.8.2-8.5 2.3-9.3-.3-.4-1.2 2.3-.7 2.7-.7 0-.1 0-.1.1 0 0-.1-.3-2.8-.5-2.9-.4-.3 1.6-2.1 1.6-2.2v-.1c0-.1 0-.1.1-.2-.1.1.1.1.1 0l-.1-.1c.1 0-1.6 0-1.6.4.5-2.2 1.8-.7 1.6-.8.2 0-.2 0 0 .1.1 0 .5-.2.6-.3.1-.1.1 0 0 .1 0-.1.1-.2.2-.2v-.2s-.1.1 0-.1c0 0-.2 0-.1-.1 1.8-.5-2.6.7 0-.1.3-.1-4.1-1.2-3.6-.8-.4-.3-1.6.1-1.7.1.9.4.4 1.9 1.1 2.4 0 .1-.1 0-.1.1-.1-.1-.2-.1-.2 0-1.6-.9-4.4-3.6-2.6-4.2 2.4-.7.7.7 1.5 1.1.8.4 2.5-.7 2.2-.8-.9-.5-.2-.8-.1-.7.1 0-1.4-.6-1.2-.7-.1.1-3.4.5-3.3.3-.1 0-.1 0 0-.1-.8 1-.2 1.3.7 1.3h.1c0 .1-.1.3-.1.4-.1-.5-.1.2 0 0 0 0-.1.1-.1.2-1.3-.4-.8-.3-1.4-1.5-.1 0-.1 0 0-.1-.1-.1-.7.3-.7.3s.2.1 0 .1c.2 0 .6 1.2 1 1.3 0 .2-.3.4-.1.5h-.1c-.1 0 0-.2-.1-.1.2 0-.4-.7-.6-.4.1.1 0 .2-.1.3.1 0 .1 0 0 .1-2.2 8.5 7.9 10.1 9.9 11.4 0 .3 3.1 2.7 3.1 2.7s0-.1 0 0zm-5.8-8.6zm0-.1zm1-2.9s.1 0 0 0zm.1-.1zm-.1-.1c.1 0-.1.1 0 0 .1 0 0 .1 0 0zm-.1.3zm.1-.1c-.1 0-.1-.1 0 0zm-.1-.1c.1-.1 0 0 0 0zm0 .2s-.1 0 0 0zm0-2.1c0-.1-.2.2 0 0 0 0-.1 0 0 0zm-1.1 2.1c.2 0 0 0 0 0zm0 2c.1 0 0 .1 0 0zm-.2.3c0-.5.3.8 0 0zm-1.3-5.8s0 .1 0 0c0 .1-.1 0 0 0 0 0-.1 0 0 0zm-.9-.6c.1-.3-.1.5 0 0 0 0 0 .1 0 0zm-.5-.9c0 .1 0 0 0 0zm-.1 0c.1-.2 0 0 0 0 0-.1 0 0 0 0zm-.1-.1c-.1.1 0 0 0 0zm-.3.9zm-.2-.8s-.1 0 0 0zm-.3-.1s.1 0 0 0c0 0 0 .1 0 0zm-1.7 1.3h-.1c0 .1.3 0 .1 0 0 .1 0 0 0 0zm.5-.3c-.2 0-.1 0 0 0 0 0 0 .1 0 0zm.1.4c-.1.1.2-.1 0 0zm.8-.3c-.3.2.1-.2 0 0-.1 0 0 0 0 0zm-.5-1c.8.1.1.1 0 0 .1 0 0 0 0 0zm-.3 2.7h.1c-.1.1-.2.1-.1 0-.1 0-.1 0 0 0 0 0-.1 0 0 0zm-.3.8s.1-.1 0 0zm.7 3c-.1-.3-.2-.5 0 0 0-.1 0 0 0 0zm.1.1c0-.3.1.1 0 0 0 0 .1.1 0 0zm3.1.6c-.1 0 0 0 0 0zm.5-.5c-.1.1 0 0 0 0zm0-.1c.7-.5-.1 0 0 0 0-.1-.1 0 0 0zm-.3.4c.5-.6-.4.5 0 0zm-.8-.5c1.8-.1-.3.3 0 0zm-.7.2c-1.4 0 1.3 0 0 0 0 0 .1 0 0 0zm.4.5c-.2-1.5.3 1.2 0 0 0 0 0 .1 0 0zm4.3 5.1c.1 0 .1-.1 0 0 0 0 .1 0 0 0zm11.1-9.6c-2.6-2.1.2-.7-2.6-3.5l-.1.1c-.2.1-.1 0-.3.2.5-.5.9 11.2 4.4 7-.5-1.3-1-2.6-1.4-3.8 0 0 .6 1.2 0 0z"/><path class="st0" d="M-429.1 258.1l3.6.7-1.7 9.1-3.7-.2z"/><path class="st0" d="M-427.3 258.5l1.8.3-1.7 9.1h-1.8zm1-5.6l.8 5.9-3.6-.7z"/><path class="st1" d="M-447 258.9c1 .8 1.1.3 2.6 2.1 0 0 0 .2.1.2-.4-2.6-1-.9-1.2-1.9 0 0 0 .1.1.1 0 0 .1.1 0 .1.1.1.1 0 .1-.1 0 .2.2 0 .4.2-.2-6.2-2.4-3.7-3.1-4.6-.8-.7.9 3.7 1 3.9zm1.4.5c0-.1 0 .1 0 0zm-1.2-.6zm-.3-3.1c1.2-1.1-.2.1 0 0 0-.1 0 0 0 0zm13.6 23.8c-.2-1.7-.4-1.9-2.2-2.2 1.7-.2 1.9-.4 2.2-2.2.2 1.7.4 1.9 2.2 2.2-1.8.3-2 .5-2.2 2.2zm3.3 3.5c-.2-1.4-.3-1.6-1.7-1.7 1.4-.2 1.6-.3 1.7-1.7.2 1.4.3 1.6 1.7 1.7-1.3.1-1.5.3-1.7 1.7zm.8-5.2c-.1-1-.2-1.1-1.3-1.3 1-.1 1.1-.2 1.3-1.3.1 1 .2 1.1 1.3 1.3-1.1.2-1.2.3-1.3 1.3z"/><path class="st1" d="M-433.5 275.2c-.2 1.7-.4 1.9-2.2 2.2 1.7.2 1.9.4 2.2 2.2.2-1.7.4-1.9 2.2-2.2-1.8-.3-2-.4-2.2-2.2zm3.3 4.3c-.2 1.4-.3 1.6-1.7 1.7 1.4.2 1.6.3 1.7 1.7.2-1.4.3-1.6 1.7-1.7-1.3-.1-1.5-.3-1.7-1.7zm.8-4.2c-.1 1-.2 1.1-1.3 1.3 1 .1 1.1.2 1.3 1.3.1-1 .2-1.1 1.3-1.3-1.1-.2-1.2-.3-1.3-1.3zm-11.6 37.5h7.9v.5h-7.9zm-1.1-1.6h10.2v.5h-10.2zm-1.4-1.5h13v.5h-13z"/><path class="st1" d="M-443.5 309.7h13v.5h-13zm1.4 1.5h10.2v.5h-10.2zm1.1 1.6h7.9v.5h-7.9z"/></svg>