<?xml version="1.0" encoding="utf-8"?>
<!-- Generator: Adobe Illustrator 17.0.0, SVG Export Plug-In . SVG Version: 6.00 Build 0)  -->
<!DOCTYPE svg PUBLIC "-//W3C//DTD SVG 1.1//EN" "http://www.w3.org/Graphics/SVG/1.1/DTD/svg11.dtd">
<svg version="1.1" id="Слой_1" xmlns="http://www.w3.org/2000/svg" xmlns:xlink="http://www.w3.org/1999/xlink" x="0px" y="0px"
	 width="20.904px" height="19px" viewBox="25.314 47.437 20.904 19" enable-background="new 25.314 47.437 20.904 19"
	 xml:space="preserve">
<title>iOS - Send a Message</title>
<desc>Created with Sketch.</desc>
<path fill="#1AA1DC" stroke="#1AA1DC" stroke-miterlimit="10" d="M44.187,47.937H27.345c-0.842,0-1.531,0.689-1.531,1.531v11.483
	c0,0.842,0.689,1.531,1.531,1.531h2.297v3.062c0,0.383,0.23,0.536,0.536,0.23l3.292-3.292h10.718c0.842,0,1.531-0.689,1.531-1.531
	V49.468C45.718,48.626,45.029,47.937,44.187,47.937z M44.953,60.951c0,0.459-0.306,0.766-0.766,0.766H33.47
	c-0.23,0-0.383,0.077-0.536,0.23l-2.526,2.526v-1.99c0-0.459-0.306-0.766-0.766-0.766h-2.297c-0.459,0-0.766-0.306-0.766-0.766
	V49.468c0-0.459,0.306-0.766,0.766-0.766h16.842c0.459,0,0.766,0.306,0.766,0.766V60.951z"/>
<path fill="#1AA1DC" stroke="#1AA1DC" stroke-miterlimit="10" d="M37.221,51.841c-0.153-0.153-0.383-0.153-0.536,0
	c-0.153,0.153-0.153,0.383,0,0.536l2.373,2.373h-7.502c-0.23,0.077-0.383,0.23-0.383,0.459c0,0.23,0.153,0.383,0.383,0.383h7.502
	l-2.373,2.373c-0.153,0.153-0.153,0.383,0,0.536c0.153,0.153,0.383,0.153,0.536,0l3.062-3.062c0.153-0.153,0.153-0.383,0-0.536
	L37.221,51.841z"/>
</svg>
