<?xml version="1.0" encoding="utf-8"?>
<!-- Generator: Adobe Illustrator 17.0.0, SVG Export Plug-In . SVG Version: 6.00 Build 0)  -->
<!DOCTYPE svg PUBLIC "-//W3C//DTD SVG 1.1//EN" "http://www.w3.org/Graphics/SVG/1.1/DTD/svg11.dtd">
<svg version="1.1" id="Слой_1" xmlns="http://www.w3.org/2000/svg" xmlns:xlink="http://www.w3.org/1999/xlink" x="0px" y="0px"
	 width="100px" height="98.836px" viewBox="0 0 100 98.836" enable-background="new 0 0 100 98.836" xml:space="preserve">
<g>
	<path fill="#455773" d="M41.723,77.807l17.848,18.495c0.517,0.647,1.293,1.035,2.069,1.035c0.905,0,1.681-0.388,2.199-1.164
		c0.129-0.129,0.129-0.259,0.129-0.388l5.173-17.977h12.545c9.312,0,16.813-7.501,16.813-16.813v-42.68
		C98.5,9.001,90.999,1.5,81.687,1.5H18.313C9.001,1.5,1.5,9.001,1.5,18.313v42.68c0,9.312,7.501,16.813,16.813,16.813L41.723,77.807
		z M4.087,60.993v-42.68c0-7.889,6.337-14.227,14.227-14.227h63.373c7.889,0,14.227,6.337,14.227,14.227v42.68
		c0,7.889-6.337,14.227-14.227,14.227h-13.58c-0.517,0-1.035,0.388-1.293,0.905L61.64,94.749l-0.129-0.129L43.145,75.608
		c-0.259-0.259-0.517-0.388-0.905-0.388H18.313C10.424,75.22,4.087,68.883,4.087,60.993z"/>
	<path fill="#455773" d="M41.723,77.807l-1.079,1.042l17.848,18.495l1.079-1.042l-1.172,0.936c0.793,0.985,1.962,1.592,3.241,1.599
		c0.666,0.001,1.337-0.146,1.938-0.461c0.603-0.313,1.123-0.79,1.508-1.37l-1.248-0.833l1.061,1.061
		c0.247-0.237,0.441-0.597,0.508-0.892c0.071-0.296,0.058-0.494,0.061-0.556h-1.5L65.41,96.2l4.861-16.892h11.416
		c5.063,0.001,9.652-2.044,12.959-5.354c3.31-3.307,5.355-7.896,5.354-12.959v-42.68l0-0.002C100,13.25,97.955,8.66,94.645,5.353
		C91.338,2.044,86.749-0.001,81.687,0H18.313C13.25-0.001,8.661,2.044,5.354,5.354C2.044,8.661-0.001,13.25,0,18.313v42.68
		c-0.001,5.063,2.044,9.652,5.354,12.959c3.307,3.31,7.896,5.355,12.959,5.354l23.41,0.001L41.723,77.807l-1.079,1.042
		L41.723,77.807l0-1.5l-23.41-0.001C9.826,76.304,3.002,69.48,3,60.993v-42.68C3.002,9.826,9.826,3.002,18.313,3h63.374
		c8.486,0.002,15.31,6.825,15.312,15.313l0,0.002v42.68c-0.002,8.487-6.826,15.311-15.313,15.313H68.012l-5.544,19.265v0.212
		l0,0.025l0.909,0.014l-0.862-0.272c-0.049,0.159-0.046,0.257-0.046,0.258l0.909,0.014l-0.862-0.272l1.028,0.324l-0.764-0.764
		c-0.101,0.096-0.218,0.281-0.264,0.44l1.028,0.324l-0.764-0.764l-0.105,0.105l-0.082,0.123c-0.133,0.196-0.259,0.301-0.401,0.376
		c-0.142,0.073-0.312,0.12-0.551,0.121c-0.273,0.007-0.656-0.162-0.897-0.471l-0.044-0.055L42.36,76.307l-0.637,0L41.723,77.807z
		 M4.087,60.993h1.5v-42.68c0.004-7.066,5.66-12.723,12.727-12.727h63.373c7.066,0.004,12.723,5.66,12.727,12.727v42.68
		c-0.004,7.066-5.66,12.723-12.727,12.727h-13.58c-0.639,0.003-1.183,0.23-1.615,0.538c-0.434,0.312-0.777,0.715-1.02,1.197
		l-0.064,0.129l-5.213,18.763l1.445,0.402l1.061-1.061l-0.12-0.12L44.216,74.557l-0.01-0.01c-0.215-0.216-0.499-0.443-0.855-0.601
		c-0.355-0.16-0.753-0.228-1.11-0.226H18.313c-7.066-0.004-12.722-5.66-12.726-12.727H4.087h-1.5
		c-0.001,4.35,1.752,8.294,4.594,11.133c2.839,2.842,6.782,4.595,11.132,4.594H42.24l0.005,0l0.034-0.372l-0.169,0.329l0.135,0.043
		l0.034-0.372l-0.169,0.329l0.138-0.269l-0.184,0.241l0.046,0.028l0.138-0.269l-0.184,0.241l0.002,0.002l0.019,0.018l1.061-1.061
		l-1.079,1.042l18.375,19.021l0.138,0.138l1.818,1.818l5.862-21.101l-1.445-0.402l1.342,0.67l0.079-0.095l0.005-0.004l-0.133-0.252
		l0,0.276l0.133-0.024l-0.133-0.252l0,0.276h13.58c4.35,0.001,8.294-1.753,11.133-4.594c2.842-2.839,4.595-6.783,4.594-11.133
		v-42.68c0.001-4.35-1.753-8.294-4.594-11.133c-2.839-2.842-6.783-4.595-11.133-4.594H18.314C13.964,2.585,10.02,4.339,7.181,7.18
		c-2.842,2.839-4.595,6.783-4.594,11.133v42.68H4.087z"/>
	<path fill="#455773" d="M18.96,25.556h60.787c0.776,0,1.293-0.517,1.293-1.293s-0.517-1.293-1.293-1.293H18.96
		c-0.776,0-1.293,0.517-1.293,1.293S18.184,25.556,18.96,25.556z"/>
	<path fill="#455773" d="M18.96,25.556v1.5h60.787c0.716,0.006,1.466-0.257,1.998-0.795c0.537-0.532,0.801-1.282,0.795-1.998
		c0.006-0.716-0.257-1.466-0.795-1.998c-0.532-0.537-1.282-0.801-1.998-0.795H18.96c-0.716-0.006-1.466,0.257-1.998,0.795
		c-0.537,0.532-0.801,1.282-0.795,1.998c-0.006,0.716,0.257,1.466,0.795,1.998c0.532,0.537,1.282,0.801,1.998,0.795V25.556v-1.5
		l-0.017-0.001l-0.051,0.291l0.218-0.176l-0.167-0.115l-0.051,0.291l0.218-0.176l-0.234,0.188l0.287-0.094L19.11,24.17l-0.234,0.188
		l0.287-0.094l-0.098,0.032l0.102-0.016l-0.004-0.016l-0.098,0.032l0.102-0.016l-0.001-0.017l0.001-0.017l-0.291-0.051l0.176,0.218
		l0.115-0.167l-0.291-0.051l0.176,0.218l-0.188-0.234l0.094,0.287l0.094-0.053l-0.188-0.234l0.094,0.287l-0.032-0.098l0.016,0.102
		l0.016-0.004l-0.032-0.098l0.016,0.102l0.017-0.001h60.787l0.017,0.001l0.051-0.291l-0.218,0.176l0.167,0.115l0.051-0.291
		l-0.218,0.176l0.234-0.188l-0.287,0.094l0.053,0.094l0.234-0.188l-0.287,0.094l0.098-0.032l-0.102,0.016l0.004,0.016l0.098-0.032
		l-0.102,0.016l0.001,0.017l-0.001,0.017l0.291,0.051l-0.176-0.218l-0.115,0.167l0.291,0.051l-0.176-0.218l0.188,0.234l-0.094-0.287
		l-0.094,0.053l0.188,0.234l-0.094-0.287l0.032,0.098l-0.016-0.102l-0.016,0.004l0.032,0.098l-0.016-0.102l-0.017,0.001H18.96
		V25.556z"/>
	<path fill="#455773" d="M18.96,41.076h60.787c0.776,0,1.293-0.517,1.293-1.293s-0.517-1.293-1.293-1.293H18.96
		c-0.776,0-1.293,0.517-1.293,1.293S18.184,41.076,18.96,41.076z"/>
	<path fill="#455773" d="M18.96,41.076v1.5h60.787c0.716,0.006,1.466-0.257,1.998-0.795c0.537-0.532,0.801-1.282,0.795-1.998
		c0.006-0.716-0.257-1.466-0.795-1.998c-0.532-0.537-1.282-0.801-1.998-0.795H18.96c-0.716-0.006-1.466,0.257-1.998,0.795
		c-0.537,0.532-0.801,1.282-0.795,1.998c-0.006,0.716,0.257,1.466,0.795,1.998c0.532,0.537,1.282,0.801,1.998,0.795V41.076v-1.5
		l-0.017-0.001l-0.051,0.291l0.218-0.176l-0.167-0.115l-0.051,0.291l0.218-0.176l-0.234,0.188l0.287-0.094L19.11,39.69l-0.234,0.188
		l0.287-0.094l-0.098,0.032l0.102-0.016l-0.004-0.016l-0.098,0.032l0.102-0.016l-0.001-0.017l0.001-0.017l-0.291-0.051l0.176,0.218
		l0.115-0.167l-0.291-0.051l0.176,0.218l-0.188-0.234l0.094,0.287l0.094-0.053l-0.188-0.234l0.094,0.287l-0.032-0.098l0.016,0.102
		l0.016-0.004l-0.032-0.098l0.016,0.102l0.017-0.001h60.787l0.017,0.001l0.051-0.291l-0.218,0.176l0.167,0.115l0.051-0.291
		l-0.218,0.176l0.234-0.188l-0.287,0.094l0.053,0.094l0.234-0.188l-0.287,0.094l0.098-0.032l-0.102,0.016l0.004,0.016l0.098-0.032
		l-0.102,0.016l0.001,0.017L79.539,39.8l0.291,0.051l-0.176-0.218L79.539,39.8l0.291,0.051l-0.176-0.218l0.188,0.234l-0.094-0.287
		l-0.094,0.053l0.188,0.234l-0.094-0.287l0.032,0.098l-0.016-0.102l-0.016,0.004l0.032,0.098l-0.016-0.102l-0.017,0.001H18.96
		V41.076z"/>
	<path fill="#455773" d="M55.432,55.303c0.776,0,1.293-0.517,1.293-1.293s-0.517-1.293-1.293-1.293H18.96
		c-0.776,0-1.293,0.517-1.293,1.293s0.517,1.293,1.293,1.293H55.432z"/>
	<path fill="#455773" d="M55.432,55.303v1.5c0.716,0.006,1.466-0.257,1.998-0.795c0.537-0.532,0.801-1.282,0.795-1.998
		c0.006-0.716-0.257-1.466-0.795-1.998c-0.532-0.537-1.282-0.801-1.998-0.795H18.96c-0.716-0.006-1.466,0.257-1.998,0.795
		c-0.537,0.532-0.801,1.282-0.795,1.998c-0.006,0.716,0.257,1.466,0.795,1.998c0.532,0.537,1.282,0.801,1.998,0.795h36.472V55.303
		v-1.5H18.96l-0.017-0.001l-0.051,0.291l0.218-0.176l-0.167-0.115l-0.051,0.291l0.218-0.176l-0.234,0.188l0.287-0.094l-0.053-0.094
		l-0.234,0.188l0.287-0.094l-0.098,0.032l0.102-0.016l-0.004-0.016l-0.098,0.032l0.102-0.016l-0.001-0.017l0.001-0.017l-0.291-0.051
		l0.176,0.218l0.115-0.167l-0.291-0.051l0.176,0.218l-0.188-0.234l0.094,0.287l0.094-0.053l-0.188-0.234l0.094,0.287l-0.032-0.098
		l0.016,0.102l0.016-0.004l-0.032-0.098l0.016,0.102l0.017-0.001h36.472l0.017,0.001l0.051-0.291l-0.218,0.176l0.167,0.115
		l0.051-0.291l-0.218,0.176l0.234-0.188l-0.287,0.094l0.053,0.094l0.234-0.188l-0.287,0.094l0.098-0.032l-0.102,0.016l0.004,0.016
		l0.098-0.032l-0.102,0.016l0.001,0.017l-0.001,0.017l0.291,0.051l-0.176-0.218l-0.115,0.167l0.291,0.051l-0.176-0.218l0.188,0.234
		l-0.094-0.287l-0.094,0.053l0.188,0.234l-0.094-0.287l0.032,0.098l-0.016-0.102l-0.016,0.004l0.032,0.098l-0.016-0.102
		l-0.017,0.001V55.303z"/>
</g>
</svg>
