<?xml version="1.0" encoding="utf-8"?>
<!-- Generator: Adobe Illustrator 17.0.0, SVG Export Plug-In . SVG Version: 6.00 Build 0)  -->
<!DOCTYPE svg PUBLIC "-//W3C//DTD SVG 1.1//EN" "http://www.w3.org/Graphics/SVG/1.1/DTD/svg11.dtd">
<svg version="1.1" id="Слой_1" xmlns="http://www.w3.org/2000/svg" xmlns:xlink="http://www.w3.org/1999/xlink" x="0px" y="0px"
	 width="20.904px" height="19px" viewBox="86.72 47.437 20.904 19" enable-background="new 86.72 47.437 20.904 19"
	 xml:space="preserve">
<title>iOS - Send a Message</title>
<desc>Created with Sketch.</desc>
<path fill="#00AD5D" stroke="#00AD5D" stroke-miterlimit="10" d="M105.593,47.937H88.751c-0.842,0-1.531,0.689-1.531,1.531v11.483
	c0,0.842,0.689,1.531,1.531,1.531h2.297v3.062c0,0.383,0.23,0.536,0.536,0.23l3.292-3.292h10.718c0.842,0,1.531-0.689,1.531-1.531
	V49.468C107.124,48.626,106.435,47.937,105.593,47.937z M106.359,60.951c0,0.459-0.306,0.766-0.766,0.766H94.876
	c-0.23,0-0.383,0.077-0.536,0.23l-2.526,2.526v-1.99c0-0.459-0.306-0.766-0.766-0.766h-2.297c-0.459,0-0.766-0.306-0.766-0.766
	V49.468c0-0.459,0.306-0.766,0.766-0.766h16.842c0.459,0,0.766,0.306,0.766,0.766V60.951z"/>
<path fill="#00AD5D" stroke="#00AD5D" stroke-miterlimit="10" d="M102,52.109L102,52.109l-5.39,5.753l-2.573-2.746
	c-0.126-0.135-0.338-0.142-0.472-0.015c-0.135,0.126-0.142,0.338-0.015,0.472l2.817,3.007c0.064,0.068,0.151,0.106,0.244,0.106
	c0.093,0,0.18-0.038,0.244-0.106l5.633-6.013c0.126-0.135,0.119-0.346-0.015-0.472C102.338,51.968,102.126,51.974,102,52.109z"/>
</svg>
