<svg xmlns="http://www.w3.org/2000/svg" width="118.376" height="77.119" viewBox="0 0 118.3759766 77.1189575"><path fill="none" stroke="#FFF" stroke-linecap="round" stroke-linejoin="round" stroke-miterlimit="10" d="M73.718 61.532H61.51V49.329h12.208v2.109c0-2.816.98-5.4 2.609-7.44v-18.8h-.31L43.445 6.389l-32.37 18.809h-.507l-.002 43.489h18.39V47.794h28.168v20.893h19.201v-9.815a11.87 11.87 0 0 1-2.607-7.434v10.094zM12.99 31.924H25.2V44.13H12.99V31.924zm12.838 29.35H13.62V49.07h12.207v12.205zM41.163 44.22H28.956V32.007h12.207V44.22zm-3.85-25.155a6.133 6.133 0 1 1 12.266.004 6.133 6.133 0 0 1-12.266-.004zm19.81 25.238H44.916V32.096h12.209v12.206zm3.756-12.121h12.208v12.21H60.88V32.18z"/><path fill="none" stroke="#FFF" stroke-linecap="round" stroke-linejoin="round" stroke-miterlimit="10" d="M25.199 31.924H12.99V44.13H25.2V31.924zm-1.23 5.315v5.662H14.22v-9.747h9.747v4.085z"/><path fill="none" stroke="#FFF" stroke-linecap="round" stroke-linejoin="round" stroke-miterlimit="10" d="M23.968 37.24v-4.086h-4.087zM14.22 42.9h7.392l-7.391-7.388zm14.736 1.319h12.207V32.007H28.956V44.22zm1.226-8.62v-2.358h9.745v9.747h-9.745v-7.39z"/><path fill="none" stroke="#FFF" stroke-linecap="round" stroke-linejoin="round" stroke-miterlimit="10" d="M39.927 33.24H35.84l4.087 4.085zm-9.745 2.36v7.389h7.39zm14.733 8.702h12.209V32.096H44.915v12.206zm1.233-8.616v-2.36h9.743v9.747h-9.743v-7.387z"/><path fill="none" stroke="#FFF" stroke-linecap="round" stroke-linejoin="round" stroke-miterlimit="10" d="M55.89 33.326h-4.082l4.083 4.088zm-9.742 2.36v7.387h7.386zm26.939-3.506H60.88v12.21h12.208V32.18zm-1.23 5.318v5.662h-9.748v-9.749h9.748v4.087z"/><path fill="none" stroke="#FFF" stroke-linecap="round" stroke-linejoin="round" stroke-miterlimit="10" d="M71.857 37.498V33.41h-4.09zM62.11 43.16h7.385l-7.386-7.39zM13.621 61.274h12.207V49.07H13.62v12.205zm1.23-8.611v-2.36H24.6v9.747h-9.748v-7.386z"/><path fill="none" stroke="#FFF" stroke-linecap="round" stroke-linejoin="round" stroke-miterlimit="10" d="M24.6 50.303h-4.085l4.085 4.085zm-9.748 2.36v7.386h7.386zm46.658-3.334v12.203h12.208V49.328H61.51zm10.976 5.317v5.66h-9.748V50.56h9.747v4.085z"/><path fill="none" stroke="#FFF" stroke-linecap="round" stroke-linejoin="round" stroke-miterlimit="10" d="M62.738 60.306h7.39l-7.39-7.385zm9.748-5.66v-4.084h-4.09zM43.444 6.39l32.574 18.808h9.114L43.647.5 1.76 25.198h9.314z"/><path fill="none" stroke="#FFF" stroke-linecap="round" stroke-linejoin="round" stroke-miterlimit="10" d="M49.578 19.064a6.133 6.133 0 1 0-12.264.004 6.133 6.133 0 0 0 12.264-.004zm-6.134 4.68a4.679 4.679 0 1 1 .003-9.357 4.679 4.679 0 0 1-.003 9.357z"/><circle fill="none" stroke="#FFF" stroke-linecap="round" stroke-linejoin="round" stroke-miterlimit="10" cx="43.444" cy="19.065" r="4.679"/><path fill="none" stroke="#FFF" stroke-linecap="round" stroke-linejoin="round" stroke-miterlimit="10" d="M43.039 47.794H28.956v20.893H43.04V47.794zm-1.032 6.076V67.6H30.048V48.886h11.959v4.984z"/><path fill="none" stroke="#FFF" stroke-linecap="round" stroke-linejoin="round" stroke-miterlimit="10" d="M30.048 67.6h11.96v-1.343l-11.96-11.93zm11.959-13.73v-4.984h-4.985zm15.117 14.817V47.794H43.039v20.893h14.085zM44.13 53.507v-4.622h11.901v18.713h-11.9V53.507z"/><path fill="none" stroke="#FFF" stroke-linecap="round" stroke-linejoin="round" stroke-miterlimit="10" d="M56.031 48.886h-5.026l5.026 5.025zm0 16.493l-11.9-11.873V67.6h11.9zm1.093 5.289v1.985h1.823v.684H78.08v-4.65H57.124zm-28.168 1.985v-3.966H8.723v2.284c.07.184.126.374.17.57.014.057.024.115.035.174.045.246.077.497.077.756v.866h17.242v-.684h2.71z"/><path fill="none" stroke="#FFF" stroke-linecap="round" stroke-linejoin="round" stroke-miterlimit="10" d="M57.124 70.668v-1.981H28.956v1.98zm-28.168 0h28.167v1.985H28.956zm28.168 1.985H26.247v1.983h32.7v-1.983z"/><path fill="none" stroke="#FFF" stroke-linecap="round" stroke-linejoin="round" stroke-miterlimit="10" d="M26.247 74.636h32.699v1.983H26.247zm69.529-29.464c-2.104-3.402-5.855-5.675-10.133-5.675v9.092h.163l.118 6.344 4.054-4.603.58.509-4.612 5.237.098 5.237 3.934-4.456.58.507-4.493 5.09.017.89a11.904 11.904 0 0 0 9.737-5.716 11.852 11.852 0 0 1-.043-12.456zm-15.24 8.726l.576-.507 4.005 4.544.096-5.156-3.458-3.932.575-.507 2.904 3.294.057-3.045h.352v-9.092c-3.77 0-7.13 1.76-9.316 4.5a11.89 11.89 0 0 0-2.609 7.441c0 2.815.98 5.395 2.608 7.434a11.89 11.89 0 0 0 8.69 4.463l.08-4.258-4.56-5.179z"/><path fill="none" stroke="#FFF" stroke-linecap="round" stroke-linejoin="round" stroke-miterlimit="10" d="M85.837 62.711l-.58-.507.787-.891-.098-5.237-.109.123-.58-.508.667-.758-.118-6.344h-.515l-.057 3.045.603.684-.58.51-.044-.05-.096 5.157.72.817-.58.508-.161-.183-.08 4.258-.184 9.908h1.435l-.185-9.899-.017-.89z"/><path fill="#FFF" d="M85.257 62.204l.58.507.228-.258 4.493-5.089-.58-.507-3.934 4.456zm-4.721-8.306l4.56 5.179.161.183.58-.508-.72-.817-4.005-4.544zm1.219-5.051l3.458 3.932.044.05.58-.511-.603-.684-2.904-3.294zm3.502 6.843l.58.51.109-.124 4.612-5.237-.58-.509-4.054 4.603z"/><path fill="none" stroke="#FFF" stroke-linecap="round" stroke-linejoin="round" stroke-miterlimit="10" d="M117.876 51.366c0-6.595-5.352-11.941-11.92-11.941v9.094h.163l.118 6.342 4.054-4.601.58.508-4.613 5.235.098 5.239 3.935-4.457.58.51-4.494 5.087.017.892c6.364-.232 11.482-5.46 11.482-11.908zm-17.029 2.462l.575-.508 4.008 4.546.095-5.157-3.455-3.933.576-.507 2.9 3.294.056-3.044h.354v-9.094c-4.312 0-8.085 2.305-10.18 5.747a11.852 11.852 0 0 0 .043 12.457c2 3.23 5.492 5.426 9.512 5.635l.078-4.255-4.562-5.181z"/><path fill="none" stroke="#FFF" stroke-linecap="round" stroke-linejoin="round" stroke-miterlimit="10" d="M106.148 62.64l-.58-.506.788-.892-.098-5.239-.11.126-.58-.509.67-.759-.12-6.342h-.516l-.056 3.044.602.683-.58.513-.043-.05-.095 5.157.718.815-.58.508-.16-.18-.077 4.255-.183 9.908h1.43l-.184-9.898-.017-.892z"/><path fill="none" stroke="#FFF" stroke-linecap="round" stroke-linejoin="round" stroke-miterlimit="10" d="M105.568 62.134l.58.507.229-.26 4.494-5.086-.58-.51-3.935 4.457zm-4.721-8.306l4.562 5.18.159.181.58-.508-.718-.815-4.008-4.546zm1.223-5.052l3.455 3.933.043.05.58-.513-.602-.683-2.9-3.294zm3.498 6.844l.58.509.11-.126 4.613-5.235-.58-.508-4.054 4.601zM7.638 69.382c.062.057.124.114.183.174-.059-.06-.121-.116-.183-.174zm.975 1.338c.023.05.05.098.07.148-.02-.05-.047-.098-.07-.148zm-.384-.673c.041.059.077.121.116.182-.039-.061-.075-.123-.116-.182zm-.972-.977a4.232 4.232 0 0 0-2.505-.827C2.408 68.243.5 70.136.5 72.47v1.06h1.053a127.91 127.91 0 0 0 5.532-4.59c.06.04.114.087.172.13zm1.637 2.47c.013.058.023.117.034.175a3.379 3.379 0 0 0-.034-.175z"/><path fill="none" stroke="#FFF" stroke-linecap="round" stroke-linejoin="round" stroke-miterlimit="10" d="M8.928 71.715a4.187 4.187 0 0 0-.205-.744c-.013-.034-.025-.069-.04-.103-.02-.05-.047-.098-.07-.148a4.178 4.178 0 0 0-.268-.491c-.039-.06-.075-.123-.116-.182a4.25 4.25 0 0 0-.408-.49c-.059-.061-.121-.118-.183-.175a4.28 4.28 0 0 0-.38-.312c-.059-.042-.113-.089-.173-.128a127.91 127.91 0 0 1-5.532 4.59h7.452V72.47c0-.26-.032-.51-.077-.756z"/></svg>