<?xml version="1.0" encoding="utf-8"?>
<!-- Generator: Adobe Illustrator 17.0.0, SVG Export Plug-In . SVG Version: 6.00 Build 0)  -->
<!DOCTYPE svg PUBLIC "-//W3C//DTD SVG 1.1//EN" "http://www.w3.org/Graphics/SVG/1.1/DTD/svg11.dtd">
<svg version="1.1"
	 id="Слой_1" xmlns:rdf="http://www.w3.org/1999/02/22-rdf-syntax-ns#" xmlns:dc="http://purl.org/dc/elements/1.1/" xmlns:sodipodi="http://sodipodi.sourceforge.net/DTD/sodipodi-0.dtd" xmlns:inkscape="http://www.inkscape.org/namespaces/inkscape" xmlns:svg="http://www.w3.org/2000/svg" xmlns:cc="http://creativecommons.org/ns#"
	 xmlns="http://www.w3.org/2000/svg" xmlns:xlink="http://www.w3.org/1999/xlink" x="0px" y="0px" width="82px" height="82px"
	 viewBox="59 59 82 82" enable-background="new 59 59 82 82" xml:space="preserve">
<g transform="translate(0,-1026.3622)">
	<g transform="matrix(1.0664186,0,0,1.0664186,58.689952,71.970494)">
		<g transform="translate(-56.000005,-133)">
			<path fill="#455773" d="M73.435,1083.275c-9.473,0-17.144,7.676-17.144,17.15v42.599c0,9.473,7.671,17.144,17.144,17.144h42.605
				c9.473,0,17.144-7.671,17.144-17.144v-42.599c0-9.473-7.671-17.15-17.144-17.15H73.435z M73.435,1086.233h42.605
				c7.886,0,14.186,6.306,14.186,14.192v42.599c0,7.886-6.301,14.186-14.186,14.186H73.435c-7.886,0-14.186-6.301-14.186-14.186
				v-42.599C59.248,1092.539,65.549,1086.233,73.435,1086.233z M93.201,1098.062c-2.4,0-4.378,1.973-4.378,4.373v2.674
				c-0.562,0.202-1.114,0.429-1.652,0.687l-1.883-1.889c-1.697-1.697-4.495-1.697-6.192,0l-2.172,2.172
				c-1.697,1.697-1.697,4.5,0,6.198l1.883,1.877c-0.254,0.539-0.477,1.09-0.676,1.652h-2.674c-2.4,0-4.378,1.973-4.378,4.373v3.073
				c0,2.4,1.978,4.378,4.378,4.378h2.663c0.201,0.56,0.431,1.109,0.687,1.646l-1.883,1.889c-1.697,1.697-1.697,4.495,0,6.192
				l2.172,2.178c1.697,1.697,4.495,1.697,6.192,0l1.877-1.889c0.541,0.255,1.094,0.477,1.658,0.676v2.674
				c0,2.399,1.978,4.384,4.378,4.384h3.073c2.4,0,4.378-1.985,4.378-4.384v-2.657c0.563-0.202,1.107-0.441,1.646-0.699l1.889,1.895
				c1.697,1.697,4.501,1.697,6.198,0l2.166-2.178c1.697-1.697,1.697-4.495,0-6.192l-1.877-1.883c0.254-0.54,0.477-1.09,0.676-1.652
				h2.669c2.4,0,4.378-1.979,4.378-4.378v-3.073c0-2.4-1.978-4.373-4.378-4.373h-2.669c-0.202-0.559-0.425-1.11-0.682-1.646
				l1.883-1.883c1.697-1.697,1.697-4.5,0-6.198l-2.166-2.172c-1.697-1.697-4.501-1.697-6.198,0l-1.883,1.883
				c-0.541-0.255-1.088-0.483-1.652-0.682v-2.674c0-2.4-1.978-4.373-4.378-4.373H93.201z M93.201,1101.02h3.073
				c0.814,0,1.421,0.601,1.421,1.415v3.656c0.001,0.662,0.443,1.243,1.08,1.421c1.104,0.309,2.168,0.75,3.171,1.305
				c0.577,0.319,1.296,0.218,1.762-0.248l2.57-2.57c0.575-0.576,1.435-0.576,2.01,0l2.172,2.172c0.575,0.576,0.575,1.435,0,2.01
				l-2.588,2.582c-0.465,0.47-0.562,1.192-0.237,1.767c0.562,0.999,1.006,2.058,1.323,3.16c0.183,0.635,0.766,1.071,1.427,1.069
				h3.633c0.814,0,1.421,0.608,1.421,1.421v3.073c0,0.813-0.607,1.421-1.421,1.421h-3.651c-0.664-0.001-1.248,0.441-1.427,1.08
				c-0.31,1.104-0.744,2.168-1.3,3.171c-0.319,0.577-0.218,1.296,0.248,1.762l2.57,2.57c0.575,0.575,0.575,1.435,0,2.01
				l-2.172,2.172c-0.575,0.575-1.435,0.575-2.01,0l-2.582-2.582c-0.47-0.47-1.195-0.569-1.773-0.243
				c-0.999,0.562-2.058,1.006-3.16,1.323c-0.633,0.183-1.069,0.762-1.069,1.421v3.639c0,0.814-0.607,1.421-1.421,1.421h-3.073
				c-0.814,0-1.421-0.607-1.421-1.421v-3.651c-0.001-0.662-0.443-1.242-1.08-1.421c-1.104-0.309-2.168-0.744-3.171-1.3
				c-0.576-0.321-1.294-0.222-1.762,0.243l-2.57,2.57c-0.575,0.575-1.435,0.575-2.01,0l-2.172-2.178
				c-0.575-0.575-0.575-1.429,0-2.004l2.576-2.576c0.469-0.467,0.571-1.189,0.248-1.767c-0.561-1.001-1.002-2.063-1.317-3.165
				c-0.181-0.637-0.764-1.076-1.427-1.074h-3.639c-0.814,0-1.421-0.608-1.421-1.421v-3.073c0-0.813,0.607-1.427,1.421-1.427h3.651
				c0.663,0.002,1.246-0.437,1.427-1.074c0.31-1.104,0.744-2.163,1.3-3.165c0.319-0.577,0.218-1.296-0.248-1.762l-2.57-2.57
				c-0.575-0.575-0.575-1.435,0-2.01l2.172-2.172c0.575-0.576,1.435-0.576,2.01,0l2.582,2.582c0.469,0.467,1.19,0.566,1.768,0.243
				c0.999-0.562,2.058-1.005,3.16-1.323c0.635-0.181,1.074-0.76,1.074-1.421v-3.645C91.78,1101.621,92.387,1101.02,93.201,1101.02z
				 M94.737,1112.849c-4.882,0-8.872,3.99-8.872,8.872c0,4.882,3.99,8.866,8.872,8.866c4.883,0,8.878-3.985,8.878-8.866
				C103.615,1116.84,99.62,1112.849,94.737,1112.849z M94.737,1115.807c3.284,0,5.915,2.631,5.915,5.915
				c0,3.283-2.631,5.909-5.915,5.909s-5.915-2.626-5.915-5.909C88.822,1118.438,91.453,1115.807,94.737,1115.807z"/>
		</g>
	</g>
</g>
</svg>
