<svg xmlns="http://www.w3.org/2000/svg" width="78.484" height="70.788" viewBox="0 0 78.4839172 70.7876511"><path fill="#F1F2F2" d="M17.492 41.253h11.232v10.776H17.492z"/><path fill="#E6E7E8" d="M17.492 49.205l11.232-4.667v-2.483H17.492z"/><path fill="#F1F2F2" d="M30.484 43.093l-5.143 2.245c-1.067.477-2.809.503-3.89.058l-5.967-2.303c-5-3-5.05-7.833-5.05-9V16.501h24.932v17.592c0 6-3.813 8.526-4.882 9z"/><path fill="#F1F2F2" d="M11.36 27.811c0 1.763-.534 3.194-1.198 3.194-.659 0 0-.998-1.196-3.194-.844-1.546.537-3.19 1.196-3.19.664 0 1.199 1.43 1.199 3.19zm22.887 0c0 1.763.536 3.194 1.197 3.194s0-.998 1.197-3.194c.845-1.546-.537-3.19-1.197-3.19s-1.197 1.43-1.197 3.19z"/><path fill="#4C5562" d="M10.45 29.055h.88s-1-8.583 2.068-10.156c3.066-1.576 6.724-1.361 9.277-.933 0 0 8.707-.982 10.327.764 2.484 2.671 1.74 10.325 1.74 10.325l.744.002s.49-1.94-.12-11.412c0 0 .306-4.524-2.482-5.944-1.08-.547-1.68-2.316-.862-2.635 0 0-3.837-.643-4.824.857 0 0-2.56-3.805-1.477-5.683 0 0-2.84 2.469-3.046 6.116 0 0-.554-4.07-2.626-4.39 0 0-1.223 1.704-2.602 3.745 0 0-2.436-2.117-5.28.57 0 0 1.715.794 1.913 1.757 0 0-4.926 1.965-3.9 7.32l.27 9.697z"/><path fill="#F1F2F2" d="M34.247 51.143l-.794-.324-10.55-2.408-11.542 2.732L23.34 61.28z"/><path fill="#414E59" d="M35.367 16.733c-4.522 4.527-21.068 4.527-25.592 0l.026-9.965 25.566-.113v10.078z"/><path opacity=".4" fill="#414042" d="M9.775 16.733c2.29 2.294 7.66 3.424 12.99 3.394L35.367 7.638 9.775 6.2v10.533z"/><path fill="#2C343C" d="M45.169 8.763L22.806.293.444 8.763l-.387-.146v.293l22.749 8.664L45.553 8.91v-.293z"/><path fill="#576877" d="M45.553 8.617l-22.747 8.661L.057 8.617 22.806 0z"/><path fill="#F17046" d="M32.065 22.93l-.019-9.02-9.397-5 .312-.585 9.75 5.186.017 9.419z"/><ellipse fill="#FFF" cx="22.537" cy="8.584" rx="1.127" ry=".564"/><path fill="#F17046" d="M32.29 22.748s-.063.22-.208.51c-.144.285-.382.63-.658.938-.28.307-.599.575-.867.75-.276.168-.49.252-.49.252s.064-.223.204-.51c.148-.283.387-.63.661-.938a4.74 4.74 0 0 1 .869-.746c.274-.17.49-.256.49-.256z"/><path fill="#F17046" d="M32.29 22.748s.221.085.506.253a4.888 4.888 0 0 1 1.625 1.684c.158.29.231.513.231.513s-.222-.079-.502-.246a4.962 4.962 0 0 1-.918-.748 4.777 4.777 0 0 1-.708-.939c-.16-.293-.233-.517-.233-.517z"/><path fill="#F17046" d="M32.29 22.748s.101.204.19.506c.083.302.14.707.143 1.113-.003.4-.06.806-.143 1.108-.086.305-.19.504-.19.504s-.104-.199-.19-.504a4.429 4.429 0 0 1 0-2.221c.086-.302.19-.506.19-.506z"/><circle fill="#FFF" cx="32.29" cy="22.748" r="1.127"/><path fill="#414042" d="M.225 61.258c-.78-.905.716-4.723.716-4.723.17-1.755 1.696-3.502 3.404-3.906l15.376-3.64 3.418 3.618 3.393-3.619 16.063 3.666c1.717.39 3.244 2.126 3.416 3.88 0 0 1.495 3.776.725 4.675-7.56 8.836-38.924 8.86-46.51.05z"/><path fill="#FFF" d="M14.59 50.109l4.212 7.433 4.337-4.935-2.699-3.885zm17.1 0l-4.214 7.433-4.337-4.935 2.698-3.885z"/><path fill="#576877" d="M78.484 66.736c0 .616-.5 1.114-1.116 1.114H29.625a1.115 1.115 0 0 1-1.116-1.114V37.774c0-.618.5-1.118 1.116-1.118h47.743c.616 0 1.116.5 1.116 1.118v28.962z"/><path fill="#FFF" d="M31.21 38.733h44.572v27.04H31.21z"/><path fill="#F17046" d="M64.742 63.996l-2.782 5.189 1.863.109 2.41-4.496z"/><path fill="#B55435" d="M66.233 64.798l-2.41 4.496 1.121 1.494 2.782-5.193z"/><path fill="#F17046" d="M69.391 63.996l2.782 5.189-1.864.109-2.411-4.496z"/><path fill="#B55435" d="M67.898 64.798l2.41 4.496-1.12 1.494-2.782-5.193z"/><path fill="#FACB6B" d="M72.204 62.332c0 .284-.556.518-.604.79-.048.282.394.691.299.952-.097.262-.7.294-.839.536-.141.243.132.78-.047.994-.18.218-.756.038-.97.218-.217.18-.14.78-.385.922-.24.136-.72-.226-.987-.13-.26.095-.395.683-.674.732-.274.05-.599-.458-.884-.458-.286 0-.614.507-.884.458-.28-.049-.415-.637-.675-.732-.264-.096-.747.266-.989.13-.242-.142-.167-.742-.381-.922-.215-.18-.79-.001-.97-.218-.182-.216.093-.75-.05-.996-.138-.24-.74-.272-.836-.534-.095-.261.345-.67.297-.952-.049-.272-.603-.506-.603-.79 0-.285.554-.522.603-.794.048-.278-.392-.687-.297-.948.096-.266.699-.294.84-.538.14-.243-.136-.776.046-.99.18-.216.755-.039.97-.217.214-.178.139-.774.382-.914.241-.14.724.221.988.125.26-.094.396-.677.675-.729.27-.046.598.458.884.458.285 0 .61-.504.884-.458.28.052.414.635.674.729.268.096.747-.266.99-.124.241.14.165.735.382.913.214.178.79.001.97.218.18.213-.094.746.047.99.139.243.742.271.839.537.095.26-.347.67-.299.948.048.272.604.51.604.794z"/><path fill="#BC9850" d="M67.113 65.827a3.498 3.498 0 0 1-3.496-3.495 3.495 3.495 0 0 1 6.99 0 3.498 3.498 0 0 1-3.494 3.495z"/><path fill="#FACB6B" d="M69.324 59.986l-4.422 4.692a3.213 3.213 0 0 0 2.211.883 3.227 3.227 0 0 0 3.228-3.23c0-.924-.393-1.757-1.017-2.345z"/><path fill="#FBD589" d="M67.113 59.107a3.225 3.225 0 0 0-3.228 3.225c0 .926.391 1.76 1.017 2.346l4.422-4.692a3.211 3.211 0 0 0-2.21-.879z"/><g fill="#58595B"><path d="M36.978 61.265a.351.351 0 0 1 .11-.064c.021-.004.046-.004.07-.004.104 0 .257.038.454.123.027.008.163.073.416.191.124-.335.23-.59.313-.774.195-.446.375-.753.532-.919a.778.778 0 0 1 .197-.142.692.692 0 0 1 .29-.095c.247-.006.462.19.575.538.004.01.01.022.01.031 0 .018-.01.027-.017.027-.011 0-.023-.01-.034-.033a.938.938 0 0 0-.232-.346.512.512 0 0 0-.307-.163c-.128-.013-.268.062-.419.23-.162.182-.343.494-.542.932-.057.125-.16.371-.31.746.165.088.33.182.495.27.307.163.586.296.835.39.347.138.643.21.887.214a.739.739 0 0 0 .478-.145c.11-.082.212-.29.228-.486.007-.034.01-.053.02-.053.011 0 .02.019.02.055a.85.85 0 0 1-.068.31.555.555 0 0 1-.16.23.763.763 0 0 1-.193.077 1.28 1.28 0 0 1-.318.045c-.478.013-1.236-.254-2.268-.795a.533.533 0 0 1-.163.24.365.365 0 0 1-.228.106c-.155.002-.315-.074-.487-.234-.155-.15-.247-.278-.254-.395-.004-.03.02-.066.07-.107zm1.004.366c-.382-.186-.669-.292-.859-.319-.079-.01-.12.008-.12.067 0 .023.007.045.016.07.06.137.154.255.288.361.124.098.24.147.347.152.152.001.261-.108.328-.33z"/><path d="M38.981 61.864c-.025 0-.036-.003-.05-.101-.007-.05-.01-.08 0-.094a.27.27 0 0 1 .14-.06c.006 0 .012.002.019.004.014.018.025.082.025.19 0 .028-.08.06-.134.06zm1.249-.112c-.228.147-.51.175-.65.061-.047-.036-.075-.13-.09-.202-.012-.036.03-.049.04-.013a.36.36 0 0 0 .12.176c.105.087.343.074.543-.06.523-.36 1.062-1.407 1.338-2.071-.504.093-1.01.322-1.319.558-.101.084-.223.19-.253.352a.353.353 0 0 0 .034.209c.009.02-.008.038-.023.019a.446.446 0 0 1-.068-.224c-.008-.143.09-.275.256-.416.287-.244.85-.48 1.414-.606a.118.118 0 0 0 .068-.04c.04-.032.102.023.089.058-.375.814-.911 1.82-1.5 2.199z"/><path d="M40.805 62.139c-.034.079-.066.163-.1.248-.504 1.25-1.034 2.022-1.57 2.316a.913.913 0 0 1-.43.115.704.704 0 0 1-.564-.27.98.98 0 0 1-.23-.658c0-.37.163-.698.495-.988a3.2 3.2 0 0 1 1.271-.65 4.335 4.335 0 0 1 1.065-.16c.077-.15.11-.231.207-.4.09-.157.175-.324.265-.486-.041-.038-.06-.068-.054-.095.013-.033.066-.07.166-.11.103-.161.053-.09.268-.413.013-.02.05-.038.113-.063.028-.01.04-.006.04.01 0 .015-.012.007-.038.047-.124.18-.057.09-.218.362.17-.067.303-.093.41-.093.15 0 .224.068.224.204 0 .107-.047.227-.143.361.253-.063.396-.096.437-.1.008-.004.017-.004.021 0s.004.004 0 .007c-.004.008-.013.01-.021.013-.148.041-.328.098-.539.169-.17.16-.391.262-.664.29-.043.007-.066-.013-.066-.06a.04.04 0 0 1 .014-.03c.052-.036.28-.118.678-.246a.587.587 0 0 0 .158-.38c0-.11-.062-.168-.187-.168-.096 0-.22.045-.375.126-.157.269-.34.468-.619 1.054.066 0 .13 0 .185.008a.24.24 0 0 1 .204.233.135.135 0 0 1-.017.068c-.027.055-.096.123-.203.209-.022.018-.033.025-.045.025-.004 0-.008 0-.008-.005 0-.014.01-.025.031-.041.126-.115.184-.218.184-.308 0-.076-.037-.12-.14-.133-.091-.013-.132-.008-.205-.008zm-.078 0a3.664 3.664 0 0 0-.972.155 3.4 3.4 0 0 0-1.239.656c-.375.326-.57.656-.57 1.01a.76.76 0 0 0 .242.564.736.736 0 0 0 .54.226.76.76 0 0 0 .377-.097c.231-.125.472-.366.716-.721.178-.258.361-.57.531-.947.09-.196.183-.408.274-.612.03-.062.059-.14.1-.234z"/><path d="M43.628 61.197l.003.005a3.033 3.033 0 0 0-.927.373c.053.07.073.117.073.145 0 .06-.069.115-.205.175a.752.752 0 0 1-.284.08.185.185 0 0 1-.066-.012c-.055.012-.094.02-.113.013-.03-.001-.033-.014-.018-.041.037-.046.179-.153.423-.322l-.1-.133a.341.341 0 0 1-.076-.168c-.019-.139.125-.294.425-.472.295-.174.565-.263.795-.258a.05.05 0 0 1 .035.017c.009.02.009.032 0 .04-.027.044-.113.098-.142.09a.704.704 0 0 0-.205-.046.436.436 0 0 0-.068.006 1.291 1.291 0 0 0-.412.209c-.198.134-.292.253-.274.357.007.046.03.1.068.16.04.06.074.098.106.115.334-.188.652-.278.962-.333zm-1.364.743c.036.01.101-.005.189-.035.084-.03.14-.057.164-.089a.059.059 0 0 0 .01-.034c0-.032-.025-.071-.07-.116a1.761 1.761 0 0 0-.155.108.694.694 0 0 0-.151.131c-.016.019-.01.03.013.035z"/><path d="M44.228 61.633c-.026.149.046.125.104.11.03-.01.291-.19.316-.206.066-.045.073.001.021.05-.043.046-.32.24-.373.26-.054.014-.157-.078-.157-.157 0-.163.089-.35.147-.493.026-.059 0-.122-.076-.048-.202.2-.688.667-.816.712-.113.038-.19-.057-.185-.16.022-.294.416-.847.571-1.032.045-.05.163-.04.084.055-.187.234-.45.644-.512.863-.05.171.015.217.12.158.327-.196.742-.708.995-.93.079-.074.12.078.09.118-.115.175-.303.533-.33.7z"/><path d="M45.679 62.01c-.022 0-.037-.009-.037-.034 0-.01.003-.014.01-.022.143-.269.37-.514.442-.753a.182.182 0 0 0 .021-.083c0-.04-.014-.052-.043-.052-.019 0-.037.01-.06.026-.314.25-.514.438-.601.563-.007.01-.031.029-.076.044-.052.026-.086.035-.106.051-.024.01-.063-.033-.047-.05a2.05 2.05 0 0 0 .267-.511.152.152 0 0 0 .01-.06c0-.037-.014-.054-.044-.054a.174.174 0 0 0-.041.008c-.04.019-.115.071-.227.164a3.031 3.031 0 0 0-.311.302 2.118 2.118 0 0 0-.175.231.217.217 0 0 1-.074.041.364.364 0 0 0-.08.037c-.006.003-.01 0-.012-.011a.094.094 0 0 1 0-.043c.003-.016.019-.041.034-.071a4.43 4.43 0 0 1 .273-.426c.121-.173.218-.295.285-.36.024-.024.083-.049.102-.036.01.008.001.017-.012.03-.02.012-.06.06-.13.137-.079.095-.152.2-.214.313-.029.05-.029.071-.006.071.012 0 .021-.007.034-.02.124-.127.275-.245.456-.359.132-.08.228-.112.286-.092.021.005.03.02.03.046 0 .041-.05.149-.14.329a.086.086 0 0 0-.02.05c0 .026.01.035.028.035.01 0 .022-.001.032-.01.289-.265.546-.445.754-.545a.067.067 0 0 1 .035-.009c.036 0 .05.019.041.066-.016.016-.034.04-.06.068a4.665 4.665 0 0 1-.596.98.042.042 0 0 1-.028.01z"/></g><path fill="#F17046" d="M41.731 41.253h24.044v2.294H41.731z"/><path fill="#E6E7E8" d="M35.824 46.935h35.297v1.492H35.824zm.001 2.951h35.297v1.492H35.825zm.002 2.953h32.649v1.492H35.827zm.002 2.951h16.02v1.491h-16.02z"/></svg>