<svg xmlns="http://www.w3.org/2000/svg" width="80.12" height="72.066" viewBox="0 0 80.1195755 72.0661011"><g fill="none" stroke="#FFF" stroke-linecap="round" stroke-linejoin="round" stroke-miterlimit="10"><path d="M29.151 50.025l.088.02v-5.69l-.088.043zm.089 17.457V56.377l-1.041 1.836-4.112-4.68h-.52l-4.112 4.68-4.2-7.41L4.88 53.26c-1.722.408-3.26 2.169-3.431 3.938 0 0-1.508 3.849-.722 4.762 4.546 5.28 17.56 7.412 28.97 6.403a1.102 1.102 0 0 1-.458-.881z"/><path d="M29.151 50.253l.088-.05v-.158l-.088-.02z"/><path d="M23.827 53.238l5.324-2.985v-5.855l-3.104 1.512c-1.076.482-2.832.507-3.923.06l-4.296-1.925v5.423l.306-.146 5.693 3.916zm-.26.296h.52l-.26-.296z"/><path d="M23.567 53.534l.26-.296-5.693-3.916-.306.146-2.62 1.252.048.083 4.199 7.41zm.26-.296l.26.296 4.112 4.68 1.04-1.837v-6.174l-.088.05zm12.153-34.61c.072 1.128.128 2.143.173 3.068v-4.622c-.065.065-.141.126-.21.189.073.795.037 1.365.037 1.365zm-1.792 4.509c0 .214-.076.403-.179.574.16.13.324.275.478.432.293.308.552.655.714.947.08.148.138.278.176.371-.159-2.146-.615-4.486-1.781-5.74-.03-.03-.076-.055-.11-.084l.005 2.454c.408.172.697.576.697 1.046z"/><path d="M26.047 45.91l3.104-1.512.088-.043v-6.07c0-.623.504-1.127 1.126-1.127h5.788V30.81a3.717 3.717 0 0 1-.252-.677l-.551-.001s.203-2.13.037-4.542a3.366 3.366 0 0 1-.46-.23 5.005 5.005 0 0 1-1.337-1.239 1.09 1.09 0 0 1-.242.095c.022.178.037.365.039.554-.003.403-.06.813-.144 1.117-.086.308-.19.509-.19.509s-.107-.201-.194-.509a4.463 4.463 0 0 1-.142-1.117c.001-.189.017-.376.038-.554a1.098 1.098 0 0 1-.214-.076c-.109.154-.23.31-.363.458-.283.31-.603.58-.874.757-.277.169-.493.254-.493.254s.064-.225.205-.515c.15-.285.39-.635.667-.945a5.28 5.28 0 0 1 .427-.412 1.108 1.108 0 0 1-.194-.599c0-.544.392-.979.906-1.088l-.006-2.804a4.284 4.284 0 0 0-.29-.106c-4.88 1.706-12.445 1.803-17.63.292-.36.135-.716.283-1.063.461-3.093 1.586-2.085 10.239-2.085 10.239h-.671c-.018.065-.039.125-.058.187v4.01c0 1.176.291 6.533 6.153 9.423l.656.294 4.296 1.924c1.09.448 2.847.423 3.923-.059z"/><path d="M10.861 30.131l-.128-4.622c-.184-.3-.399-.483-.631-.483-.664 0-2.056 1.657-1.206 3.216 1.206 2.213.542 3.219 1.206 3.219.37 0 .695-.45.917-1.143.02-.062.04-.122.058-.187h-.216zm25.239.002h-.199c.07.258.156.484.252.676.201.404.45.652.72.652.666 0 0-1.006 1.207-3.22.852-1.558-.54-3.215-1.207-3.215-.217 0-.418.166-.594.434.057 3.734-.179 4.673-.179 4.673z"/><path d="M35.942 17.263c-.638.578-1.473 1.078-2.458 1.5l.002.874c.034.03.08.053.11.084 1.166 1.254 1.622 3.594 1.781 5.74.038.091.056.147.056.147l-.046-.019c.166 2.411-.037 4.542-.037 4.542l.551.001h.2s.235-.938.178-4.672a116.938 116.938 0 0 0-.126-3.764c-.045-.925-.1-1.94-.173-3.068 0 0 .036-.57-.038-1.365zm-3.417 1.877c.103.032.198.068.291.105v-.215c-.097.037-.191.074-.29.11zM11.077 30.131h.671s-1.008-8.653 2.085-10.239a10.03 10.03 0 0 1 1.062-.461c-1.753-.512-3.228-1.209-4.24-2.088-.223.86-.288 1.852-.066 3.013l.144 5.153.128 4.622h.216z"/><path d="M33.476 14.118l.008 4.645c.985-.422 1.82-.922 2.458-1.5.07-.063.146-.124.21-.189h.001v-3.976l-2.677 1.02zM14.895 19.43c5.186 1.512 12.752 1.415 17.63-.29.1-.036.194-.073.29-.11l-.009-4.657-9.315 3.548-13.126-4.999-.01 4.152c.092.092.198.18.3.27 1.012.878 2.487 1.575 4.24 2.087z"/><path d="M23.49 17.921l9.316-3.548v-.146l-9.12-4.852a2.08 2.08 0 0 1-.465.052c-.627 0-1.138-.256-1.138-.569 0-.312.511-.57 1.138-.57.626 0 1.135.258 1.135.57 0 .034-.027.064-.039.096l9.158 4.872v.292l2.678-1.02 10.269-3.911v-.295l-.419-.122L23.491.5.939 8.757l-.381.135v.295l9.807 3.735 13.126 5z"/><path d="M33.49 22.091l-.004-2.454-.002-.874-.008-4.645v-.292l-9.159-4.872c-.066.186-.296.344-.631.42l9.12 4.853v.146l.01 4.657v.215l.006 2.804c.077-.016.148-.046.23-.046.156 0 .304.032.439.088z"/><path d="M24.317 8.954c.012-.032.039-.062.039-.096 0-.312-.51-.57-1.135-.57-.627 0-1.138.258-1.138.57 0 .313.511.57 1.138.57.167 0 .322-.02.465-.053.335-.077.565-.235.631-.421zm7.793 14.782a5.28 5.28 0 0 0-.427.412c-.277.31-.518.66-.667.945-.141.29-.205.515-.205.515s.216-.085.493-.254c.271-.177.591-.448.874-.757.133-.148.254-.304.363-.458a1.12 1.12 0 0 1-.43-.403zm3.267 1.725a3.943 3.943 0 0 0-.176-.371 4.927 4.927 0 0 0-1.192-1.379 1.124 1.124 0 0 1-.419.41 5.005 5.005 0 0 0 1.336 1.239 3.366 3.366 0 0 0 .507.248s-.018-.056-.056-.147zm-2.622-1.246a4.941 4.941 0 0 0-.038.554c0 .403.059.813.142 1.117.087.308.193.509.193.509s.105-.201.191-.509c.084-.304.14-.714.144-1.117a4.912 4.912 0 0 0-.039-.554c-.096.027-.19.06-.296.06-.105 0-.2-.033-.297-.06z"/><path d="M34.01 23.711c.102-.171.178-.36.178-.574a1.136 1.136 0 0 0-1.136-1.134c-.082 0-.153.03-.23.046-.514.11-.906.544-.906 1.088 0 .225.082.422.194.599.109.17.251.31.431.403.068.035.14.055.214.076.097.027.192.06.297.06.105 0 .2-.033.296-.06a1.09 1.09 0 0 0 .242-.095c.175-.097.316-.237.42-.409zm44.484 13.447H30.365c-.622 0-1.126.504-1.126 1.127v29.197c0 .366.187.676.458.88.189.143.413.243.668.243h33.318l1.123-2.094H31.963V39.252h44.933v27.259h-5.483l1.123 2.094h5.958c.621 0 1.126-.502 1.126-1.123V38.285c0-.623-.505-1.127-1.126-1.127z"/><path d="M68.058 67.67l-.501.935h1.105l-.517-.966c-.029.001-.058.02-.087.03zm-3.833-1.33c-.182-.218.095-.756-.048-1.003-.14-.243-.748-.275-.844-.54-.096-.262.347-.675.3-.958-.05-.274-.609-.51-.609-.797 0-.287.559-.526.608-.8.048-.28-.395-.693-.3-.956.097-.268.705-.297.847-.542.141-.246-.136-.783.047-.998.182-.218.76-.04.978-.22.216-.178.14-.78.385-.92.243-.143.73.222.996.125.262-.094.399-.682.68-.735.273-.046.603.463.892.463.287 0 .615-.509.89-.463.282.053.418.64.68.735.27.097.753-.268.999-.124.243.14.166.74.384.92.216.18.796 0 .978.22.181.214-.095.751.048.997.14.245.747.274.845.542.096.263-.35.675-.3.956.048.274.608.513.608.8 0 .287-.56.523-.609.797-.048.283.397.696.301.959-.098.264-.706.296-.845.54-.143.246.133.786-.048 1.003-.126.152-.438.115-.693.136l.018.034h5.483V39.252H31.963v27.259h32.843l.021-.04c-.235-.009-.49.003-.602-.13zM38.95 65.277a.988.988 0 0 1-.232-.663c0-.374.165-.704.5-.996.305-.264.693-.463 1.14-.603-.415-.13-.911-.34-1.51-.654a.537.537 0 0 1-.164.242.368.368 0 0 1-.23.107c-.156.001-.318-.075-.491-.236-.156-.151-.249-.28-.256-.399-.004-.03.021-.066.07-.108a.354.354 0 0 1 .111-.064c.022-.004.047-.004.07-.004.106 0 .26.038.46.124.026.008.163.073.418.193.125-.338.232-.595.315-.781.197-.45.379-.759.537-.926a.783.783 0 0 1 .198-.144.697.697 0 0 1 .293-.095c.249-.007.465.191.58.542.003.01.01.022.01.032 0 .017-.01.027-.018.027-.011 0-.023-.01-.033-.034a.945.945 0 0 0-.235-.349.517.517 0 0 0-.31-.164c-.129-.013-.27.062-.421.233-.164.183-.347.497-.548.938-.057.126-.16.375-.311.753.166.089.333.183.499.272.309.164.59.298.841.394.076.03.14.044.211.068.02-.005.035-.015.054-.02a4.37 4.37 0 0 1 1.074-.162c.078-.15.11-.232.209-.403.09-.157.176-.326.266-.489-.04-.038-.06-.068-.054-.095.013-.034.067-.072.168-.112.104-.163.053-.09.27-.416.013-.02.05-.038.114-.064.028-.01.04-.006.04.01s-.012.008-.038.048c-.125.181-.058.09-.22.365a1.15 1.15 0 0 1 .414-.094c.15 0 .225.068.225.205 0 .108-.047.23-.144.365.188-.047.296-.072.367-.087-.001-.006-.008-.012-.008-.018-.019-.14.126-.297.428-.477.298-.175.57-.264.802-.26a.05.05 0 0 1 .035.018c.009.02.009.032 0 .04-.027.045-.114.099-.143.09a.71.71 0 0 0-.207-.045.438.438 0 0 0-.069.006 1.3 1.3 0 0 0-.415.21c-.199.136-.294.255-.276.36.007.047.03.1.068.162a.35.35 0 0 0 .108.116c.25-.141.488-.218.724-.276.133-.24.306-.482.399-.593.045-.05.164-.04.084.056a4.489 4.489 0 0 0-.339.502c.034-.007.068-.02.101-.025l.004.004c-.037.007-.076.025-.112.034a1.824 1.824 0 0 0-.17.355c-.05.172.016.219.121.16.33-.198.748-.714 1.003-.939.08-.073.12.08.092.12-.117.176-.306.536-.333.705-.026.15.047.126.105.11.03-.01.294-.19.319-.207.005-.003.003.001.008-.001.047-.076.08-.137.147-.23.122-.175.22-.298.287-.363.025-.024.084-.05.103-.037.01.008.001.018-.012.03-.02.013-.06.061-.13.139-.08.096-.155.2-.217.316-.029.049-.029.071-.006.071.012 0 .021-.008.034-.02a2.55 2.55 0 0 1 .46-.362c.133-.081.23-.113.288-.093.022.005.03.021.03.047 0 .041-.05.15-.141.331a.086.086 0 0 0-.02.051c0 .026.01.035.028.035.01 0 .023-.002.033-.011.29-.266.55-.448.76-.548a.068.068 0 0 1 .035-.01c.037 0 .051.02.042.067-.016.016-.035.04-.06.069a4.727 4.727 0 0 1-.602.988.042.042 0 0 1-.028.01c-.022 0-.037-.01-.037-.036 0-.01.002-.014.009-.022.145-.271.374-.518.446-.759a.184.184 0 0 0 .021-.084c0-.04-.014-.053-.043-.053-.019 0-.037.01-.061.027-.316.252-.517.442-.606.568-.006.01-.03.028-.076.044-.053.026-.087.035-.107.051-.024.01-.063-.033-.047-.05.126-.184.217-.355.269-.515a.154.154 0 0 0 .01-.061c0-.037-.014-.054-.044-.054a.176.176 0 0 0-.042.008c-.04.019-.115.071-.229.165a3.05 3.05 0 0 0-.313.305 2.13 2.13 0 0 0-.177.233.219.219 0 0 1-.074.041.363.363 0 0 0-.08.037c-.007.003-.01 0-.012-.011a.094.094 0 0 1 0-.043c.002-.016.018-.042.034-.072.01-.019.033-.05.045-.07a2.24 2.24 0 0 1-.28.185c-.055.014-.159-.079-.159-.158 0-.164.09-.354.149-.497.026-.06 0-.123-.077-.048-.203.2-.693.672-.823.717-.114.038-.192-.057-.186-.161.009-.114.08-.269.164-.424a3.37 3.37 0 0 0-.673.296c.053.072.074.118.074.147 0 .06-.07.116-.207.177a.758.758 0 0 1-.287.08.187.187 0 0 1-.066-.012c-.056.012-.095.02-.114.013-.03-.001-.033-.014-.018-.041.037-.046.18-.155.426-.325l-.1-.134a.359.359 0 0 1-.058-.126c-.138.04-.293.088-.48.151a1.131 1.131 0 0 1-.67.294c-.044.006-.067-.015-.067-.063 0-.01.005-.02.014-.03.053-.035.283-.118.684-.247a.592.592 0 0 0 .16-.384c0-.11-.063-.169-.19-.169-.096 0-.22.046-.377.128-.159.27-.344.471-.624 1.062.033 0 .06.003.092.004a.81.81 0 0 0 .097-.311c.007-.035.01-.054.02-.054.012 0 .021.019.021.056a.857.857 0 0 1-.07.312l.026.001a.242.242 0 0 1 .206.235.137.137 0 0 1-.018.068c-.027.056-.096.125-.204.21-.022.02-.033.026-.046.026-.004 0-.008 0-.008-.005 0-.014.01-.025.032-.041.127-.116.185-.22.185-.31 0-.077-.037-.122-.141-.135l-.062-.005a.55.55 0 0 1-.13.189c-.02.012-.07.027-.108.042l-.007.016c-.508 1.261-1.043 2.039-1.584 2.335a.92.92 0 0 1-.432.117.71.71 0 0 1-.569-.273zm2.088-4.382c-.102.084-.225.19-.256.355a.355.355 0 0 0 .034.21c.01.021-.007.039-.022.02a.45.45 0 0 1-.07-.227c-.006-.143.092-.277.259-.42.29-.244.856-.483 1.426-.61a.12.12 0 0 0 .069-.04c.039-.033.103.023.089.058-.378.82-.919 1.834-1.512 2.217-.23.148-.513.177-.654.062-.048-.037-.076-.13-.091-.204-.012-.037.03-.05.041-.013a.363.363 0 0 0 .12.177c.106.088.345.075.548-.06.526-.362 1.07-1.419 1.348-2.088-.508.094-1.018.325-1.33.563zm-1.106 1.616c0 .027-.081.06-.135.06-.025 0-.036-.003-.05-.102-.008-.05-.011-.08 0-.094.012-.02.1-.06.14-.06.007 0 .012.001.02.003.014.019.025.083.025.193z"/><path d="M41.71 62.847h-.075l-.06.152c.01-.007.024-.01.034-.018.037-.027.068-.084.1-.134zm-.243.207c.027-.058.053-.124.09-.207a3.696 3.696 0 0 0-.98.156c-.01.004-.018.009-.028.012.213.064.412.11.578.113a.783.783 0 0 0 .34-.074zm-3.664-.974c0 .025.007.047.016.072a.94.94 0 0 0 .29.364.62.62 0 0 0 .35.153c.153.001.263-.109.33-.333-.385-.188-.674-.295-.865-.322-.08-.011-.121.008-.121.067zm5.29.532c-.016.019-.01.03.013.035.037.01.102-.005.19-.035.085-.03.142-.058.166-.09a.059.059 0 0 0 .011-.035c0-.032-.025-.071-.071-.116a1.749 1.749 0 0 0-.156.108.7.7 0 0 0-.153.133z"/><path d="M40.643 64.654c.18-.26.365-.573.536-.954.086-.187.174-.388.26-.583a1.32 1.32 0 0 1-.305.044c-.178.005-.408-.042-.663-.114a3.41 3.41 0 0 0-1.143.618c-.378.328-.574.661-.574 1.018 0 .226.083.41.243.569a.742.742 0 0 0 .544.228.767.767 0 0 0 .38-.099c.234-.126.477-.368.722-.727zm25.634 2.726c-.245.067-.522.203-.689.11-.244-.144-.168-.748-.384-.93-.085-.07-.227-.083-.377-.089l-.021.04-1.123 2.094-.722 1.345 1.88.11 1.436-2.68z"/><path d="M67.266 68.097c-.282-.05-.419-.642-.681-.738-.085-.03-.194-.01-.308.02L64.84 70.06l1.13 1.506 1.587-2.961.5-.935c-.263.089-.55.47-.791.427zm4.129-1.62c-.113.01-.218.027-.285.083-.218.182-.141.786-.388.93-.19.107-.525-.088-.793-.132l1.45 2.702 1.879-.11-.722-1.345-1.123-2.094-.018-.034z"/><path d="M69.93 67.358a.415.415 0 0 0-.203 0c-.262.097-.398.69-.68.739-.275.05-.603-.462-.89-.462-.004 0-.008.004-.012.004l.517.966 1.586 2.961 1.13-1.506-1.449-2.702z"/><path d="M72.136 65.338c.14-.244.747-.276.845-.54.096-.263-.35-.676-.3-.96.048-.273.608-.51.608-.796 0-.287-.56-.526-.609-.8-.048-.28.397-.693.301-.956-.098-.268-.706-.297-.845-.542-.143-.246.133-.783-.048-.998-.182-.218-.762-.04-.978-.22-.218-.178-.141-.78-.384-.92-.246-.143-.729.222-.999.125-.262-.094-.398-.682-.68-.735-.275-.046-.603.463-.89.463-.289 0-.62-.509-.891-.463-.282.053-.419.64-.681.735-.267.097-.753-.268-.996-.126-.245.142-.17.743-.385.921-.217.18-.796.002-.978.22-.183.215.094.752-.047.998-.142.245-.75.274-.846.542-.096.263.347.675.3.956-.05.274-.609.513-.609.8 0 .287.559.523.608.797.048.283-.395.696-.3.959.097.264.704.296.845.539.143.247-.134.785.048 1.004.111.133.367.121.602.13.15.006.292.019.377.09.216.181.14.785.384.929.167.093.444-.043.689-.11.114-.032.223-.052.308-.021.262.096.399.688.68.738.242.044.529-.338.793-.427.029-.01.058-.03.087-.031.004 0 .008-.004.012-.004.287 0 .615.511.89.462.282-.05.418-.642.68-.738a.415.415 0 0 1 .202-.001c.268.044.603.24.793.132.247-.144.17-.748.388-.93.067-.056.172-.074.285-.083.255-.021.567.016.693-.136.181-.217-.095-.757.048-1.003zm-3.98 1.227a3.526 3.526 0 0 1-3.524-3.523 3.523 3.523 0 0 1 7.047 0 3.527 3.527 0 0 1-3.522 3.523z"/><path d="M68.157 59.523a3.523 3.523 0 0 0-3.525 3.519 3.526 3.526 0 0 0 3.525 3.523 3.527 3.527 0 0 0 3.522-3.523 3.524 3.524 0 0 0-3.522-3.519zm0 6.775a3.239 3.239 0 0 1-2.23-.891 3.232 3.232 0 0 1-1.025-2.365 3.252 3.252 0 0 1 5.483-2.365 3.242 3.242 0 0 1 1.026 2.365 3.254 3.254 0 0 1-3.254 3.256z"/><path d="M65.927 65.407a3.24 3.24 0 0 0 2.23.89 3.254 3.254 0 0 0 3.254-3.255 3.24 3.24 0 0 0-1.026-2.365l-4.458 4.73zm4.458-4.73a3.252 3.252 0 0 0-5.483 2.365c0 .934.395 1.773 1.025 2.365l4.458-4.73zM41.81 62.806a.857.857 0 0 0 .07-.312c0-.037-.01-.056-.02-.056s-.014.019-.021.054a.81.81 0 0 1-.097.311c.023.001.047.001.068.003zm-.1.041c-.033.05-.064.107-.1.134-.011.008-.025.01-.035.018l-.033.082c.037-.015.087-.03.108-.042a.55.55 0 0 0 .13-.189l-.07-.003zm-.27.27l.015-.034.012-.03a.783.783 0 0 1-.34.075 2.276 2.276 0 0 1-.578-.113c-.028.009-.05.023-.078.032.255.072.485.119.663.114.098-.003.2-.015.305-.044zm-1.207-.204a7.666 7.666 0 0 1-.841-.394c-.166-.09-.333-.183-.499-.272.151-.378.254-.627.311-.753.201-.441.384-.755.548-.938.151-.17.292-.246.421-.233a.517.517 0 0 1 .31.164c.103.1.184.214.235.35.01.023.022.033.033.033.007 0 .018-.01.018-.027 0-.01-.007-.021-.01-.032-.115-.351-.331-.549-.58-.542a.697.697 0 0 0-.293.095.783.783 0 0 0-.198.144c-.158.167-.34.476-.537.926-.083.186-.19.443-.315.78-.255-.119-.392-.184-.419-.192-.199-.086-.353-.124-.459-.124-.023 0-.048 0-.07.004a.354.354 0 0 0-.11.064c-.05.042-.075.078-.07.108.006.118.099.248.255.399.173.16.335.237.49.236a.368.368 0 0 0 .231-.107.537.537 0 0 0 .164-.242c.599.313 1.095.525 1.51.654.03-.01.055-.024.086-.033-.07-.024-.135-.038-.211-.068zm-1.774-.244a.62.62 0 0 1-.35-.153.945.945 0 0 1-.29-.364.224.224 0 0 1-.016-.071c0-.06.041-.078.121-.067.191.027.48.134.865.322-.067.224-.177.334-.33.333z"/><path d="M39.747 62.374c-.011.014-.008.045 0 .094.014.099.025.102.05.102.054 0 .135-.033.135-.06 0-.11-.011-.174-.026-.193a.063.063 0 0 0-.019-.003c-.04 0-.128.04-.14.06zm1.272.045c-.203.135-.442.148-.549.06a.363.363 0 0 1-.119-.177c-.01-.036-.053-.024-.041.013.015.073.043.167.091.204.141.115.425.086.654-.062.593-.383 1.134-1.396 1.512-2.217.014-.035-.05-.09-.09-.057a.12.12 0 0 1-.068.04c-.57.126-1.136.365-1.426.61-.167.142-.265.276-.258.42a.45.45 0 0 0 .07.225c.014.02.03.002.021-.019a.355.355 0 0 1-.034-.21c.031-.164.154-.271.256-.355.31-.238.821-.469 1.329-.563-.277.67-.822 1.726-1.348 2.088z"/><path d="M41.535 63.097l.007-.016c.01-.028.022-.055.033-.082l.06-.152h.075l.07.003.062.005c.104.013.14.058.14.134 0 .091-.057.195-.184.311-.022.016-.032.027-.032.041 0 .005.004.005.008.005.013 0 .024-.006.046-.025a.758.758 0 0 0 .204-.21.137.137 0 0 0 .018-.07.242.242 0 0 0-.206-.234h-.026c-.02-.003-.045-.003-.068-.004-.031 0-.06-.004-.092-.004.28-.59.465-.791.624-1.062.157-.082.281-.128.378-.128.126 0 .188.06.188.169 0 .132-.054.26-.16.384-.4.13-.63.212-.683.247a.044.044 0 0 0-.014.03c0 .048.023.069.067.063.275-.03.497-.133.67-.294.187-.063.342-.11.48-.15-.002-.009-.01-.018-.011-.026-.07.015-.18.04-.367.087.097-.135.144-.257.144-.365 0-.137-.075-.205-.225-.205-.109 0-.243.027-.414.094.162-.274.095-.184.22-.365.026-.04.038-.032.038-.048s-.012-.02-.04-.01c-.064.026-.1.043-.114.064-.217.325-.166.253-.27.416-.1.04-.155.078-.168.112-.005.027.013.057.054.095-.09.163-.176.332-.266.49-.099.17-.131.253-.21.402a4.37 4.37 0 0 0-1.073.162c-.02.005-.034.015-.054.02-.03.01-.056.024-.086.033-.447.14-.835.339-1.14.603-.335.292-.5.622-.5.996 0 .258.074.475.232.663a.71.71 0 0 0 .57.273.92.92 0 0 0 .431-.117c.541-.296 1.076-1.074 1.584-2.335zm-1.994 2.383a.742.742 0 0 1-.544-.228.768.768 0 0 1-.243-.569c0-.357.196-.69.574-1.018a3.393 3.393 0 0 1 1.143-.618c.027-.01.05-.023.078-.032.01-.003.018-.008.028-.012.343-.098.66-.15.98-.156-.037.083-.063.149-.09.207l-.012.03-.016.033c-.086.195-.174.396-.26.583-.171.38-.356.695-.536.954-.245.36-.488.601-.721.727a.767.767 0 0 1-.38.099zm4.944-3.578l-.004-.004c-.033.006-.067.018-.1.025l-.008.013c.036-.009.075-.027.112-.034z"/><path d="M43.257 62.183l.101.134c-.246.17-.389.279-.426.325-.015.027-.013.04.018.041.02.007.058-.001.114-.013a.187.187 0 0 0 .066.012.758.758 0 0 0 .287-.08c.137-.06.207-.116.207-.177 0-.029-.021-.075-.074-.147a3.37 3.37 0 0 1 .673-.296l.013-.024a2.775 2.775 0 0 0-.724.276.35.35 0 0 1-.108-.116.458.458 0 0 1-.068-.162c-.018-.105.077-.224.276-.36a1.3 1.3 0 0 1 .415-.21.438.438 0 0 1 .069-.006.71.71 0 0 1 .207.046c.029.008.116-.046.143-.09.009-.009.009-.022 0-.04a.05.05 0 0 0-.035-.018c-.232-.005-.504.084-.802.26-.302.18-.447.336-.428.476 0 .006.007.012.008.018.001.008.009.017.011.025.012.041.024.08.057.126zm.216.304a.059.059 0 0 1-.011.035c-.024.032-.08.06-.165.09-.089.03-.154.044-.19.035-.025-.005-.03-.016-.014-.035a.7.7 0 0 1 .153-.133c.072-.054.123-.09.156-.108.046.045.071.084.071.116z"/><path d="M44.06 62.406c-.007.104.071.2.185.16.13-.044.62-.516.823-.716.077-.075.103-.011.077.048-.06.143-.149.333-.149.497 0 .08.104.172.16.158a2.41 2.41 0 0 0 .279-.185c.021-.037.056-.087.083-.13-.005.003-.003-.001-.008.002-.025.016-.289.198-.32.207-.057.016-.13.04-.104-.11.027-.169.216-.529.333-.706.029-.04-.012-.192-.092-.119-.255.225-.673.741-1.003.939-.105.059-.17.012-.121-.16.027-.093.093-.221.17-.355l.007-.013a4.37 4.37 0 0 1 .34-.502c.079-.096-.04-.107-.085-.056a4.351 4.351 0 0 0-.4.593l-.012.024c-.084.155-.155.31-.164.424z"/><path d="M45.39 62.438c-.016.03-.032.056-.034.072a.094.094 0 0 0 0 .043c.002.01.005.014.012.01a.363.363 0 0 1 .08-.036.219.219 0 0 0 .074-.041 2.13 2.13 0 0 1 .177-.233 3.05 3.05 0 0 1 .313-.305c.114-.094.188-.146.23-.165a.176.176 0 0 1 .04-.008c.03 0 .045.017.045.054 0 .02-.002.04-.01.06a2.032 2.032 0 0 1-.269.515c-.016.018.023.06.047.051.02-.016.054-.025.107-.05a.183.183 0 0 0 .076-.045c.089-.126.29-.316.606-.568.024-.017.042-.027.061-.027.03 0 .043.013.043.053a.184.184 0 0 1-.021.084c-.072.241-.301.488-.446.759-.007.008-.009.013-.009.022 0 .026.015.035.037.035a.039.039 0 0 0 .028-.01c.23-.29.483-.699.601-.987l.06-.069c.01-.048-.004-.067-.04-.067a.068.068 0 0 0-.036.01c-.21.1-.47.282-.76.548a.046.046 0 0 1-.033.011c-.018 0-.028-.01-.028-.035 0-.014.006-.033.02-.05.09-.183.141-.291.141-.332 0-.026-.008-.042-.03-.047-.058-.02-.155.012-.288.093a2.539 2.539 0 0 0-.46.362c-.013.012-.022.02-.034.02-.023 0-.023-.022.006-.071.062-.115.136-.22.217-.316.07-.078.11-.126.13-.139.013-.012.022-.022.012-.03-.019-.013-.078.013-.103.037a2.755 2.755 0 0 0-.287.363c-.067.093-.1.154-.147.23-.027.042-.062.092-.083.13-.012.019-.035.05-.045.069z"/></g><path fill="#FFF" d="M42.569 41.792h24.239v2.312H42.569zm-5.955 5.728h35.583v1.504H36.614zm.001 2.975h35.583v1.504H36.615zm.002 2.977H69.53v1.504H36.617zm.002 2.975h16.15v1.503h-16.15z"/></svg>