<svg xmlns="http://www.w3.org/2000/svg" viewBox="0 0 67.068924 64.3112717"><path fill="#4B4A4C" d="M.249 57.027c-.862-1 .791-5.219.791-5.219.188-1.939 1.873-3.869 3.76-4.316l16.99-4.022 3.777 3.998 3.748-3.998 17.748 4.05c1.897.432 3.584 2.35 3.773 4.288 0 0 1.653 4.17.802 5.165-8.353 9.761-43.005 9.79-51.388.054z"/><path fill="#F1F2F2" d="M19.18 35.628h14.152v12.164H19.18z"/><path fill="#414042" d="M27.189 52.194h-2.864l-.705-4.402h4.273z"/><path fill="#414042" d="M24.325 51.894h2.864l.704 9.83-2.519 1.883-1.754-1.884z"/><path fill="#BEEEF4" d="M15.937 44.708l4.653 8.213 5.167-5.129-6.614-4.616zm20.007.317l-5.77 7.896-4.417-5.129 7.28-4.616z"/><path fill="#414042" d="M34.142 42.9l-9.011 21.406 3.529-.05 6.357-9.819-2.205-1.298 2.356-.648 4.435-6.673-5.73-5.143s.47 1.735.27 2.225z"/><path fill="#414042" d="M18.37 42.9l9.011 21.406-3.529-.05-6.357-9.819L19.7 53.14l-2.357-.648-4.435-6.673 5.731-5.143s-.471 1.735-.27 2.225z"/><path fill="#E6E7E8" d="M18.768 43.461L33 38.795V36.31H18.768z"/><path fill="#F1F2F2" d="M12.883 8.984v17.758c0 1.29.303 7.16 6.396 10.328l5.147 2.431c1.134.491 2.96.463 4.078-.064l-.15.064L33.5 37.07c6.093-3.167 6.396-9.039 6.396-10.328V8.984H12.883z"/><path fill="#F1F2F2" d="M13.939 20.072c0 1.948-.59 3.529-1.324 3.529-.728 0 0-1.103-1.322-3.529-.932-1.708.594-3.524 1.322-3.524.734 0 1.324 1.579 1.324 3.524zm25.218-.446c0 1.948.592 3.528 1.322 3.528.73 0 0-1.102 1.323-3.528.934-1.708-.593-3.524-1.323-3.524s-1.322 1.579-1.322 3.524z"/><path fill="#4C5562" d="M39.946 10.945c.674 10.466.132 11.2.132 11.2l-.823-.002s.82-9.584-2.942-8.137c-2.605 1.003-4.399-3.902-3.946-4.402-3.197 4.843-15.599 5.899-15.599 5.899 2.412-1.937 3.377-4.774-.831-1.409-2.976 2.38-2.549 8.049-2.549 8.049h-.972l-.297-9.305S9.969 0 25.13.096c16.552-1.291 14.815 10.849 14.815 10.849z"/><path d="M25.265 24.305c0 .54-.466.977-1.04.977h-7.157c-.575 0-1.04-.437-1.04-.977v-2.807c0-.54.465-.977 1.04-.977h7.157c.574 0 1.04.437 1.04.977v2.807zm11.488 0c0 .54-.466.977-1.041.977h-7.156c-.575 0-1.041-.437-1.041-.977v-2.807c0-.54.466-.977 1.04-.977h7.157c.575 0 1.041.437 1.041.977v2.807zm-11.488-1.544h2.25" fill="none" stroke="#4C5562" stroke-miterlimit="10"/><path fill="#FFF" d="M64.435 19.103H49.108a2.634 2.634 0 0 0-2.634 2.634V32.16l-7.124 6.585h25.085a2.634 2.634 0 0 0 2.634-2.634V21.737a2.634 2.634 0 0 0-2.634-2.634z"/><path fill="#E6E7E8" d="M49.685 23.719h14.366v2.053H49.685zm0 4.471h14.366v2.053H49.685zm0 4.471h14.366v2.053H49.685z"/></svg>