<svg xmlns="http://www.w3.org/2000/svg" viewBox="0 0 68.2266693 65.4576492"><g fill="none" stroke="#FFF" stroke-linecap="round" stroke-linejoin="round" stroke-miterlimit="10"><path d="M24.408 64.907l-6.372-9.842 2.21-1.3-2.362-.65-4.445-6.69.372-.334-8.5 2.013c-1.89.448-3.58 2.383-3.769 4.326 0 0-1.656 4.228-.792 5.231 4.094 4.755 14.44 7.18 24.942 7.29l.011-.025-1.295-.019zm3.36-12.183l.447 6.236 2.362-5.61-2.454-2.849zm-1.856 12.231c.487.003.974 0 1.46-.005l-.554-.008-.906.013zM24.47 50.239l-1.92 1.904 2.016 4.786.301-4.205zm3.468 14.702a70.78 70.78 0 0 0 1.098-.03l-1.104.015.006.015zm19.735-16.809l-7.477-1.706-4.445 6.688-2.362.65 2.21 1.301-6.368 9.837c9.83-.386 19.194-2.815 23.028-7.295.852-.996-.804-5.177-.804-5.177-.19-1.943-1.881-3.866-3.782-4.298zm-21.356.273l7.297-4.627.296.188v-6.229l-4.913 2.321c.023-.01.05-.017.074-.028l-.15.064.076-.036c-1.126.498-2.9.518-4.013.036l-5.16-2.437c-.035-.018-.064-.039-.1-.057v6.204l6.593 4.6z"/><path d="M24.984 40.094c1.113.482 2.887.462 4.013-.036l4.913-2.32.17-.08c6.107-3.175 6.41-9.06 6.41-10.353v-4.488c-.011-.04-.025-.078-.036-.12l-.606-.002s.82-9.607-2.95-8.156c-2.611 1.005-4.409-3.91-3.955-4.412-3.204 4.854-15.635 5.912-15.635 5.912 2.417-1.94 3.384-4.784-.834-1.411-2.982 2.384-2.554 8.067-2.554 8.067h-.507v4.61c0 1.285.306 7.108 6.312 10.295.035.018.064.039.1.057l5.159 2.437zm3.095-18.046c0-.54.467-.978 1.044-.978h7.173c.576 0 1.043.438 1.043.978v2.815c0 .54-.467.979-1.043.979h-7.173c-.577 0-1.044-.439-1.044-.98v-2.814zm-11.514 2.815v-2.815c0-.54.467-.978 1.043-.978h7.174c.576 0 1.043.438 1.043.978v2.815c0 .54-.467.979-1.043.979h-7.174c-.576 0-1.043-.439-1.043-.98zM29.07 40.03c-.022.01-.05.018-.073.028l-.077.036.15-.064zM12.782 17.586c-.197-.31-.424-.5-.67-.5-.73 0-2.26 1.821-1.326 3.534 1.326 2.431.596 3.536 1.326 3.536.442 0 .83-.58 1.07-1.46h-.236l-.164-5.11z"/><path d="M40.672 22.697h-.218c.011.042.025.08.037.12.243.81.612 1.339 1.03 1.339.733 0 0-1.105 1.327-3.536.936-1.713-.594-3.533-1.326-3.533-.249 0-.48.194-.678.512.136 4.68-.172 5.098-.172 5.098z"/><path d="M16.474 14.628c4.218-3.373 3.25-.53.834 1.411 0 0 12.43-1.058 15.635-5.912-.454.501 1.344 5.417 3.955 4.412 3.77-1.45 2.95 8.156 2.95 8.156l.606.001h.218s.308-.418.172-5.097a176.701 176.701 0 0 0-.304-6.128S42.281-.698 25.69.596C10.493.5 12.647 13.368 12.647 13.368l.135 4.218.164 5.11h.974s-.428-5.684 2.554-8.068zm8.408 37.888h2.87l.016.208.355-2.223-1.806-2.096-1.848 1.834.398 2.485z"/><path d="M27.753 52.516h-2.871l-.015.208-.301 4.205 2.252 5.35 1.397-3.319-.447-6.236zm-5.203-.373l1.92-1.904 1.847-1.834-6.592-4.601-.037-.026-.549.262zm3.767-3.738l1.806 2.096 2.454 2.849 3.82-9.075-.487-.309-.296-.188zm-.614 16.521l-.01.026-.003.006.222-.003.906-.013z"/><path d="M33.389 53.764l2.362-.65 4.445-6.688-5.744-5.156s.473 1.74.27 2.23l-.325.775-3.82 9.075-2.362 5.61-1.397 3.319 1.114 2.647 1.104-.016.191-.003.004-.005 6.368-9.837-2.21-1.3z"/><path d="M26.818 62.279l-2.252-5.35-2.015-4.786-3.412-8.103-.227-.54c-.201-.49.271-2.23.271-2.23l-5.372 4.821-.372.335 4.445 6.688 2.362.65-2.21 1.301 6.372 9.842 1.295.019 1.115.016.555.008.572.008-.007-.017-.006-.015-1.114-2.647zm-.993-37.416v-2.815c0-.54-.467-.978-1.043-.978h-7.174c-.576 0-1.043.438-1.043.978v2.815c0 .54.467.979 1.043.979h7.174c.576 0 1.043-.439 1.043-.98zm3.298.979h7.173c.576 0 1.043-.439 1.043-.98v-2.814c0-.54-.467-.978-1.043-.978h-7.173c-.577 0-1.044.438-1.044.978v2.815c0 .54.467.979 1.044.979zm35.964-6.194H49.723a2.64 2.64 0 0 0-2.64 2.64v10.448l-7.14 6.6h25.144a2.64 2.64 0 0 0 2.64-2.64V22.288a2.64 2.64 0 0 0-2.64-2.64zm-.385 15.647h-14.4v-2.057h14.4v2.057zm0-4.481h-14.4v-2.058h14.4v2.058zm0-4.482h-14.4v-2.058h14.4v2.058z"/><path d="M50.302 24.274h14.4v2.058h-14.4zm0 4.482h14.4v2.058h-14.4zm0 4.482h14.4v2.058h-14.4z"/></g></svg>