<?xml version="1.0" encoding="utf-8"?>
<!-- Generator: Adobe Illustrator 17.0.0, SVG Export Plug-In . SVG Version: 6.00 Build 0)  -->
<!DOCTYPE svg PUBLIC "-//W3C//DTD SVG 1.1//EN" "http://www.w3.org/Graphics/SVG/1.1/DTD/svg11.dtd">
<svg version="1.1" id="Слой_1" xmlns="http://www.w3.org/2000/svg" xmlns:xlink="http://www.w3.org/1999/xlink" x="0px" y="0px"
	 width="34.063px" height="38.594px" viewBox="1.454 1.648 34.063 38.594" enable-background="new 1.454 1.648 34.063 38.594"
	 xml:space="preserve">
<g>
	<path fill="#FFFFFF" d="M7.514,21.069h8.263c0.449,0,0.813-0.364,0.813-0.813c0-0.449-0.364-0.813-0.813-0.813H7.514
		c-0.449,0-0.813,0.364-0.813,0.813C6.701,20.705,7.065,21.069,7.514,21.069z"/>
	<path fill="#FFFFFF" d="M6.701,25.538c0,0.449,0.364,0.813,0.813,0.813h12.732c0.449,0,0.813-0.364,0.813-0.813
		s-0.364-0.813-0.814-0.813H7.514C7.065,24.725,6.701,25.089,6.701,25.538z"/>
	<path fill="#FFFFFF" d="M20.245,30.006H7.514c-0.449,0-0.813,0.364-0.813,0.813c0,0.449,0.364,0.813,0.813,0.813h12.732
		c0.449,0,0.813-0.364,0.813-0.813C21.057,30.37,20.694,30.006,20.245,30.006z"/>
	<path fill="#FFFFFF" d="M35.516,9.882v-0.17V9.688l-0.069-0.18l-0.025-0.044l-0.13-0.166L27.346,1.86
		c-0.152-0.137-0.351-0.214-0.557-0.212H14.047c-2.243,0-4.062,1.819-4.062,4.062V7.74H5.516c-2.243,0.001-4.062,1.821-4.062,4.064
		v24.375c0,2.243,1.819,4.062,4.062,4.062h17.408c2.243,0,4.062-1.819,4.062-4.062v-2.031h4.468c2.243,0,4.062-1.819,4.062-4.062
		L35.516,9.882L35.516,9.882z M27.604,4.342l5.045,4.728h-4.233c-0.449,0-0.813-0.364-0.813-0.813V4.342z M25.361,36.187
		c0,1.346-1.092,2.437-2.437,2.437H5.516c-1.346,0-2.437-1.092-2.437-2.437V11.813c0-1.346,1.092-2.437,2.437-2.437h11.931v4.977
		c0,1.346,1.092,2.437,2.437,2.437h5.476V36.187z M19.073,14.352v-3.916l5.045,4.728h-4.233
		C19.437,15.165,19.073,14.801,19.073,14.352z M33.891,30.093c0.001,1.347-1.09,2.438-2.436,2.438h-4.468v-5.618h2.129
		c0.449,0,0.813-0.364,0.813-0.813s-0.364-0.813-0.813-0.813h-2.129v-3.656h2.129c0.449,0,0.813-0.364,0.813-0.813
		c0-0.449-0.364-0.813-0.813-0.813h-2.129v-4.03c0.002-0.224-0.09-0.439-0.252-0.593l-7.918-7.431
		c-0.152-0.135-0.351-0.212-0.557-0.21h-6.65V5.711c0-1.346,1.092-2.437,2.437-2.437h11.931v4.984c0,1.346,1.092,2.437,2.437,2.437
		h5.476V30.093z"/>
</g>
</svg>
