<?xml version="1.0" encoding="utf-8"?>
<!-- Generator: Adobe Illustrator 17.0.0, SVG Export Plug-In . SVG Version: 6.00 Build 0)  -->
<!DOCTYPE svg PUBLIC "-//W3C//DTD SVG 1.1//EN" "http://www.w3.org/Graphics/SVG/1.1/DTD/svg11.dtd">
<svg version="1.1" id="Слой_1" xmlns="http://www.w3.org/2000/svg" xmlns:xlink="http://www.w3.org/1999/xlink" x="0px" y="0px"
	 width="35.011px" height="35.386px" viewBox="1.495 1.511 35.011 35.386" enable-background="new 1.495 1.511 35.011 35.386"
	 xml:space="preserve">
<g>
	<path fill="#FFFFFF" d="M6.61,16.124c-0.526,0-0.952,0.211-0.952,0.473c0,0.261,0.426,0.473,0.952,0.473h23.16
		c0.525,0,0.951-0.212,0.951-0.473c0-0.261-0.426-0.473-0.951-0.473H6.61z"/>
	<path fill="#FFFFFF" d="M19.381,33.486h-8.117V28.47c-0.002-1.573-1.277-2.848-2.851-2.851H3.398V8.377
		C3.387,7.854,3.802,7.42,4.326,7.41h0.019h3.536v1.587c0.002,1.124,0.913,2.034,2.035,2.036h2.74
		c1.124-0.002,2.034-0.913,2.036-2.036V7.41h6.998v1.587c0.002,1.124,0.913,2.034,2.036,2.036h2.74
		c1.121,0.004,2.034-0.897,2.048-2.017V7.411h3.535c0.523,0,0.948,0.425,0.948,0.948V21c0,0.526,0.426,0.952,0.951,0.952
		s0.952-0.426,0.952-0.952V8.377c0.008-1.577-1.263-2.861-2.838-2.87H32.04h-3.526v-1.96c-0.002-1.127-0.917-2.038-2.044-2.036
		h-0.008h-2.74c-1.124,0.002-2.034,0.913-2.036,2.036v1.96h-6.994v-1.96c-0.001-1.123-0.912-2.034-2.035-2.035h-2.74
		C8.793,1.514,7.883,2.424,7.88,3.548v1.96H4.345C2.769,5.51,1.493,6.789,1.495,8.366v0.011v18.647c0,0.253,0.099,0.495,0.278,0.673
		l7.402,7.413c0.179,0.179,0.421,0.278,0.673,0.278h9.533c0.526,0,0.951-0.426,0.951-0.952S19.907,33.486,19.381,33.486z
		 M23.594,3.548l0.133-0.133h2.74l0.133,0.133v5.469L26.467,9.15h-2.74l-0.133-0.133V3.548z M9.784,3.547l0.133-0.133h2.74
		l0.133,0.133v5.469H12.79l-0.133,0.133h-2.74L9.784,9.016V3.547z M9.361,32.602l-5.08-5.08h4.132c0.523,0,0.948,0.425,0.948,0.948
		V32.602z"/>
	<path fill="#FFFFFF" d="M35.943,26.115l-1.701-1.701c-0.752-0.752-1.971-0.753-2.723-0.002l-0.002,0.002l-4.437,4.441l-1.697-1.697
		c-0.752-0.753-1.971-0.753-2.723-0.002l-0.002,0.002l-1.701,1.701c-0.752,0.752-0.753,1.971-0.002,2.723l0.002,0.002l4.76,4.749
		c0.752,0.753,1.971,0.753,2.723,0.002l0.002-0.002l7.5-7.497c0.361-0.359,0.564-0.849,0.562-1.359
		C36.508,26.965,36.306,26.474,35.943,26.115z M27.943,34.144l-0.882,0.848l-4.757-4.791l1.732-1.701l2.371,2.371
		c0.371,0.372,0.973,0.373,1.345,0.002l0.002-0.002l5.11-5.11h0.03l1.709,1.732L27.943,34.144z"/>
</g>
</svg>
