<?xml version="1.0" encoding="utf-8"?>
<!-- Generator: Adobe Illustrator 17.0.0, SVG Export Plug-In . SVG Version: 6.00 Build 0)  -->
<!DOCTYPE svg PUBLIC "-//W3C//DTD SVG 1.1//EN" "http://www.w3.org/Graphics/SVG/1.1/DTD/svg11.dtd">
<svg version="1.1" id="Слой_1" xmlns="http://www.w3.org/2000/svg" xmlns:xlink="http://www.w3.org/1999/xlink" x="0px" y="0px"
	 width="36.011px" height="35.593px" viewBox="1.495 1.477 36.011 35.593" enable-background="new 1.495 1.477 36.011 35.593"
	 xml:space="preserve">
<g>
	<path fill="#FFFFFF" d="M35.585,3.396c-1.186-1.187-2.832-1.92-4.648-1.92H8.063c-1.816,0-3.462,0.733-4.649,1.92
		c-1.187,1.186-1.921,2.832-1.92,4.649v15.406c0,1.816,0.733,3.462,1.92,4.648c1.186,1.187,2.832,1.921,4.649,1.92h8.236
		l6.295,6.523l0.002-0.002c0.278,0.325,0.673,0.526,1.104,0.528c0.469,0.008,0.942-0.227,1.21-0.642l0.037-0.056l0.068-0.203
		l0.003-0.01l1.766-6.137l4.152,0c1.816,0,3.462-0.733,4.648-1.92c1.187-1.186,1.921-2.832,1.92-4.649V8.046V8.044
		C37.506,6.228,36.772,4.582,35.585,3.396z M35.575,8.046v15.406c-0.001,2.572-2.062,4.635-4.636,4.636h-4.902
		c-0.442,0.014-0.744,0.278-0.914,0.602l-0.022,0.044l-1.647,5.929l-6.07-6.285l-0.004-0.004c-0.076-0.076-0.175-0.154-0.297-0.208
		c-0.122-0.055-0.259-0.078-0.383-0.078H8.063c-2.572-0.003-4.634-2.064-4.635-4.637V8.046C3.43,5.474,5.49,3.411,8.064,3.41h22.875
		C33.512,3.411,35.574,5.472,35.575,8.046z"/>
	<path fill="#FFFFFF" d="M30.238,9.225H8.297C8.047,9.223,7.788,9.314,7.605,9.5C7.419,9.683,7.328,9.942,7.33,10.192
		c-0.002,0.25,0.09,0.509,0.275,0.693c0.184,0.185,0.443,0.276,0.692,0.274h21.941c0.25,0.002,0.509-0.09,0.692-0.275
		c0.185-0.184,0.277-0.442,0.275-0.692c0.002-0.25-0.09-0.509-0.275-0.692C30.747,9.314,30.488,9.223,30.238,9.225z"/>
	<path fill="#FFFFFF" d="M30.238,14.827H8.297c-0.25-0.002-0.509,0.09-0.692,0.275c-0.185,0.184-0.277,0.442-0.275,0.692
		c-0.002,0.25,0.09,0.509,0.275,0.693c0.184,0.185,0.443,0.276,0.692,0.274h21.941c0.25,0.002,0.509-0.09,0.692-0.275
		c0.185-0.184,0.277-0.442,0.275-0.692c0.002-0.25-0.09-0.509-0.275-0.692C30.747,14.917,30.488,14.825,30.238,14.827z"/>
	<path fill="#FFFFFF" d="M21.462,19.962H8.297c-0.25-0.002-0.509,0.09-0.692,0.275c-0.185,0.184-0.277,0.442-0.275,0.692
		c-0.002,0.25,0.09,0.509,0.275,0.692c0.184,0.185,0.442,0.277,0.692,0.275h13.164c0.25,0.002,0.509-0.09,0.692-0.275
		c0.185-0.184,0.277-0.442,0.275-0.692c0.002-0.25-0.09-0.509-0.275-0.692C21.97,20.052,21.711,19.96,21.462,19.962z"/>
</g>
</svg>
