<?xml version="1.0" encoding="utf-8"?>
<!-- Generator: Adobe Illustrator 17.0.0, SVG Export Plug-In . SVG Version: 6.00 Build 0)  -->
<!DOCTYPE svg PUBLIC "-//W3C//DTD SVG 1.1//EN" "http://www.w3.org/Graphics/SVG/1.1/DTD/svg11.dtd">
<svg version="1.1" id="Слой_1" xmlns="http://www.w3.org/2000/svg" xmlns:xlink="http://www.w3.org/1999/xlink" x="0px" y="0px"
	 width="35.011px" height="30.871px" viewBox="1.495 1.374 35.011 30.871" enable-background="new 1.495 1.374 35.011 30.871"
	 xml:space="preserve">
<g>
	<path fill="#FFFFFF" d="M36.136,28.219L21.328,2.716c-0.493-0.85-1.343-1.342-2.327-1.342c-0.985,0-1.835,0.492-2.327,1.342
		L1.864,28.219c-0.492,0.85-0.492,1.834,0,2.684c0.493,0.85,1.343,1.342,2.327,1.342h29.62c0.939,0,1.833-0.492,2.325-1.342
		C36.628,30.053,36.628,29.069,36.136,28.219z M34.525,30.009c-0.044,0.133-0.313,0.447-0.76,0.447H4.19
		c-0.447,0-0.671-0.313-0.76-0.447c-0.09-0.135-0.223-0.493,0-0.895L18.241,3.609c0.223-0.401,0.626-0.447,0.76-0.447
		c0.134,0,0.536,0.045,0.76,0.448l14.764,25.503C34.748,29.517,34.615,29.874,34.525,30.009z"/>
	<rect x="18.106" y="12.559" fill="#FFFFFF" width="1.79" height="10.29"/>
	<rect x="18.106" y="24.639" fill="#FFFFFF" width="1.79" height="2.237"/>
</g>
</svg>
