<?xml version="1.0" encoding="utf-8"?>
<!-- Generator: Adobe Illustrator 17.0.0, SVG Export Plug-In . SVG Version: 6.00 Build 0)  -->
<!DOCTYPE svg PUBLIC "-//W3C//DTD SVG 1.1//EN" "http://www.w3.org/Graphics/SVG/1.1/DTD/svg11.dtd">
<svg version="1.1" id="Слой_1" xmlns="http://www.w3.org/2000/svg" xmlns:xlink="http://www.w3.org/1999/xlink" x="0px" y="0px"
	 width="35.011px" height="35.011px" viewBox="1.495 1.495 35.011 35.011" enable-background="new 1.495 1.495 35.011 35.011"
	 xml:space="preserve">
<g>
	<path fill="#FFFFFF" d="M27.78,16.31h-1.215c-0.092-0.254-0.193-0.506-0.31-0.75l0.857-0.857c0.773-0.773,0.773-2.049,0-2.823
		l-0.986-0.99c-0.773-0.773-2.049-0.773-2.823,0l-0.857,0.857c-0.247-0.117-0.495-0.219-0.753-0.31v-1.218
		c0-1.093-0.901-1.991-1.993-1.991h-1.399c-1.092,0-1.993,0.899-1.993,1.991v1.217c-0.256,0.092-0.507,0.194-0.753,0.313
		l-0.857-0.86c-0.773-0.773-2.046-0.773-2.819,0l-0.988,0.99c-0.773,0.773-0.773,2.049,0,2.823l0.857,0.855
		c-0.116,0.246-0.217,0.496-0.308,0.753h-1.218c-1.092,0-1.993,0.899-1.993,1.991v1.4c0,1.092,0.901,1.993,1.993,1.993h1.213
		c0.092,0.255,0.196,0.505,0.313,0.75l-0.857,0.86c-0.773,0.773-0.773,2.046,0,2.819l0.988,0.992c0.773,0.773,2.046,0.773,2.819,0
		l0.855-0.86c0.247,0.117,0.498,0.217,0.755,0.308v1.217c0,1.092,0.901,1.996,1.993,1.996h1.4c1.092,0,1.993-0.904,1.993-1.996
		v-1.21c0.256-0.092,0.503-0.201,0.75-0.319l0.86,0.863c0.773,0.773,2.049,0.773,2.823,0l0.986-0.992
		c0.773-0.773,0.773-2.046,0-2.819l-0.855-0.857c0.116-0.246,0.217-0.496,0.308-0.753h1.215c1.092,0,1.993-0.901,1.993-1.993v-1.4
		C29.773,17.208,28.872,16.31,27.78,16.31z M28.425,19.7c0,0.371-0.277,0.647-0.647,0.647h-1.663c-0.302,0-0.568,0.201-0.65,0.492
		c-0.14,0.503-0.339,0.987-0.592,1.444c-0.145,0.264-0.099,0.59,0.113,0.802l1.17,1.17c0.262,0.262,0.262,0.654,0,0.915l-0.988,0.99
		c-0.262,0.262-0.654,0.262-0.915,0l-1.176-1.176c-0.214-0.214-0.543-0.259-0.808-0.11c-0.455,0.256-0.938,0.458-1.439,0.603
		c-0.288,0.083-0.486,0.347-0.486,0.647v1.656c0,0.371-0.277,0.647-0.647,0.647h-1.4c-0.371,0-0.647-0.277-0.647-0.647v-1.663
		c0-0.302-0.202-0.566-0.492-0.647c-0.503-0.14-0.987-0.339-1.444-0.592c-0.262-0.146-0.589-0.101-0.802,0.11l-1.17,1.17
		c-0.262,0.262-0.654,0.262-0.915,0l-0.988-0.992c-0.262-0.262-0.262-0.65,0-0.912l1.173-1.173c0.214-0.213,0.26-0.541,0.113-0.805
		c-0.255-0.456-0.456-0.94-0.6-1.441c-0.083-0.29-0.348-0.489-0.65-0.488H10.22c-0.371,0-0.647-0.277-0.647-0.647v-1.4
		c0-0.371,0.277-0.65,0.647-0.65h1.663c0.302,0.001,0.567-0.199,0.649-0.488c0.14-0.503,0.339-0.984,0.592-1.441
		c0.145-0.264,0.099-0.59-0.113-0.802l-1.17-1.17c-0.262-0.262-0.262-0.654,0-0.915l0.988-0.99c0.262-0.262,0.654-0.262,0.915,0
		l1.176,1.176c0.214,0.213,0.541,0.258,0.805,0.11c0.455-0.256,0.938-0.458,1.439-0.603c0.29-0.082,0.488-0.346,0.488-0.647V10.22
		c0.001-0.372,0.277-0.645,0.649-0.645h1.399c0.371,0,0.647,0.273,0.647,0.645v1.665c0,0.302,0.202,0.566,0.492,0.647
		c0.503,0.14,0.987,0.341,1.444,0.594c0.264,0.145,0.59,0.099,0.802-0.113l1.17-1.17c0.262-0.262,0.654-0.262,0.915,0l0.988,0.99
		c0.262,0.262,0.262,0.654,0,0.915l-1.179,1.176c-0.212,0.214-0.256,0.542-0.108,0.805c0.256,0.455,0.458,0.938,0.603,1.439
		c0.083,0.29,0.349,0.487,0.649,0.486h1.654c0.371,0,0.647,0.277,0.647,0.647V19.7z"/>
	<path fill="#FFFFFF" d="M28.699,1.496H9.301V1.495c-4.314,0-7.806,3.495-7.806,7.808v19.396c0,4.312,3.492,7.806,7.806,7.806
		h19.398c4.312,0,7.806-3.493,7.806-7.806V9.304C36.505,4.992,33.012,1.496,28.699,1.496z M35.158,28.699
		c0,3.591-2.868,6.459-6.459,6.459H9.301c-3.591,0-6.459-2.868-6.459-6.459V9.304C2.841,5.713,5.71,2.841,9.301,2.841h19.398
		c3.591,0,6.459,2.871,6.459,6.462V28.699z"/>
	<path fill="#FFFFFF" d="M19,14.961c-2.223,0-4.039,1.817-4.039,4.039s1.817,4.037,4.039,4.037c2.224,0,4.042-1.815,4.042-4.037
		S21.223,14.961,19,14.961z M19,21.691c-1.495,0-2.693-1.196-2.693-2.691c0-1.495,1.198-2.693,2.693-2.693s2.693,1.198,2.693,2.693
		C21.693,20.494,20.495,21.691,19,21.691z"/>
</g>
</svg>
