<?xml version="1.0" encoding="utf-8"?>
<!-- Generator: Adobe Illustrator 17.0.0, SVG Export Plug-In . SVG Version: 6.00 Build 0)  -->
<!DOCTYPE svg PUBLIC "-//W3C//DTD SVG 1.1//EN" "http://www.w3.org/Graphics/SVG/1.1/DTD/svg11.dtd">
<svg version="1.1" id="Слой_1" xmlns="http://www.w3.org/2000/svg" xmlns:xlink="http://www.w3.org/1999/xlink" x="0px" y="0px"
	 width="35.011px" height="39.031px" viewBox="1.495 1.666 35.011 39.031" enable-background="new 1.495 1.666 35.011 39.031"
	 xml:space="preserve">
<g>
	<path fill="#FFFFFF" d="M12.223,18.039c1.038,1.582,2.439,3.06,4.194,3.838c0.862,0.383,1.781,0.603,2.731,0.58
		c0.948-0.024,1.858-0.294,2.706-0.71c1.731-0.852,3.094-2.39,4.104-4.003c1.03-1.646,1.763-3.54,2.031-5.465
		c0.07-0.5,0.117-1,0.12-1.505c0-0.008-0.005-0.015-0.005-0.023c-0.012-2.091-0.739-4.07-2.03-5.707
		c-1.227-1.554-3.019-2.666-4.939-3.13c-2.061-0.498-4.232-0.238-6.138,0.671c-1.773,0.848-3.257,2.335-4.137,4.089
		C10.379,7.632,10.095,8.641,9.955,9.7c-0.128,0.968-0.059,1.943,0.097,2.901C10.366,14.528,11.155,16.412,12.223,18.039z
		 M19.624,20.909C19.667,20.902,19.656,20.904,19.624,20.909L19.624,20.909z M11.449,9.816c0.001-0.009,0.003-0.028,0.006-0.049
		l0.025-0.159c0.018-0.116,0.04-0.231,0.064-0.346c0.051-0.246,0.115-0.49,0.188-0.731c0.064-0.22,0.143-0.437,0.227-0.651
		c0.005-0.013,0.019-0.046,0.03-0.073l0.051-0.113c0.055-0.121,0.114-0.241,0.175-0.359c0.213-0.421,0.468-0.819,0.749-1.196
		c0.011-0.014,0.007-0.01,0.013-0.018c0.004-0.005,0.001-0.002,0.007-0.009L13.09,5.98l0.221-0.255
		c0.163-0.182,0.335-0.356,0.511-0.522c0.164-0.155,0.336-0.301,0.511-0.441c0.013-0.01,0.009-0.007,0.016-0.013
		c0.006-0.004,0.002-0.001,0.01-0.008l0.136-0.1c0.107-0.077,0.215-0.152,0.326-0.224c0.391-0.256,0.808-0.476,1.237-0.663
		c0.019-0.008,0.037-0.015,0.045-0.019l0.16-0.061c0.107-0.04,0.216-0.078,0.325-0.114c0.238-0.078,0.481-0.144,0.725-0.202
		c0.22-0.052,0.445-0.091,0.67-0.124c0.023-0.003,0.046-0.006,0.055-0.008l0.176-0.018c0.139-0.013,0.279-0.022,0.418-0.028
		c0.242-0.011,0.483-0.009,0.726,0c0.12,0.005,0.24,0.012,0.359,0.023l0.177,0.017c0.017,0.002,0.078,0.009,0.123,0.015
		c0.471,0.068,0.935,0.179,1.387,0.325c0.188,0.061,0.37,0.13,0.552,0.204c0.042,0.019,0.148,0.064,0.173,0.076
		c0.104,0.048,0.205,0.098,0.307,0.15c0.369,0.189,0.723,0.409,1.061,0.65c0.02,0.015,0.099,0.074,0.141,0.105l0.238,0.195
		c0.158,0.133,0.309,0.274,0.457,0.418c0.147,0.144,0.288,0.295,0.424,0.45l0.218,0.259c0.006,0.008,0.021,0.027,0.036,0.046
		l0.086,0.115c0.243,0.334,0.461,0.69,0.655,1.056c0.091,0.172,0.173,0.349,0.251,0.527c0.017,0.042,0.062,0.15,0.072,0.176
		c0.041,0.108,0.08,0.215,0.116,0.325c0.137,0.403,0.24,0.819,0.312,1.239c0.005,0.031,0.027,0.177,0.033,0.207
		c0.012,0.099,0.023,0.198,0.032,0.297c0.023,0.239,0.03,0.479,0.031,0.719c-0.001,0.207-0.008,0.412-0.022,0.617
		c-0.007,0.105-0.016,0.209-0.026,0.314l-0.017,0.159c-0.002,0.015-0.007,0.053-0.011,0.089c-0.064,0.449-0.156,0.892-0.269,1.332
		c-0.12,0.462-0.268,0.917-0.434,1.365c-0.041,0.109-0.084,0.218-0.127,0.325l-0.067,0.161c0.074-0.177-0.004,0.005-0.016,0.034
		c-0.101,0.232-0.21,0.462-0.324,0.689c-0.219,0.436-0.46,0.861-0.723,1.272c-0.125,0.196-0.257,0.388-0.391,0.577l-0.205,0.278
		c-0.002,0.003-0.001,0.001-0.003,0.003c-0.006,0.007-0.004,0.005-0.02,0.025l-0.143,0.177c-0.296,0.361-0.616,0.703-0.956,1.023
		c-0.159,0.149-0.325,0.292-0.494,0.43l-0.064,0.051c-0.017,0.013-0.064,0.049-0.08,0.061l-0.303,0.215
		c-0.353,0.239-0.728,0.443-1.119,0.613c-0.008,0.003-0.018,0.008-0.023,0.01l-0.143,0.054l-0.287,0.095
		c-0.208,0.064-0.419,0.114-0.633,0.153l-0.113,0.018c-0.013,0.002-0.027,0.004-0.035,0.005l-0.301,0.024
		c-0.219,0.011-0.438,0.007-0.657-0.009c-0.038-0.003-0.173-0.02-0.213-0.024l-0.23-0.041c-0.213-0.043-0.423-0.103-0.63-0.17
		l-0.285-0.104c-0.017-0.007-0.055-0.022-0.079-0.032l-0.069-0.03c-0.204-0.092-0.401-0.197-0.594-0.309
		c-0.182-0.106-0.358-0.221-0.531-0.341l-0.214-0.156c-0.022-0.017-0.05-0.039-0.061-0.047l-0.167-0.138
		c-0.355-0.296-0.681-0.622-0.993-0.964c-0.152-0.169-0.298-0.342-0.44-0.52c-0.015-0.019-0.083-0.107-0.071-0.09l-0.056-0.075
		c-0.081-0.109-0.159-0.218-0.237-0.328c-0.279-0.397-0.533-0.813-0.768-1.239c-0.114-0.205-0.22-0.415-0.324-0.625
		c-0.051-0.105-0.101-0.21-0.15-0.318l-0.072-0.159c-0.007-0.015-0.029-0.068-0.047-0.108c-0.365-0.869-0.642-1.776-0.815-2.702
		c-0.02-0.104-0.037-0.212-0.056-0.321l-0.024-0.16c0.032,0.214,0.005,0.029,0-0.012c-0.028-0.226-0.048-0.455-0.06-0.682
		C11.38,10.763,11.396,10.288,11.449,9.816z"/>
	<path fill="#FFFFFF" d="M36.505,33.261c-0.007-2.094-0.713-4.101-1.992-5.754c-1.214-1.571-2.95-2.715-4.861-3.247
		c-1.431-0.399-2.906-0.334-4.375-0.334c-0.33,0-0.578,0.121-0.779,0.396l-0.152,0.209c-0.232,0.32-0.465,0.641-0.698,0.961
		c-1.516,2.086-3.033,4.173-4.548,6.26c-0.026,0.035-0.051,0.07-0.077,0.105c-0.962-1.313-1.924-2.625-2.886-3.939
		c-0.711-0.97-1.422-1.942-2.132-2.911c-0.163-0.222-0.326-0.444-0.489-0.666c-0.182-0.248-0.397-0.416-0.724-0.416
		c-0.263,0-0.526,0-0.79,0c-0.61,0-1.226-0.02-1.835,0.025c-1.076,0.078-2.096,0.344-3.085,0.763
		c-1.816,0.769-3.354,2.185-4.34,3.884c-0.851,1.465-1.246,3.13-1.246,4.816c0,1.128,0,2.255,0,3.382c0,1.049,0,2.098,0,3.148
		c0,0.411,0.342,0.754,0.754,0.754c0.873,0,1.747,0,2.619,0c2.168,0,4.335,0,6.503,0c2.786,0,5.574,0,8.359,0
		c2.729,0,5.458,0,8.187,0c1.996,0,3.991,0,5.987,0c0.614,0,1.229,0,1.844,0c0.411,0,0.754-0.343,0.754-0.754
		c0-2.105,0-4.212,0-6.319c0-0.115,0-0.23,0-0.345C36.502,33.273,36.505,33.267,36.505,33.261z M33.132,39.189
		c-2.168,0-4.335,0-6.503,0c-2.786,0-5.574,0-8.359,0c-2.729,0-5.458,0-8.187,0c-1.996,0-3.991,0-5.987,0c-0.363,0-0.726,0-1.09,0
		c0-1.854,0-3.71,0-5.565c0-0.462,0.007-0.922,0.06-1.38c0.003-0.026,0.002-0.022,0.003-0.032c0-0.002,0,0,0-0.002l0.027-0.175
		c0.02-0.116,0.041-0.231,0.065-0.345c0.051-0.246,0.115-0.49,0.188-0.731c0.066-0.22,0.143-0.438,0.226-0.652
		c0.007-0.018,0.032-0.08,0.04-0.099l0.039-0.09c0.054-0.122,0.113-0.241,0.172-0.359c0.213-0.422,0.463-0.823,0.742-1.203
		c0.013-0.018,0.061-0.081,0.065-0.087l0.057-0.072l0.219-0.259c0.16-0.183,0.33-0.359,0.506-0.528
		c0.161-0.158,0.331-0.306,0.505-0.449l0.131-0.106c0.006-0.005,0.002-0.002,0.007-0.006c0.008-0.006,0.004-0.002,0.019-0.014
		c0.105-0.08,0.213-0.155,0.323-0.229c0.391-0.267,0.806-0.496,1.234-0.695l0.14-0.062c-0.003,0.002,0.127-0.052,0.152-0.062
		c0.143-0.056,0.287-0.106,0.433-0.155c0.294-0.097,0.594-0.175,0.895-0.241c0.153-0.032,0.307-0.059,0.462-0.084l0.079-0.011
		c0.008-0.001,0.004,0,0.014-0.002l0.237-0.024c0.265-0.025,0.533-0.035,0.8-0.035c0.536,0,1.072,0,1.608,0
		c1.089,1.486,2.177,2.971,3.266,4.458c0.884,1.207,1.768,2.413,2.651,3.62c0.352,0.479,0.952,0.483,1.303,0
		c1.175-1.616,2.349-3.234,3.524-4.85c0.781-1.075,1.563-2.151,2.344-3.227c0.409,0,0.817,0,1.227,0
		c0.234,0,0.466-0.002,0.699,0.005c0.24,0.008,0.477,0.027,0.714,0.055c0.009,0.001,0.004,0,0.011,0.001
		c0.01,0.001,0.004,0.001,0.023,0.003l0.175,0.027c0.136,0.022,0.269,0.049,0.402,0.077c0.471,0.1,0.93,0.246,1.379,0.424
		c0.022,0.009,0.018,0.007,0.027,0.011c0.003,0.001,0.001,0,0.004,0.002l0.156,0.07c0.104,0.048,0.207,0.097,0.308,0.148
		c0.219,0.11,0.433,0.232,0.642,0.362c0.193,0.119,0.378,0.247,0.561,0.38c0.016,0.012,0.069,0.052,0.085,0.063l0.075,0.059
		c0.103,0.082,0.202,0.169,0.301,0.255c0.352,0.311,0.675,0.654,0.972,1.016l0.055,0.069c-0.011-0.013,0.054,0.07,0.068,0.09
		l0.196,0.276c0.127,0.187,0.246,0.379,0.359,0.577c0.113,0.197,0.215,0.4,0.313,0.606l0.071,0.155
		c0.004,0.009,0.013,0.03,0.022,0.051c0.048,0.116,0.092,0.234,0.135,0.353c0.158,0.436,0.275,0.888,0.359,1.344
		c0.018,0.099,0.033,0.197,0.047,0.297c0.004,0.031,0.009,0.071,0.01,0.085l0.018,0.177c0.029,0.266,0.039,0.527,0.04,0.787
		c0,1.975,0,3.952,0,5.928C34.376,39.189,33.754,39.189,33.132,39.189z"/>
</g>
</svg>
