<?xml version="1.0" encoding="utf-8"?>
<!-- Generator: Adobe Illustrator 17.0.0, SVG Export Plug-In . SVG Version: 6.00 Build 0)  -->
<!DOCTYPE svg PUBLIC "-//W3C//DTD SVG 1.1//EN" "http://www.w3.org/Graphics/SVG/1.1/DTD/svg11.dtd">
<svg version="1.1" id="Слой_1" xmlns="http://www.w3.org/2000/svg" xmlns:xlink="http://www.w3.org/1999/xlink" x="0px" y="0px"
	 width="82.092px" height="93px" viewBox="0 0 82.092 93" enable-background="new 0 0 82.092 93" xml:space="preserve">
<g>
	<path fill="#455773" d="M14.601,46.8h19.911c1.081,0,1.958-0.877,1.958-1.958c0-1.081-0.877-1.958-1.958-1.958H14.601
		c-1.081,0-1.958,0.877-1.958,1.958C12.643,45.924,13.52,46.8,14.601,46.8z"/>
	<path fill="#455773" d="M45.282,55.609H14.601c-1.081,0-1.958,0.877-1.958,1.958s0.877,1.958,1.958,1.958h30.681
		c1.081,0,1.958-0.877,1.958-1.958S46.363,55.609,45.282,55.609z"/>
	<path fill="#455773" d="M45.282,68.337H14.601c-1.081,0-1.958,0.877-1.958,1.958s0.877,1.958,1.958,1.958h30.681
		c1.081,0,1.958-0.877,1.958-1.958C47.239,69.213,46.363,68.337,45.282,68.337z"/>
	<path fill="#455773" d="M82.082,19.843c0.014-0.136,0.014-0.274,0-0.412v-0.058c-0.038-0.149-0.094-0.294-0.166-0.431l-0.059-0.107
		c-0.087-0.146-0.192-0.281-0.314-0.401L62.396,0.509C62.03,0.177,61.55-0.006,61.054,0H30.346c-5.406,0-9.789,4.383-9.789,9.789
		v4.895H9.789C4.383,14.684,0,19.067,0,24.474v58.736C0,88.616,4.383,93,9.789,93h41.948c5.406,0,9.789-4.383,9.789-9.789v-4.895
		h10.768c5.406,0,9.789-4.383,9.789-9.789V19.843H82.082z M63.013,6.49l12.159,11.395h-10.2c-1.081,0-1.958-0.877-1.958-1.958
		C63.013,15.928,63.013,6.49,63.013,6.49z M57.61,83.229c0,3.243-2.63,5.874-5.874,5.874H9.788c-3.243,0-5.874-2.63-5.874-5.874
		V24.493c0-3.243,2.63-5.874,5.874-5.874H38.54v11.992c0,3.243,2.63,5.874,5.874,5.874H57.61V83.229z M42.456,30.611v-9.436
		L54.614,32.57H44.413C43.331,32.569,42.456,31.693,42.456,30.611z M72.294,74.419H61.525V60.88h5.13
		c1.081,0,1.958-0.877,1.958-1.958c0-1.081-0.877-1.958-1.958-1.958h-5.13v-8.811h5.13c1.081,0,1.958-0.877,1.958-1.958
		c0-1.081-0.877-1.958-1.958-1.958h-5.13v-9.712c0.003-0.541-0.216-1.057-0.607-1.429l-19.08-17.906
		c-0.366-0.332-0.846-0.515-1.342-0.509H24.472V9.788c0-3.243,2.63-5.874,5.874-5.874h28.752v12.012c0,3.243,2.63,5.874,5.874,5.874
		h13.196v46.745C78.166,71.789,75.537,74.419,72.294,74.419z"/>
</g>
</svg>
