<?xml version="1.0" encoding="utf-8"?>
<!-- Generator: Adobe Illustrator 17.0.0, SVG Export Plug-In . SVG Version: 6.00 Build 0)  -->
<!DOCTYPE svg PUBLIC "-//W3C//DTD SVG 1.1//EN" "http://www.w3.org/Graphics/SVG/1.1/DTD/svg11.dtd">
<svg version="1.1" id="Слой_1" xmlns="http://www.w3.org/2000/svg" xmlns:xlink="http://www.w3.org/1999/xlink" x="0px" y="0px"
	 width="21.774px" height="24.667px" viewBox="0 0 21.774 24.667" enable-background="new 0 0 21.774 24.667" xml:space="preserve">
<g>
	<path fill="#1AA1DC" d="M3.873,12.413h5.281c0.287,0,0.519-0.232,0.519-0.519c0-0.287-0.232-0.519-0.519-0.519H3.873
		c-0.287,0-0.519,0.232-0.519,0.519C3.353,12.18,3.586,12.413,3.873,12.413z"/>
	<path fill="#1AA1DC" d="M12.01,14.749H3.873c-0.287,0-0.519,0.232-0.519,0.519c0,0.287,0.232,0.519,0.519,0.519h8.138
		c0.287,0,0.519-0.232,0.519-0.519C12.529,14.982,12.297,14.749,12.01,14.749z"/>
	<path fill="#1AA1DC" d="M12.01,18.125H3.873c-0.287,0-0.519,0.232-0.519,0.519c0,0.287,0.232,0.519,0.519,0.519h8.138
		c0.287,0,0.519-0.232,0.519-0.519C12.529,18.358,12.297,18.125,12.01,18.125z"/>
	<path fill="#1AA1DC" d="M21.771,5.263c0.004-0.036,0.004-0.073,0-0.109V5.138c-0.01-0.039-0.025-0.078-0.044-0.114l-0.016-0.028
		c-0.023-0.039-0.051-0.075-0.083-0.106l-5.078-4.754C16.452,0.047,16.325-0.002,16.194,0H8.049C6.615,0,5.452,1.162,5.452,2.597
		v1.298H2.596C1.162,3.895,0,5.057,0,6.491V22.07c0,1.434,1.162,2.596,2.596,2.596h11.126c1.434,0,2.596-1.162,2.596-2.596v-1.298
		h2.856c1.434,0,2.596-1.162,2.596-2.596L21.771,5.263L21.771,5.263z M16.713,1.721l3.225,3.022h-2.705
		c-0.287,0-0.519-0.232-0.519-0.519L16.713,1.721z M15.28,22.075c0,0.86-0.697,1.558-1.558,1.558H2.596
		c-0.86,0-1.558-0.697-1.558-1.558V6.496c0-0.86,0.697-1.558,1.558-1.558h7.626v3.181c0,0.86,0.697,1.558,1.558,1.558h3.5V22.075z
		 M11.261,8.119V5.616l3.225,3.022H11.78C11.493,8.638,11.261,8.406,11.261,8.119z M19.175,19.738h-2.856v-3.591h1.361
		c0.287,0,0.519-0.232,0.519-0.519s-0.232-0.519-0.519-0.519h-1.361v-2.337h1.361c0.287,0,0.519-0.232,0.519-0.519
		c0-0.287-0.232-0.519-0.519-0.519h-1.361V9.158c0.001-0.143-0.057-0.28-0.161-0.379L11.097,4.03
		C11,3.941,10.872,3.893,10.741,3.895h-4.25V2.596c0-0.86,0.697-1.558,1.558-1.558h7.626v3.186c0,0.86,0.697,1.558,1.558,1.558h3.5
		v12.398C20.732,19.041,20.035,19.738,19.175,19.738z"/>
</g>
</svg>
