<?xml version="1.0" encoding="utf-8"?>
<!-- Generator: Adobe Illustrator 17.0.0, SVG Export Plug-In . SVG Version: 6.00 Build 0)  -->
<!DOCTYPE svg PUBLIC "-//W3C//DTD SVG 1.1//EN" "http://www.w3.org/Graphics/SVG/1.1/DTD/svg11.dtd">
<svg version="1.1" id="Слой_1" xmlns="http://www.w3.org/2000/svg" xmlns:xlink="http://www.w3.org/1999/xlink" x="0px" y="0px"
	 width="32.889px" height="29.309px" viewBox="0 0 32.889 29.309" enable-background="new 0 0 32.889 29.309" xml:space="preserve">
<g>
	<path fill="#63B7DF" d="M15.406,0v18.727l-6.639-6.691l-1.452,1.452l8.456,8.456c0.208,0.208,0.467,0.311,0.727,0.311
		s0.519-0.104,0.727-0.311l8.456-8.456l-1.556-1.452l-6.64,6.691V0H15.406z"/>
	<path fill="#63B7DF" d="M0,15.666v11.05c0,1.452,1.142,2.594,2.594,2.594h27.702c1.452,0,2.594-1.142,2.594-2.594v-11.05h-2.075
		v11.05c0,0.311-0.208,0.519-0.519,0.519h-27.7c-0.311,0-0.519-0.208-0.519-0.519v-11.05H0z"/>
</g>
</svg>
