<?xml version="1.0" encoding="utf-8"?>
<!-- Generator: Adobe Illustrator 17.0.0, SVG Export Plug-In . SVG Version: 6.00 Build 0)  -->
<!DOCTYPE svg PUBLIC "-//W3C//DTD SVG 1.1//EN" "http://www.w3.org/Graphics/SVG/1.1/DTD/svg11.dtd">
<svg version="1.1" id="Слой_1" xmlns="http://www.w3.org/2000/svg" xmlns:xlink="http://www.w3.org/1999/xlink" x="0px" y="0px"
	 width="29.309px" height="29.309px" viewBox="0 0 29.309 29.309" enable-background="new 0 0 29.309 29.309" xml:space="preserve">
<g>
	<path d="M11.189,2.272V0H1.136C0.511,0,0,0.511,0,1.136v27.037c0,0.626,0.511,1.136,1.136,1.136h27.037
		c0.625,0,1.136-0.511,1.136-1.136V18.12h-2.272v8.975H2.272V2.272H11.189z"/>
	<path d="M21.013,4.175c-0.455-0.455-1.136-0.455-1.591,0L5.79,17.807c-0.113,0.113-0.227,0.284-0.284,0.511l-1.591,5.679
		c-0.171,0.626,0.171,1.249,0.795,1.42l0.284,0.057l0.284-0.057l5.679-1.591c0.171-0.057,0.341-0.171,0.511-0.284L25.1,9.91
		c0.455-0.455,0.455-1.136,0-1.591L21.013,4.175z M6.586,22.69l0.568-1.931l1.42,1.42L6.586,22.69z M10.676,21.101l-2.499-2.499
		L20.161,6.618l2.499,2.499L10.676,21.101z"/>
</g>
</svg>
