<?xml version="1.0" encoding="utf-8"?>
<!-- Generator: Adobe Illustrator 17.0.0, SVG Export Plug-In . SVG Version: 6.00 Build 0)  -->
<!DOCTYPE svg PUBLIC "-//W3C//DTD SVG 1.1//EN" "http://www.w3.org/Graphics/SVG/1.1/DTD/svg11.dtd">
<svg version="1.1" id="Слой_1" xmlns="http://www.w3.org/2000/svg" xmlns:xlink="http://www.w3.org/1999/xlink" x="0px" y="0px"
	 width="32.466px" height="33.945px" viewBox="0 0 32.466 33.945" enable-background="new 0 0 32.466 33.945" xml:space="preserve">
<path fill="#63B7DF" d="M28.405,13.747c0-0.511-0.414-0.925-0.925-0.925H4.971c-0.511,0-0.925,0.414-0.925,0.925
	c0,0.511,0.414,0.925,0.925,0.925H27.48C27.991,14.672,28.405,14.258,28.405,13.747z"/>
<path fill="#63B7DF" d="M10.848,0H8.185C7.093,0.002,6.208,0.887,6.206,1.979v1.905H2.77C1.238,3.885-0.002,5.129,0,6.661
	c0,0.004,0,0.007,0,0.011v18.123c0,0.245,0.097,0.481,0.27,0.655l7.194,7.205c0.174,0.173,0.409,0.27,0.655,0.27h9.265
	c0.511,0,0.925-0.414,0.925-0.925s-0.414-0.925-0.925-0.925H9.494V26.2c-0.002-1.529-1.241-2.768-2.77-2.77H1.849V6.672
	c-0.01-0.509,0.394-0.929,0.902-0.939c0.006,0,0.012,0,0.019,0h3.436v1.542c0.002,1.092,0.887,1.977,1.979,1.979h2.663
	c1.092-0.002,1.977-0.887,1.979-1.979V5.733h6.802v1.542c0.002,1.092,0.887,1.977,1.979,1.979h2.663
	c1.089,0.004,1.978-0.871,1.99-1.96V5.733h3.436c0.509,0,0.921,0.412,0.921,0.921V18.94c0,0.511,0.414,0.925,0.925,0.925
	c0.511,0,0.925-0.414,0.925-0.925V6.672c0.008-1.532-1.227-2.78-2.759-2.789c-0.007,0-0.015,0-0.022,0h-3.425V1.979
	C26.257,0.884,25.368-0.002,24.273,0c-0.002,0-0.005,0-0.007,0h-2.663c-1.092,0.002-1.977,0.887-1.979,1.979v1.905h-6.798V1.979
	C12.824,0.887,11.94,0.002,10.848,0z M7.645,26.2v4.017l-4.937-4.937h4.017C7.233,25.279,7.645,25.692,7.645,26.2z M21.477,1.979
	c0-0.071,0.058-0.129,0.129-0.129h2.663c0.071,0,0.129,0.058,0.129,0.129v5.315c0,0.071-0.058,0.129-0.129,0.129h-2.663
	c-0.071,0-0.129-0.058-0.129-0.129L21.477,1.979z M10.977,7.293c0,0.071-0.058,0.129-0.129,0.129H8.185
	c-0.071,0-0.129-0.058-0.129-0.129l0,0V1.979c0-0.071,0.058-0.129,0.129-0.129l0,0h2.663c0.071,0,0.129,0.058,0.129,0.129V7.293z"/>
<g>
	<g>
		<path fill="#63B7DF" d="M24.737,20.562h2.466v5.484h5.257v2.339h-5.257v5.559h-2.466v-5.559H19.48v-2.339h5.257V20.562z"/>
	</g>
</g>
</svg>
