<?xml version="1.0" encoding="utf-8"?>
<!-- Generator: Adobe Illustrator 17.0.0, SVG Export Plug-In . SVG Version: 6.00 Build 0)  -->
<!DOCTYPE svg PUBLIC "-//W3C//DTD SVG 1.1//EN" "http://www.w3.org/Graphics/SVG/1.1/DTD/svg11.dtd">
<svg version="1.1" id="Слой_1" xmlns="http://www.w3.org/2000/svg" xmlns:xlink="http://www.w3.org/1999/xlink" x="0px" y="0px"
	 width="79.153px" height="80px" viewBox="0 0 79.153 80" enable-background="new 0 0 79.153 80" xml:space="preserve">
<g>
	<path fill="#FFFFFF" d="M11.563,29.829c-1.188,0-2.151,0.963-2.151,2.151s0.963,2.151,2.151,2.151h52.362
		c1.188,0,2.151-0.963,2.151-2.151s-0.963-2.151-2.151-2.151H11.563z"/>
	<path fill="#FFFFFF" d="M40.437,72.288H22.086v-11.34c-0.005-3.557-2.887-6.439-6.444-6.444H4.302V15.521
		c-0.024-1.183,0.916-2.161,2.099-2.185h0.043h7.993v3.588c0.005,2.54,2.063,4.598,4.603,4.603h6.195
		c2.54-0.005,4.598-2.063,4.603-4.603v-3.588H45.66v3.588c0.005,2.54,2.063,4.598,4.603,4.603h6.195
		c2.534,0.01,4.6-2.026,4.629-4.56v-3.631h7.993c1.183,0,2.142,0.959,2.142,2.142v28.581c0,1.188,0.963,2.151,2.151,2.151
		c1.188,0,2.151-0.963,2.151-2.151V15.521c0.019-3.564-2.854-6.468-6.418-6.487h-0.052h-7.967V4.603
		C61.082,2.056,59.014-0.005,56.467,0H56.45h-6.195c-2.54,0.005-4.598,2.063-4.603,4.603v4.431H29.839V4.603
		C29.833,2.063,27.775,0.005,25.235,0H19.04c-2.54,0.005-4.598,2.063-4.603,4.603v4.431H6.444C2.88,9.039-0.005,11.931,0,15.495
		v0.026v42.158c-0.001,0.571,0.225,1.119,0.628,1.523l16.734,16.76c0.404,0.403,0.952,0.629,1.523,0.628h21.552
		c1.188,0,2.151-0.963,2.151-2.151C42.588,73.251,41.625,72.288,40.437,72.288z M49.961,4.603c0-0.166,0.135-0.301,0.301-0.301
		h6.195c0.166,0,0.301,0.135,0.301,0.301v12.363c0,0.166-0.135,0.301-0.301,0.301h-6.195c-0.166,0-0.301-0.135-0.301-0.301V4.603z
		 M18.739,4.603c0-0.166,0.135-0.301,0.301-0.301h6.195c0.166,0,0.301,0.135,0.301,0.301v12.363c0,0.166-0.135,0.301-0.301,0.301
		H19.04c-0.166,0-0.301-0.135-0.301-0.301V4.603z M17.784,70.292L6.298,58.806h9.344c1.183,0,2.142,0.959,2.142,2.142V70.292z"/>
	<path fill="#FFFFFF" d="M77.88,55.622l-3.846-3.846c-1.699-1.701-4.456-1.703-6.157-0.004l-0.004,0.004l-10.032,10.04l-3.837-3.837
		c-1.699-1.701-4.456-1.703-6.157-0.004l-0.004,0.004l-3.846,3.846c-1.701,1.699-1.703,4.456-0.004,6.157l0.004,0.004L54.76,78.723
		c1.699,1.701,4.456,1.703,6.157,0.004l0.004-0.004l16.958-16.949c0.82-0.812,1.279-1.918,1.274-3.072
		C79.16,57.546,78.701,56.436,77.88,55.622z M59.795,73.776l-1.996,1.919L47.044,64.863l3.915-3.846l5.36,5.36
		c0.839,0.841,2.201,0.843,3.042,0.004l0.004-0.004L70.92,54.822h0.069l3.863,3.915L59.795,73.776z"/>
</g>
</svg>
