<?xml version="1.0" encoding="utf-8"?>
<!-- Generator: Adobe Illustrator 17.0.0, SVG Export Plug-In . SVG Version: 6.00 Build 0)  -->
<!DOCTYPE svg PUBLIC "-//W3C//DTD SVG 1.1//EN" "http://www.w3.org/Graphics/SVG/1.1/DTD/svg11.dtd">
<svg version="1.1" id="Слой_1" xmlns="http://www.w3.org/2000/svg" xmlns:xlink="http://www.w3.org/1999/xlink" x="0px" y="0px"
	 width="20.778px" height="21px" viewBox="0 0 20.778 21" enable-background="new 0 0 20.778 21" xml:space="preserve">
<g>
	<path fill="#1AA1DC" d="M3.035,7.83c-0.312,0-0.565,0.253-0.565,0.565c0,0.312,0.253,0.565,0.565,0.565H16.78
		c0.312,0,0.565-0.253,0.565-0.565S17.092,7.83,16.78,7.83H3.035z"/>
	<path fill="#1AA1DC" d="M10.615,18.976H5.798v-2.977c-0.001-0.934-0.758-1.69-1.692-1.692H1.129V4.074
		C1.123,3.764,1.37,3.507,1.68,3.501h0.011H3.79v0.942C3.791,5.109,4.331,5.65,4.998,5.651h1.626
		C7.291,5.65,7.831,5.109,7.832,4.443V3.501h4.153v0.942c0.001,0.667,0.542,1.207,1.208,1.208h1.626
		c0.665,0.003,1.208-0.532,1.215-1.197V3.501h2.098c0.311,0,0.562,0.252,0.562,0.562v7.503c0,0.312,0.253,0.565,0.565,0.565
		c0.312,0,0.565-0.253,0.565-0.565V4.074c0.005-0.936-0.749-1.698-1.685-1.703h-0.014h-2.091V1.208
		C16.034,0.54,15.491-0.001,14.823,0h-0.004h-1.626c-0.667,0.001-1.207,0.542-1.208,1.208v1.163H7.833V1.208
		C7.831,0.542,7.291,0.001,6.624,0H4.998C4.331,0.001,3.791,0.542,3.79,1.208v1.163H1.692C0.756,2.373-0.001,3.132,0,4.067v0.007
		v11.066c0,0.15,0.059,0.294,0.165,0.4l4.393,4.399c0.106,0.106,0.25,0.165,0.4,0.165h5.657c0.312,0,0.565-0.253,0.565-0.565
		C11.179,19.228,10.927,18.976,10.615,18.976z M13.115,1.208c0-0.044,0.035-0.079,0.079-0.079h1.626
		c0.044,0,0.079,0.035,0.079,0.079v3.245c0,0.044-0.035,0.079-0.079,0.079h-1.626c-0.044,0-0.079-0.035-0.079-0.079V1.208z
		 M4.919,1.208c0-0.044,0.035-0.079,0.079-0.079h1.626c0.044,0,0.079,0.035,0.079,0.079v3.245c0,0.044-0.035,0.079-0.079,0.079
		H4.998c-0.044,0-0.079-0.035-0.079-0.079V1.208z M4.668,18.452l-3.015-3.015h2.453c0.311,0,0.562,0.252,0.562,0.562V18.452z"/>
	<path fill="#1AA1DC" d="M20.443,14.601l-1.01-1.01c-0.446-0.447-1.17-0.447-1.616-0.001l-0.001,0.001l-2.633,2.635l-1.007-1.007
		c-0.446-0.447-1.17-0.447-1.616-0.001l-0.001,0.001l-1.01,1.01c-0.447,0.446-0.447,1.17-0.001,1.616l0.001,0.001l2.825,2.818
		c0.446,0.447,1.17,0.447,1.616,0.001l0.001-0.001l4.451-4.449c0.215-0.213,0.336-0.503,0.334-0.806
		C20.78,15.106,20.659,14.814,20.443,14.601z M15.696,19.366l-0.524,0.504l-2.823-2.843l1.028-1.01l1.407,1.407
		c0.22,0.221,0.578,0.221,0.799,0.001l0.001-0.001l3.033-3.033h0.018l1.014,1.028L15.696,19.366z"/>
</g>
</svg>
