<?xml version="1.0" encoding="utf-8"?>
<!-- Generator: Adobe Illustrator 17.0.0, SVG Export Plug-In . SVG Version: 6.00 Build 0)  -->
<!DOCTYPE svg PUBLIC "-//W3C//DTD SVG 1.1//EN" "http://www.w3.org/Graphics/SVG/1.1/DTD/svg11.dtd">
<svg version="1.1" id="Слой_1" xmlns="http://www.w3.org/2000/svg" xmlns:xlink="http://www.w3.org/1999/xlink" x="0px" y="0px"
	 width="24.833px" height="32.021px" viewBox="0 0 24.833 32.021" enable-background="new 0 0 24.833 32.021" xml:space="preserve">
<g>
	<path fill="#63B7DF" d="M6.026,0C4.463,0,3.287,1.345,3.287,2.846H1.096H0.982C0.422,2.903-0.003,3.365,0,3.914v27.04
		c0,0.589,0.49,1.068,1.096,1.068h22.641c0.604,0,1.096-0.478,1.096-1.068V9.606c0.001-0.284-0.114-0.556-0.32-0.756L18.67,3.158
		c-0.206-0.2-0.486-0.312-0.776-0.312h-9.13C8.764,1.345,7.589,0,6.026,0z M6.026,2.134c0.257,0,0.547,0.242,0.547,0.711v7.472
		c-0.009,0.564,0.517,1.09,1.096,1.09c0.579,0,1.103-0.526,1.096-1.09V4.981h1.096v5.336c0,1.201-0.959,2.134-2.191,2.134
		S5.48,11.518,5.48,10.318V2.846C5.477,2.377,5.769,2.134,6.026,2.134z M2.191,4.981h1.096v5.336c0,2.347,1.973,4.27,4.383,4.27
		c2.409,0,4.383-1.923,4.383-4.27V4.981h4.017v5.336c0,0.558,0.522,1.068,1.096,1.068h5.477v18.501H2.191V4.981z M18.26,5.771
		l3.573,3.481H18.26V5.771z M6.284,18.795c-0.417,0.021-0.777,0.411-0.756,0.817s0.422,0.757,0.839,0.736H18.61
		c0.422,0.006,0.806-0.366,0.806-0.777c0-0.411-0.384-0.781-0.806-0.777H6.368H6.284z M6.284,23.425
		c-0.417,0.021-0.777,0.411-0.756,0.817S5.949,25,6.366,24.979H18.61c0.422,0.006,0.806-0.366,0.806-0.777
		c0-0.411-0.384-0.781-0.806-0.777H6.368H6.284z"/>
</g>
</svg>
