<?xml version="1.0" encoding="utf-8"?>
<!-- Generator: Adobe Illustrator 17.0.0, SVG Export Plug-In . SVG Version: 6.00 Build 0)  -->
<!DOCTYPE svg PUBLIC "-//W3C//DTD SVG 1.1//EN" "http://www.w3.org/Graphics/SVG/1.1/DTD/svg11.dtd">
<svg version="1.1" id="Слой_1" xmlns="http://www.w3.org/2000/svg" xmlns:xlink="http://www.w3.org/1999/xlink" x="0px" y="0px"
	 width="38px" height="42.918px" viewBox="-0.555 -0.627 38 42.918" enable-background="new -0.555 -0.627 38 42.918"
	 xml:space="preserve">
<g>
	<path fill="#FFFFFF" d="M6.537,20.967h8.968c0.487,0,0.882-0.395,0.882-0.882c0-0.487-0.395-0.882-0.882-0.882H6.537
		c-0.487,0-0.882,0.395-0.882,0.882C5.655,20.572,6.05,20.967,6.537,20.967z"/>
	<path fill="#FFFFFF" d="M6.537,20.967v0.515h8.968c0.772,0,1.397-0.625,1.397-1.397c0-0.772-0.625-1.397-1.397-1.397H6.537
		c-0.772,0-1.397,0.625-1.397,1.397c0,0.772,0.625,1.397,1.397,1.397V20.967v-0.515c-0.202,0-0.367-0.165-0.367-0.367
		c0-0.202,0.165-0.367,0.367-0.367h8.968c0.202,0,0.367,0.165,0.367,0.367c0,0.202-0.165,0.367-0.367,0.367H6.537V20.967z"/>
	<path fill="#FFFFFF" d="M20.355,24.935H6.537c-0.487,0-0.882,0.395-0.882,0.882s0.395,0.882,0.882,0.882h13.819
		c0.487,0,0.882-0.395,0.882-0.882S20.843,24.935,20.355,24.935z"/>
	<path fill="#FFFFFF" d="M20.355,24.935V24.42H6.537c-0.772,0-1.397,0.625-1.397,1.397c0,0.772,0.625,1.397,1.397,1.397h13.819
		c0.772,0,1.397-0.625,1.397-1.397c0-0.772-0.625-1.397-1.397-1.397V24.935v0.515c0.202,0,0.367,0.165,0.367,0.367
		c0,0.202-0.165,0.367-0.367,0.367H6.537c-0.202,0-0.367-0.165-0.367-0.367c0-0.202,0.165-0.367,0.367-0.367h13.819V24.935z"/>
	<path fill="#FFFFFF" d="M20.355,30.667H6.537c-0.487,0-0.882,0.395-0.882,0.882c0,0.487,0.395,0.882,0.882,0.882h13.819
		c0.487,0,0.882-0.395,0.882-0.882C21.237,31.062,20.843,30.667,20.355,30.667z"/>
	<path fill="#FFFFFF" d="M20.355,30.667v-0.515H6.537c-0.772,0-1.397,0.625-1.397,1.397c0,0.772,0.625,1.397,1.397,1.397h13.819
		c0.772,0,1.397-0.625,1.397-1.397c0-0.772-0.625-1.397-1.397-1.397V30.667v0.515c0.202,0,0.367,0.165,0.367,0.367
		c0,0.202-0.165,0.367-0.367,0.367H6.537c-0.202,0-0.367-0.165-0.367-0.367c0-0.202,0.165-0.367,0.367-0.367h13.819V30.667z"/>
	<path fill="#FFFFFF" d="M36.93,8.825V8.64V8.614l-0.075-0.195l-0.027-0.048l-0.141-0.18l-8.624-8.074
		c-0.165-0.149-0.381-0.232-0.605-0.23h-13.83c-2.435,0-4.409,1.974-4.409,4.409V6.5H4.369c-2.435,0.001-4.409,1.976-4.409,4.411
		v26.456c0,2.435,1.974,4.409,4.409,4.409h18.894c2.435,0,4.409-1.974,4.409-4.409v-2.204h4.85c2.435,0,4.409-1.974,4.409-4.409
		V8.825z M28.343,2.812l5.476,5.132h-4.594c-0.487,0-0.882-0.395-0.882-0.882V2.812z M25.908,37.375
		c0,1.461-1.185,2.645-2.645,2.645H4.369c-1.461,0-2.645-1.185-2.645-2.645V10.92c0-1.461,1.185-2.645,2.645-2.645h12.95v5.402
		c0,1.461,1.185,2.645,2.645,2.645h5.944V37.375z M19.083,13.676v-4.25l5.476,5.132h-4.594
		C19.478,14.558,19.083,14.163,19.083,13.676z M32.522,33.407h-4.85v-6.098h2.311c0.487,0,0.882-0.395,0.882-0.882
		c0-0.487-0.395-0.882-0.882-0.882h-2.311v-3.968h2.311c0.487,0,0.882-0.395,0.882-0.882s-0.395-0.882-0.882-0.882h-2.311v-4.374
		c0.002-0.243-0.098-0.476-0.273-0.644l-8.594-8.065C18.64,6.583,18.424,6.5,18.2,6.502h-7.218V4.297
		c0-1.461,1.185-2.645,2.645-2.645h12.95v5.41c0,1.461,1.185,2.645,2.645,2.645h5.944v21.054
		C35.167,32.223,33.983,33.407,32.522,33.407z"/>
	<path fill="#FFFFFF" d="M36.93,8.825h0.515V8.64V8.614V8.518l-0.109-0.283l-0.012-0.034L37.28,8.122l-0.02-0.035l-0.167-0.213
		l-0.025-0.031l-8.656-8.104L28.41-0.263c-0.256-0.234-0.591-0.364-0.939-0.364h-0.018l0.007,0.515v-0.515H13.629
		c-2.719,0-4.924,2.204-4.924,4.924v1.689H4.37h0.003H4.369c-2.72,0.001-4.924,2.205-4.924,4.925v26.456
		c0,2.719,2.204,4.924,4.924,4.924h18.894c2.719,0,4.924-2.204,4.924-4.924v-1.689h4.335c2.719,0,4.924-2.204,4.924-4.924V8.31
		H36.93V8.825h0.515H36.93V9.34h0.001L36.93,8.825h-0.514v21.928c0,1.077-0.435,2.047-1.14,2.753
		c-0.707,0.706-1.677,1.14-2.753,1.14h-5.365v2.719c0,1.077-0.435,2.047-1.14,2.753c-0.707,0.706-1.677,1.14-2.753,1.14H4.369
		c-1.077,0-2.047-0.435-2.753-1.14c-0.706-0.706-1.14-1.676-1.14-2.752V10.911c0-1.076,0.435-2.047,1.14-2.753
		c0.707-0.706,1.676-1.14,2.753-1.14V6.664L4.366,7.017h0.002V6.664L4.366,7.017h0.001h5.367v-2.72c0-1.077,0.435-2.047,1.14-2.753
		c0.707-0.706,1.677-1.14,2.754-1.14h13.835h0.003h0.003l0.247,0.096l0.346-0.381l-0.352,0.376l8.595,8.046l0.092,0.117l0.007,0.012
		l0.45-0.249l-0.481,0.185l0.075,0.195l0.481-0.185h-0.515v0.026v0.185v0.515h0.515V8.825z M28.343,2.812L27.99,3.188l4.526,4.242
		h-3.291c-0.202,0-0.367-0.165-0.367-0.367l-0.001-4.25L28.343,2.812L27.99,3.188L28.343,2.812h-0.515l0.001,4.25
		c0,0.772,0.625,1.397,1.397,1.397h5.897l-7.294-6.836v1.189H28.343z M25.908,37.375h-0.515c-0.002,1.176-0.954,2.128-2.13,2.13
		H4.369c-1.176-0.002-2.128-0.954-2.13-2.13V10.92c0.002-1.176,0.954-2.128,2.13-2.13h12.435v4.887c0,1.745,1.414,3.16,3.16,3.16
		h5.429v20.539L25.908,37.375l0.515,0.001v-21.57h-6.459c-1.176-0.002-2.128-0.955-2.13-2.13V7.759H4.369
		c-1.746,0-3.16,1.415-3.16,3.16v26.456c0,1.746,1.415,3.16,3.16,3.16h18.894c1.746,0,3.16-1.415,3.16-3.16H25.908z M19.083,13.676
		h0.515v-3.061l3.659,3.429h-3.292h0.001c-0.204,0-0.368-0.164-0.368-0.367h-0.515h-0.515c0,0.772,0.625,1.397,1.396,1.397h5.898
		l-7.294-6.836v5.439h0.515V13.676z M32.522,33.407v-0.515h-4.335v-5.068h1.795c0.772,0,1.397-0.625,1.397-1.397
		c0-0.772-0.625-1.397-1.397-1.397h-1.795v-2.938h1.795c0.772,0,1.397-0.625,1.397-1.397c0-0.772-0.625-1.397-1.397-1.397h-1.795
		v-3.859v0.002v-0.008c0-0.382-0.157-0.748-0.433-1.011l-0.001-0.001l-8.598-8.069L19.151,6.35c-0.258-0.234-0.592-0.363-0.94-0.364
		h-0.018L18.2,6.501V5.986h-6.703V4.297c0.002-1.176,0.954-2.128,2.13-2.13h12.435v4.895c0,1.745,1.414,3.16,3.16,3.16h5.429v20.539
		c0,1.176-0.955,2.131-2.13,2.13V33.407v0.515c1.746,0,3.16-1.414,3.16-3.16V9.192h-6.459c-1.176-0.002-2.128-0.955-2.13-2.13V1.137
		H13.629c-1.746,0-3.16,1.415-3.16,3.16v2.719h7.736h0.003h0.003l0.247,0.096l0.346-0.381l-0.352,0.376l8.594,8.065l-0.003-0.003
		c0.073,0.069,0.113,0.164,0.113,0.265v0.003v4.891h2.826c0.202,0,0.367,0.165,0.367,0.367c0,0.202-0.165,0.367-0.367,0.367h-2.826
		v4.998h2.826c0.202,0,0.367,0.165,0.367,0.367c0,0.202-0.165,0.367-0.367,0.367h-2.826v7.128h5.365L32.522,33.407z"/>
</g>
</svg>
