<?xml version="1.0" encoding="utf-8"?>
<!-- Generator: Adobe Illustrator 17.0.0, SVG Export Plug-In . SVG Version: 6.00 Build 0)  -->
<!DOCTYPE svg PUBLIC "-//W3C//DTD SVG 1.1//EN" "http://www.w3.org/Graphics/SVG/1.1/DTD/svg11.dtd">
<svg version="1.1" id="Слой_1" xmlns="http://www.w3.org/2000/svg" xmlns:xlink="http://www.w3.org/1999/xlink" x="0px" y="0px"
	 width="38px" height="38.396px" viewBox="-3.499 -17.214 38 38.396" enable-background="new -3.499 -17.214 38 38.396"
	 xml:space="preserve">
<g>
	<path fill="#FFFFFF" d="M27.893-1.767c0-0.556-0.45-1.006-1.006-1.006H2.401c-0.556,0-1.006,0.45-1.006,1.006
		s0.45,1.006,1.006,1.006h24.487C27.443-0.761,27.893-1.211,27.893-1.767z"/>
	<path fill="#FFFFFF" d="M27.893-1.767h0.492c0-0.828-0.671-1.498-1.498-1.498H2.401c-0.828,0-1.498,0.671-1.498,1.498
		c0,0.828,0.671,1.498,1.498,1.498h24.487c0.828,0,1.498-0.671,1.498-1.498H27.893h-0.492c-0.001,0.283-0.23,0.513-0.514,0.514
		H2.401c-0.283-0.001-0.513-0.23-0.514-0.514C1.888-2.05,2.118-2.28,2.401-2.28h24.487c0.283,0.001,0.513,0.23,0.514,0.514H27.893z"
		/>
	<path fill="#FFFFFF" d="M8.794-16.722H5.897c-1.188,0.002-2.15,0.965-2.153,2.153v2.072H0.007
		c-1.667,0.002-3.016,1.355-3.014,3.022l0,0.012v19.715c0,0.267,0.105,0.523,0.294,0.712l7.826,7.838
		c0.189,0.189,0.445,0.294,0.712,0.294h10.079c0.556,0,1.006-0.45,1.006-1.006c0-0.556-0.45-1.006-1.006-1.006H7.322V11.78
		c-0.002-1.663-1.35-3.011-3.014-3.014h-5.303v-18.23c-0.011-0.553,0.428-1.011,0.982-1.022l0.02,0h3.738v1.678
		C3.747-7.62,4.71-6.657,5.897-6.655h2.897c1.188-0.002,2.15-0.965,2.153-2.153v-1.678h7.399v1.678
		c0.002,1.188,0.965,2.15,2.153,2.153h2.897c1.185,0.004,2.151-0.948,2.165-2.132v-1.698h3.738c0.553,0,1.002,0.449,1.002,1.002
		V3.882c0,0.556,0.45,1.006,1.006,1.006c0.556,0,1.006-0.45,1.006-1.006V-9.464c0.009-1.667-1.335-3.025-3.001-3.034l-0.024,0H25.56
		v-2.072c-0.002-1.191-0.97-2.155-2.161-2.153l-0.008,0h-2.897c-1.188,0.002-2.15,0.965-2.153,2.153v2.072h-7.395v-2.072
		C10.945-15.757,9.982-16.72,8.794-16.722z M5.31,11.78v4.369l-5.371-5.371h4.369C4.861,10.778,5.31,11.227,5.31,11.78z
		 M20.358-14.569l0.141-0.141h2.897l0.141,0.141v5.782l-0.141,0.141h-2.897l-0.141-0.141V-14.569z M8.935-8.788L8.794-8.647H5.897
		L5.757-8.788v-5.782l0.141-0.141h2.897l0.141,0.141V-8.788z"/>
	<path fill="#FFFFFF" d="M8.794-16.722v-0.492H5.889h0.007c-1.459,0.003-2.641,1.185-2.644,2.644v1.581H0.007H0.007
		c-1.937,0.003-3.505,1.573-3.505,3.51l0,0.015l0.492-0.011l-0.492,0.002l0,0.012v19.713h0.492l-0.492-0.012l0,0.014
		c0,0.397,0.157,0.777,0.437,1.058l7.828,7.84l-0.002-0.002c0.281,0.28,0.661,0.437,1.058,0.437h0.001v-0.482l-0.046,0.48
		l0.046,0.002v-0.482l-0.046,0.48l0.023,0.002h10.102c0.828,0,1.498-0.671,1.498-1.498c0-0.828-0.671-1.498-1.498-1.498h-8.09
		l0-4.811c-0.003-1.936-1.57-3.503-3.505-3.506h-4.811l0-17.744l0-0.005l0-0.01c0-0.276,0.222-0.504,0.499-0.509l-0.01-0.492
		l0.005,0.492l0.02,0l-0.005,0h3.245l0,1.186v0.001c0.003,1.459,1.185,2.641,2.644,2.644h2.898h0.001
		c1.459-0.003,2.641-1.185,2.644-2.644v-1.186h6.415l0,1.186v0.001c0.003,1.459,1.185,2.641,2.644,2.644h2.898h0.008
		c1.451,0,2.632-1.167,2.649-2.619l0-0.003v-1.208h3.246c0.281,0.001,0.509,0.228,0.51,0.51V3.882c0,0.828,0.671,1.498,1.498,1.498
		c0.828,0,1.498-0.671,1.498-1.498V-9.464v0.001l0-0.018c0-1.93-1.559-3.499-3.491-3.509l-0.026,0h-3.234v-1.58v-0.001
		c-0.003-1.461-1.188-2.644-2.649-2.644l-0.015,0l0.011,0.492l-0.002-0.492l-0.008,0h-2.895h-0.001
		c-1.459,0.003-2.641,1.185-2.644,2.644v1.581h-6.411v-1.58v-0.001c-0.003-1.459-1.185-2.641-2.644-2.644H8.794V-16.722L8.793-16.23
		c0.917,0.001,1.66,0.745,1.661,1.661v2.563h8.38v-2.564v0.001c0.001-0.917,0.745-1.66,1.661-1.661h2.9l0.006,0l0.006,0l0.004,0
		l-0.009-0.404l0,0.404l0.009,0l-0.009-0.404l0,0.404h0.002c0.917,0,1.663,0.743,1.664,1.661v2.563h4.218l0.024,0h-0.002
		c1.39,0.007,2.512,1.137,2.512,2.525l0,0.015V3.882c-0.001,0.283-0.23,0.513-0.514,0.514c-0.283-0.001-0.513-0.23-0.514-0.514
		V-9.484c0-0.825-0.669-1.494-1.494-1.494h-4.23v2.19h0.492l-0.492-0.006c-0.01,0.912-0.753,1.646-1.664,1.646h-0.008h-2.897h0.001
		c-0.917-0.001-1.66-0.745-1.661-1.661v-2.169h-8.384v2.17v-0.001c-0.001,0.917-0.745,1.66-1.661,1.661h0.001H5.897h0.001
		c-0.917-0.001-1.66-0.745-1.661-1.661v-2.169H0.004l-0.022,0l-0.003,0l-0.002,0c-0.815,0.017-1.464,0.681-1.464,1.493l0,0.031
		l0.492-0.011h-0.492V9.259h5.795H4.308c1.392,0.002,2.52,1.13,2.522,2.522v5.794h9.074c0.283,0.001,0.513,0.23,0.514,0.514
		c-0.001,0.283-0.23,0.513-0.514,0.514H5.825v0.492l0.047-0.49l-0.048-0.002l-0.001,0c-0.136,0-0.266-0.054-0.363-0.15l-7.825-7.837
		c-0.096-0.096-0.15-0.227-0.15-0.363h-0.421l0.421,0.011l0-0.011h-0.421l0.421,0.011l0-0.006V-9.464l0-0.014l0-0.004l0-0.005
		l-0.398,0.009h0.398l0-0.009l-0.398,0.009h0.398V-9.48c0-1.393,1.129-2.524,2.522-2.525h4.229v-2.564v0.001
		c0.001-0.917,0.745-1.66,1.661-1.661h2.896H8.793L8.794-16.722z M5.31,11.78H4.818v3.181l-3.691-3.691h3.181
		c0.281,0.001,0.509,0.228,0.51,0.51H5.31h0.492c0-0.825-0.669-1.494-1.494-1.494H-1.25l7.052,7.052V11.78H5.31z M20.358-14.569
		l0.348,0.348l0.141-0.141l-0.348-0.348v0.492h2.897v-0.492l-0.348,0.348l0.141,0.141l0.348-0.348h-0.492v5.782h0.492l-0.348-0.348
		l-0.141,0.141l0.348,0.348v-0.492h-2.897v0.492l0.348-0.348l-0.141-0.141l-0.348,0.348h0.492v-5.782H20.358l0.348,0.348
		L20.358-14.569h-0.492v5.986l0.285,0.285l0.144,0.144h3.305l0.285-0.285l0.144-0.144v-6.189l-0.285-0.285l-0.144-0.144h-3.305
		l-0.285,0.285l-0.144,0.144v0.204H20.358z M8.935-8.788L8.587-9.136L8.446-8.995l0.348,0.348v-0.492H5.897v0.492l0.348-0.348
		L6.105-9.136L5.757-8.788h0.492v-5.782H5.757l0.348,0.348l0.141-0.141L5.897-14.71v0.492h2.897v-0.492l-0.348,0.348l0.141,0.141
		l0.348-0.348H8.443v5.782H8.935L8.587-9.136L8.935-8.788h0.492v-5.986l-0.285-0.285l-0.144-0.144H5.694l-0.285,0.285l-0.144,0.144
		v6.189l0.285,0.285l0.144,0.144h3.305L9.283-8.44l0.144-0.144v-0.204H8.935z"/>
	<path fill="#FFFFFF" d="M34.009,10.73c0.003-0.541-0.211-1.06-0.595-1.44l-1.798-1.798c-0.795-0.795-2.084-0.796-2.879-0.002
		l-0.002,0.002l-4.691,4.695l-1.794-1.794c-0.795-0.796-2.084-0.796-2.879-0.002l-0.002,0.002l-1.798,1.798
		c-0.795,0.795-0.796,2.084-0.002,2.879l0.002,0.002l5.033,5.021c0.795,0.796,2.084,0.796,2.879,0.002l0.002-0.002l7.93-7.926
		C33.797,11.787,34.011,11.269,34.009,10.73z M24.956,17.779l-0.933,0.897l-5.029-5.065l1.831-1.798l2.507,2.507
		c0.392,0.393,1.029,0.394,1.422,0.002l0.002-0.002l5.403-5.403h0.032l1.807,1.831L24.956,17.779z"/>
	<path fill="#FFFFFF" d="M34.009,10.73l0.492,0.002l0-0.014c0-0.668-0.267-1.308-0.741-1.778l-1.797-1.797
		c-0.492-0.493-1.142-0.742-1.788-0.741c-0.645-0.001-1.295,0.247-1.787,0.739l-0.002,0.002l-4.343,4.347l-1.446-1.446
		c-0.492-0.493-1.142-0.742-1.788-0.741c-0.645-0.001-1.294,0.247-1.787,0.739l-0.004,0.004l0.001-0.001l0.002-0.002l-1.798,1.798
		c-0.493,0.492-0.742,1.142-0.741,1.788c-0.001,0.645,0.247,1.294,0.739,1.787l0.002,0.002l0.002,0.002l-0.001-0.001l5.033,5.021
		c0.492,0.493,1.142,0.741,1.788,0.741c0.645,0.001,1.294-0.247,1.787-0.739l0.002-0.002l0.002-0.002l-0.002,0.002l7.93-7.926
		l-0.001,0.001c0.474-0.47,0.741-1.111,0.741-1.778v-0.005v-0.001L34.009,10.73l-0.492-0.003v0.011c0,0.405-0.162,0.794-0.45,1.079
		l-7.932,7.928l-0.003,0.003l0.002-0.002c-0.303,0.302-0.695,0.451-1.091,0.452c-0.397-0.001-0.789-0.15-1.092-0.453l-5.034-5.022
		l-0.001-0.001l-0.002-0.002l0.002,0.002c-0.302-0.303-0.451-0.695-0.452-1.091c0.001-0.397,0.15-0.789,0.453-1.092l1.799-1.799
		l0.003-0.003l-0.002,0.002c0.303-0.302,0.694-0.451,1.091-0.451c0.397,0.001,0.789,0.15,1.092,0.453l2.143,2.143l5.039-5.044
		l0.001-0.001c0.302-0.302,0.694-0.451,1.091-0.451c0.397,0.001,0.789,0.15,1.092,0.453l1.799,1.799l0.002,0.002
		c0.288,0.285,0.45,0.674,0.45,1.079l0,0.01v-0.001L34.009,10.73z M24.956,17.779l-0.341-0.355l-0.584,0.562l-4.339-4.371l1.13-1.11
		l2.162,2.162c0.291,0.292,0.678,0.44,1.06,0.44c0.381,0.001,0.767-0.147,1.058-0.437l0.002-0.002l5.403-5.403l-0.348-0.348v0.492
		h0.032V8.915l-0.35,0.346l1.463,1.482l-6.695,6.687L24.956,17.779l-0.341-0.355L24.956,17.779l0.348,0.348l7.387-7.379
		l-2.295-2.325h-0.238h-0.204l-5.548,5.548l-0.002,0.002c-0.101,0.1-0.229,0.149-0.362,0.15c-0.133-0.001-0.262-0.049-0.363-0.151
		l-2.852-2.852l-2.532,2.487l5.719,5.76l1.286-1.236l0.003-0.003L24.956,17.779z"/>
</g>
</svg>
