<?xml version="1.0" encoding="utf-8"?>
<!-- Generator: Adobe Illustrator 17.0.0, SVG Export Plug-In . SVG Version: 6.00 Build 0)  -->
<!DOCTYPE svg PUBLIC "-//W3C//DTD SVG 1.1//EN" "http://www.w3.org/Graphics/SVG/1.1/DTD/svg11.dtd">
<svg version="1.1" id="Слой_1" xmlns="http://www.w3.org/2000/svg" xmlns:xlink="http://www.w3.org/1999/xlink" x="0px" y="0px"
	 width="38px" height="37.559px" viewBox="0 0 38 37.559" enable-background="new 0 0 38 37.559" xml:space="preserve">
<g>
	<path fill="#FFFFFF" d="M15.854,29.568l6.782,7.028c0.197,0.246,0.492,0.393,0.786,0.393c0.344,0,0.639-0.147,0.836-0.442
		l0.049-0.147l1.966-6.831h4.767c3.539,0,6.389-2.85,6.389-6.389V6.961c0.001-3.54-2.85-6.39-6.389-6.39H6.96
		c-3.539,0-6.389,2.85-6.389,6.389v16.219c0,3.539,2.85,6.389,6.389,6.389H15.854z M1.554,23.179V6.961
		c0-2.997,2.408-5.407,5.407-5.407h24.082c2.997,0,5.407,2.408,5.407,5.407V23.18c0,2.997-2.408,5.407-5.407,5.407h-5.161
		c-0.197,0-0.393,0.147-0.492,0.344l-1.966,7.078l-0.049-0.049l-6.979-7.226c-0.098-0.098-0.197-0.147-0.344-0.147H6.96
		C3.963,28.585,1.554,26.177,1.554,23.179z"/>
	<path fill="#FFFFFF" d="M15.854,29.568l-0.41,0.396l6.782,7.028l0.41-0.396l-0.445,0.356c0.301,0.374,0.746,0.606,1.232,0.607
		c0.253,0.001,0.508-0.056,0.736-0.175c0.229-0.119,0.427-0.3,0.573-0.52l-0.474-0.316l0.403,0.403
		c0.094-0.09,0.168-0.227,0.193-0.339c0.027-0.112,0.022-0.187,0.023-0.211h-0.57l0.548,0.158l1.847-6.419h4.338
		c1.924,0.001,3.668-0.776,4.924-2.035c1.258-1.257,2.035-3,2.035-4.924V6.961V6.96c0-1.924-0.777-3.668-2.035-4.924
		C34.708,0.778,32.964,0,31.041,0.001H6.96C5.036,0,3.292,0.777,2.036,2.035c-1.258,1.257-2.035,3-2.035,4.924v16.219
		C0,25.102,0.777,26.846,2.036,28.102c1.257,1.258,3,2.035,4.924,2.035l8.895,0.001V29.568l-0.41,0.396L15.854,29.568v-0.57
		l-8.895-0.001c-3.224-0.001-5.818-2.594-5.819-5.819V6.961c0.001-3.225,2.594-5.818,5.819-5.819h24.082
		c3.224,0.001,5.817,2.593,5.818,5.819v0.001V23.18c-0.001,3.224-2.594,5.818-5.819,5.819h-5.196l-2.107,7.321v0.081v0.009
		l0.346,0.006l-0.327-0.103l-0.018,0.097l0.346,0.006l-0.327-0.103l0.39,0.123l-0.29-0.29l-0.1,0.167l0.39,0.123l-0.29-0.29
		l-0.04,0.04l-0.031,0.047l-0.153,0.143c-0.054,0.028-0.119,0.045-0.21,0.046c-0.104,0.003-0.249-0.061-0.341-0.179l-0.017-0.021
		L16.097,29h-0.242V29.568z M1.554,23.179h0.57V6.961c0.001-2.686,2.15-4.835,4.835-4.836h24.082
		c2.685,0.002,4.834,2.151,4.836,4.836V23.18c-0.002,2.685-2.151,4.834-4.836,4.836h-5.16c-0.243,0.001-0.45,0.087-0.614,0.204
		c-0.165,0.119-0.295,0.272-0.388,0.455l-0.024,0.049l-1.981,7.13l0.549,0.153l0.403-0.403l-0.045-0.045l-6.979-7.224l-0.003-0.005
		c-0.082-0.083-0.19-0.169-0.325-0.228c-0.134-0.061-0.286-0.087-0.422-0.086H6.96c-2.685-0.002-4.834-2.151-4.836-4.836
		L1.554,23.179l-0.57,0.001c-0.001,1.653,0.666,3.151,1.745,4.231c1.079,1.079,2.577,1.746,4.23,1.745h9.092h0.002l0.013-0.141
		l-0.064,0.125l0.051,0.017l0.013-0.141l-0.064,0.125l0.053-0.102l-0.07,0.092l0.018,0.011l0.053-0.102l-0.07,0.092l0.001,0.001
		l0.007,0.007l0.403-0.403l-0.41,0.396l6.982,7.228l0.053,0.053l0.691,0.691l2.228-8.018l-0.549-0.153l0.51,0.254l0.03-0.036
		l0.002-0.002l-0.051-0.096v0.105l0.051-0.009l-0.051-0.096v0.105h5.161c1.653,0.001,3.151-0.666,4.231-1.745
		c1.079-1.079,1.746-2.577,1.745-4.231V6.96c0.001-1.653-0.666-3.151-1.745-4.231c-1.079-1.079-2.577-1.746-4.231-1.745H6.961
		c-1.653,0-3.151,0.667-4.231,1.746S0.984,5.307,0.985,6.961V23.18L1.554,23.179z"/>
	<path fill="#FFFFFF" d="M7.206,9.712h23.099c0.295,0,0.492-0.197,0.492-0.492S30.6,8.728,30.305,8.728H7.206
		c-0.295,0-0.492,0.197-0.492,0.492C6.714,9.516,6.911,9.712,7.206,9.712z"/>
	<path fill="#FFFFFF" d="M7.206,9.712v0.57h23.099c0.273,0.003,0.557-0.097,0.76-0.302c0.204-0.202,0.304-0.487,0.302-0.76
		c0.003-0.273-0.097-0.557-0.302-0.76c-0.202-0.204-0.487-0.304-0.76-0.302H7.206c-0.272,0-0.558,0.1-0.759,0.304
		C6.243,8.664,6.143,8.95,6.145,9.222c-0.003,0.273,0.097,0.557,0.302,0.76c0.202,0.204,0.487,0.304,0.76,0.302L7.206,9.712
		l0.001-0.569L7.2,9.142L7.181,9.253l0.083-0.067L7.201,9.142l-0.019,0.11l0.083-0.067L7.177,9.256l0.109-0.035L7.263,9.186
		L7.174,9.257l0.109-0.035L7.246,9.234l0.039-0.006L7.284,9.222L7.247,9.234l0.039-0.006L7.285,9.221l0.001-0.006L7.175,9.196
		l0.067,0.083l0.044-0.063l-0.11-0.019L7.243,9.28L7.17,9.19l0.035,0.109l0.035-0.02L7.17,9.191L7.205,9.3L7.193,9.261L7.199,9.3
		l0.006-0.002L7.193,9.261L7.2,9.3l0.006-0.001h23.099L30.312,9.3l0.019-0.11l-0.083,0.067l0.063,0.044l0.019-0.11l-0.083,0.067
		l0.089-0.071l-0.108,0.035l0.02,0.035l0.089-0.071l-0.109,0.035l0.037-0.012l-0.039,0.007l0.002,0.006l0.037-0.012l-0.039,0.007
		l0.001,0.006L30.222,9.23l0.11,0.019l-0.067-0.083l-0.043,0.063l0.11,0.019l-0.066-0.083l0.071,0.089l-0.036-0.109l-0.035,0.019
		l0.071,0.089l-0.036-0.109l0.012,0.037l-0.006-0.039L30.3,9.144l0.012,0.037l-0.006-0.039l-0.007,0.001H7.206V9.712z"/>
	<path fill="#FFFFFF" d="M7.206,15.61h23.099c0.295,0,0.492-0.197,0.492-0.492s-0.197-0.492-0.492-0.492H7.206
		c-0.295,0-0.492,0.197-0.492,0.492C6.714,15.414,6.911,15.61,7.206,15.61z"/>
	<path fill="#FFFFFF" d="M7.206,15.61v0.57h23.099c0.273,0.003,0.557-0.097,0.76-0.302c0.204-0.202,0.304-0.487,0.302-0.76
		c0.003-0.273-0.097-0.557-0.302-0.76c-0.202-0.204-0.487-0.304-0.76-0.302H7.206c-0.273-0.003-0.557,0.097-0.76,0.302
		c-0.204,0.202-0.304,0.487-0.302,0.76c-0.003,0.273,0.097,0.557,0.302,0.76c0.202,0.204,0.487,0.304,0.76,0.302V15.61v-0.57
		L7.2,15.039l-0.019,0.11l0.083-0.067l-0.063-0.044l-0.019,0.11l0.083-0.067l-0.092,0.073l0.109-0.035l-0.02-0.035l-0.089,0.071
		l0.109-0.035l-0.037,0.012l0.039-0.006l-0.002-0.007l-0.037,0.012l0.039-0.006l-0.001-0.006l0.001-0.007l-0.11-0.019l0.067,0.083
		l0.044-0.063l-0.11-0.019l0.067,0.083l-0.071-0.089l0.035,0.109l0.035-0.02L7.17,15.088l0.035,0.109L7.193,15.16L7.2,15.199
		l0.006-0.002L7.194,15.16L7.2,15.198l0.007-0.001h23.096l0.006,0.001l0.019-0.11l-0.083,0.067l0.063,0.044l0.019-0.11l-0.083,0.067
		l0.089-0.071l-0.109,0.035l0.02,0.035l0.089-0.071l-0.109,0.035l0.037-0.012l-0.039,0.006l0.002,0.006l0.037-0.012l-0.039,0.007
		l0.001,0.006l-0.001,0.007l0.11,0.019l-0.067-0.083l-0.044,0.063l0.11,0.019l-0.067-0.083l0.071,0.089L30.3,15.043l-0.035,0.02
		l0.071,0.089l-0.035-0.109l0.012,0.037l-0.006-0.039L30.3,15.043l0.012,0.037l-0.006-0.039l-0.007,0.001H7.206V15.61z"/>
	<path fill="#FFFFFF" d="M21.065,21.016c0.295,0,0.492-0.197,0.492-0.492s-0.197-0.492-0.492-0.492H7.206
		c-0.295,0-0.492,0.197-0.492,0.492s0.197,0.492,0.492,0.492H21.065z"/>
	<path fill="#FFFFFF" d="M21.065,21.016v0.57c0.273,0.003,0.557-0.097,0.76-0.302c0.204-0.202,0.304-0.487,0.302-0.76
		c0.003-0.273-0.097-0.557-0.302-0.76c-0.202-0.204-0.487-0.304-0.76-0.302H7.206c-0.273-0.003-0.557,0.097-0.76,0.302
		c-0.204,0.202-0.304,0.487-0.302,0.76c-0.003,0.273,0.097,0.557,0.302,0.76c0.202,0.204,0.487,0.304,0.76,0.302h13.86
		L21.065,21.016l0.001-0.57H7.206L7.2,20.445l-0.019,0.11l0.083-0.067l-0.063-0.044l-0.019,0.11l0.083-0.067L7.173,20.56
		l0.109-0.035l-0.02-0.035l-0.089,0.071l0.109-0.035l-0.037,0.012l0.039-0.006l-0.002-0.007l-0.037,0.012l0.038-0.007l-0.001-0.007
		l0.001-0.006l-0.11-0.019l0.067,0.083l0.044-0.063l-0.11-0.019l0.067,0.083l-0.07-0.086l0.035,0.108l0.035-0.02l-0.07-0.088
		l0.035,0.108l-0.013-0.039l0.006,0.039l0.006-0.002l-0.012-0.037L7.2,20.604l0.006-0.001h13.86l0.007,0.001l0.019-0.11
		l-0.083,0.067l0.063,0.044l0.019-0.11l-0.083,0.067l0.089-0.071l-0.108,0.035l0.02,0.035l0.089-0.071l-0.109,0.035l0.037-0.012
		l-0.039,0.007l0.002,0.006l0.037-0.012l-0.039,0.006l0.001,0.007l-0.001,0.006l0.11,0.019l-0.067-0.083l-0.044,0.063l0.11,0.019
		l-0.067-0.083l0.071,0.089l-0.035-0.109l-0.035,0.02l0.071,0.089l-0.035-0.109l0.012,0.037l-0.006-0.039l-0.006,0.002l0.012,0.037
		l-0.007-0.039l-0.006,0.001v0.567h0V21.016z"/>
</g>
</svg>
