<?xml version="1.0" encoding="utf-8"?>
<!-- Generator: Adobe Illustrator 17.0.0, SVG Export Plug-In . SVG Version: 6.00 Build 0)  -->
<!DOCTYPE svg PUBLIC "-//W3C//DTD SVG 1.1//EN" "http://www.w3.org/Graphics/SVG/1.1/DTD/svg11.dtd">
<svg version="1.1" id="Слой_1" xmlns="http://www.w3.org/2000/svg" xmlns:xlink="http://www.w3.org/1999/xlink" x="0px" y="0px"
	 width="38px" height="33.619px" viewBox="0 0 38 33.619" enable-background="new 0 0 38 33.619" xml:space="preserve">
<g>
	<path fill="#FFFFFF" d="M34.68,33.153H3.32c-1.042,0-1.942-0.521-2.464-1.421c-0.521-0.9-0.521-1.942,0-2.842l15.68-27.001
		c0.521-0.9,1.421-1.421,2.464-1.421c1.042,0,1.942,0.521,2.464,1.421L37.142,28.89c0.521,0.9,0.521,1.942,0,2.842
		C36.621,32.632,35.674,33.153,34.68,33.153z M19,2.362c-0.142,0-0.569,0.048-0.805,0.473L2.514,29.837
		c-0.236,0.426-0.095,0.805,0,0.948c0.095,0.142,0.332,0.473,0.805,0.473h31.312c0.474,0,0.758-0.332,0.805-0.473
		c0.095-0.142,0.236-0.521,0-0.948L19.805,2.836C19.568,2.41,19.142,2.362,19,2.362z"/>
	<path fill="#FFFFFF" d="M34.68,33.153v-0.467H3.32c-0.885-0.005-1.613-0.426-2.059-1.189c-0.221-0.382-0.328-0.785-0.328-1.187
		s0.106-0.804,0.328-1.187l0.008-0.013L16.94,2.123V2.122C17.387,1.36,18.115,0.939,19,0.934c0.885,0.005,1.613,0.426,2.059,1.189
		v0.001l15.679,27c0.221,0.383,0.328,0.785,0.328,1.187s-0.106,0.804-0.328,1.187c-0.437,0.754-1.226,1.188-2.059,1.188V33.153
		v0.467c1.158,0.001,2.261-0.608,2.867-1.654C37.847,31.449,38,30.88,38,30.311c0-0.57-0.154-1.137-0.454-1.655L21.867,1.654v0.001
		C21.272,0.617,20.199-0.004,19,0c-1.2-0.005-2.272,0.616-2.867,1.655V1.654L0.453,28.655c-0.301,0.517-0.454,1.086-0.454,1.655
		c0,0.57,0.154,1.137,0.454,1.655c0.595,1.038,1.668,1.659,2.867,1.655h31.358L34.68,33.153L34.68,33.153z M19,2.362V1.895
		c-0.12,0.001-0.318,0.017-0.549,0.114c-0.229,0.095-0.492,0.287-0.664,0.6l0.408,0.227l-0.403-0.234L2.109,29.606L2.107,29.61
		c-0.135,0.242-0.189,0.491-0.189,0.708c0.003,0.323,0.102,0.562,0.208,0.725c0.056,0.083,0.17,0.25,0.363,0.401
		c0.192,0.151,0.482,0.283,0.83,0.281h31.312c0.348,0.001,0.638-0.124,0.84-0.275c0.205-0.16,0.329-0.305,0.408-0.518l-0.443-0.148
		l0.388,0.259c0.106-0.162,0.205-0.402,0.208-0.725c0.001-0.217-0.053-0.466-0.188-0.708l-0.003-0.005L20.209,2.602l-0.404,0.234
		l0.408-0.226c-0.173-0.314-0.435-0.505-0.664-0.6C19.317,1.913,19.12,1.897,19,1.896V2.362v0.467l0.185,0.04
		c0.078,0.035,0.148,0.081,0.212,0.193L19.4,3.067l15.633,27.004l0.404-0.234l-0.408,0.227c0.056,0.103,0.07,0.183,0.071,0.255
		c0.003,0.102-0.044,0.201-0.051,0.206l-0.035,0.052l-0.02,0.059l0.131,0.044l-0.12-0.07l-0.011,0.026l0.131,0.044l-0.12-0.07
		l-0.115,0.107c-0.067,0.042-0.148,0.073-0.258,0.074H3.32c-0.125-0.002-0.191-0.036-0.259-0.086l-0.158-0.18
		c-0.007-0.007-0.054-0.105-0.051-0.206c0.001-0.072,0.015-0.152,0.071-0.255l-0.408-0.227l0.403,0.234L18.6,3.066l0.002-0.004
		c0.064-0.113,0.134-0.159,0.212-0.193l0.185-0.04L19,2.362L19,2.362z"/>
	<rect x="18.052" y="12.31" fill="#FFFFFF" width="1.895" height="10.895"/>
	<polygon fill="#FFFFFF" points="18.052,12.31 18.052,12.777 19.48,12.777 19.48,22.737 18.519,22.737 18.519,12.31 18.052,12.31 
		18.052,12.777 18.052,12.31 17.585,12.31 17.585,23.671 20.414,23.671 20.414,11.843 17.585,11.843 17.585,12.31 	"/>
	<rect x="18.052" y="25.1" fill="#FFFFFF" width="1.895" height="2.368"/>
	<polygon fill="#FFFFFF" points="18.052,25.1 18.052,25.567 19.48,25.567 19.48,27.001 18.519,27.001 18.519,25.1 18.052,25.1 
		18.052,25.567 18.052,25.1 17.585,25.1 17.585,27.935 20.414,27.935 20.414,24.633 17.585,24.633 17.585,25.1 	"/>
</g>
</svg>
