<?xml version="1.0" encoding="utf-8"?>
<!-- Generator: Adobe Illustrator 17.0.0, SVG Export Plug-In . SVG Version: 6.00 Build 0)  -->
<!DOCTYPE svg PUBLIC "-//W3C//DTD SVG 1.1//EN" "http://www.w3.org/Graphics/SVG/1.1/DTD/svg11.dtd">
<svg version="1.1" id="Слой_1" xmlns="http://www.w3.org/2000/svg" xmlns:xlink="http://www.w3.org/1999/xlink" x="0px" y="0px"
	 width="38px" height="38px" viewBox="0 0 38 38" enable-background="new 0 0 38 38" xml:space="preserve">
<g>
	<path fill="#FFFFFF" d="M8.771,0.538c-4.55,0-8.233,3.686-8.233,8.235v20.456c0,4.548,3.683,8.233,8.233,8.233h20.458
		c4.548,0,8.233-3.684,8.233-8.233V8.774c0-4.548-3.684-8.235-8.233-8.235H8.771V0.538z M8.771,1.958h20.458
		c3.787,0,6.812,3.028,6.812,6.815v20.456c0,3.787-3.025,6.812-6.812,6.812H8.771c-3.787,0-6.812-3.025-6.812-6.812V8.774
		C1.958,4.987,4.984,1.958,8.771,1.958z M18.263,7.639c-1.152,0-2.102,0.948-2.102,2.1v1.284c-0.27,0.097-0.535,0.205-0.794,0.33
		l-0.904-0.907c-0.815-0.815-2.158-0.815-2.973,0l-1.042,1.044c-0.815,0.815-0.815,2.161,0,2.977l0.904,0.902
		c-0.122,0.259-0.229,0.523-0.325,0.794H9.742c-1.152,0-2.102,0.948-2.102,2.1v1.476c0,1.152,0.95,2.102,2.102,2.102h1.279
		c0.097,0.269,0.207,0.533,0.33,0.791l-0.904,0.907c-0.815,0.815-0.815,2.158,0,2.973l1.042,1.046c0.815,0.815,2.158,0.815,2.973,0
		l0.902-0.907c0.26,0.123,0.525,0.229,0.796,0.325v1.284c0,1.152,0.95,2.105,2.102,2.105h1.477c1.152,0,2.102-0.953,2.102-2.105
		v-1.276c0.27-0.097,0.531-0.212,0.791-0.336l0.907,0.91c0.815,0.815,2.161,0.815,2.977,0l1.04-1.046
		c0.815-0.815,0.815-2.158,0-2.973l-0.902-0.904c0.122-0.259,0.229-0.523,0.325-0.794h1.281c1.152,0,2.102-0.95,2.102-2.102v-1.476
		c0-1.153-0.95-2.1-2.102-2.1h-1.281c-0.097-0.268-0.204-0.534-0.327-0.791l0.904-0.904c0.815-0.815,0.815-2.161,0-2.977
		l-1.04-1.044c-0.815-0.815-2.161-0.815-2.977,0l-0.904,0.904c-0.26-0.123-0.522-0.231-0.794-0.327V9.739
		c0-1.153-0.95-2.1-2.102-2.1H18.263z M18.263,9.06h1.476c0.391,0,0.682,0.288,0.682,0.68v1.756c0,0.318,0.213,0.597,0.519,0.682
		c0.53,0.148,1.041,0.36,1.523,0.626c0.278,0.153,0.622,0.104,0.846-0.119l1.234-1.234c0.276-0.276,0.69-0.276,0.965,0l1.042,1.044
		c0.276,0.276,0.276,0.69,0,0.965l-1.243,1.24c-0.224,0.226-0.27,0.572-0.114,0.849c0.27,0.48,0.483,0.989,0.636,1.518
		c0.088,0.306,0.368,0.514,0.685,0.513h1.744c0.391,0,0.682,0.292,0.682,0.682v1.476c0,0.391-0.292,0.682-0.682,0.682h-1.754
		c-0.318,0-0.599,0.212-0.685,0.519c-0.148,0.53-0.357,1.041-0.624,1.523c-0.153,0.278-0.104,0.622,0.119,0.846l1.234,1.234
		c0.276,0.276,0.276,0.69,0,0.965l-1.042,1.044c-0.276,0.276-0.69,0.276-0.965,0l-1.24-1.24c-0.226-0.226-0.573-0.273-0.852-0.116
		c-0.48,0.27-0.989,0.483-1.518,0.636c-0.304,0.087-0.513,0.366-0.513,0.682v1.747c0,0.391-0.292,0.682-0.682,0.682H18.26
		c-0.391,0-0.682-0.292-0.682-0.682v-1.754c0-0.318-0.213-0.597-0.519-0.682c-0.53-0.148-1.041-0.357-1.523-0.624
		c-0.276-0.154-0.621-0.107-0.846,0.116l-1.234,1.234c-0.276,0.276-0.69,0.276-0.965,0l-1.042-1.046
		c-0.276-0.276-0.276-0.686,0-0.962l1.237-1.237c0.226-0.225,0.274-0.571,0.119-0.849c-0.269-0.481-0.481-0.991-0.633-1.52
		c-0.087-0.306-0.367-0.516-0.685-0.515H9.74c-0.391,0-0.682-0.292-0.682-0.682v-1.476c0-0.391,0.292-0.685,0.682-0.685h1.754
		c0.318,0.001,0.598-0.21,0.685-0.515c0.148-0.53,0.357-1.038,0.624-1.52c0.153-0.278,0.104-0.622-0.119-0.846l-1.234-1.234
		c-0.276-0.276-0.276-0.69,0-0.965l1.042-1.044c0.276-0.276,0.69-0.276,0.965,0l1.24,1.24c0.226,0.225,0.571,0.272,0.849,0.116
		c0.48-0.27,0.989-0.483,1.518-0.636c0.306-0.087,0.515-0.365,0.515-0.682V9.74C17.58,9.348,17.871,9.06,18.263,9.06z M19,14.74
		c-2.344,0-4.26,1.916-4.26,4.26s1.916,4.258,4.26,4.258c2.345,0,4.263-1.914,4.263-4.258S21.345,14.74,19,14.74z M19,16.16
		c1.577,0,2.84,1.263,2.84,2.84c0,1.576-1.263,2.838-2.84,2.838S16.16,20.577,16.16,19S17.423,16.16,19,16.16z"/>
	<path fill="#FFFFFF" d="M8.771,0.538V0C3.925,0,0,3.927,0,8.773v20.456C0,34.074,3.924,38,8.771,38h20.458
		C34.074,38,38,34.076,38,29.229V8.774c0-4.845-3.924-8.773-8.771-8.773H8.771V0.538v0.538h20.458c2.128,0,4.048,0.861,5.442,2.254
		c1.393,1.394,2.253,3.316,2.253,5.443v20.456c0,2.128-0.861,4.048-2.254,5.442c-1.394,1.393-3.314,2.253-5.441,2.253H8.771
		c-2.128,0-4.048-0.861-5.442-2.254c-1.393-1.393-2.253-3.313-2.253-5.441V8.774c0-2.128,0.86-4.049,2.253-5.443
		c1.394-1.393,3.314-2.254,5.442-2.254V0.538z M8.771,1.958v0.538h20.458c3.492,0.002,6.272,2.784,6.274,6.277v20.456
		c-0.002,3.493-2.781,6.272-6.274,6.274H8.771c-3.493-0.002-6.272-2.781-6.274-6.274V8.77V8.767L2.131,8.771h0.367V8.767
		L2.131,8.771h0.367C2.5,5.279,5.278,2.498,8.771,2.496V1.958V1.421c-2.039,0-3.88,0.817-5.207,2.144
		C2.238,4.892,1.422,6.734,1.422,8.771V8.78L1.96,8.774H1.422V29.23c0,2.038,0.817,3.88,2.143,5.207
		c1.326,1.328,3.168,2.144,5.207,2.143H29.23c2.038,0,3.88-0.817,5.207-2.143c1.328-1.326,2.144-3.168,2.143-5.207V8.774
		c0-2.038-0.817-3.88-2.143-5.208c-1.326-1.328-3.169-2.145-5.207-2.145H8.771V1.958z M18.263,7.639V7.101
		c-1.452,0.003-2.637,1.184-2.64,2.638v1.284h0.538l-0.182-0.507c-0.285,0.102-0.567,0.218-0.846,0.352l0.233,0.485l0.381-0.38
		l-0.904-0.907l-0.001-0.001c-0.513-0.513-1.193-0.769-1.868-0.769c-0.673,0-1.353,0.256-1.868,0.769l-1.04,1.044
		c-0.513,0.513-0.769,1.194-0.769,1.869s0.256,1.355,0.769,1.869l0.904,0.902l0.38-0.381l-0.488-0.229
		c-0.129,0.275-0.243,0.556-0.345,0.843l0.507,0.18v-0.538H9.742c-1.452,0.003-2.637,1.184-2.64,2.638v1.476
		c0.003,1.453,1.187,2.637,2.64,2.64h1.279V21.84l-0.506,0.182c0.103,0.285,0.219,0.566,0.352,0.841l0.485-0.232l-0.381-0.38
		l-0.904,0.907l0.001-0.001c-0.513,0.513-0.769,1.193-0.769,1.868c0,0.673,0.256,1.353,0.769,1.868l0.008,0.008l1.034,1.037
		l0.001,0.001c0.513,0.513,1.193,0.769,1.868,0.769c0.673,0,1.353-0.256,1.868-0.769l0.001-0.001l0.902-0.907l-0.382-0.379
		l-0.229,0.486c0.279,0.131,0.56,0.244,0.847,0.345l0.18-0.507h-0.538v1.284c0.003,1.453,1.186,2.639,2.64,2.643h1.476
		c1.454-0.004,2.637-1.19,2.64-2.643v-1.276h-0.538l0.182,0.507c0.294-0.105,0.571-0.228,0.841-0.356l-0.231-0.485l-0.381,0.38
		l0.907,0.91l0.001,0.001c0.513,0.513,1.194,0.769,1.869,0.769s1.355-0.256,1.869-0.769l0.002-0.002l1.039-1.045l-0.001,0.001
		c0.513-0.513,0.769-1.193,0.769-1.868c0-0.673-0.256-1.353-0.769-1.868l-0.904-0.903l-0.381,0.38l0.487,0.228
		c0.129-0.275,0.243-0.556,0.345-0.843l-0.507-0.18v0.538h1.281c1.453-0.003,2.637-1.187,2.64-2.64v-1.476
		c-0.003-1.454-1.188-2.635-2.64-2.638h-1.281v0.538l0.506-0.183c-0.101-0.281-0.215-0.563-0.347-0.839l-0.485,0.231l0.381,0.381
		l0.904-0.904c0.513-0.513,0.769-1.194,0.769-1.869s-0.256-1.355-0.769-1.869l-1.039-1.042c-0.514-0.514-1.195-0.77-1.87-0.77
		c-0.675,0-1.355,0.256-1.869,0.769l-0.904,0.904l0.381,0.381l0.229-0.486c-0.275-0.129-0.554-0.245-0.844-0.347l-0.179,0.508h0.538
		V9.739c-0.01-1.454-1.194-2.635-2.646-2.638h-1.476V7.639v0.538h1.476c0.427,0,0.817,0.174,1.103,0.46
		c0.286,0.286,0.462,0.675,0.462,1.102v1.287v0.381l0.359,0.127c0.254,0.089,0.498,0.19,0.743,0.307l0.342,0.161l1.172-1.172
		c0.302-0.302,0.701-0.454,1.108-0.454s0.806,0.152,1.108,0.454l1.039,1.042c0.302,0.302,0.454,0.702,0.455,1.108
		c0,0.407-0.152,0.806-0.454,1.108l-1.173,1.173l0.164,0.343c0.113,0.238,0.214,0.487,0.307,0.742l0.128,0.355h1.659
		c0.427,0,0.817,0.174,1.103,0.46c0.286,0.286,0.462,0.675,0.462,1.102v1.476c0,0.426-0.175,0.815-0.462,1.103
		c-0.287,0.286-0.677,0.462-1.103,0.462h-1.282h-0.381l-0.127,0.358c-0.09,0.255-0.19,0.502-0.304,0.744l-0.16,0.341l1.168,1.17
		c0.302,0.302,0.454,0.701,0.454,1.107c0,0.406-0.152,0.805-0.454,1.106l-0.001,0.001l-1.04,1.046l0.001-0.001
		c-0.302,0.302-0.701,0.454-1.108,0.454s-0.806-0.152-1.108-0.454l-1.175-1.179L22.4,26.161c-0.25,0.119-0.494,0.227-0.74,0.315
		l-0.356,0.128v1.655c0,0.426-0.175,0.817-0.462,1.105c-0.287,0.287-0.677,0.463-1.103,0.463h-1.476
		c-0.426,0-0.815-0.175-1.103-0.463c-0.286-0.287-0.462-0.678-0.462-1.105v-1.284v-0.38l-0.358-0.127
		c-0.257-0.09-0.505-0.19-0.746-0.304l-0.343-0.161l-1.169,1.176l0.001-0.001c-0.302,0.302-0.701,0.454-1.106,0.454
		c-0.406,0-0.805-0.152-1.106-0.454l0.001,0.001l-1.042-1.046l-0.001-0.003c-0.302-0.302-0.454-0.701-0.454-1.106
		c0-0.406,0.152-0.805,0.454-1.106l0.003-0.003l1.169-1.174l-0.165-0.343c-0.115-0.241-0.218-0.488-0.309-0.74l-0.128-0.356H9.744
		c-0.427,0-0.815-0.175-1.103-0.462c-0.286-0.287-0.462-0.677-0.462-1.103v-1.476c0-0.427,0.175-0.815,0.462-1.102
		c0.287-0.286,0.676-0.46,1.103-0.46h1.284h0.381l0.127-0.358c0.09-0.255,0.19-0.502,0.304-0.744L12,15.255l-1.171-1.168
		c-0.301-0.301-0.453-0.701-0.454-1.108c0-0.407,0.152-0.806,0.454-1.108l1.042-1.044c0.302-0.302,0.701-0.453,1.106-0.454
		c0.406,0,0.805,0.152,1.106,0.454l1.173,1.177l0.344-0.166c0.24-0.116,0.487-0.217,0.742-0.309l0.356-0.128V9.739
		c0-0.427,0.175-0.815,0.462-1.102c0.286-0.285,0.676-0.46,1.103-0.46V7.639z M18.263,9.06v0.538h1.476l0.109,0.037l0.036,0.105
		v1.756c0,0.562,0.374,1.05,0.912,1.201h-0.001c0.488,0.137,0.962,0.332,1.408,0.579c0.189,0.104,0.398,0.155,0.604,0.155
		c0.323,0,0.642-0.126,0.882-0.366l1.234-1.234l0.102-0.049l0.101,0.049l1.044,1.045l0.049,0.102l-0.049,0.101l-1.243,1.241
		l-0.001,0.001c-0.238,0.24-0.361,0.558-0.361,0.879c0,0.21,0.053,0.422,0.161,0.613c0.25,0.443,0.446,0.913,0.587,1.403
		c0.155,0.536,0.644,0.903,1.199,0.902h0.001v-0.505l-0.019,0.505h0.019v-0.505l-0.019,0.505h0.01h1.755l0.108,0.037l0.037,0.108
		v1.476l-0.037,0.108l-0.108,0.037h-1.754c-0.559,0-1.051,0.371-1.203,0.911c-0.138,0.491-0.33,0.963-0.577,1.408l-0.001,0.001
		c-0.104,0.188-0.155,0.397-0.155,0.602c0,0.323,0.126,0.642,0.366,0.882l1.234,1.234l0.049,0.102l-0.049,0.101l-1.044,1.045
		l-0.102,0.049l-0.101-0.049l-1.241-1.241c-0.24-0.24-0.56-0.366-0.882-0.366c-0.21,0-0.423,0.053-0.614,0.161
		c-0.443,0.25-0.913,0.446-1.403,0.587h0.001c-0.537,0.154-0.904,0.644-0.903,1.2v1.747l-0.037,0.108l-0.108,0.037h-1.476
		l-0.108-0.037l-0.037-0.108v-1.754c0-0.562-0.374-1.05-0.912-1.201h0.001c-0.491-0.138-0.963-0.33-1.408-0.577l0.001,0.001
		c-0.189-0.105-0.4-0.158-0.607-0.157c-0.321,0-0.639,0.125-0.879,0.361l-0.002,0.002l-1.234,1.234l-0.102,0.049l-0.101-0.049
		l-1.042-1.046l-0.001-0.001l-0.049-0.101l0.049-0.099l1.238-1.238l-0.001,0.001c0.241-0.24,0.368-0.562,0.368-0.884
		c0-0.208-0.052-0.417-0.158-0.608c-0.249-0.445-0.445-0.917-0.585-1.406c-0.153-0.535-0.642-0.905-1.199-0.905l-0.036,0.001
		l0.033,0.537V19.88H9.74l-0.108-0.037l-0.037-0.108v-1.476l0.039-0.11l0.105-0.038h1.754h0.002c0.558,0,1.047-0.37,1.201-0.906
		v-0.001v-0.001c0.138-0.491,0.33-0.959,0.577-1.405l0.001-0.001c0.104-0.188,0.155-0.397,0.155-0.602
		c0-0.323-0.126-0.642-0.366-0.882l-1.234-1.234l-0.049-0.102l0.049-0.101l0.001-0.001l1.042-1.044l0.102-0.049l0.101,0.049
		l1.241,1.241l0.001,0.001c0.239,0.238,0.558,0.365,0.881,0.364c0.209,0,0.421-0.053,0.611-0.16c0.444-0.25,0.914-0.446,1.404-0.588
		h-0.001c0.536-0.152,0.906-0.642,0.906-1.2v-1.75V9.74l0.037-0.107l0.11-0.037V9.06V8.522c-0.328-0.001-0.643,0.125-0.867,0.35
		c-0.226,0.221-0.355,0.537-0.355,0.867v1.752l-0.125,0.165h-0.001c-0.569,0.165-1.117,0.394-1.633,0.684L15.2,12.363l-0.122-0.051
		l-1.239-1.24l0.001,0.001c-0.232-0.235-0.547-0.367-0.863-0.366c-0.316-0.001-0.631,0.131-0.863,0.365l-1.042,1.044l0.001-0.001
		c-0.235,0.232-0.367,0.547-0.366,0.863c-0.001,0.316,0.131,0.63,0.365,0.863l1.234,1.234l0.051,0.122l-0.022,0.084l0.001-0.001
		c-0.287,0.519-0.512,1.065-0.671,1.635l0.001-0.002L11.5,17.038h-0.001H9.745c-0.331-0.001-0.647,0.13-0.869,0.355
		c-0.224,0.224-0.352,0.539-0.351,0.868v1.476c-0.001,0.329,0.128,0.644,0.352,0.868c0.223,0.225,0.539,0.353,0.868,0.352h1.765
		l0.017-0.001l-0.032-0.516l0.002,0.517l0.03-0.001l-0.032-0.516l0.002,0.517l-0.008-0.3v0.301h0.001l-0.001-0.301v0.301
		l0.166,0.125c0.164,0.569,0.392,1.118,0.68,1.635l0.022,0.083l-0.051,0.123l-0.001,0.001l-1.237,1.237l0.001-0.003
		c-0.233,0.231-0.367,0.545-0.366,0.862c-0.001,0.316,0.131,0.63,0.365,0.862l-0.001-0.001l1.042,1.046
		c0.231,0.235,0.546,0.367,0.863,0.366c0.316,0.001,0.63-0.131,0.863-0.365l1.234-1.234l-0.002,0.002l0.122-0.051l0.084,0.022
		l0.001,0.001c0.519,0.287,1.069,0.512,1.638,0.671l0.01,0.002l-0.009-0.002l0.125,0.164v1.754
		c-0.001,0.329,0.128,0.644,0.352,0.868c0.223,0.225,0.539,0.353,0.868,0.352h1.476c0.329,0.001,0.644-0.128,0.868-0.352
		c0.225-0.223,0.353-0.539,0.352-0.868v-1.747l0.124-0.165h0.001c0.569-0.165,1.117-0.394,1.633-0.684l0.086-0.023l0.122,0.051
		l1.24,1.24l-0.001-0.001c0.232,0.235,0.547,0.367,0.863,0.366c0.316,0.001,0.63-0.131,0.863-0.365l1.042-1.044l-0.001,0.001
		c0.235-0.232,0.367-0.547,0.366-0.863c0.001-0.316-0.131-0.631-0.365-0.863l-1.234-1.234l-0.051-0.122l0.022-0.084l-0.001,0.001
		c0.287-0.519,0.512-1.069,0.671-1.638l0.168-0.126h1.754c0.329,0.001,0.644-0.128,0.868-0.352c0.225-0.223,0.353-0.539,0.352-0.868
		v-1.476c0.001-0.329-0.128-0.644-0.352-0.868c-0.223-0.225-0.539-0.353-0.868-0.352h-1.744v0.538l0.02-0.538H26.51h-0.001
		l-0.166-0.125c-0.165-0.569-0.394-1.117-0.684-1.633l-0.023-0.085l0.051-0.122l-0.002,0.002l1.243-1.24
		c0.235-0.231,0.367-0.546,0.365-0.863c0.001-0.316-0.131-0.631-0.365-0.863l-1.042-1.044c-0.231-0.235-0.546-0.366-0.863-0.365
		c-0.316-0.001-0.631,0.131-0.863,0.365l-1.234,1.234l-0.122,0.051l-0.084-0.022c-0.516-0.285-1.066-0.513-1.637-0.672h-0.001
		l-0.125-0.164V9.74c0.001-0.329-0.128-0.645-0.353-0.868c-0.224-0.224-0.539-0.351-0.867-0.35h-1.476V9.06H18.263z M19,14.74
		v-0.538c-2.643,0.002-4.796,2.155-4.798,4.798c0.002,2.643,2.155,4.794,4.798,4.796c2.643-0.002,4.799-2.152,4.801-4.796
		c-0.002-2.644-2.157-4.796-4.801-4.798V14.74v0.538c1.024,0,1.954,0.417,2.631,1.094c0.677,0.677,1.094,1.605,1.094,2.628
		c0,1.024-0.417,1.95-1.094,2.627C20.953,22.303,20.025,22.72,19,22.72c-1.024,0-1.953-0.417-2.629-1.093
		c-0.676-0.677-1.093-1.604-1.093-2.627c0-1.024,0.417-1.951,1.093-2.629c0.677-0.677,1.605-1.093,2.629-1.093V14.74z M19,16.16
		v0.538c1.282,0.002,2.3,1.02,2.302,2.302C21.3,20.281,20.283,21.298,19,21.3c-1.283-0.002-2.3-1.018-2.302-2.3
		c0.002-1.282,1.02-2.3,2.302-2.302V16.16v-0.538c-0.934,0-1.783,0.375-2.391,0.986c-0.61,0.609-0.986,1.459-0.986,2.391
		c0,0.934,0.375,1.783,0.986,2.39c0.61,0.61,1.459,0.985,2.391,0.984c0.934,0,1.783-0.375,2.391-0.985
		c0.61-0.609,0.986-1.458,0.986-2.39c0-0.934-0.375-1.783-0.986-2.391c-0.609-0.61-1.459-0.986-2.391-0.986V16.16z"/>
</g>
</svg>
