<?xml version="1.0" encoding="utf-8"?>
<!-- Generator: Adobe Illustrator 17.0.0, SVG Export Plug-In . SVG Version: 6.00 Build 0)  -->
<!DOCTYPE svg PUBLIC "-//W3C//DTD SVG 1.1//EN" "http://www.w3.org/Graphics/SVG/1.1/DTD/svg11.dtd">
<svg version="1.1" id="Слой_1" xmlns="http://www.w3.org/2000/svg" xmlns:xlink="http://www.w3.org/1999/xlink" x="0px" y="0px"
	 width="38.004px" height="42.262px" viewBox="-3.267 -3.631 38.004 42.262" enable-background="new -3.267 -3.631 38.004 42.262"
	 xml:space="preserve">
<g>
	<path fill="#FFFFFF" d="M23.786,6.467c-0.001,0.219-0.008,0.437-0.023,0.654c-0.007,0.111-0.017,0.222-0.028,0.333l-0.018,0.169
		c-0.005,0.047-0.041,0.308-0.007,0.07c-0.068,0.484-0.168,0.962-0.29,1.436c-0.127,0.49-0.284,0.972-0.46,1.447
		c-0.043,0.115-0.089,0.231-0.135,0.344l-0.071,0.171c0.078-0.188-0.004,0.005-0.017,0.036c-0.107,0.246-0.223,0.49-0.343,0.73
		c-0.232,0.462-0.488,0.912-0.766,1.348c-0.132,0.208-0.272,0.411-0.414,0.611l-0.217,0.295c-0.124,0.164,0.104-0.132-0.024,0.03
		l-0.152,0.188c-0.314,0.383-0.653,0.745-1.013,1.084c-0.169,0.158-0.344,0.309-0.523,0.456l-0.134,0.106
		c0.167-0.13,0.012-0.011-0.019,0.012l-0.321,0.228c-0.379,0.257-0.782,0.477-1.203,0.659c0.206-0.089,0.034-0.016-0.008,0.001
		l-0.151,0.057l-0.304,0.101c-0.22,0.068-0.444,0.121-0.671,0.162l-0.157,0.025c0.237-0.036,0.051-0.007,0.001-0.001l-0.319,0.025
		c-0.232,0.012-0.464,0.007-0.696-0.01c-0.063-0.005-0.414-0.051-0.157-0.013l-0.313-0.056c-0.226-0.046-0.448-0.109-0.668-0.18
		l-0.302-0.11c-0.041-0.016-0.215-0.089-0.008-0.001l-0.149-0.065c-0.216-0.098-0.425-0.209-0.63-0.328
		c-0.193-0.112-0.379-0.234-0.563-0.361l-0.274-0.2c0.169,0.128,0.013,0.008-0.018-0.016l-0.177-0.146
		c-0.376-0.314-0.722-0.659-1.052-1.022c-0.161-0.179-0.316-0.363-0.466-0.551c-0.022-0.027-0.147-0.19-0.025-0.029l-0.11-0.146
		c-0.086-0.115-0.169-0.231-0.251-0.348c-0.296-0.421-0.565-0.862-0.814-1.313c-0.121-0.217-0.233-0.44-0.343-0.662
		c-0.054-0.111-0.107-0.223-0.159-0.337l-0.076-0.169c-0.016-0.035-0.124-0.289-0.042-0.093c-0.391-0.927-0.687-1.896-0.872-2.885
		c-0.021-0.11-0.039-0.225-0.059-0.34L7.75,7.693c0.034,0.227,0.005,0.031,0-0.013C7.72,7.44,7.699,7.198,7.686,6.957
		c-0.027-0.501-0.01-1.005,0.046-1.505c0.004-0.037,0.033-0.249,0.004-0.036l0.029-0.185c0.019-0.123,0.042-0.245,0.068-0.367
		c0.054-0.261,0.122-0.519,0.199-0.775C8.1,3.856,8.183,3.626,8.273,3.399c0.013-0.034,0.094-0.223,0.012-0.033l0.074-0.165
		c0.058-0.128,0.121-0.255,0.185-0.38C8.77,2.375,9.04,1.953,9.338,1.553C9.46,1.389,9.233,1.686,9.359,1.525l0.112-0.139
		l0.234-0.27c0.173-0.193,0.355-0.377,0.542-0.553c0.174-0.164,0.356-0.319,0.542-0.467c0.159-0.127-0.135,0.101,0.028-0.022
		l0.144-0.106c0.113-0.082,0.228-0.161,0.345-0.237c0.419-0.274,0.865-0.511,1.325-0.71c-0.19,0.083,0,0.001,0.033-0.012l0.17-0.065
		c0.113-0.042,0.229-0.083,0.344-0.121c0.252-0.083,0.51-0.153,0.768-0.214c0.241-0.057,0.487-0.1,0.733-0.136
		c-0.213,0.031-0.001,0.001,0.036-0.004l0.187-0.019c0.147-0.014,0.296-0.023,0.443-0.03c0.256-0.012,0.512-0.01,0.769,0
		c0.127,0.005,0.254,0.013,0.38,0.024l0.188,0.018c0.041,0.004,0.321,0.041,0.099,0.01c0.51,0.071,1.012,0.192,1.501,0.35
		c0.213,0.069,0.42,0.147,0.627,0.232c-0.199-0.082,0.098,0.045,0.141,0.065c0.11,0.051,0.217,0.104,0.325,0.159
		c0.391,0.2,0.766,0.433,1.124,0.689c0.039,0.028,0.293,0.221,0.124,0.091l0.278,0.227c0.167,0.141,0.327,0.29,0.484,0.443
		c0.156,0.153,0.305,0.313,0.449,0.477l0.231,0.274c0.022,0.028,0.147,0.188,0.022,0.027l0.107,0.144
		c0.258,0.354,0.489,0.731,0.694,1.119c0.103,0.196,0.197,0.396,0.286,0.599c-0.086-0.198,0.039,0.101,0.057,0.146
		c0.043,0.114,0.085,0.228,0.123,0.344c0.145,0.427,0.254,0.868,0.331,1.313c0.008,0.048,0.057,0.38,0.028,0.158
		c0.017,0.124,0.029,0.25,0.04,0.376C23.777,5.958,23.785,6.213,23.786,6.467c0.001,0.436,0.362,0.799,0.799,0.799
		c0.435,0,0.801-0.363,0.799-0.799c-0.008-2.225-0.78-4.33-2.153-6.071c-1.3-1.647-3.2-2.825-5.234-3.317
		c-2.184-0.528-4.485-0.252-6.505,0.711C9.613-1.311,8.04,0.265,7.108,2.124c-0.51,1.013-0.811,2.083-0.96,3.205
		C6.012,6.355,6.085,7.388,6.251,8.404c0.333,2.042,1.169,4.039,2.301,5.763c1.1,1.677,2.585,3.243,4.445,4.068
		c0.914,0.406,1.888,0.639,2.894,0.615c1.005-0.025,1.969-0.312,2.868-0.752c1.835-0.903,3.279-2.533,4.349-4.242
		c1.092-1.744,1.869-3.752,2.153-5.792c0.074-0.53,0.124-1.06,0.127-1.595c0.001-0.436-0.365-0.799-0.799-0.799
		C24.148,5.668,23.787,6.032,23.786,6.467z"/>
	<path fill="#FFFFFF" d="M23.786,6.467l-0.447-0.001c0,0.209-0.008,0.418-0.022,0.627C23.31,7.197,23.3,7.304,23.29,7.413
		l-0.017,0.161l-0.011,0.088l-0.007,0.051L23.254,7.73l-0.001,0.007l-0.001,0.006L23.25,7.752l-0.001,0.04h0.447l-0.414-0.165
		l-0.033,0.165h0.447l-0.414-0.165l0.414,0.165l-0.239-0.378L23.28,7.625l0.414,0.165l-0.239-0.378l0.239,0.378l-0.007-0.447
		l-0.233,0.069l0.239,0.378l-0.007-0.447l0.007,0.447l0.199-0.401c-0.036-0.016-0.089-0.045-0.205-0.046l0.007,0.447l0.198-0.401
		l-0.197,0.402l0.286-0.344L23.893,7.39l-0.198,0.401l0.286-0.344l-0.286,0.344l0.316-0.316l-0.03-0.028l-0.287,0.344l0.316-0.316
		l-0.316,0.316v0.447c0.115,0,0.202-0.042,0.251-0.077l0.135-0.145l0.039-0.086l0.011-0.04l0.005-0.027l0.005-0.036l0.01-0.072
		l-0.885-0.123c-0.064,0.464-0.161,0.925-0.28,1.385c-0.122,0.472-0.274,0.939-0.447,1.402c-0.041,0.11-0.086,0.222-0.13,0.334
		L22.34,10.92l0.825,0.344l0.027-0.064l0.007-0.017l0.004-0.008l0.004-0.01l0.006-0.016l0.007-0.024l0.007-0.03l0.008-0.083
		l-0.039-0.181l-0.097-0.138l-0.112-0.08l-0.199-0.047l-0.184,0.039l-0.129,0.088l-0.057,0.068L22.395,10.8l-0.013,0.024
		l-0.013,0.03l-0.041,0.097c-0.104,0.238-0.215,0.473-0.333,0.709c-0.223,0.447-0.473,0.883-0.744,1.306
		c-0.127,0.199-0.262,0.396-0.401,0.592l-0.211,0.284l-0.031,0.042l-0.01,0.013l-0.007,0.01l-0.01,0.016l-0.016,0.025l-0.019,0.039
		l-0.017,0.048L20.51,14.16h0.447l0.316-0.316l-0.068-0.056c-0.039-0.022-0.097-0.07-0.249-0.075c-0.118,0-0.233,0.048-0.316,0.13
		c-0.083,0.083-0.132,0.198-0.132,0.316s0.048,0.233,0.132,0.316s0.198,0.13,0.316,0.13c0.135-0.005,0.179-0.039,0.213-0.054
		l0.085-0.059l0.033-0.031l0.019-0.022l0.037-0.048l0.019-0.025l0.01-0.012l0.008-0.012l0.012-0.019l0.017-0.031l0.019-0.045
		l0.029-0.159c0-0.118-0.048-0.233-0.13-0.316c-0.082-0.083-0.198-0.13-0.316-0.13s-0.233,0.048-0.316,0.13
		c-0.083,0.083-0.132,0.198-0.132,0.316h0.447l-0.41-0.177l-0.036,0.176h0.447L20.6,13.911l0.411,0.176l-0.215-0.391L20.6,13.913
		l0.411,0.176l-0.215-0.391l0.215,0.391l-0.005-0.447l-0.21,0.054l0.215,0.391l-0.005-0.447l0.005,0.447l0.14-0.424l-0.145-0.023
		l0.005,0.447l0.14-0.424l-0.14,0.424l0.159-0.418l-0.019-0.007l-0.14,0.424l0.159-0.418c-0.004,0.001-0.047-0.027-0.159-0.029
		l-0.177,0.036l-0.097,0.057l-0.042,0.037l-0.027,0.029l-0.05,0.063l-0.146,0.181c-0.301,0.367-0.627,0.716-0.973,1.042
		c-0.159,0.15-0.326,0.295-0.499,0.435l-0.127,0.101l0.553,0.703l0.06-0.047l0.016-0.012l0.007-0.006l0.008-0.007l0.016-0.013
		l0.025-0.025l0.035-0.045l0.036-0.063c0.013-0.034,0.04-0.08,0.042-0.191l-0.039-0.181l-0.097-0.138l-0.112-0.08l-0.199-0.047
		l-0.12,0.017l-0.076,0.029l-0.053,0.029l-0.021,0.014l-0.05,0.037l-0.045,0.034h0.001l-0.305,0.215
		c-0.356,0.24-0.734,0.448-1.129,0.619l0.356,0.82l0.078-0.034l0.019-0.008l0.01-0.005l0.013-0.006l0.023-0.012l0.039-0.025
		l0.057-0.05l0.06-0.077c0.024-0.041,0.065-0.107,0.068-0.237l-0.039-0.181l-0.097-0.138l-0.112-0.08l-0.199-0.047L17.6,16.396
		l-0.051,0.017l-0.021,0.008l-0.097,0.04l-0.14,0.052l-0.283,0.094c-0.199,0.062-0.407,0.11-0.621,0.149l-0.144,0.024l0.135,0.884
		l0.091-0.013l0.019-0.002h0.004l-0.03-0.208l0.029,0.208h0.001l-0.03-0.208l0.029,0.208l-0.058-0.408l0.056,0.409h0.004
		l-0.058-0.408l0.056,0.409l-0.059-0.437l0.052,0.438l0.006-0.001l-0.059-0.437l0.052,0.438l-0.053-0.443l0.043,0.443l0.008-0.001
		l-0.053-0.443l0.043,0.443l-0.043-0.444v0.447l0.043-0.002l-0.043-0.444v0.447c0.181,0,0.344-0.109,0.413-0.275
		c0.069-0.167,0.03-0.359-0.097-0.487l-0.316,0.316L16.8,16.96l-0.056-0.068l-0.316,0.316l0.372-0.249l-0.372,0.249h0.447
		c-0.005-0.151-0.053-0.209-0.075-0.249l-0.372,0.249h0.447c0-0.173-0.099-0.33-0.255-0.403c-0.156-0.074-0.339-0.052-0.473,0.057
		l0.281,0.348l-0.176-0.41l-0.104,0.063l0.281,0.348l-0.177-0.409l0.177,0.409l-0.122-0.43l-0.057,0.021l0.177,0.409l-0.122-0.43
		l0.122,0.43l-0.085-0.438l-0.037,0.008l0.122,0.43l-0.085-0.438l0.082,0.426l-0.069-0.427l-0.013,0.002l0.082,0.426l-0.069-0.427
		l0.024,0.145l-0.022-0.145h-0.001l0.024,0.145l-0.022-0.145l-0.097,0.014l-0.292,0.023l-0.233,0.006
		c-0.133,0-0.268-0.006-0.406-0.016l-0.118-0.013l-0.076-0.008l-0.03-0.004l-0.016-0.001l-0.043-0.002l-0.027,0.001l-0.086,0.004
		l-0.146,0.068l-0.122,0.13L14.6,17.209l0.071,0.24l0.144,0.141l0.089,0.042l0.043,0.012l0.036,0.007l0.093,0.013l0.127-0.885
		l-0.289-0.051c-0.204-0.041-0.409-0.099-0.617-0.167l-0.28-0.101l-0.056-0.022l-0.031-0.013l-0.012-0.005l-0.008-0.004
		l-0.012-0.005l-0.019-0.005L13.855,16.4l-0.104-0.012v0.447L14,16.463c-0.039-0.022-0.098-0.07-0.249-0.075v0.447L14,16.463
		l-0.249,0.372l0.316-0.316L14,16.463l-0.249,0.372l0.316-0.316c-0.128-0.128-0.32-0.167-0.487-0.097
		c-0.167,0.069-0.275,0.232-0.275,0.413c0.002,0.129,0.045,0.196,0.068,0.238l0.097,0.11l0.056,0.039l0.036,0.019l0.021,0.008
		l0.094,0.04l0.349-0.823l-0.139-0.062c-0.198-0.089-0.395-0.194-0.59-0.308c-0.179-0.104-0.355-0.219-0.531-0.342l-0.26-0.19
		l-0.54,0.714l0.06,0.046l0.014,0.011l0.006,0.004l0.007,0.005l0.012,0.008l0.022,0.013l0.034,0.018l0.046,0.019l0.144,0.024
		c0.156,0,0.298-0.08,0.38-0.211s0.089-0.296,0.019-0.435l-0.4,0.199h0.447l-0.031-0.164l-0.057-0.101l-0.041-0.048l-0.031-0.029
		l-0.013-0.011l-0.047-0.036l-0.045-0.034l-0.168-0.138c-0.356-0.298-0.689-0.628-1.006-0.978c-0.153-0.17-0.303-0.348-0.449-0.53
		l-0.042-0.053l-0.024-0.03l-0.006-0.012l-0.006-0.007l-0.008-0.01l-0.014-0.016l-0.027-0.027l-0.046-0.036l-0.064-0.036
		l-0.185-0.04v0.447l0.249-0.372l-0.249-0.075v0.447l0.249-0.372l-0.249,0.372l0.429-0.128c-0.017-0.059-0.063-0.163-0.18-0.244
		l-0.249,0.372l0.429-0.128l-0.429,0.128h0.447l-0.019-0.128l-0.429,0.128h0.447c0-0.118-0.048-0.233-0.13-0.316
		c-0.083-0.083-0.199-0.13-0.316-0.13s-0.233,0.048-0.316,0.13c-0.083,0.083-0.13,0.198-0.13,0.316
		c0.004,0.114,0.024,0.138,0.031,0.164l0.03,0.063l0.022,0.034l0.012,0.016l0.051,0.066l0.708-0.546l-0.106-0.141
		c-0.081-0.109-0.162-0.221-0.243-0.336c-0.285-0.406-0.546-0.833-0.788-1.271c-0.116-0.21-0.226-0.424-0.333-0.642
		c-0.052-0.106-0.103-0.216-0.155-0.327l-0.074-0.164l-0.039-0.088l-0.023-0.052l-0.008-0.019l-0.005-0.01l-0.006-0.012
		l-0.011-0.021L9.04,10.767l-0.043-0.054L8.924,10.65c-0.04-0.024-0.106-0.074-0.251-0.077v0.447l0.249-0.372l-0.249-0.075v0.447
		l0.249-0.372l-0.25,0.372l0.429-0.128c-0.017-0.059-0.063-0.163-0.18-0.244L8.672,11.02l0.429-0.128L8.672,11.02h0.447L9.1,10.892
		L8.671,11.02h0.447c0-0.118-0.048-0.233-0.132-0.316s-0.198-0.13-0.316-0.13s-0.233,0.048-0.316,0.13
		c-0.083,0.083-0.13,0.198-0.13,0.316l0.012,0.103l0.016,0.052l0.008,0.022l0.03,0.071l0.823-0.348
		c-0.379-0.9-0.665-1.837-0.845-2.793C8.247,8.02,8.229,7.91,8.211,7.797L8.193,7.629L7.307,7.757L7.319,7.84l0.002,0.02
		l0.001,0.005v0.004l0.002,0.006l0.001,0.01L7.33,7.904l0.011,0.037l0.028,0.066L7.434,8.1l0.101,0.083l0.228,0.063
		c0.156,0,0.298-0.08,0.38-0.211c0.083-0.131,0.089-0.295,0.02-0.434L7.764,7.8h0.447L8.21,7.762L8.208,7.741L8.192,7.625
		C8.164,7.396,8.145,7.164,8.133,6.931C8.124,6.781,8.121,6.63,8.121,6.48c0-0.326,0.019-0.653,0.056-0.979l0.008-0.065L8.19,5.397
		l0.001-0.014l0.001-0.007l0.001-0.007l0.001-0.008V5.32L8.14,5.108L7.967,4.932l-0.22-0.058L7.536,4.927L7.383,5.061L7.33,5.16
		L7.314,5.21L7.307,5.244l-0.004,0.02L7.291,5.353l0.885,0.123L8.204,5.3c0.018-0.114,0.041-0.23,0.065-0.348
		c0.049-0.245,0.115-0.489,0.188-0.734c0.065-0.219,0.144-0.436,0.231-0.654l0.024-0.059L8.726,3.47l0.005-0.013L8.733,3.45
		l0.005-0.01l0.005-0.013l0.007-0.02l0.007-0.028l0.01-0.097L8.705,3.054C8.633,2.936,8.544,2.892,8.494,2.869L8.356,2.837
		L8.32,2.835C8.185,2.838,8.117,2.882,8.076,2.907L7.97,3.003L7.933,3.056L7.915,3.09L7.909,3.103L7.872,3.19l0.822,0.35l0.07-0.157
		c0.054-0.12,0.114-0.239,0.175-0.361c0.214-0.42,0.47-0.821,0.756-1.204l0.031-0.042L9.738,1.76l0.01-0.016L9.762,1.72l0.019-0.036
		L9.8,1.638l0.022-0.136C9.816,1.354,9.777,1.314,9.763,1.279L9.712,1.208L9.69,1.185c-0.083-0.083-0.198-0.13-0.316-0.13
		L9.205,1.088l-0.1,0.057l-0.046,0.04L9.03,1.216L9.008,1.244L8.977,1.289L8.962,1.308l-0.01,0.013L8.941,1.339L8.924,1.368
		l-0.02,0.043L8.887,1.46L8.87,1.58c0.004,0.036-0.007,0.099,0.06,0.226l0.124,0.138l0.27,0.085l0.089-0.011l0.018-0.005
		L9.317,1.581l0.089,0.438l0.027-0.006L9.317,1.582l0.09,0.438l-0.09-0.438v0.447l0.09-0.009l-0.09-0.438v0.447
		C9.452,2.024,9.495,1.99,9.529,1.976l0.083-0.058l0.033-0.031l0.022-0.025L9.709,1.81l0.107-0.133l0.222-0.257
		c0.161-0.181,0.334-0.355,0.516-0.525c0.163-0.153,0.336-0.301,0.516-0.443l0.042-0.034l0.016-0.013l0.014-0.013l0.022-0.022
		l0.033-0.039l0.037-0.059c0.013-0.034,0.047-0.076,0.052-0.21c-0.006-0.147-0.046-0.194-0.068-0.235L11.12-0.287l-0.08-0.051
		c-0.039-0.017-0.091-0.046-0.203-0.048l-0.156,0.028l-0.066,0.031l-0.039,0.025l-0.028,0.018l-0.04,0.031L10.49-0.238l-0.012,0.01
		l-0.017,0.014l-0.025,0.025L10.4-0.144l-0.036,0.063c-0.013,0.034-0.041,0.08-0.043,0.193l0.001,0.037l0.016,0.087l0.123,0.202
		l0.297,0.121l0.152-0.023l0.057-0.024l-0.198-0.4v0.447l0.199-0.047l-0.199-0.4v0.447l0.136-0.022l0.071-0.029l0.046-0.028
		l0.03-0.022l0.037-0.028l0.138-0.101c0.105-0.076,0.215-0.151,0.328-0.225c0.396-0.26,0.819-0.483,1.257-0.674l-0.356-0.82
		L12.39-1.361l-0.017,0.007L12.365-1.35l-0.011,0.005l-0.019,0.01l-0.033,0.022L12.25-1.272l-0.063,0.07
		c-0.024,0.04-0.078,0.103-0.085,0.261h0.447l0.316-0.316l-0.068-0.056c-0.039-0.022-0.097-0.07-0.249-0.075
		c-0.118,0-0.233,0.048-0.316,0.13C12.149-1.173,12.1-1.059,12.1-0.94s0.048,0.233,0.132,0.316s0.198,0.13,0.316,0.13l0.089-0.008
		l0.059-0.017l0.023-0.008l0.059-0.025l0.051-0.022l0.004-0.001h-0.001l0.161-0.063c0.105-0.04,0.215-0.077,0.327-0.115
		c0.237-0.078,0.481-0.145,0.729-0.203c0.227-0.053,0.459-0.094,0.695-0.129L14.616-1.97l-0.074,0.011l-0.018,0.002l-0.008,0.001
		l-0.01,0.001L14.485-1.95L14.45-1.94l-0.064,0.025l-0.092,0.06l-0.086,0.1l-0.068,0.24h0.447l0.316-0.316l-0.316,0.316l0.343-0.286
		l-0.028-0.03l-0.316,0.316l0.343-0.286l-0.343,0.286l0.383-0.233L14.93-1.801l-0.343,0.286l0.382-0.233l-0.382,0.233l0.426-0.134
		l-0.045-0.099l-0.382,0.233l0.426-0.134l-0.426,0.134l0.446,0.036l-0.019-0.17l-0.426,0.134l0.446,0.036l-0.446-0.036l0.383,0.232
		l0.063-0.196l-0.446-0.036l0.383,0.232l-0.383-0.232l0.155,0.419l0.228-0.187l-0.383-0.232l0.155,0.419l-0.155-0.419v0.447
		l0.155-0.028l-0.155-0.419v0.447l0.037-0.001l0.028-0.004l0.117-0.016h0.001l0.179-0.018c0.136-0.013,0.278-0.022,0.42-0.028
		c0.115-0.005,0.232-0.007,0.348-0.007c0.127,0,0.255,0.002,0.383,0.008c0.118,0.005,0.238,0.013,0.361,0.023l0.179,0.016
		l0.091,0.011l0.057,0.007l0.022,0.002l0.011,0.001l0.008,0.002l0.04,0.001l0.069-0.005l0.105-0.03L17.259-1.3l0.057-0.217
		c0-0.118-0.045-0.206-0.08-0.256L17.09-1.906l-0.085-0.037l-0.053-0.013l-0.025-0.005l-0.082-0.012L16.72-1.088
		c0.481,0.068,0.958,0.181,1.425,0.333c0.199,0.064,0.397,0.139,0.595,0.221l0.339-0.827l-0.057-0.023l-0.021-0.008l-0.018-0.005
		L18.96-1.404l-0.029-0.007l-0.092-0.01v0.447l0.141-0.424l-0.14-0.023v0.447l0.141-0.424c-0.135-0.046-0.286-0.022-0.402,0.062
		c-0.116,0.085-0.186,0.22-0.186,0.362c0.004,0.132,0.046,0.199,0.07,0.24l0.097,0.107l0.054,0.037l0.039,0.021l0.051,0.023
		l0.161,0.07l0.308,0.151c0.369,0.188,0.726,0.409,1.067,0.654l0.093,0.069L20.39,0.44l0.022,0.016l0.012,0.008l0.014,0.01
		l0.024,0.014L20.5,0.509l0.048,0.018l0.135,0.021c0.181,0,0.344-0.109,0.413-0.275c0.069-0.167,0.03-0.359-0.098-0.487
		l-0.316,0.316l0.371-0.248l-0.056-0.068l-0.318,0.318l0.372-0.249l-0.372,0.249h0.447c-0.005-0.151-0.053-0.209-0.075-0.249
		l-0.372,0.249h0.447l-0.034-0.17l-0.057-0.099L20.997-0.21l-0.03-0.028l-0.028-0.024l-0.041-0.031l-0.549,0.705l0.263,0.215
		c0.157,0.132,0.309,0.274,0.459,0.421c0.146,0.144,0.287,0.296,0.426,0.454l0.219,0.261l0.039,0.049l0.023,0.03l0.008,0.011
		l0.005,0.007l0.007,0.008l0.013,0.014l0.025,0.025l0.043,0.035l0.063,0.037c0.034,0.013,0.08,0.042,0.196,0.045
		c0.208,0,0.388-0.142,0.435-0.344c0.048-0.202-0.05-0.409-0.235-0.502l-0.198,0.4l0.268-0.357L22.34,1.179l-0.2,0.4l0.268-0.357
		L22.14,1.578l0.349-0.279l-0.081-0.078L22.14,1.578l0.349-0.279L22.14,1.578l0.408-0.181l-0.059-0.098L22.14,1.578l0.408-0.181
		L22.14,1.578h0.447l-0.039-0.181L22.14,1.578h0.447l-0.018-0.126L22.54,1.379l-0.029-0.05L22.498,1.31L22.44,1.236L21.73,1.78
		l0.101,0.136c0.245,0.333,0.465,0.691,0.662,1.063c0.097,0.182,0.186,0.373,0.27,0.569l0.82-0.356l-0.025-0.056l-0.008-0.02
		l-0.007-0.021l-0.017-0.029l-0.034-0.048L23.43,2.955l-0.085-0.056l-0.2-0.046L22.946,2.9l-0.127,0.094
		c-0.047,0.051-0.118,0.15-0.121,0.304l0.007,0.083l0.016,0.062l0.013,0.034l0.045,0.11l0.035,0.086
		c0.041,0.105,0.08,0.214,0.117,0.326c0.136,0.402,0.239,0.82,0.314,1.246l0.018,0.121l0.011,0.074l0.004,0.028l0.004,0.017
		l0.005,0.022l0.012,0.04l0.03,0.068l0.068,0.093L23.5,5.789l0.223,0.059c0.135,0.002,0.262-0.071,0.316-0.13l0.092-0.132
		l0.033-0.105l0.007-0.072V5.402L24.169,5.36l-0.012-0.09l-0.886,0.117c0.016,0.115,0.028,0.234,0.037,0.356
		c0.022,0.238,0.03,0.481,0.03,0.726c0.006,0.685,0.557,1.241,1.246,1.245c0.686-0.005,1.241-0.553,1.246-1.244h-0.08h0.08h-0.08
		h0.08l-0.414-0.001l0.414,0.019V6.471L25.416,6.47l0.414,0.019V6.478V6.466c-0.008-2.328-0.817-4.533-2.249-6.346
		c-1.368-1.732-3.35-2.958-5.479-3.474c-0.767-0.186-1.552-0.277-2.333-0.277c-1.538,0-3.067,0.351-4.466,1.018
		C9.324-1.67,7.686-0.025,6.708,1.923C6.174,2.986,5.858,4.107,5.705,5.27C5.654,5.66,5.631,6.05,5.631,6.437
		c0,0.689,0.071,1.37,0.181,2.039c0.347,2.113,1.205,4.163,2.368,5.937c1.133,1.723,2.665,3.354,4.637,4.231
		c0.916,0.406,1.903,0.654,2.928,0.654l0.158-0.001c1.083-0.028,2.112-0.334,3.054-0.798c1.944-0.959,3.433-2.654,4.53-4.406
		c1.122-1.793,1.923-3.857,2.217-5.968c0.075-0.542,0.128-1.092,0.13-1.655V6.467V6.463l-0.319,0.002h0.319V6.463l-0.319,0.002
		h0.319c-0.005-0.689-0.56-1.239-1.246-1.245c-0.689,0.005-1.241,0.559-1.246,1.246L23.786,6.467l0.447,0.001l0.106-0.249
		l0.246-0.105l0.248,0.105l0.105,0.245V6.47l0.319-0.002h-0.319V6.47l0.319-0.002h-0.319V6.466
		c-0.001,0.507-0.051,1.018-0.122,1.535c-0.273,1.969-1.028,3.923-2.089,5.617c-1.041,1.666-2.44,3.231-4.167,4.078
		c-0.852,0.419-1.754,0.683-2.682,0.706l-0.135,0.001c-0.88,0-1.742-0.213-2.566-0.577c-1.747-0.773-3.182-2.272-4.251-3.905
		c-1.101-1.677-1.911-3.621-2.234-5.59c-0.104-0.636-0.169-1.27-0.169-1.896c0-0.351,0.021-0.702,0.066-1.049
		C6.733,4.308,7.021,3.29,7.505,2.325c0.887-1.77,2.394-3.279,4.18-4.13c1.28-0.611,2.678-0.932,4.081-0.932
		c0.712,0,1.426,0.083,2.126,0.251c1.938,0.467,3.756,1.596,4.988,3.159c1.315,1.668,2.049,3.673,2.058,5.796l0.447-0.001
		l-0.447-0.021v0.021v0.004l-0.105,0.245l-0.248,0.106l-0.249-0.106L24.23,6.468c-0.001-0.264-0.01-0.532-0.034-0.803
		c-0.012-0.128-0.025-0.261-0.042-0.394l-0.886,0.117l0.007,0.053l0.001,0.008l0.249-0.028l-0.25,0.023V5.45l0.249-0.028
		l-0.25,0.023l0.424-0.039h-0.424l0.001,0.039l0.424-0.039h-0.425h0.441l-0.441-0.017v0.016h0.441l-0.441-0.016l0.447,0.016
		l-0.441-0.07l-0.006,0.054l0.447,0.016l-0.441-0.07l0.442,0.07l-0.409-0.177l-0.031,0.109l0.442,0.07L23.315,5.23l0.409,0.177
		L23.408,5.09l-0.094,0.138l0.409,0.177l-0.316-0.316l0.316,0.316V4.958c-0.135-0.002-0.262,0.071-0.316,0.13l0.316,0.316V4.958
		v0.447l0.223-0.388l-0.223-0.059v0.447l0.223-0.388l-0.223,0.388l0.371-0.25l-0.147-0.138l-0.223,0.388l0.371-0.25l-0.371,0.25
		l0.419-0.156l-0.048-0.094l-0.371,0.25l0.419-0.156l-0.415,0.155l0.43-0.107L24.144,5.25l-0.415,0.155l0.43-0.107l-0.376,0.093
		l0.383-0.068L24.16,5.296L23.783,5.39l0.383-0.068L24.148,5.22l-0.019-0.127c-0.081-0.464-0.194-0.926-0.348-1.379
		c-0.04-0.118-0.083-0.239-0.129-0.361l-0.051-0.127l-0.025-0.063l-0.007-0.016l-0.147,0.058l0.149-0.054L23.57,3.147l-0.147,0.058
		l0.149-0.054l-0.374,0.136l0.379-0.122L23.57,3.152l-0.374,0.136l0.379-0.122L23.158,3.3l0.423-0.11l-0.007-0.024L23.157,3.3
		l0.423-0.11l-0.431,0.112l0.437-0.082l-0.007-0.03l-0.431,0.112l0.437-0.082l-0.44,0.083h0.447L23.585,3.22l-0.44,0.083h0.447
		h-0.447l0.327,0.304c0.047-0.051,0.118-0.15,0.121-0.304h-0.447l0.327,0.304l-0.327-0.304l0.15,0.421l0.177-0.116l-0.327-0.304
		l0.15,0.421l-0.15-0.421v0.447l0.15-0.025l-0.15-0.421v0.447V3.305l-0.197,0.398l0.199,0.047V3.304l-0.199,0.4l0.199-0.4
		l-0.324,0.308l0.124,0.092l0.199-0.4l-0.324,0.308l0.322-0.308l-0.373,0.244l0.051,0.064l0.322-0.308l-0.373,0.244l0.362-0.237
		l-0.388,0.191l0.025,0.045l0.362-0.237l-0.388,0.191l0.274-0.135l-0.278,0.129l0.004,0.006l0.274-0.135l-0.278,0.129l0.001,0.002
		l0.022,0.05l0.82-0.356c-0.092-0.21-0.191-0.421-0.299-0.629c-0.214-0.406-0.456-0.801-0.732-1.175l-0.115-0.151l-0.71,0.545
		l0.042,0.054l0.007,0.01l0.112-0.085l-0.112,0.083l0.001,0.001l0.112-0.085l-0.112,0.083l0.328-0.24l-0.333,0.234l0.005,0.007
		l0.328-0.24l-0.333,0.234l0.361-0.254l-0.372,0.239l0.01,0.014l0.361-0.254l-0.372,0.239l0.376-0.24L21.75,1.798l0.016,0.025
		l0.376-0.24L21.75,1.798l0.391-0.215l-0.41,0.177L21.75,1.8l0.391-0.215L21.73,1.761l0.412-0.176l-0.429,0.127l0.017,0.049
		l0.412-0.176l-0.43,0.122l0.429-0.127h-0.447l0.018,0.127l0.429-0.127h-0.447l0.039,0.181l0.097,0.138l0.112,0.08l0.199-0.4V1.132
		v0.447l0.196-0.402c-0.034-0.013-0.08-0.042-0.196-0.045v0.447l0.196-0.402l-0.196,0.402l0.286-0.344l-0.091-0.058L22.14,1.579
		l0.286-0.344L22.14,1.578l0.322-0.309l-0.036-0.034L22.14,1.578l0.322-0.309l-0.318,0.304l0.338-0.28L22.461,1.27l-0.318,0.304
		l0.338-0.28l-0.243,0.202l0.246-0.197L22.48,1.294l-0.243,0.202l0.246-0.197l-0.034-0.042l-0.043-0.054l-0.242-0.289
		c-0.15-0.17-0.307-0.338-0.472-0.501c-0.162-0.158-0.33-0.315-0.507-0.465L20.894-0.29L20.35,0.414l0.041,0.033l0.005,0.004
		l0.219-0.267l-0.225,0.26l0.008,0.007l0.219-0.267L20.39,0.445l0.284-0.327l-0.302,0.31l0.018,0.017l0.284-0.327l-0.302,0.31
		l0.31-0.319l-0.341,0.287l0.029,0.031l0.31-0.319l-0.339,0.287l0.341-0.289l-0.378,0.237l0.037,0.051l0.341-0.289l-0.378,0.237
		l0.378-0.238l-0.413,0.173l0.034,0.068l0.378-0.238l-0.412,0.17l0.413-0.17h-0.447l0.034,0.17l0.413-0.17h-0.447
		c0.005,0.151,0.053,0.209,0.075,0.249l0.056,0.068l0.316-0.316v-0.447v0.447l0.135-0.426L20.682-0.34v0.447l0.135-0.426
		l-0.135,0.426l0.206-0.396l-0.071-0.029l-0.135,0.426l0.206-0.396L20.687,0.1l0.245-0.363l-0.043-0.025L20.687,0.1l0.245-0.363
		l-0.167,0.248l0.175-0.242l-0.007-0.006l-0.167,0.248l0.175-0.242L20.859-0.32l-0.097-0.072c-0.373-0.267-0.766-0.512-1.181-0.723
		c-0.11-0.057-0.223-0.112-0.342-0.167l-0.126-0.056L19.05-1.366l-0.014-0.006l-0.097,0.209l0.103-0.206l-0.006-0.004l-0.097,0.209
		l0.103-0.206l-0.188,0.372L19.06-1.36l-0.021-0.011l-0.186,0.373l0.206-0.362L18.84-0.974l0.256-0.362L19.059-1.36L18.84-0.975
		l0.256-0.361L18.84-0.973l0.315-0.316l-0.057-0.047L18.84-0.973l0.315-0.316L18.84-0.973l0.377-0.24l-0.062-0.075L18.84-0.972
		l0.377-0.24l-0.377,0.24h0.447c-0.004-0.132-0.046-0.199-0.07-0.24l-0.377,0.24h0.447H18.84l-0.141,0.424l0.141,0.023v-0.447
		l-0.092,0.437l0.092,0.01v-0.447l-0.092,0.437l0.089-0.425l-0.143,0.41l0.056,0.016l0.089-0.425L18.696-0.55l0.075-0.215
		l-0.083,0.213l0.007,0.002l0.075-0.215l-0.083,0.211l0.052,0.021l0.339-0.827c-0.214-0.088-0.432-0.17-0.659-0.244
		c-0.511-0.165-1.038-0.293-1.577-0.367L16.72-1.085l0.063,0.008l0.01,0.001l0.042-0.269l-0.047,0.268l0.005,0.001l0.042-0.269
		l-0.047,0.268l0.074-0.419L16.771-1.08l0.017,0.004l0.074-0.419l-0.09,0.415l0.093-0.435l-0.127,0.426l0.033,0.008l0.093-0.435
		L16.737-1.09l0.127-0.429l-0.186,0.406l0.059,0.022l0.127-0.429l-0.186,0.406l0.186-0.406l-0.275,0.351l0.089,0.054l0.186-0.406
		L16.589-1.17l0.275-0.351l-0.367,0.256l0.091,0.097l0.275-0.351l-0.367,0.256l0.367-0.256h-0.447c0,0.118,0.045,0.206,0.08,0.256
		l0.367-0.256h-0.447h0.447l-0.406-0.186l-0.039,0.186h0.447l-0.406-0.186l0.406,0.186l-0.274-0.354l-0.132,0.167l0.406,0.186
		l-0.274-0.354l0.274,0.354l-0.083-0.44l-0.191,0.086l0.274,0.354l-0.083-0.44l0.083,0.44v-0.446l-0.083,0.007l0.083,0.44v-0.447
		v0.437l0.037-0.435l-0.037-0.002v0.437l0.037-0.435l-0.025,0.29l0.033-0.289l-0.007-0.001l-0.025,0.29l0.033-0.289l-0.082-0.011
		l-0.1-0.012l-0.198-0.019c-0.129-0.011-0.263-0.021-0.4-0.025c-0.138-0.005-0.278-0.008-0.418-0.008
		c-0.129,0-0.258,0.002-0.389,0.008c-0.152,0.007-0.307,0.017-0.465,0.031l-0.196,0.021h0.001l-0.082,0.011l-0.037,0.005
		L14.534-1.96l0.008,0.062L14.534-1.96l0.008,0.062L14.535-1.96l0.045,0.376L14.541-1.96h-0.006l0.045,0.376L14.541-1.96l0.045,0.43
		L14.55-1.961L14.54-1.96l0.045,0.43l-0.036-0.431l0.036,0.443v-0.446l-0.036,0.001l0.036,0.443v-0.444L14.42-1.931l-0.211,0.175
		L14.14-1.524c0.001,0.115,0.03,0.168,0.046,0.205l0.057,0.088l0.028,0.03c0.128,0.128,0.32,0.167,0.487,0.097
		s0.275-0.232,0.275-0.413h-0.447l0.378,0.239l0.069-0.239h-0.447l0.378,0.239l-0.378-0.239l0.237,0.379l0.141-0.14l-0.378-0.239
		l0.237,0.379l-0.237-0.379l0.147,0.423l0.089-0.042l-0.237-0.379l0.147,0.423l-0.147-0.421l0.104,0.435L14.73-1.09l-0.147-0.421
		l0.104,0.435l-0.1-0.429l0.076,0.431l0.027-0.005l-0.103-0.426l0.076,0.431l-0.051-0.289l0.046,0.29l0.005-0.001l-0.051-0.289
		l0.046,0.29l0.086-0.012l-0.13-0.885c-0.255,0.037-0.512,0.083-0.769,0.144c-0.272,0.064-0.541,0.136-0.81,0.226
		c-0.118,0.039-0.24,0.081-0.362,0.127l-0.18,0.069l0.001-0.001l-0.075,0.031L12.385-1.36l-0.008,0.004l0.059,0.141l-0.057-0.142
		h-0.001l0.058,0.142l-0.057-0.142l0.151,0.376l-0.142-0.378L12.38-1.355l0.151,0.376l-0.142-0.379l0.156,0.412l-0.14-0.418
		l-0.016,0.005l0.156,0.412l-0.14-0.418l0.141,0.423l-0.118-0.43l-0.024,0.007l0.141,0.423l-0.118-0.43l0.118,0.431l-0.086-0.437
		l-0.03,0.007l0.118,0.431l-0.088-0.438l0.088,0.438v-0.45l-0.088,0.008l0.088,0.438V-1.39c-0.118,0-0.233,0.048-0.316,0.13
		c-0.083,0.083-0.13,0.198-0.13,0.316s0.048,0.233,0.13,0.316c0.083,0.083,0.198,0.13,0.316,0.13v-0.447l-0.249,0.372
		c0.039,0.022,0.097,0.07,0.249,0.075v-0.447l-0.249,0.372l0.249-0.372L12.23-0.626l0.068,0.056l0.249-0.372L12.23-0.626
		c0.128,0.128,0.32,0.167,0.487,0.097c0.167-0.069,0.275-0.232,0.275-0.413h-0.447l0.363,0.261c0.024-0.04,0.078-0.103,0.085-0.261
		h-0.447l0.363,0.261l-0.363-0.261l0.269,0.357l0.094-0.097l-0.363-0.261l0.269,0.357l-0.269-0.356l0.221,0.389l0.048-0.031
		L12.546-0.94l0.221,0.389L12.55-0.934l0.188,0.397l0.029-0.016L12.55-0.936l0.188,0.397l-0.136-0.289l0.13,0.291l0.006-0.002
		l-0.136-0.289l0.13,0.291l0.076-0.034l-0.356-0.82c-0.481,0.209-0.948,0.455-1.391,0.746c-0.121,0.078-0.242,0.161-0.363,0.249
		l-0.152,0.112l-0.033,0.028L10.51-0.253l0.127,0.173l-0.122-0.176l-0.004,0.004l0.127,0.173l-0.122-0.176l0.235,0.342l-0.22-0.351
		l-0.019,0.011l0.235,0.342l-0.22-0.351l0.234,0.376l-0.205-0.391L10.527-0.26l0.234,0.376L10.557-0.28l0.208,0.392l-0.164-0.414
		l-0.042,0.019l0.208,0.395l-0.164-0.414l0.165,0.415l-0.115-0.431L10.603-0.3l0.165,0.415l-0.115-0.431l0.116,0.431v-0.447
		l-0.116,0.016l0.116,0.431v-0.447v0.447l0.264-0.36l-0.268-0.088v0.447l0.264-0.36l-0.262,0.359l0.398-0.202l-0.134-0.158
		l-0.264,0.36l0.398-0.202l-0.398,0.202l0.443-0.06l-0.045-0.141l-0.398,0.202l0.443-0.06l-0.443,0.06l0.447-0.007L11.21,0.054
		l-0.444,0.06l0.447-0.007l-0.447,0.007h0.447V0.105l-0.447,0.007h0.447h-0.447l0.418,0.161l0.03-0.161h-0.447l0.418,0.161
		l-0.418-0.161l0.362,0.262l0.054-0.101l-0.417-0.161l0.362,0.262L10.77,0.113l0.32,0.31l0.041-0.048L10.77,0.113l0.32,0.31
		l-0.307-0.297l0.278,0.325l0.03-0.028l-0.307-0.297l0.278,0.325l-0.179-0.21l0.175,0.214l0.005-0.004l-0.179-0.21l0.175,0.214
		l0.03-0.024l0.016-0.012l-0.019-0.025l0.019,0.027l-0.019-0.025l0.019,0.027L10.88,0.115l0.215,0.315l0.008-0.008L10.88,0.111
		l0.214,0.316L10.85,0.065l0.222,0.376l0.022-0.013L10.85,0.065l0.222,0.376l-0.227-0.383l0.191,0.402l0.036-0.019l-0.227-0.383
		l0.19,0.402l-0.191-0.403l0.144,0.423l0.048-0.019l-0.191-0.403l0.144,0.423l-0.144-0.423v0.447l0.144-0.024l-0.144-0.423v0.447
		V0.057l-0.235,0.38c0.041,0.021,0.088,0.06,0.235,0.068V0.058L10.61,0.437l0.235-0.38l-0.347,0.281l0.112,0.098l0.235-0.38
		l-0.347,0.281l0.347-0.281L10.44,0.259l0.051,0.08l0.347-0.281L10.44,0.26l0.398-0.203h-0.447c0.002,0.112,0.03,0.164,0.048,0.203
		l0.398-0.203H10.39h0.447l-0.394-0.209c-0.013,0.034-0.047,0.076-0.052,0.21h0.447l-0.395-0.21l0.394,0.209L10.5-0.235
		l-0.057,0.083l0.394,0.209L10.5-0.235l0.333,0.29L10.53-0.268l-0.029,0.031l0.333,0.29L10.53-0.268l0.248,0.26l-0.231-0.274
		L10.53-0.268l0.248,0.261l-0.231-0.275L10.51-0.253c-0.193,0.155-0.384,0.318-0.569,0.491C9.746,0.423,9.554,0.615,9.372,0.82
		L9.126,1.105L9.008,1.251L8.98,1.285L8.979,1.287l0.174,0.144l-0.17-0.147L8.979,1.287l0.174,0.144l-0.17-0.147l0.316,0.274
		L8.997,1.269L8.983,1.284l0.316,0.274L8.997,1.269l0.32,0.307L9.025,1.243L8.997,1.269l0.32,0.307L9.025,1.243L9.32,1.578
		L9.072,1.207L9.025,1.243L9.32,1.578L9.072,1.207L9.32,1.578L9.137,1.17L9.072,1.207L9.32,1.578L9.137,1.17L9.32,1.578V1.13
		L9.137,1.169L9.32,1.577V1.13v0.447L9.524,1.18L9.32,1.13v0.447L9.524,1.18L9.32,1.577l0.355-0.272L9.524,1.18L9.32,1.577
		l0.355-0.272L9.32,1.577l0.437-0.093l-0.083-0.18L9.318,1.576l0.437-0.093L9.318,1.576h0.447l-0.01-0.093L9.318,1.576h0.447H9.317
		L9.74,1.723l0.025-0.147H9.318l0.423,0.147L9.32,1.576l0.391,0.215l0.03-0.068L9.32,1.576l0.391,0.215L9.335,1.586l0.353,0.245
		l0.024-0.039L9.335,1.586l0.353,0.245L9.454,1.668l0.231,0.168l0.004-0.005L9.454,1.668l0.231,0.168l0.023-0.03L9.719,1.79
		L9.692,1.768L9.72,1.791L9.692,1.768L9.72,1.791L9.421,1.547L9.71,1.802l0.008-0.01L9.42,1.548l0.289,0.255L9.38,1.513l0.309,0.31
		l0.019-0.021L9.38,1.513l0.309,0.31L9.375,1.508l0.278,0.348l0.036-0.033L9.375,1.508l0.278,0.348L9.374,1.507l0.222,0.388
		l0.057-0.039L9.374,1.507l0.222,0.388L9.374,1.507l0.155,0.419l0.068-0.033L9.374,1.506l0.155,0.419l-0.155-0.42v0.447L9.53,1.924
		l-0.155-0.42V1.95V1.505L9.059,1.821l0.316-0.316L9.026,1.784L9.06,1.82l0.316-0.316l-0.349,0.28l0.349-0.279L8.988,1.727
		l0.039,0.058l0.349-0.279l-0.39,0.222l0.389-0.222H8.927c0.006,0.147,0.045,0.187,0.059,0.222l0.389-0.222H8.927h0.447L8.948,1.37
		L8.926,1.506h0.447L8.947,1.37l0.425,0.136L8.979,1.297L8.95,1.367l0.425,0.136L8.979,1.297l0.385,0.2L9.003,1.255L8.979,1.297
		l0.385,0.2L9.003,1.255L8.979,1.287C8.668,1.704,8.385,2.148,8.144,2.618C8.078,2.747,8.012,2.88,7.95,3.018L7.873,3.193
		l0.822,0.35l0.028-0.064l0.005-0.012L8.375,3.309l0.351,0.162l0.002-0.005L8.375,3.308L8.726,3.47L8.328,3.286L8.72,3.482
		l0.005-0.011L8.327,3.287l0.394,0.194l-0.4-0.198l0.389,0.22l0.012-0.022L8.321,3.283l0.389,0.22l-0.389-0.22L8.686,3.54
		L8.71,3.503l-0.389-0.22L8.686,3.54L8.321,3.283L8.64,3.597L8.687,3.54L8.321,3.282L8.64,3.596L8.321,3.282l0.243,0.376L8.64,3.596
		L8.321,3.282l0.243,0.376L8.321,3.282v0.447c0.135-0.004,0.202-0.048,0.243-0.071L8.321,3.282v0.447V3.282L8.234,3.72l0.088,0.008
		V3.282L8.234,3.72l0.088-0.438L8.069,3.65l0.167,0.071l0.088-0.438L8.068,3.649l0.255-0.367L7.937,3.509l0.13,0.14l0.255-0.367
		L7.937,3.509l0.385-0.228H7.876l0.063,0.228l0.385-0.228H7.877h0.447L7.886,3.184l-0.01,0.097h0.447L7.886,3.184L8.321,3.28
		l-0.42-0.147L7.885,3.186L8.32,3.281L7.901,3.132l0.378,0.135l-0.372-0.15L7.901,3.132L8.28,3.268L7.907,3.117l-0.021,0.05
		L7.859,3.236C7.766,3.471,7.679,3.713,7.604,3.96c-0.08,0.266-0.152,0.536-0.208,0.814C7.371,4.899,7.345,5.028,7.325,5.16
		l-0.03,0.194L8.18,5.477l0.01-0.072L8.192,5.39L7.818,5.334l0.373,0.062L8.192,5.39L7.818,5.334l0.373,0.062l-0.432-0.07
		L8.19,5.409l0.001-0.011L7.758,5.325l0.431,0.083L7.751,5.324L8.185,5.43L8.19,5.408L7.751,5.324L8.185,5.43L7.75,5.324l0.423,0.15
		l0.012-0.042L7.75,5.325l0.423,0.149L7.75,5.325l0.389,0.221l0.034-0.072L7.75,5.325l0.389,0.221L7.75,5.325l0.316,0.316
		l0.072-0.095L7.75,5.325l0.316,0.316L7.75,5.325l0.211,0.394l0.105-0.077L7.75,5.325l0.211,0.394L7.75,5.325v0.447l0.211-0.053
		L7.75,5.325v0.447V5.325L7.592,5.742l0.159,0.029V5.324L7.592,5.742l0.159-0.418L7.413,5.616l0.178,0.126L7.75,5.324L7.412,5.616
		L7.75,5.324H7.303C7.302,5.437,7.354,5.551,7.412,5.616L7.75,5.324H7.303h0.446L7.306,5.287L7.304,5.325H7.75L7.306,5.287H7.31
		L7.306,5.285H7.31H7.306L7.29,5.406C7.251,5.762,7.23,6.123,7.23,6.483c0,0.167,0.005,0.333,0.013,0.5
		c0.013,0.25,0.034,0.502,0.065,0.755l0.01,0.078l0.005,0.035l0.002,0.01v0.001l0.278-0.039L7.325,7.86v0.001l0.278-0.039
		L7.325,7.858l0.419-0.056L7.325,7.857v0.004l0.419-0.056L7.325,7.857l0.44-0.054l-0.44,0.048l0.001,0.006l0.44-0.054L7.325,7.851
		l0.443-0.047L7.325,7.842l0.001,0.01l0.443-0.047L7.325,7.843L7.77,7.804H7.324l0.001,0.039L7.77,7.804H7.324l0.047,0.199
		l0.4-0.199V7.352v0.447L8,7.415L7.77,7.352v0.447L8,7.415L7.77,7.799l0.374-0.245L8,7.415L7.77,7.799l0.374-0.245L7.77,7.799
		l0.42-0.152L8.145,7.555L7.77,7.8l0.42-0.152L7.77,7.8l0.436-0.106L8.192,7.648L7.772,7.8l0.435-0.106L7.773,7.8l0.44-0.076
		l-0.006-0.03L7.773,7.8l0.44-0.076L7.791,7.797l0.418-0.063V7.723L7.792,7.796L8.21,7.733L8.196,7.63L7.31,7.757l0.027,0.176
		c0.018,0.117,0.037,0.235,0.06,0.355c0.192,1.021,0.497,2.02,0.9,2.975l0.823-0.348l-0.023-0.054l-0.005-0.01l-0.22,0.089
		l0.221-0.086L9.092,10.85l-0.22,0.089l0.221-0.086l-0.389,0.151l0.394-0.14l-0.004-0.011l-0.389,0.151l0.394-0.14l-0.417,0.149
		l0.423-0.129L9.1,10.866l-0.415,0.15l0.423-0.129l-0.426,0.13l0.433-0.103l-0.007-0.028l-0.425,0.129l0.433-0.103l-0.435,0.103
		h0.447l-0.012-0.103l-0.435,0.103h0.447c0-0.118-0.048-0.233-0.13-0.316s-0.199-0.13-0.316-0.13s-0.233,0.048-0.316,0.13
		c-0.083,0.083-0.132,0.198-0.132,0.316l0.047,0.199l0.152,0.173l0.25,0.075v-0.447l-0.251,0.369
		c0.04,0.024,0.106,0.074,0.251,0.077v-0.447l-0.251,0.369l0.251-0.369L8.328,11.29l0.101,0.095l0.251-0.369L8.327,11.29
		l0.354-0.274l-0.388,0.223l0.034,0.051l0.354-0.274l-0.388,0.223l0.379-0.219l-0.4,0.19l0.017,0.031l0.379-0.219L8.274,11.21
		l0.244-0.115l-0.246,0.11l0.002,0.005l0.244-0.115l-0.246,0.11l0.034,0.076l0.037,0.086l0.078,0.174
		c0.053,0.115,0.106,0.231,0.164,0.347c0.112,0.228,0.228,0.456,0.354,0.681c0.255,0.462,0.533,0.916,0.839,1.354
		c0.083,0.118,0.169,0.239,0.258,0.359l0.114,0.151l0.708-0.546l-0.041-0.053l-0.007-0.01l-0.153,0.116l0.156-0.113l-0.001-0.002
		l-0.153,0.116l0.156-0.113l-0.333,0.245l0.339-0.237l-0.006-0.008l-0.333,0.245l0.339-0.237l-0.363,0.252l0.374-0.234l-0.011-0.018
		l-0.363,0.252l0.374-0.234l-0.378,0.237l0.395-0.206l-0.017-0.03l-0.378,0.237l0.395-0.206l-0.396,0.208l0.415-0.164l-0.019-0.043
		l-0.396,0.208l0.415-0.164l-0.415,0.164H10.9c-0.004-0.114-0.024-0.138-0.031-0.164l-0.415,0.164h0.447
		c0-0.118-0.048-0.233-0.13-0.316c-0.083-0.083-0.198-0.13-0.316-0.13s-0.233,0.048-0.316,0.13c-0.083,0.083-0.13,0.198-0.13,0.316
		l0.047,0.199l0.152,0.173l0.249,0.075V14.09l-0.185,0.407l0.185,0.04V14.09l-0.185,0.407l0.185-0.407l-0.279,0.35l0.094,0.058
		l0.185-0.407l-0.279,0.35l0.279-0.35l-0.319,0.313l0.04,0.036l0.279-0.35l-0.319,0.313l0.314-0.308l-0.337,0.284l0.023,0.025
		l0.314-0.308l-0.337,0.284l0.249-0.21l-0.254,0.205l0.004,0.005l0.249-0.21l-0.254,0.205l0.034,0.042l0.042,0.053
		c0.155,0.193,0.315,0.384,0.484,0.571c0.338,0.374,0.702,0.734,1.095,1.065l0.186,0.152l0.062,0.047l0.028,0.022l0.007,0.006
		l0.051-0.064l-0.051,0.064l0.051-0.064l-0.051,0.064l0.248-0.314l-0.252,0.309l0.005,0.005l0.248-0.314l-0.252,0.309l0.279-0.342
		l-0.29,0.332l0.011,0.008l0.279-0.342l-0.29,0.332l0.293-0.336l-0.313,0.319l0.019,0.018l0.293-0.336L12.012,16.3l0.313-0.319
		l-0.344,0.286l0.03,0.034l0.313-0.319l-0.345,0.284l0.344-0.286l-0.382,0.232l0.039,0.054l0.344-0.286l-0.382,0.232l0.382-0.232
		l-0.415,0.164l0.034,0.064l0.382-0.232L11.91,16.14l0.415-0.164h-0.447l0.031,0.164l0.415-0.164h-0.447l0.047,0.199l0.4-0.199
		v-0.447v0.447l0.144-0.423l-0.144-0.024v0.447l0.144-0.423l-0.144,0.423l0.211-0.394l-0.068-0.029l-0.144,0.423l0.211-0.394
		l-0.211,0.392l0.251-0.368l-0.04-0.025l-0.211,0.392l0.251-0.368l-0.222,0.325l0.234-0.316l-0.012-0.008l-0.222,0.325l0.234-0.316
		l-0.071-0.054l-0.54,0.714l0.287,0.211c0.191,0.132,0.388,0.262,0.594,0.382c0.214,0.123,0.436,0.243,0.67,0.348l0.158,0.07
		l0.349-0.823l-0.076-0.033l-0.013-0.006l-0.065,0.15l0.068-0.149l-0.002-0.001l-0.065,0.15l0.068-0.149l-0.17,0.376l0.181-0.371
		l-0.011-0.005l-0.17,0.376l0.181-0.371l-0.197,0.397l0.217-0.385l-0.022-0.012l-0.196,0.397l0.217-0.385l-0.22,0.389l0.258-0.363
		l-0.039-0.025l-0.22,0.389l0.258-0.363l-0.258,0.365l0.316-0.315l-0.058-0.049l-0.258,0.365l0.316-0.315l-0.316,0.315l0.379-0.238
		l-0.062-0.077l-0.316,0.315l0.379-0.238l-0.379,0.238h0.447c-0.002-0.129-0.045-0.196-0.068-0.238l-0.379,0.238h0.447h-0.447
		l-0.316,0.316l0.068,0.056c0.039,0.022,0.097,0.07,0.249,0.075v-0.447l-0.104,0.435l0.104,0.012v-0.447l-0.104,0.435l0.103-0.431
		l-0.151,0.417l0.048,0.014l0.103-0.431l-0.151,0.417l0.001-0.005l-0.002,0.005l0.001-0.005l-0.002,0.005l0.099,0.04
		c0.103,0.04,0.211,0.08,0.324,0.117c0.232,0.076,0.47,0.144,0.718,0.193c0.109,0.022,0.221,0.043,0.338,0.059l0.127-0.885
		l-0.068-0.01l-0.007-0.001h-0.001l-0.053,0.312l0.065-0.309l-0.012-0.002l-0.053,0.312l0.065-0.309l-0.088,0.423l0.12-0.414
		l-0.031-0.007l-0.089,0.423l0.12-0.414l-0.123,0.427l0.181-0.406l-0.059-0.022l-0.123,0.427l0.175-0.41l-0.182,0.408l0.272-0.355
		L15.23,16.8l-0.182,0.408l0.272-0.355l-0.272,0.355l0.363-0.26l-0.092-0.095l-0.272,0.355l0.363-0.26l-0.363,0.26h0.447
		c0-0.121-0.047-0.21-0.083-0.26l-0.363,0.26h0.447h-0.447l0.38,0.234l0.066-0.234h-0.447l0.38,0.234l-0.38-0.234l0.179,0.409
		c0.043-0.022,0.123-0.054,0.203-0.176l-0.38-0.234l0.179,0.409l-0.179-0.409L15.1,17.65l0.127-0.034l-0.179-0.409l0.051,0.443
		l-0.051-0.441v0.443l0.051-0.004l-0.051-0.441v0.443v-0.4l-0.035,0.398l0.035,0.001v-0.4l-0.035,0.398l0.115,0.013l0.136,0.014
		c0.156,0.012,0.313,0.018,0.472,0.018l0.281-0.007c0.111-0.006,0.226-0.013,0.345-0.028l0.083-0.011l0.034-0.005l0.011-0.001
		l0.004-0.001h0.005l0.007-0.001l0.013-0.002l0.025-0.006l0.047-0.016l0.077-0.04l0.093-0.081l-0.336-0.295H15.98
		c0.005,0.151,0.053,0.209,0.075,0.249l0.056,0.068l0.316-0.316v-0.447l-0.043,0.002l-0.017,0.001l-0.123,0.019l0.135,0.884
		l0.169-0.028c0.24-0.045,0.483-0.1,0.723-0.174c0.106-0.033,0.215-0.068,0.326-0.109l0.161-0.06l0.071-0.029l0.03-0.012
		l0.007-0.002l-0.094-0.232l0.091,0.233l0.004-0.001l-0.094-0.232l0.091,0.233L17.71,16.86l0.141,0.392l0.011-0.004L17.71,16.86
		l0.141,0.392l-0.15-0.415l0.132,0.423l0.019-0.006l-0.15-0.415l0.13,0.423L17.7,16.836l0.105,0.433l0.027-0.007L17.7,16.836
		l0.105,0.433L17.7,16.834v0.447l0.105-0.013L17.7,16.833v0.447v-0.447l-0.199,0.4l0.199-0.4l-0.268,0.357l0.068,0.042l0.199-0.4
		l-0.268,0.357l0.268-0.357l-0.349,0.279l0.081,0.078l0.268-0.357l-0.349,0.279l0.349-0.279l-0.408,0.181l0.059,0.098l0.349-0.279
		l-0.408,0.181l0.408-0.181h-0.446l0.039,0.181l0.408-0.181h-0.447H17.7l-0.379-0.237c-0.024,0.041-0.065,0.107-0.068,0.237H17.7
		l-0.379-0.237l0.379,0.237l-0.284-0.345l-0.095,0.109l0.379,0.237l-0.284-0.345l0.284,0.345l-0.229-0.384l-0.054,0.039l0.284,0.345
		l-0.229-0.384l0.226,0.378l-0.19-0.397l-0.035,0.019l0.226,0.378l-0.19-0.397l0.14,0.292l-0.134-0.296l-0.007,0.004l0.14,0.292
		l-0.134-0.296l-0.089,0.039l0.356,0.82c0.446-0.193,0.872-0.427,1.275-0.699c0.112-0.076,0.226-0.156,0.338-0.239h0.001
		l0.059-0.046l0.028-0.021l0.007-0.005l-0.126-0.164l0.123,0.167l0.002-0.001l-0.126-0.164l0.123,0.167l-0.245-0.333l0.238,0.339
		l0.008-0.006l-0.245-0.333l0.238,0.339l-0.254-0.362l0.237,0.373l0.017-0.011l-0.254-0.362l0.237,0.373l-0.24-0.377l0.211,0.392
		l0.028-0.017l-0.24-0.377l0.211,0.392l-0.211-0.394l0.169,0.414l0.042-0.019l-0.211-0.394l0.169,0.414l-0.171-0.418l0.12,0.431
		l0.049-0.017l-0.169-0.414l0.12,0.431l-0.12-0.431v0.447l0.12-0.017l-0.12-0.431v0.447v-0.447l-0.199,0.4l0.199-0.4l-0.268,0.357
		l0.068,0.042l0.199-0.4l-0.268,0.357l0.268-0.357l-0.349,0.279l0.081,0.078l0.268-0.357l-0.349,0.279l0.349-0.279l-0.408,0.181
		l0.059,0.098l0.349-0.279l-0.408,0.181l0.408-0.181h-0.447l0.039,0.181l0.408-0.181h-0.447h0.447l-0.403-0.191
		c-0.013,0.034-0.04,0.08-0.042,0.191h0.447l-0.404-0.191l0.404,0.191l-0.347-0.283l-0.054,0.095l0.404,0.191l-0.347-0.283
		l0.347,0.281l-0.312-0.32l-0.035,0.037l0.347,0.281l-0.312-0.32l0.307,0.315l-0.283-0.336l-0.024,0.022l0.307,0.315l-0.283-0.336
		l0.202,0.24l-0.197-0.244l-0.005,0.004l0.202,0.24l-0.197-0.244l-0.069,0.054l0.553,0.703l0.14-0.112
		c0.186-0.152,0.368-0.309,0.546-0.477c0.374-0.353,0.727-0.728,1.053-1.127l0.157-0.194l0.029-0.036l0.002-0.004l-0.274-0.227
		l0.268,0.234l0.007-0.007l-0.274-0.227l0.268,0.234l-0.327-0.286l0.313,0.303l0.016-0.017l-0.327-0.286l0.313,0.303l-0.319-0.31
		l0.29,0.338l0.029-0.028l-0.319-0.31l0.29,0.338l-0.29-0.338l0.243,0.376l0.048-0.036l-0.291-0.338l0.243,0.376l-0.243-0.376
		l0.177,0.411l0.065-0.035l-0.243-0.376l0.177,0.411l-0.177-0.411v0.447l0.177-0.036l-0.177-0.411v0.447v-0.447l-0.141,0.424
		l0.141,0.023v-0.447l-0.141,0.424l0.141-0.424l-0.158,0.418l0.017,0.006l0.141-0.424l-0.158,0.418l0.051,0.016l0.124,0.012
		l0.179-0.045l0.219-0.234l0.034-0.169c0-0.118-0.048-0.233-0.132-0.316c-0.083-0.083-0.198-0.13-0.316-0.13
		s-0.233,0.048-0.316,0.13c-0.083,0.083-0.132,0.198-0.132,0.316h0.447l-0.431-0.116l-0.016,0.116h0.447l-0.431-0.116l0.431,0.116
		l-0.389-0.219l-0.042,0.103l0.431,0.116l-0.389-0.219l0.383,0.215l-0.366-0.244l-0.019,0.03l0.383,0.215l-0.363-0.245l0.31,0.21
		l-0.304-0.22l-0.007,0.01l0.31,0.21l-0.304-0.22l0.081,0.059l-0.081-0.059v0.001l0.081,0.059l-0.081-0.059l-0.025,0.034
		L20.61,13.88l-0.001,0.001l0.283,0.227l-0.277-0.234l-0.006,0.007l0.283,0.227l-0.277-0.234l0.333,0.281l-0.319-0.296l-0.013,0.014
		l0.333,0.281l-0.319-0.296l0.326,0.303l-0.302-0.327l-0.025,0.025l0.326,0.303l-0.301-0.328l0.302,0.33l-0.257-0.365l-0.045,0.036
		l0.302,0.33L20.699,13.8l0.257,0.365l-0.194-0.402L20.699,13.8l0.257,0.365l-0.194-0.402l0.194,0.402v-0.447
		c-0.114,0.004-0.161,0.03-0.194,0.045l0.194,0.402v-0.447c-0.118,0-0.233,0.048-0.316,0.13c-0.083,0.083-0.13,0.198-0.13,0.316
		s0.048,0.233,0.13,0.316c0.083,0.083,0.198,0.13,0.316,0.13v-0.44l-0.249,0.372c0.039,0.022,0.097,0.07,0.249,0.075V14.17
		l-0.249,0.372l0.249-0.372l-0.314,0.312l0.068,0.056l0.249-0.372l-0.316,0.316c0.128,0.128,0.32,0.167,0.487,0.097
		c0.167-0.069,0.275-0.232,0.275-0.413h-0.447l0.429,0.127l0.018-0.127h-0.447l0.429,0.127l-0.429-0.127l0.4,0.199l0.029-0.074
		l-0.429-0.127l0.4,0.199l-0.397-0.198l0.369,0.246l0.028-0.048l-0.397-0.198l0.369,0.246L21,14.191l0.321,0.232l0.008-0.012
		l-0.33-0.22l0.321,0.232l0.03-0.041l0.225-0.304c0.147-0.205,0.29-0.414,0.427-0.629c0.286-0.448,0.551-0.91,0.79-1.387
		c0.123-0.245,0.242-0.496,0.354-0.752l0.03-0.071l0.014-0.034l0.004-0.008l-0.144-0.063l0.144,0.064l0.001-0.001l-0.144-0.063
		l0.144,0.064l-0.373-0.168l0.368,0.176l0.004-0.008l-0.373-0.168l0.368,0.176l-0.4-0.19l0.39,0.208l0.008-0.018l-0.4-0.19
		l0.39,0.208l-0.394-0.21l0.374,0.243l0.019-0.033l-0.394-0.21l0.374,0.243l-0.376-0.243l0.337,0.293l0.039-0.051l-0.376-0.243
		l0.337,0.293l-0.337-0.293l0.269,0.356l0.068-0.063l-0.337-0.293l0.269,0.356l-0.269-0.356l0.184,0.408l0.086-0.051l-0.269-0.356
		l0.184,0.408l-0.184-0.408v0.447l0.184-0.039l-0.184-0.408v0.447v-0.447l-0.199,0.4l0.199-0.4l-0.268,0.357l0.068,0.042l0.199-0.4
		l-0.268,0.357l0.268-0.357l-0.349,0.279l0.081,0.078l0.268-0.357l-0.349,0.279l0.349-0.279l-0.408,0.181l0.059,0.098l0.349-0.279
		l-0.408,0.181l0.408-0.181h-0.447l0.039,0.181l0.408-0.181h-0.447h0.447l-0.44-0.083l-0.008,0.083h0.447l-0.44-0.083l0.438,0.083
		l-0.423-0.144l-0.016,0.059l0.438,0.083l-0.423-0.144l0.39,0.132l-0.383-0.152l-0.007,0.021L22.743,11l-0.383-0.152l-0.001,0.004
		l-0.029,0.069l0.825,0.344l0.072-0.176c0.047-0.116,0.093-0.234,0.139-0.355c0.181-0.485,0.344-0.983,0.476-1.491
		c0.126-0.485,0.231-0.982,0.299-1.486l-0.885-0.123L23.25,7.71l-0.001,0.016l0.043,0.006l-0.043-0.007l0.043,0.006l-0.043-0.007
		l0.394,0.062l-0.393-0.07l-0.001,0.008l0.394,0.062L23.25,7.717l0.435,0.077L23.254,7.7L23.25,7.717l0.435,0.077L23.254,7.7
		l0.436,0.095l-0.427-0.129L23.254,7.7l0.436,0.095l-0.427-0.129l0.427,0.129l-0.404-0.19l-0.023,0.06l0.427,0.129l-0.404-0.19
		l0.406,0.19l-0.349-0.279l-0.056,0.089l0.406,0.19l-0.349-0.279l0.349,0.279L23.447,7.43L23.35,7.519l0.349,0.279L23.447,7.43
		l0.251,0.369V7.348c-0.115,0-0.202,0.042-0.251,0.077l0.251,0.369V7.348c-0.181,0-0.344,0.109-0.413,0.275
		c-0.069,0.167-0.03,0.359,0.097,0.487l0.03,0.028l0.053,0.039l0.099,0.045l0.17,0.019l0.196-0.063l0.187-0.228l0.028-0.155h-0.444
		l0.443,0.039l0.001-0.039h-0.444l0.443,0.039L23.777,7.8l0.367,0.045l0.001-0.012L23.778,7.8l0.367,0.045l0.022-0.169V7.675
		L24.186,7.5c0.011-0.113,0.022-0.229,0.029-0.348c0.014-0.227,0.023-0.454,0.024-0.682L23.786,6.467z"/>
	<path fill="#FFFFFF" d="M32.689,30.299c0,2.231,0,4.464,0,6.697c0,0.129,0,0.257,0,0.385c0.266-0.266,0.534-0.534,0.799-0.799
		c-0.925,0-1.851,0-2.776,0c-2.298,0-4.594,0-6.892,0c-2.953,0-5.907,0-8.859,0c-2.892,0-5.785,0-8.677,0c-2.115,0-4.23,0-6.345,0
		c-0.651,0-1.303,0-1.954,0c0.266,0.266,0.534,0.534,0.799,0.799c0-2.231,0-4.464,0-6.697c0-0.49,0.007-0.977,0.064-1.463
		c0.025-0.213-0.025,0.176,0.004-0.036L-1.119,29c0.021-0.123,0.043-0.245,0.069-0.366c0.054-0.261,0.122-0.519,0.199-0.775
		c0.07-0.233,0.152-0.464,0.24-0.691c0.013-0.034,0.093-0.225,0.012-0.034l0.072-0.167c0.057-0.129,0.12-0.255,0.182-0.38
		c0.226-0.447,0.491-0.872,0.786-1.275c0.022-0.029,0.145-0.191,0.019-0.029l0.111-0.14l0.232-0.274
		c0.17-0.194,0.35-0.38,0.536-0.56c0.171-0.167,0.351-0.324,0.535-0.476l0.139-0.112c0.159-0.127-0.135,0.101,0.028-0.021
		c0.111-0.085,0.226-0.164,0.342-0.243c0.414-0.283,0.854-0.526,1.308-0.737l0.221-0.098c-0.198,0.086,0.052-0.019,0.089-0.034
		c0.151-0.059,0.304-0.112,0.459-0.164c0.312-0.103,0.629-0.186,0.949-0.255c0.162-0.034,0.325-0.063,0.49-0.089l0.123-0.018
		c-0.109,0.014-0.118,0.016-0.025,0.004l0.251-0.025c0.281-0.027,0.565-0.037,0.848-0.037c0.702,0,1.403,0,2.105,0
		c-0.231-0.132-0.46-0.264-0.691-0.396c1.251,1.707,2.501,3.413,3.752,5.121c0.937,1.279,1.874,2.557,2.81,3.836
		c0.373,0.508,1.009,0.512,1.381,0c1.245-1.713,2.49-3.427,3.735-5.14c0.924-1.271,1.849-2.544,2.772-3.816
		c-0.231,0.132-0.46,0.264-0.691,0.396c0.568,0,1.135,0,1.704,0c0.248,0,0.494-0.002,0.741,0.005
		c0.254,0.008,0.506,0.029,0.757,0.058c0.213,0.025-0.176-0.025,0.036,0.005l0.185,0.029c0.144,0.023,0.285,0.052,0.426,0.082
		c0.499,0.106,0.986,0.261,1.461,0.449c0.192,0.077-0.157-0.069,0.033,0.013l0.165,0.074c0.11,0.051,0.219,0.103,0.326,0.157
		c0.232,0.117,0.459,0.246,0.68,0.384c0.204,0.126,0.401,0.262,0.595,0.403c0.029,0.021,0.191,0.145,0.029,0.019l0.14,0.111
		c0.109,0.087,0.214,0.179,0.319,0.27c0.373,0.33,0.715,0.693,1.03,1.077l0.111,0.14c-0.127-0.161-0.001,0,0.019,0.029l0.208,0.293
		c0.135,0.198,0.261,0.402,0.38,0.611c0.12,0.209,0.228,0.424,0.332,0.642l0.075,0.164c0.014,0.033,0.094,0.223,0.014,0.031
		c0.054,0.13,0.104,0.263,0.152,0.397c0.167,0.462,0.291,0.941,0.38,1.424c0.023,0.123,0.042,0.245,0.059,0.369
		c-0.03-0.213-0.001,0,0.002,0.036l0.019,0.188C32.678,29.747,32.688,30.024,32.689,30.299c0.001,0.436,0.362,0.799,0.799,0.799
		c0.435,0,0.801-0.363,0.799-0.799c-0.007-2.219-0.756-4.346-2.111-6.098c-1.287-1.665-3.126-2.877-5.152-3.441
		c-1.517-0.423-3.08-0.354-4.637-0.354c-0.35,0-0.613,0.128-0.826,0.42L21.4,21.047c-0.246,0.339-0.493,0.679-0.74,1.018
		c-1.607,2.211-3.214,4.423-4.82,6.635c-0.256,0.353-0.512,0.705-0.769,1.058c0.46,0,0.92,0,1.381,0
		c-1.251-1.707-2.501-3.413-3.752-5.121c-0.753-1.028-1.507-2.058-2.26-3.085c-0.173-0.235-0.345-0.471-0.518-0.706
		c-0.193-0.263-0.421-0.441-0.767-0.441c-0.279,0-0.558,0-0.837,0c-0.647,0-1.299-0.021-1.945,0.027
		c-1.14,0.083-2.221,0.365-3.27,0.809c-1.925,0.815-3.555,2.316-4.6,4.116c-0.902,1.553-1.321,3.317-1.321,5.104
		c0,1.195,0,2.39,0,3.584c0,1.112,0,2.224,0,3.336c0,0.436,0.363,0.799,0.799,0.799c0.925,0,1.851,0,2.776,0
		c2.298,0,4.594,0,6.892,0c2.953,0,5.907,0,8.859,0c2.892,0,5.785,0,8.677,0c2.115,0,4.23,0,6.345,0c0.651,0,1.303,0,1.954,0
		c0.436,0,0.799-0.363,0.799-0.799c0-2.231,0-4.464,0-6.697c0-0.129,0-0.257,0-0.385c0-0.436-0.363-0.799-0.799-0.799
		C33.052,29.501,32.689,29.864,32.689,30.299z"/>
	<path fill="#FFFFFF" d="M32.689,30.299h-0.447c0,2.231,0,4.464,0,6.697c0,0.129,0,0.257,0,0.385v1.079l0.763-0.763
		c0.266-0.266,0.534-0.534,0.799-0.799l0.763-0.763h-1.079c-0.925,0-1.851,0-2.776,0c-2.298,0-4.594,0-6.892,0
		c-2.953,0-5.907,0-8.859,0c-2.892,0-5.785,0-8.677,0c-2.115,0-4.23,0-6.345,0c-0.651,0-1.303,0-1.954,0h-1.079l0.763,0.763
		c0.266,0.266,0.534,0.534,0.799,0.799l0.763,0.763v-1.079c0-2.231,0-4.464,0-6.697c0-0.485,0.007-0.955,0.06-1.413l0.006-0.053
		l0.001-0.019l0.002-0.045l-0.005-0.066l-0.029-0.104l-0.085-0.132l-0.123-0.094l-0.206-0.051c-0.117,0-0.205,0.045-0.256,0.08
		l-0.132,0.147l-0.037,0.086l-0.013,0.056l-0.006,0.037l-0.007,0.052l-0.004,0.025l-0.001,0.013l-0.002,0.046l0.012,0.1l0.052,0.129
		l0.109,0.123c0.057,0.046,0.161,0.095,0.274,0.094c0.114,0,0.202-0.042,0.251-0.077l0.135-0.145l0.039-0.086l0.014-0.056
		l0.006-0.037l0.007-0.048l0.028-0.176c0.019-0.113,0.041-0.229,0.065-0.348c0.051-0.245,0.115-0.49,0.19-0.737
		c0.065-0.22,0.144-0.437,0.229-0.656l0.025-0.06l0.014-0.036l0.006-0.014l0.004-0.01l0.005-0.013l0.006-0.019l0.008-0.027
		l0.011-0.099c-0.002-0.155-0.069-0.245-0.109-0.292l-0.152-0.113l-0.186-0.041c-0.118,0.001-0.185,0.039-0.227,0.062l-0.115,0.097
		l-0.041,0.058l-0.022,0.039l-0.008,0.022l-0.034,0.081l0.823,0.348l0.069-0.158c0.053-0.12,0.112-0.24,0.174-0.362
		c0.213-0.423,0.466-0.827,0.749-1.212l0.039-0.052l0.023-0.03l0.01-0.013l0.006-0.008l0.008-0.012l0.013-0.022l0.018-0.034
		l0.019-0.046l0.024-0.145l-0.063-0.229c-0.072-0.118-0.161-0.162-0.211-0.185l-0.136-0.033L0.519,24.77L0.353,24.8l-0.1,0.057
		l-0.046,0.04l-0.028,0.03l-0.014,0.017l-0.053,0.068l0.708,0.547l0.106-0.134l0.22-0.261c0.159-0.184,0.331-0.36,0.51-0.534
		c0.161-0.156,0.332-0.305,0.51-0.452l0.133-0.106l0.042-0.034l0.014-0.012l0.012-0.011l0.019-0.018l0.029-0.033l0.036-0.052
		l0.034-0.066l0.033-0.167c-0.006-0.147-0.045-0.187-0.059-0.222l-0.051-0.071l-0.022-0.023c-0.083-0.083-0.199-0.13-0.316-0.13
		l-0.118,0.016l-0.103,0.042L1.816,23.31l-0.022,0.016l-0.047,0.036l-0.024,0.019L1.71,23.394l-0.017,0.014l-0.025,0.025
		l-0.035,0.042l-0.037,0.063c-0.014,0.034-0.042,0.08-0.046,0.198c0.004,0.036-0.007,0.099,0.06,0.226L1.734,24.1l0.27,0.085
		l0.088-0.011l0.018-0.005l-0.116-0.431l0.089,0.44l0.027-0.006L1.995,23.74l0.089,0.437l-0.089-0.438v0.447l0.089-0.008
		L1.995,23.74v0.447l0.123-0.017l0.074-0.029l0.052-0.029l0.033-0.023l0.037-0.028c0.104-0.078,0.213-0.155,0.325-0.232
		c0.391-0.267,0.809-0.499,1.244-0.7l0.211-0.093L3.74,22.214L3.678,22.24l-0.019,0.008l-0.016,0.007l-0.025,0.013l-0.042,0.028
		L3.517,22.35l-0.06,0.08c-0.023,0.042-0.059,0.109-0.062,0.227h0.447v-0.448c-0.118,0-0.233,0.048-0.316,0.13
		c-0.083,0.083-0.13,0.198-0.13,0.316s0.048,0.233,0.13,0.316c0.083,0.083,0.198,0.13,0.316,0.13l0.083-0.007l0.06-0.016
		l0.031-0.012l0.086-0.035l0.066-0.027H4.17C4.311,22.95,4.457,22.9,4.606,22.85c0.293-0.097,0.595-0.176,0.903-0.241
		c0.151-0.033,0.307-0.059,0.465-0.085H5.973l0.118-0.017l-0.12-0.886L5.904,21.63l-0.021,0.002l-0.011,0.001l-0.013,0.002
		L5.834,21.64l-0.046,0.013L5.711,21.69l-0.097,0.078L5.54,21.875l-0.047,0.202c0,0.181,0.109,0.344,0.275,0.413
		c0.167,0.069,0.359,0.03,0.487-0.097L5.94,22.076v0.447l0.316-0.13L5.94,22.076v0.447l0.036-0.001l0.035-0.005l0.046-0.006H6.056
		l0.238-0.025c0.266-0.025,0.535-0.035,0.807-0.035c0.702,0,1.403,0,2.105,0h1.678l-1.455-0.834
		c-0.231-0.132-0.46-0.264-0.691-0.396l-1.831-1.048l1.246,1.701c1.251,1.707,2.501,3.413,3.752,5.121
		c0.937,1.279,1.874,2.557,2.81,3.836c0.255,0.354,0.646,0.568,1.053,0.565c0.406,0.002,0.797-0.213,1.05-0.566
		c1.245-1.713,2.49-3.427,3.735-5.14c0.924-1.271,1.849-2.544,2.772-3.816l1.228-1.69l-1.812,1.04
		c-0.231,0.132-0.46,0.264-0.691,0.396l-1.455,0.834h1.678c0.568,0,1.135,0,1.704,0h0.266c0.157,0,0.312,0.001,0.462,0.006
		c0.238,0.007,0.478,0.028,0.721,0.056l0.053,0.006l0.019,0.001l0.045,0.002l0.074-0.006l0.118-0.037l0.135-0.1
		c0.057-0.057,0.121-0.175,0.118-0.304c0-0.117-0.045-0.205-0.08-0.256l-0.147-0.134l-0.086-0.037l-0.056-0.013l-0.037-0.005
		l-0.052-0.007l-0.024-0.002l-0.013-0.001l-0.047-0.002l-0.094,0.01l-0.106,0.037l-0.118,0.086l-0.082,0.115L25,22.063
		c0,0.115,0.042,0.202,0.077,0.251l0.145,0.135l0.086,0.039l0.056,0.014l0.037,0.006l0.048,0.007l0.176,0.028
		c0.133,0.022,0.268,0.048,0.406,0.078c0.471,0.1,0.935,0.246,1.389,0.427l0.051,0.021l0.019,0.007l0.017,0.006l0.019,0.007
		l0.029,0.007l0.089,0.008l0.213-0.054l0.176-0.173l0.058-0.22l-0.053-0.211l-0.095-0.122l-0.063-0.047l-0.046-0.025L27.8,22.238
		l-0.047-0.019l-0.022-0.008l-0.013-0.005l-0.017-0.007l-0.023-0.008l-0.029-0.007l-0.091-0.01l-0.202,0.048l-0.15,0.121
		l-0.051,0.08l-0.047,0.199l0.051,0.208l0.093,0.122L27.315,23l0.046,0.025l0.034,0.016l0.043,0.019l0.157,0.07l0.309,0.15
		c0.219,0.11,0.433,0.233,0.647,0.365c0.191,0.118,0.379,0.248,0.565,0.384l0.052,0.039l0.03,0.023l0.012,0.01l0.008,0.007
		l0.013,0.008l0.022,0.013l0.035,0.018l0.047,0.019l0.142,0.023c0.181,0,0.344-0.109,0.413-0.275
		c0.069-0.167,0.03-0.359-0.098-0.487l-0.316,0.316l0.349-0.279l-0.034-0.036l-0.316,0.316l0.349-0.279l-0.349,0.279l0.389-0.222
		l-0.039-0.058l-0.349,0.279l0.389-0.222l-0.389,0.222h0.447c-0.006-0.147-0.045-0.187-0.059-0.222l-0.389,0.222h0.447l-0.03-0.162
		l-0.056-0.101l-0.041-0.048l-0.031-0.03l-0.017-0.014l-0.068-0.054l-0.547,0.708l0.134,0.106l0.303,0.257
		c0.353,0.312,0.679,0.657,0.979,1.025l0.106,0.134l0.704-0.552l-0.045-0.057L31.3,24.939l-0.008-0.01l-0.013-0.014l-0.024-0.024
		l-0.041-0.034l-0.06-0.037c-0.034-0.014-0.078-0.045-0.203-0.048v0.447l0.141-0.424c-0.112-0.033-0.14-0.019-0.141-0.023v0.447
		l0.141-0.424l-0.141,0.424l0.353-0.274l-0.211-0.15l-0.141,0.424l0.353-0.274l-0.353,0.274h0.447l-0.094-0.274l-0.353,0.274h0.447
		c0-0.118-0.048-0.233-0.13-0.316c-0.083-0.083-0.199-0.13-0.316-0.13c-0.118,0-0.233,0.048-0.316,0.13
		c-0.083,0.083-0.13,0.198-0.13,0.316l0.022,0.136l0.03,0.071l0.028,0.045L30.6,25.49l0.07,0.093l0.197,0.279
		c0.127,0.186,0.246,0.38,0.361,0.581c0.112,0.196,0.216,0.401,0.315,0.611l0.071,0.157V27.21l0.025,0.059l0.014,0.034l0.005,0.012
		l0.002,0.005l0.002,0.005l0.004,0.008l0.007,0.016l0.016,0.028l0.031,0.046l0.059,0.062l0.085,0.057l0.208,0.051
		c0.208,0,0.388-0.142,0.435-0.344c0.048-0.202-0.05-0.409-0.235-0.502l-0.199,0.4l0.268-0.357l-0.068-0.042l-0.199,0.4l0.268-0.357
		l-0.268,0.357l0.349-0.279l-0.081-0.078l-0.268,0.357l0.349-0.279l-0.349,0.279l0.408-0.181l-0.059-0.098l-0.349,0.279l0.408-0.181
		l-0.408,0.181h0.447l-0.039-0.181l-0.408,0.181h0.447l-0.01-0.097l-0.014-0.052l-0.006-0.017l-0.037-0.089l-0.826,0.343
		c0.051,0.122,0.098,0.249,0.145,0.378c0.158,0.437,0.275,0.891,0.362,1.354c0.022,0.114,0.039,0.232,0.057,0.351l0.885-0.127
		l-0.011-0.075l-0.004-0.021L33.06,29.08l-0.005-0.019l-0.01-0.036L33.02,28.96l-0.06-0.092l-0.1-0.087l-0.24-0.07
		c-0.144-0.004-0.289,0.078-0.363,0.187l-0.083,0.26l0.001,0.039l0.004,0.039l0.013,0.104v-0.001l0.018,0.179
		c0.024,0.258,0.034,0.522,0.035,0.787c0.006,0.685,0.557,1.241,1.246,1.245c0.686-0.005,1.241-0.553,1.246-1.244V30.3l-0.411,0.004
		l0.409,0.019l-0.001-0.024l-0.411,0.004l0.409,0.019V30.31v-0.011c-0.007-2.32-0.791-4.542-2.204-6.371
		c-1.35-1.746-3.27-3.008-5.385-3.598c-1.21-0.337-2.421-0.373-3.602-0.374c-0.389,0-0.774,0.005-1.156,0.005
		c-0.228,0-0.458,0.043-0.665,0.149c-0.208,0.104-0.384,0.264-0.522,0.456l-0.161,0.222c-0.246,0.339-0.493,0.679-0.739,1.018
		c-1.607,2.211-3.214,4.423-4.82,6.635c-0.256,0.353-0.512,0.705-0.769,1.058l-0.516,0.71h0.878c0.46,0,0.92,0,1.381,0h0.881
		l-0.522-0.711c-1.251-1.707-2.501-3.413-3.752-5.121c-0.753-1.028-1.507-2.058-2.26-3.085c-0.173-0.235-0.345-0.471-0.518-0.706
		c-0.118-0.161-0.261-0.316-0.452-0.435c-0.19-0.12-0.427-0.19-0.676-0.188c-0.279,0-0.558,0-0.837,0
		c-0.296,0-0.598-0.004-0.903-0.004c-0.354,0-0.711,0.006-1.075,0.033c-1.192,0.087-2.323,0.383-3.411,0.843
		c-2.024,0.857-3.719,2.422-4.813,4.303c-0.947,1.626-1.381,3.471-1.381,5.327c0,1.195,0,2.39,0,3.584c0,1.112,0,2.224,0,3.336
		c0.005,0.688,0.558,1.242,1.246,1.246c0.925,0,1.851,0,2.776,0c2.298,0,4.594,0,6.892,0c2.953,0,5.906,0,8.859,0
		c2.892,0,5.785,0,8.677,0c2.115,0,4.23,0,6.345,0c0.651,0,1.303,0,1.954,0c0.688-0.005,1.242-0.558,1.246-1.246
		c0-2.231,0-4.464,0-6.697c0-0.129,0-0.257,0-0.385c-0.005-0.688-0.558-1.242-1.246-1.246c-0.688,0.005-1.242,0.558-1.246,1.246
		L32.689,30.299h0.447l0.105-0.248l0.248-0.105l0.248,0.105l0.105,0.246c0,0.129,0,0.257,0,0.385c0,2.231,0,4.464,0,6.697
		l-0.105,0.248l-0.248,0.105c-0.651,0-1.303,0-1.954,0c-2.115,0-4.23,0-6.345,0c-2.892,0-5.785,0-8.677,0c-2.953,0-5.906,0-8.859,0
		c-2.298,0-4.594,0-6.892,0c-0.925,0-1.851,0-2.776,0l-0.248-0.103l-0.105-0.246c0-1.112,0-2.224,0-3.336c0-1.195,0-2.39,0-3.584
		c0-1.718,0.402-3.403,1.261-4.878c1-1.721,2.562-3.158,4.389-3.929c1.009-0.427,2.041-0.695,3.127-0.775
		c0.33-0.024,0.667-0.03,1.009-0.03c0.297,0,0.599,0.004,0.903,0.004c0.279,0,0.558,0,0.837,0l0.205,0.054l0.202,0.203
		c0.173,0.235,0.345,0.471,0.518,0.706c0.753,1.028,1.507,2.058,2.26,3.085c1.251,1.707,2.501,3.413,3.752,5.121l0.361-0.264v-0.447
		c-0.46,0-0.92,0-1.381,0v0.447l0.362,0.263c0.256-0.353,0.512-0.705,0.769-1.058c1.607-2.211,3.214-4.423,4.82-6.635
		c0.246-0.339,0.493-0.679,0.74-1.018l0.161-0.221l0.2-0.182c0.065-0.033,0.142-0.052,0.263-0.053c0.389,0,0.773-0.005,1.156-0.005
		c1.162,0,2.288,0.041,3.362,0.342c1.934,0.539,3.694,1.699,4.918,3.283c1.296,1.677,2.01,3.707,2.016,5.826L34.29,30.3
		l-0.447-0.021v0.023h0.091h-0.091h0.091h-0.091l-0.106,0.245l-0.248,0.105l-0.246-0.105l-0.106-0.249
		c-0.001-0.286-0.012-0.576-0.039-0.868l-0.019-0.197l-0.01-0.078l-0.005-0.037l-0.001-0.01l-0.162,0.019l0.162-0.017v-0.002
		l-0.162,0.019l0.162-0.017l-0.384,0.04l0.385-0.033l-0.001-0.007l-0.384,0.04l0.385-0.033l-0.438,0.037h0.44l-0.001-0.037
		l-0.438,0.037h0.44H32.62l0.363,0.26l0.083-0.26h-0.447l0.363,0.26l-0.363-0.26v0.447c0.144,0.004,0.289-0.078,0.363-0.187
		l-0.363-0.26v0.447v-0.447l-0.24,0.377l0.24,0.07v-0.447l-0.24,0.377l0.24-0.377l-0.38,0.234l0.141,0.142l0.24-0.377l-0.38,0.234
		l0.38-0.234l-0.423,0.145l0.042,0.089l0.38-0.234l-0.423,0.145l0.421-0.145l-0.433,0.101l0.013,0.043l0.421-0.145l-0.433,0.101
		l0.402-0.094l-0.407,0.068l0.005,0.025l0.402-0.094l-0.407,0.068l0.117-0.019l-0.117,0.018v0.001l0.117-0.019l-0.117,0.018
		l0.012,0.081l0.885-0.127c-0.018-0.127-0.039-0.256-0.063-0.388c-0.093-0.505-0.223-1.006-0.4-1.495
		c-0.049-0.138-0.101-0.277-0.161-0.417l-0.826,0.343l0.027,0.064l0.005,0.013V27.3l0.325-0.13l-0.325,0.128l0.001,0.004l0.325-0.13
		L31.66,27.3l0.403-0.158l-0.406,0.152l0.002,0.007l0.403-0.158l-0.406,0.152l0.417-0.156l-0.421,0.144L31.66,27.3l0.417-0.156
		l-0.421,0.144l0.423-0.144l-0.429,0.123l0.006,0.021l0.423-0.144l-0.429,0.123l0.43-0.123l-0.437,0.097l0.007,0.028l0.43-0.123
		l-0.437,0.097l0.436-0.097h-0.447l0.01,0.097l0.436-0.097H31.63l0.039,0.181l0.097,0.138l0.112,0.08l0.199-0.4v-0.448v0.447
		l0.208-0.396l-0.208-0.051v0.447l0.208-0.396l-0.208,0.396l0.33-0.302l-0.122-0.094l-0.208,0.396l0.33-0.302l-0.33,0.302
		l0.378-0.238l-0.048-0.063l-0.33,0.302l0.378-0.238l-0.378,0.238l0.402-0.194l-0.025-0.045l-0.378,0.238l0.402-0.194l-0.391,0.188
		l0.398-0.173l-0.007-0.016l-0.391,0.188l0.398-0.174l-0.139,0.06l0.139-0.059v-0.001l-0.139,0.06l0.139-0.059l-0.051-0.12v-0.001
		l-0.078-0.173c-0.106-0.226-0.221-0.452-0.348-0.674c-0.123-0.216-0.255-0.431-0.398-0.641l-0.217-0.308l-0.046-0.062l-0.022-0.028
		l-0.004-0.006l-0.223,0.165l0.226-0.161L31.32,24.95l-0.223,0.165l0.226-0.161l-0.344,0.245l0.353-0.232l-0.008-0.012L30.98,25.2
		l0.353-0.232l-0.371,0.244l0.385-0.22l-0.017-0.023l-0.371,0.244l0.385-0.22l-0.388,0.221l0.406-0.185l-0.019-0.037l-0.388,0.221
		l0.406-0.185l-0.407,0.185l0.426-0.136l-0.018-0.048l-0.407,0.184l0.426-0.136l-0.426,0.136H31.4l-0.022-0.136l-0.425,0.136H31.4
		c0-0.118-0.048-0.233-0.13-0.316s-0.198-0.13-0.316-0.13s-0.233,0.048-0.316,0.13c-0.083,0.083-0.13,0.198-0.13,0.316l0.094,0.274
		l0.164,0.132l0.15,0.04l0.039,0.001v-0.447l-0.203,0.398c0.034,0.014,0.078,0.045,0.203,0.048v-0.447l-0.203,0.398l0.203-0.397
		l-0.29,0.339l0.087,0.058l0.203-0.397l-0.29,0.339l0.29-0.338l-0.324,0.305l0.034,0.033l0.29-0.338l-0.324,0.305l0.302-0.286
		l-0.321,0.266l0.018,0.021l0.302-0.286L30.611,25.5l0.115-0.095l-0.116,0.093l0.001,0.001l0.115-0.095l-0.116,0.093l0.048,0.06
		l0.704-0.552l-0.117-0.147c-0.328-0.402-0.687-0.784-1.081-1.13c-0.107-0.094-0.219-0.19-0.334-0.284l-0.147-0.117l-0.547,0.708
		l0.053,0.042l0.008,0.007l0.147-0.186l-0.151,0.184l0.004,0.002l0.147-0.186l-0.151,0.184l0.266-0.324l-0.278,0.315l0.01,0.008
		l0.266-0.324l-0.278,0.315l0.292-0.333l-0.313,0.314l0.019,0.018l0.292-0.333l-0.313,0.314l0.315-0.316l-0.339,0.281l0.03,0.034
		l0.315-0.316l-0.345,0.283l0.345-0.284l-0.384,0.229l0.039,0.054l0.345-0.284l-0.384,0.229l0.384-0.229l-0.417,0.162l0.034,0.068
		l0.384-0.229l-0.417,0.162l0.417-0.162h-0.447l0.03,0.162l0.417-0.162h-0.447c0.006,0.147,0.045,0.187,0.059,0.222l0.051,0.071
		l0.022,0.023l0.316-0.316V23.29v0.447l0.142-0.424l-0.142-0.023v0.447l0.142-0.424l-0.142,0.423l0.211-0.394l-0.069-0.029
		l-0.142,0.423l0.211-0.394l-0.209,0.39l0.249-0.365l-0.041-0.025l-0.209,0.39l0.249-0.365l-0.087-0.065
		c-0.2-0.147-0.408-0.29-0.624-0.423c-0.231-0.142-0.467-0.278-0.714-0.402c-0.11-0.056-0.225-0.112-0.342-0.165l-0.174-0.077
		l-0.041-0.018l-0.004-0.001l-0.088,0.196l0.093-0.193l-0.005-0.002l-0.088,0.196l0.093-0.193l-0.181,0.377l0.199-0.367l-0.018-0.01
		l-0.181,0.377l0.199-0.367l-0.211,0.389l0.245-0.368l-0.031-0.013l-0.211,0.389l0.245-0.368l-0.249,0.371l0.302-0.33l-0.054-0.042
		l-0.249,0.371l0.302-0.33l-0.302,0.33l0.365-0.257l-0.063-0.071l-0.302,0.33l0.365-0.257l-0.365,0.257H28
		c-0.005-0.152-0.057-0.219-0.082-0.257l-0.365,0.257H28h-0.447l0.4,0.199l-0.4-0.199l0.316,0.316l0.083-0.116l-0.4-0.199
		l0.316,0.316l-0.316-0.316l0.199,0.4l0.116-0.083l-0.316-0.316l0.199,0.4l-0.199-0.4v0.447l0.199-0.047l-0.199-0.4v0.447v-0.447
		l-0.106,0.433l0.106,0.013v-0.447l-0.106,0.433l0.103-0.418l-0.15,0.404l0.046,0.014l0.103-0.418l-0.15,0.404l0.095-0.257
		l-0.1,0.256l0.005,0.001l0.095-0.257l-0.1,0.256l0.036,0.016l0.018,0.007h0.001l0.115-0.258l-0.123,0.255l0.007,0.004l0.115-0.258
		l-0.122,0.255l0.184-0.382l-0.205,0.371l0.022,0.011l0.184-0.382l-0.205,0.371l0.214-0.389l-0.252,0.365l0.037,0.024l0.214-0.389
		l-0.252,0.365l0.254-0.367l-0.312,0.32l0.057,0.047l0.254-0.367l-0.312,0.32l0.312-0.321l-0.374,0.244l0.063,0.076l0.312-0.321
		l-0.374,0.244l0.374-0.244h-0.447c0.004,0.135,0.048,0.203,0.072,0.244l0.374-0.244h-0.447h0.447l-0.418-0.159l-0.029,0.159h0.447
		l-0.418-0.159l0.418,0.159l-0.292-0.338l-0.126,0.179l0.418,0.159l-0.292-0.338l0.292,0.338V22.22
		c-0.113-0.001-0.227,0.051-0.292,0.109l0.292,0.338V22.22v0.447l0.088-0.437l-0.088-0.008v0.447l0.088-0.437l-0.086,0.426
		l0.139-0.413l-0.054-0.014l-0.086,0.426l0.139-0.413l-0.083,0.248l0.092-0.244l-0.007-0.001l-0.083,0.248l0.092-0.244l-0.037-0.023
		c-0.494-0.198-1.007-0.359-1.533-0.472c-0.146-0.031-0.296-0.06-0.448-0.086l-0.194-0.03l-0.046-0.007h-0.004l-0.035,0.216
		l0.041-0.215l-0.006-0.001l-0.035,0.216l0.041-0.215l-0.077,0.412l0.1-0.407l-0.022-0.005l-0.077,0.412l0.1-0.407l-0.105,0.431
		l0.149-0.418l-0.043-0.013l-0.105,0.431l0.149-0.418l-0.15,0.42l0.223-0.386l-0.074-0.034l-0.15,0.42l0.223-0.386l-0.223,0.388
		l0.32-0.313l-0.097-0.075l-0.223,0.388l0.32-0.313l-0.32,0.313l0.396-0.206l-0.076-0.106l-0.32,0.313l0.396-0.206l-0.396,0.206
		h0.447l-0.051-0.206l-0.396,0.206h0.447h-0.447l0.401,0.198l0.046-0.198h-0.447l0.401,0.198l-0.401-0.198l0.257,0.365l0.144-0.167
		l-0.401-0.198l0.257,0.365l-0.257-0.365l0.13,0.427l0.127-0.063l-0.257-0.365l0.13,0.427l-0.13-0.426v0.447l0.13-0.019l-0.13-0.426
		v0.447V22.1l-0.037,0.423l0.037,0.001V22.1l-0.037,0.423l0.022-0.254l-0.027,0.252h0.004l0.022-0.254l-0.027,0.252l0.041,0.005
		l0.021,0.002h0.001l0.045-0.284l-0.053,0.283l0.008,0.001l0.045-0.284l-0.053,0.283L25.53,22.1l-0.103,0.412l0.025,0.005
		l0.077-0.418l-0.103,0.412l0.107-0.431l-0.156,0.415l0.048,0.014l0.107-0.431l-0.156,0.415l0.156-0.418l-0.235,0.379l0.08,0.039
		l0.156-0.418l-0.235,0.379l0.235-0.379L25.2,22.373l0.097,0.081l0.235-0.379l-0.327,0.296l0.333-0.298l-0.404,0.192l0.071,0.106
		l0.333-0.298l-0.404,0.192l0.403-0.192H25.09l0.042,0.191l0.403-0.192H25.09h0.447l-0.33-0.298
		c-0.057,0.057-0.121,0.175-0.118,0.304h0.447l-0.328-0.304l0.328,0.304l-0.132-0.426l-0.197,0.122l0.328,0.304l-0.132-0.426
		l0.132,0.426l-0.037-0.444l-0.094,0.018l0.132,0.426l-0.037-0.444l0.037,0.443v-0.444l-0.037,0.001l0.037,0.443v-0.444v0.388
		l0.034-0.385l-0.034-0.001v0.388l0.034-0.385l-0.05-0.005c-0.261-0.03-0.525-0.052-0.795-0.06c-0.167-0.005-0.33-0.006-0.49-0.006
		H23.97c-0.568,0-1.135,0-1.704,0v0.447l0.222,0.388c0.231-0.132,0.46-0.264,0.691-0.396l-0.222-0.388l-0.362-0.263
		c-0.924,1.271-1.849,2.544-2.772,3.816c-1.245,1.713-2.49,3.427-3.735,5.14c-0.118,0.157-0.228,0.197-0.327,0.198
		c-0.099-0.001-0.214-0.043-0.331-0.199c-0.937-1.279-1.874-2.557-2.81-3.836c-1.251-1.707-2.501-3.413-3.752-5.121l-0.36,0.262
		L8.286,22c0.231,0.132,0.46,0.264,0.691,0.396l0.222-0.388v-0.447c-0.702,0-1.403,0-2.105,0c-0.295,0-0.592,0.011-0.89,0.039
		l-0.263,0.028H5.94l-0.045,0.005l-0.008,0.001l0.021,0.182L5.89,21.634H5.887l0.021,0.182L5.89,21.634l0.039,0.392l-0.033-0.392
		H5.888l0.039,0.392l-0.033-0.392l0.036,0.44v-0.441l-0.036,0.001l0.036,0.44v-0.441l-0.316,0.13L5.93,22.08h0.447H5.93l0.401,0.198
		l0.046-0.198H5.93l0.401,0.198L5.93,22.079l0.27,0.356l0.13-0.157l-0.4-0.199l0.27,0.356l-0.27-0.356l0.165,0.414L6.2,22.434
		l-0.27-0.356l0.165,0.414L5.93,22.078l0.11,0.432l0.056-0.018L5.93,22.077l0.111,0.432l-0.109-0.425l0.074,0.432l0.035-0.007
		l-0.109-0.425l0.074,0.432l-0.052-0.308L6,22.518l0.007-0.001l-0.053-0.309L6,22.517l0.078-0.011l-0.12-0.886l-0.13,0.019l0,0
		c-0.169,0.027-0.34,0.057-0.513,0.093c-0.333,0.071-0.668,0.158-0.997,0.267c-0.159,0.053-0.32,0.109-0.482,0.173L3.83,22.174
		l0.007-0.002l-0.099,0.04L3.69,22.231l-0.012,0.005l0.08,0.205l-0.076-0.208L3.68,22.235l0.08,0.205l-0.076-0.208l0.14,0.385
		l-0.126-0.39l-0.014,0.005l0.14,0.385l-0.126-0.39l0.135,0.418L3.722,22.22l-0.024,0.007l0.135,0.418L3.722,22.22l0.112,0.431
		l-0.082-0.437l-0.029,0.007l0.112,0.431l-0.083-0.437l0.083,0.44v-0.447l-0.083,0.007l0.083,0.44v-0.447
		c-0.118,0-0.233,0.048-0.316,0.13c-0.083,0.083-0.132,0.198-0.132,0.316s0.048,0.233,0.132,0.316s0.198,0.13,0.316,0.13
		s0.233-0.048,0.316-0.13c0.083-0.083,0.13-0.198,0.13-0.316H3.834l0.385,0.227c0.023-0.042,0.059-0.109,0.062-0.227H3.834
		l0.385,0.227l-0.385-0.227l0.29,0.341l0.097-0.114l-0.385-0.227l0.29,0.341l-0.291-0.341l0.232,0.382l0.058-0.042l-0.289-0.341
		l0.232,0.382L3.845,22.67l0.185,0.385l0.037-0.021l-0.222-0.366l0.185,0.385l-0.111-0.232l0.106,0.234l0.004-0.001l-0.111-0.232
		l0.106,0.234l0.062-0.027l-0.356-0.82l-0.232,0.103c-0.475,0.22-0.936,0.476-1.372,0.773c-0.118,0.081-0.239,0.164-0.359,0.255
		l-0.034,0.027l0.22,0.315l-0.206-0.325l-0.013,0.01l0.22,0.315l-0.206-0.325l0.234,0.369l-0.208-0.384l-0.027,0.016l0.234,0.369
		l-0.208-0.384l0.211,0.391l-0.171-0.411l-0.04,0.019l0.211,0.391l-0.171-0.411l0.171,0.412l-0.123-0.429l-0.05,0.017l0.171,0.412
		l-0.123-0.429l0.123,0.43v-0.444l-0.123,0.017l0.123,0.43v-0.447v0.447l0.204-0.397l-0.204-0.049v0.447l0.204-0.397l-0.204,0.397
		l0.355-0.272l-0.151-0.126l-0.204,0.397l0.355-0.272l-0.355,0.272l0.437-0.093l-0.08-0.181l-0.355,0.272l0.437-0.093l-0.437,0.093
		h0.447l-0.01-0.093l-0.437,0.093h0.447H1.987l0.391,0.216c0.014-0.034,0.051-0.075,0.056-0.216H1.987l0.391,0.216l-0.391-0.216
		l0.333,0.298l0.058-0.082l-0.391-0.216l0.333,0.298l-0.328-0.292l0.298,0.324l0.03-0.03l-0.328-0.293l0.298,0.325l-0.228-0.249
		l0.214,0.262l0.014-0.013l-0.228-0.249l0.214,0.262l0.03-0.024l0.016-0.012L2.099,23.74l0.214,0.31l0.01-0.007L2.1,23.739
		l0.214,0.31L2.068,23.69l0.228,0.372l0.019-0.012l-0.246-0.359l0.228,0.372l-0.232-0.379l0.199,0.397l0.033-0.018l-0.232-0.379
		l0.199,0.397L2.06,23.683l0.156,0.419l0.046-0.019l-0.202-0.4l0.156,0.419l-0.149-0.419v0.447l0.156-0.028l-0.156-0.419v0.447
		v-0.447L1.751,24l0.316-0.316l-0.349,0.279l0.034,0.036l0.316-0.316L1.72,23.961l0.349-0.279L1.68,23.904l0.039,0.058l0.349-0.279
		l-0.389,0.222l0.389-0.222H1.621c0.006,0.147,0.045,0.187,0.059,0.222l0.389-0.222H1.622h0.447l-0.414-0.167l-0.034,0.165h0.447
		l-0.414-0.167l0.414,0.167l-0.36-0.266l-0.054,0.099l0.414,0.167l-0.36-0.266l0.36,0.264l-0.321-0.31l-0.039,0.046l0.36,0.264
		l-0.321-0.31l0.309,0.299l-0.28-0.326l-0.029,0.027l0.309,0.299l-0.28-0.326l0.127,0.147L1.779,23.34l-0.004,0.004l0.127,0.147
		L1.779,23.34L1.74,23.37l-0.146,0.118c-0.191,0.157-0.379,0.322-0.561,0.499c-0.193,0.186-0.382,0.382-0.561,0.588l-0.243,0.287
		L0.112,25.01l0.708,0.547l0.042-0.054l0.007-0.008l-0.177-0.141l0.176,0.144l0.002-0.002l-0.177-0.141l0.176,0.144l-0.324-0.266
		l0.315,0.275l0.008-0.01l-0.324-0.266l0.315,0.275l-0.333-0.291l0.314,0.309l0.017-0.019l-0.333-0.291l0.316,0.31l-0.319-0.313
		l0.286,0.342l0.033-0.029l-0.319-0.313l0.286,0.342L0.52,25.212l0.234,0.38l0.052-0.037L0.52,25.213l0.234,0.38l-0.234-0.38
		l0.168,0.414l0.068-0.034l-0.234-0.38l0.168,0.414l-0.168-0.414v0.447l0.168-0.033l-0.168-0.414v0.447v-0.447L0.434,25.65
		l0.088,0.008v-0.447L0.434,25.65l0.088-0.438l-0.255,0.367l0.167,0.071l0.088-0.438l-0.255,0.367l0.255-0.367L0.137,25.44
		l0.13,0.14l0.255-0.367l-0.385,0.228l0.385-0.228H0.075l0.063,0.228l0.385-0.228H0.077h0.447l-0.423-0.145l-0.024,0.145h0.447
		l-0.423-0.145l0.423,0.144l-0.396-0.214l-0.03,0.068L0.52,25.21l-0.392-0.211l0.389,0.21l-0.365-0.25l-0.024,0.04l0.389,0.21
		l-0.365-0.25l0.296,0.203l-0.29-0.211l-0.006,0.008l0.296,0.203l-0.29-0.211l-0.031,0.042l-0.042,0.054
		c-0.308,0.42-0.587,0.867-0.825,1.338c-0.065,0.129-0.13,0.262-0.192,0.4l-0.076,0.174l0.823,0.348l0.027-0.063l0.005-0.011
		l-0.213-0.093l0.211,0.097l0.002-0.001l-0.211-0.093l0.211,0.097l-0.384-0.175l0.377,0.187l0.006-0.013l-0.383-0.174l0.377,0.187
		l-0.397-0.198l0.384,0.222l0.012-0.023l-0.397-0.198l0.384,0.222l-0.386-0.223l0.359,0.266l0.028-0.042l-0.386-0.223l0.359,0.266
		l-0.359-0.266l0.307,0.325l0.053-0.059l-0.359-0.266l0.307,0.325l-0.307-0.325l0.227,0.385l0.08-0.06l-0.307-0.325l0.227,0.385
		l-0.227-0.385v0.447c0.118-0.001,0.185-0.039,0.227-0.062l-0.227-0.385v0.447v-0.447l-0.141,0.424l0.141,0.023v-0.447l-0.141,0.424
		l0.141-0.424l-0.279,0.35l0.138,0.075l0.141-0.424l-0.279,0.35l0.279-0.35l-0.374,0.249l0.093,0.101l0.279-0.35l-0.372,0.249
		l0.372-0.249h-0.447c0,0.113,0.042,0.198,0.075,0.249l0.372-0.249h-0.447h0.447l-0.437-0.099l-0.011,0.099h0.447l-0.436-0.099
		l0.431,0.098l-0.417-0.149l-0.014,0.051l0.431,0.098l-0.417-0.149l-0.042,0.103c-0.092,0.235-0.179,0.477-0.254,0.724
		c-0.08,0.266-0.152,0.536-0.209,0.813c-0.025,0.124-0.051,0.252-0.072,0.384l-0.03,0.194l-0.007,0.046l0.001,0.001l0.217,0.035
		l-0.216-0.041l-0.001,0.008l0.217,0.035l-0.216-0.041l0.412,0.077l-0.408-0.1l-0.005,0.022l0.412,0.077l-0.408-0.1l0.431,0.105
		l-0.418-0.147l-0.013,0.043l0.431,0.105L-1.579,29.1l0.42,0.15l-0.386-0.223l-0.034,0.074l0.42,0.15l-0.386-0.223l0.386,0.223
		l-0.312-0.319l-0.075,0.097l0.386,0.223l-0.313-0.32l0.313,0.32l-0.206-0.396l-0.105,0.076l0.313,0.32l-0.206-0.396l0.206,0.396
		v-0.447l-0.206,0.051l0.206,0.396v-0.447v0.447l0.274-0.353c-0.057-0.046-0.161-0.095-0.274-0.094v0.447l0.274-0.353L-1.16,29.25
		l0.414-0.168l-0.139-0.184l-0.274,0.353l0.414-0.168l-0.414,0.168l0.443-0.054l-0.029-0.113l-0.414,0.168l0.443-0.054l-0.443,0.054
		h0.446l-0.004-0.054l-0.443,0.054h0.446h-0.421l0.423,0.037l0.001-0.037h-0.424l0.423,0.037l-0.252-0.022l0.251,0.027v-0.005
		l-0.252-0.022l0.251,0.027l0.005-0.041l0.002-0.021V29.23l-0.281-0.042l0.283,0.053l0.001-0.008l-0.284-0.045l0.283,0.053
		l-0.418-0.077l0.412,0.103l0.005-0.025l-0.417-0.077l0.412,0.103l-0.431-0.107l0.417,0.156l0.014-0.048l-0.431-0.107l0.417,0.156
		l-0.418-0.156l0.379,0.235l0.039-0.08l-0.418-0.156l0.379,0.235l-0.38-0.235l0.298,0.333l0.081-0.097l-0.38-0.235l0.298,0.333
		l-0.298-0.333l0.192,0.403l0.106-0.071l-0.298-0.333l0.192,0.403l-0.192-0.403v0.447l0.192-0.042l-0.192-0.403v0.447v-0.45
		l-0.206,0.394l0.206,0.051v-0.447l-0.206,0.397l0.206-0.397l-0.382,0.232l0.175,0.164l0.206-0.397l-0.382,0.232l0.382-0.232
		l-0.435,0.1l0.054,0.133l0.382-0.232l-0.436,0.1l0.435-0.1H-1.59l0.011,0.099l0.435-0.1H-1.59h0.388l-0.385-0.034l-0.001,0.034
		H-1.2l-0.385-0.034l-0.005,0.05c-0.059,0.517-0.066,1.022-0.066,1.515c0,2.231,0,4.464,0,6.697h0.447l0.316-0.316
		c-0.266-0.266-0.534-0.534-0.799-0.799l-0.316,0.316v0.447c0.651,0,1.303,0,1.954,0c2.115,0,4.23,0,6.345,0
		c2.892,0,5.785,0,8.677,0c2.953,0,5.907,0,8.859,0c2.298,0,4.594,0,6.892,0c0.925,0,1.851,0,2.776,0v-0.447l-0.316-0.316
		c-0.266,0.266-0.534,0.534-0.799,0.799l0.316,0.316h0.447c0-0.129,0-0.257,0-0.385c0-2.231,0-4.464,0-6.697L32.689,30.299z"/>
</g>
</svg>
