<?xml version="1.0" encoding="utf-8"?>
<!-- Generator: Adobe Illustrator 17.0.0, SVG Export Plug-In . SVG Version: 6.00 Build 0)  -->
<!DOCTYPE svg PUBLIC "-//W3C//DTD SVG 1.1//EN" "http://www.w3.org/Graphics/SVG/1.1/DTD/svg11.dtd">
<svg version="1.1" id="Слой_1" xmlns="http://www.w3.org/2000/svg" xmlns:xlink="http://www.w3.org/1999/xlink" x="0px" y="0px"
	 width="82px" height="82px" viewBox="0 0 82 82" enable-background="new 0 0 82 82" xml:space="preserve">
<g>
	<polygon fill="#FFFFFF" points="60.13,58.36 60.128,58.362 60.128,58.362 	"/>
	<polygon fill="#FFFFFF" points="27.913,51.416 27.912,51.417 27.912,51.417 	"/>
	<path fill="#FFFFFF" d="M60.949,34h-2.091c-0.065,0-0.133-0.21-0.203-0.374l1.474-1.416c1.08-1.08,1.618-2.482,1.617-3.902
		c0.001-1.42-0.538-2.837-1.617-3.917l-2.253-2.252l-0.001,0.003c-1.08-1.08-2.512-1.616-3.931-1.616
		c-1.42-0.001-2.852,0.538-3.932,1.618l-1.509,1.489C48.344,23.566,48,23.5,48,23.435v-2.115C48,18.263,45.541,16,42.487,16h-3.198
		C36.234,16,34,18.264,34,21.321v2.116c0,0.064-0.455,0.132-0.616,0.201l-1.553-1.492l-0.034-0.001
		c-1.079-1.079-2.526-1.618-3.945-1.617c-1.419-0.001-2.857,0.538-3.937,1.617l-2.264,2.26c-1.08,1.08-1.62,2.511-1.619,3.931
		c-0.001,1.42,0.536,2.851,1.616,3.932l1.489,1.368C23.069,33.795,23.003,34,22.939,34h-2.112C17.772,34,15,36.725,15,39.782v3.197
		C15,46.036,17.771,49,20.827,49h2.107c0.065,0,0.131,0.087,0.2,0.246l-1.488,1.376l0.001-0.059c-1.08,1.079-1.618,2.48-1.617,3.899
		c-0.001,1.419,0.538,2.834,1.617,3.914l0.062,0.008L24,60.626v0.001c1,1.079,2.463,1.618,3.882,1.617
		c1.419,0.001,2.825-0.538,3.905-1.617l-0.009-0.002l1.597-1.48C33.54,59.215,34,59.284,34,59.349v2.092
		C34,64.497,36.23,67,39.289,67h3.197C45.545,67,48,64.496,48,61.441v-2.104c0-0.067,0.343-0.134,0.501-0.204L50,60.627l0.006,0.001
		c1.08,1.08,2.514,1.618,3.934,1.617c1.42,0.001,2.853-0.537,3.933-1.617l0.003-0.002l2.252-2.264
		c1.079-1.079,1.618-2.509,1.617-3.928c0.001-1.419-0.538-2.849-1.617-3.928l0.001,0.001l-1.485-1.257
		c0.068-0.16,0.134-0.25,0.198-0.25h2.107C64.006,49,66,46.035,67,42.98v-3.197C66,36.725,64.003,34,60.949,34z M55,45.315v-0.001
		c-1,1.075-0.874,2.11-1.414,3.085c-0.213,0.385-0.393,0.81-0.392,1.229c-0.001,0.655,0.218,1.307,0.706,1.795l2.655,2.673
		c0.121,0.124,0.144,0.233,0.146,0.339c-0.002,0.105-0.04,0.214-0.161,0.339l-2.262,2.26c-0.124,0.121-0.235,0.154-0.34,0.156
		c-0.105-0.002-0.215-0.035-0.339-0.156l-2.687-2.686c-0.489-0.488-1.141-0.71-1.797-0.709c-0.425,0-0.857,0.362-1.246,0.362h0.002
		c-0.973,0-1.983,0.943-3.055,1.252C43.728,55.565,43,56.525,43,57.656v3.786c0,0.174-0.076,0.314-0.148,0.389
		C42.776,61.904,42.657,62,42.483,62h-3.197c-0.174,0-0.178-0.096-0.253-0.169C38.96,61.756,39,61.616,39,61.442v-3.799v-0.002
		c0-1.138-0.857-2.133-1.951-2.44c-1.074-0.3-2.157-0.724-3.133-1.264l-0.022,0.001c-0.386-0.215-0.825-0.321-1.247-0.321
		c-0.653-0.001-1.308,0.254-1.796,0.739l-0.005,0.002l-2.675,2.673c-0.124,0.121-0.234,0.154-0.339,0.156
		c-0.105-0.002-0.215-0.035-0.339-0.156l-2.274-2.28l0.013,0.013c-0.122-0.126-0.154-0.233-0.156-0.335
		c0.002-0.102,0.034-0.21,0.156-0.335l2.679-2.679c0.49-0.488,0.579-1.141,0.579-1.799c0-0.422,0.509-0.85-0.491-1.236v-0.001
		c0-0.974-0.807-2.237-1.113-3.309C26.577,43.984,25.75,43,24.614,43H24.61l0,0h-3.786c-0.174,0-0.447,0.173-0.522,0.101
		C20.229,43.025,20,43.155,20,42.981v-3.197c0-0.173,0.23-0.427,0.304-0.504c0.077-0.074,0.349-0.28,0.52-0.28h3.799h0.005h0.003
		l-0.034,0.15C25.728,39.148,27,38.547,27,37.455v-0.003c0-1.074,1-2.103,1-3.078v-0.001c1-0.385,0.484-0.81,0.484-1.229
		c0-0.656-0.172-1.307-0.659-1.795l-2.632-2.674c-0.121-0.124-0.133-0.233-0.135-0.339c0.002-0.105,0.045-0.214,0.166-0.339
		l2.265-2.26c0.125-0.122,0.236-0.155,0.341-0.157c0.105,0.002,0.215,0.035,0.339,0.156l2.687,2.687l0.002,0.001
		c0.488,0.486,1.139,0.741,1.793,0.74c0.424,0,0.853-0.107,1.24-0.323l0.003,0.221C34.867,28.518,35.897,28,36.969,28h-0.003
		C38.054,27,39,26.251,39,25.116v-3.792c0-0.176-0.039-0.197,0.032-0.271C39.106,20.982,39.112,21,39.289,21h3.197
		c0.177,0,0.296-0.019,0.369,0.052C42.926,21.126,43,21.147,43,21.322v3.804v0.001c0,1.137,0.742,2.135,1.838,2.44
		c1.069,0.299,2.096,0.728,3.075,1.269c0.385,0.213,0.805,0.317,1.224,0.317c0.656,0.001,1.305-0.255,1.793-0.743l2.673-2.674
		c0.125-0.122,0.233-0.155,0.338-0.157c0.105,0.002,0.213,0.035,0.338,0.156l2.26,2.26c0.121,0.124,0.154,0.234,0.156,0.339
		c-0.002,0.105-0.035,0.214-0.156,0.338l-2.7,2.693l0.004-0.004c-0.483,0.487-0.735,1.135-0.735,1.787
		c0,0.426,0.108,0.858,0.328,1.248l-0.001-0.002c0.547,0.973,0.899,2.003,1.208,3.075C54.956,38.558,56,39.151,57,39.153V39h0.162h0
		h0.005h3.78c0.174,0,0.061,0.209,0.137,0.282C61.156,39.357,61,39.61,61,39.784v3.197c0,0.173,0.156,0.044,0.084,0.12
		C61.008,43.173,61.121,43,60.947,43h-3.799C56.009,43,55,44.216,55,45.315z"/>
	<path fill="#FFFFFF" d="M40.825,31.156c-5.636,0.003-10.197,4.595-10.2,10.231c0.003,5.636,4.55,10.221,10.185,10.224
		C46.445,51.608,51,47.022,51,41.387v-0.002C51,35.75,46.461,31.159,40.825,31.156z M40.886,46.536
		c-2.871-0.004-5.151-2.28-5.154-5.148c0.004-2.869,2.285-5.151,5.154-5.154c2.869,0.003,5.151,2.285,5.154,5.154
		C46.037,44.255,43.757,46.532,40.886,46.536z"/>
	<path fill="#FFFFFF" d="M63.051,0H18.724C8.315,0,0,8.822,0,19.231v44.32C0,73.959,8.316,82,18.724,82h44.327
		C73.459,82,82,73.959,82,63.551v-44.32C82,8.823,73.459,0,63.051,0z M63.051,77H18.724C11.065,77,5,71.209,5,63.551V19.226
		C5,11.57,11.067,5,18.724,5h44.327C70.709,5,77,11.572,77,19.231v44.32C77,71.21,70.708,77,63.051,77z"/>
</g>
</svg>
