<?xml version="1.0" encoding="utf-8"?>
<!-- Generator: Adobe Illustrator 17.0.0, SVG Export Plug-In . SVG Version: 6.00 Build 0)  -->
<!DOCTYPE svg PUBLIC "-//W3C//DTD SVG 1.1//EN" "http://www.w3.org/Graphics/SVG/1.1/DTD/svg11.dtd">
<svg version="1.1" id="Слой_1" xmlns="http://www.w3.org/2000/svg" xmlns:xlink="http://www.w3.org/1999/xlink" x="0px" y="0px"
	 width="25.544px" height="31px" viewBox="0 0 25.544 31" enable-background="new 0 0 25.544 31" xml:space="preserve">
<g>
	<path fill="#63B7DF" d="M20.271,0.5c-2.628,0-4.773,2.145-4.773,4.773c0,0.553,0.102,1.081,0.277,1.576L8.404,11.92
		c-0.84-0.736-1.932-1.192-3.132-1.192c-2.628,0-4.773,2.145-4.773,4.772c0,2.628,2.145,4.773,4.772,4.773
		c1.201,0,2.302-0.454,3.142-1.192l7.361,5.061c-0.177,0.498-0.277,1.03-0.277,1.587c0,2.628,2.145,4.773,4.773,4.773
		s4.773-2.145,4.773-4.773c0-2.628-2.145-4.773-4.773-4.773c-1.582,0-2.988,0.777-3.856,1.971l-7.105-4.9
		c0.462-0.735,0.735-1.597,0.735-2.524c0-0.931-0.27-1.8-0.735-2.535l7.105-4.9c0.868,1.197,2.271,1.981,3.856,1.981
		c2.628,0,4.773-2.145,4.773-4.773C25.044,2.645,22.899,0.5,20.271,0.5z M20.271,1.863c1.891,0,3.409,1.518,3.409,3.409
		s-1.518,3.409-3.409,3.409s-3.409-1.518-3.409-3.409S18.38,1.863,20.271,1.863z M5.273,12.089c1.891,0,3.409,1.518,3.409,3.409
		c0,1.89-1.518,3.409-3.409,3.409c-1.891,0-3.409-1.518-3.409-3.409C1.863,13.609,3.381,12.089,5.273,12.089z M20.271,22.317
		c1.891,0,3.409,1.518,3.409,3.409c0,1.891-1.518,3.409-3.409,3.409s-3.409-1.518-3.409-3.409
		C16.862,23.835,18.38,22.317,20.271,22.317z"/>
	<path fill="#63B7DF" d="M20.271,0.5V0C17.365,0.001,15,2.367,14.998,5.273c0,0.615,0.114,1.201,0.306,1.743l0.471-0.167
		l-0.283-0.412l-7.372,5.071l0.283,0.412l0.33-0.376c-0.923-0.81-2.133-1.317-3.461-1.316C2.367,10.229,0.001,12.594,0,15.5
		c0.001,2.906,2.367,5.271,5.272,5.273c1.329,0,2.547-0.503,3.472-1.317l-0.33-0.376l-0.283,0.412l7.361,5.061l0.283-0.412
		l-0.471-0.167c-0.195,0.547-0.306,1.137-0.306,1.754C15,28.633,17.365,30.999,20.271,31c2.906-0.001,5.271-2.367,5.272-5.273
		c-0.001-2.906-2.367-5.271-5.272-5.273c-1.749,0-3.303,0.86-4.26,2.177l0.404,0.294l0.284-0.412l-7.105-4.9L9.31,18.026
		l0.423,0.266c0.509-0.808,0.812-1.765,0.812-2.79c0-1.028-0.299-1.991-0.812-2.802L9.31,12.967l0.284,0.412l7.105-4.9l-0.284-0.412
		L16.01,8.36c0.956,1.319,2.508,2.188,4.261,2.188c2.906-0.001,5.271-2.367,5.272-5.273C25.542,2.367,23.177,0.001,20.271,0V0.5V1
		c1.176,0,2.242,0.479,3.018,1.255c0.775,0.776,1.254,1.843,1.254,3.021c0,1.176-0.479,2.242-1.254,3.018
		c-0.776,0.775-1.842,1.254-3.018,1.254c-1.418,0-2.671-0.7-3.451-1.775l-0.287-0.395l-7.902,5.45l0.257,0.406
		c0.417,0.659,0.657,1.433,0.657,2.267c0,0.828-0.243,1.597-0.658,2.258l-0.255,0.406l7.901,5.449l0.287-0.394
		c0.78-1.071,2.036-1.765,3.452-1.765c1.176,0,2.242,0.479,3.018,1.254c0.775,0.776,1.254,1.842,1.254,3.018
		c0,1.176-0.479,2.242-1.254,3.018C22.513,29.521,21.447,30,20.271,30c-1.176,0-2.242-0.479-3.018-1.254
		c-0.775-0.776-1.254-1.842-1.254-3.018c0-0.496,0.089-0.971,0.249-1.419l0.129-0.362l-7.999-5.499l-0.292,0.257
		c-0.755,0.662-1.738,1.068-2.812,1.068c-1.176,0-2.242-0.479-3.018-1.254C1.479,17.742,1,16.676,1,15.5
		c0-1.176,0.479-2.242,1.254-3.018c0.776-0.775,1.842-1.254,3.018-1.254c1.072,0,2.045,0.406,2.802,1.068l0.292,0.256l8.008-5.509
		l-0.128-0.362c-0.158-0.447-0.249-0.917-0.249-1.409c0-1.176,0.479-2.242,1.254-3.018C18.029,1.479,19.095,1,20.271,1V0.5z
		 M20.271,1.863v0.5c1.617,0.001,2.908,1.292,2.909,2.909c-0.001,1.617-1.292,2.908-2.909,2.909
		c-1.617-0.001-2.908-1.292-2.909-2.909c0.001-1.617,1.292-2.908,2.909-2.909V1.863v-0.5c-1.081,0-2.062,0.436-2.767,1.142
		c-0.706,0.705-1.142,1.687-1.142,2.767c0,1.081,0.435,2.062,1.142,2.767c0.705,0.706,1.687,1.142,2.767,1.142
		c1.081,0,2.062-0.436,2.767-1.142c0.706-0.705,1.142-1.687,1.142-2.767c0-1.081-0.435-2.062-1.142-2.767
		c-0.705-0.706-1.687-1.142-2.767-1.142V1.863z M5.273,12.089v0.5c1.617,0.001,2.908,1.292,2.909,2.909
		c-0.001,1.616-1.292,2.908-2.909,2.909c-1.617-0.001-2.908-1.292-2.909-2.909c0.001-1.616,1.292-2.908,2.909-2.909V12.089v-0.5
		c-1.081,0-2.062,0.436-2.767,1.142c-0.706,0.706-1.142,1.687-1.142,2.767c0,1.081,0.435,2.062,1.142,2.767
		c0.705,0.706,1.687,1.142,2.767,1.142c1.081,0,2.062-0.436,2.767-1.142c0.706-0.706,1.142-1.687,1.142-2.767
		c0-1.081-0.435-2.062-1.142-2.767c-0.705-0.706-1.687-1.142-2.767-1.142V12.089z M20.271,22.317v0.5
		c1.617,0.001,2.908,1.292,2.909,2.909c-0.001,1.617-1.292,2.908-2.909,2.909c-1.617-0.001-2.908-1.292-2.909-2.909
		c0.001-1.617,1.292-2.908,2.909-2.909V22.317v-0.5c-1.081,0-2.062,0.435-2.767,1.142c-0.706,0.705-1.142,1.687-1.142,2.767
		c0,1.081,0.435,2.062,1.142,2.767c0.705,0.706,1.687,1.142,2.767,1.142c1.081,0,2.062-0.436,2.767-1.142
		c0.706-0.705,1.142-1.687,1.142-2.767c0-1.081-0.435-2.062-1.142-2.767c-0.705-0.706-1.687-1.142-2.767-1.142V22.317z"/>
</g>
</svg>
