<?xml version="1.0" encoding="utf-8"?>
<!-- Generator: Adobe Illustrator 17.0.0, SVG Export Plug-In . SVG Version: 6.00 Build 0)  -->
<!DOCTYPE svg PUBLIC "-//W3C//DTD SVG 1.1//EN" "http://www.w3.org/Graphics/SVG/1.1/DTD/svg11.dtd">
<svg version="1.1" id="Слой_1" xmlns="http://www.w3.org/2000/svg" xmlns:xlink="http://www.w3.org/1999/xlink" x="0px" y="0px"
	 width="36px" height="30.18px" viewBox="0 0 36 30.18" enable-background="new 0 0 36 30.18" xml:space="preserve">
<g>
	<rect x="10" y="11.18" width="15.49" height="2"/>
	<path d="M35.368,0.644C34.966,0.24,34.513-0.001,33.889,0L34,0.32V0.18H1.87c-0.624,0-1.006,0.151-1.408,0.553
		C0.058,1.136,0,1.61,0,2.234v25.533c0,0.624,0.06,1.278,0.462,1.68C0.864,29.85,1.246,30.18,1.87,30.18h31.919
		c0.624,0,1.177-0.332,1.579-0.734C35.771,29.045,36,28.39,36,27.766V2.234C36,1.61,35.77,1.046,35.368,0.644z M28,14.523
		l-10.501,3.903L7,14.523V8.18h21V14.523z M34,12.418l-4,1.422V7.342c0-0.261,0.048-0.614-0.129-0.791
		c-0.177-0.179-0.288-0.371-0.55-0.371H6.337c-0.261,0-0.702,0.192-0.879,0.371C5.28,6.728,5,7.081,5,7.342v6.499l-3-1.422V2.235
		c0-0.122-0.189-0.058-0.142-0.105C1.904,2.086,1.748,2.18,1.87,2.18h31.919c0.121,0,0.136-0.096,0.183-0.05
		C34.016,2.177,34,2.114,34,2.235V12.418z M1.87,28.18c-0.122,0,0.034-0.083-0.012-0.129C1.813,28.005,2,27.889,2,27.768v-13.33
		l15.579,5.743h0.041l0.057,0.118c0.039,0.018,0.109,0.094,0.206,0.094l0.21-0.03l0.013-0.039L34,14.439v13.33
		c0,0.122,0.124,0.19,0.077,0.237C34.031,28.051,34,28.087,34,28.089v0.092l0,0l0,0H1.87z"/>
</g>
</svg>
