<?xml version="1.0" encoding="utf-8"?>
<!-- Generator: Adobe Illustrator 17.0.0, SVG Export Plug-In . SVG Version: 6.00 Build 0)  -->
<!DOCTYPE svg PUBLIC "-//W3C//DTD SVG 1.1//EN" "http://www.w3.org/Graphics/SVG/1.1/DTD/svg11.dtd">
<svg version="1.1" id="Слой_1" xmlns="http://www.w3.org/2000/svg" xmlns:xlink="http://www.w3.org/1999/xlink" x="0px" y="0px"
	 width="22.443px" height="20px" viewBox="-0.001 0 22.443 20" enable-background="new -0.001 0 22.443 20" xml:space="preserve">
<g>
	<path fill="#63B7DF" d="M10.512,0v12.779L5.982,8.213L4.991,9.204l5.77,5.77c0.142,0.142,0.319,0.212,0.496,0.212
		s0.354-0.071,0.496-0.212l5.77-5.77l-1.062-0.991l-4.531,4.566V0H10.512z"/>
	<path fill="#63B7DF" d="M-0.001,10.69v7.54c0,0.991,0.779,1.77,1.77,1.77h18.903c0.991,0,1.77-0.779,1.77-1.77v-7.54h-1.416v7.54
		c0,0.212-0.142,0.354-0.354,0.354H1.77c-0.212,0-0.354-0.142-0.354-0.354v-7.54H-0.001z"/>
</g>
</svg>
