<?xml version="1.0" encoding="utf-8"?>
<!-- Generator: Adobe Illustrator 17.0.0, SVG Export Plug-In . SVG Version: 6.00 Build 0)  -->
<!DOCTYPE svg PUBLIC "-//W3C//DTD SVG 1.1//EN" "http://www.w3.org/Graphics/SVG/1.1/DTD/svg11.dtd">
<svg version="1.1" id="Слой_1" xmlns="http://www.w3.org/2000/svg" xmlns:xlink="http://www.w3.org/1999/xlink" x="0px" y="0px"
	 width="19.399px" height="19.399px" viewBox="0.3 0.301 19.399 19.399" enable-background="new 0.3 0.301 19.399 19.399"
	 xml:space="preserve">
<title>60 all</title>
<path d="M7.706,1.805V0.301H1.052C0.638,0.301,0.3,0.639,0.3,1.053v17.895c0,0.414,0.338,0.752,0.752,0.752h17.895
	c0.414,0,0.752-0.338,0.752-0.752v-6.654h-1.504v5.94H1.804V1.805H7.706z"/>
<path d="M14.208,3.064c-0.301-0.301-0.752-0.301-1.053,0l-9.023,9.023c-0.075,0.075-0.15,0.188-0.188,0.338l-1.053,3.759
	c-0.113,0.414,0.113,0.827,0.526,0.94c0.075,0,0.15,0.038,0.188,0.038c0.075,0,0.15,0,0.188-0.038l3.759-1.053
	c0.113-0.038,0.226-0.113,0.338-0.188l9.023-9.023c0.301-0.301,0.301-0.752,0-1.053l0,0L14.208,3.064z M4.659,15.319l0.376-1.278
	l0.94,0.94L4.659,15.319z M7.366,14.267l-1.654-1.654l7.932-7.932l1.654,1.654L7.366,14.267z"/>
</svg>
