<?xml version="1.0" encoding="utf-8"?>
<!-- Generator: Adobe Illustrator 17.0.0, SVG Export Plug-In . SVG Version: 6.00 Build 0)  -->
<!DOCTYPE svg PUBLIC "-//W3C//DTD SVG 1.1//EN" "http://www.w3.org/Graphics/SVG/1.1/DTD/svg11.dtd">
<svg version="1.1" id="Слой_1" xmlns="http://www.w3.org/2000/svg" xmlns:xlink="http://www.w3.org/1999/xlink" x="0px" y="0px"
	 width="24.631px" height="23px" viewBox="6.404 0 24.631 23" enable-background="new 6.404 0 24.631 23" xml:space="preserve">
<path fill="#63B7DF" d="M29.294,1.92h-3.389V0.941C25.901,0.401,25.453,0.001,24.94,0c-0.513,0.001-0.961,0.401-0.964,0.941V1.92
	H13.465V0.941C13.461,0.401,13.013,0.001,12.5,0c-0.513,0.001-0.961,0.401-0.964,0.941V1.92H8.146
	C7.205,1.921,6.41,2.652,6.404,3.599v17.721c0.005,0.947,0.8,1.678,1.742,1.679h21.147c0.942-0.002,1.737-0.732,1.742-1.679V3.599
	C31.03,2.652,30.236,1.921,29.294,1.92z M12.5,5.722c0.513-0.001,0.961-0.401,0.964-0.941V3.802h10.511v0.979
	c0.004,0.54,0.451,0.94,0.964,0.941c0.513-0.001,0.961-0.401,0.964-0.941V3.802h3.202v2.401H8.333V3.802h3.202v0.979
	C11.539,5.321,11.987,5.721,12.5,5.722z M8.333,8.085h20.773v13.033H8.333V8.085z"/>
<path fill="#63B7DF" d="M21.032,14.123h-1.935v-1.935c0-0.167-0.169-0.302-0.377-0.302s-0.377,0.135-0.377,0.302v1.935h-1.935
	c-0.167,0-0.302,0.169-0.302,0.377s0.135,0.377,0.302,0.377h1.935v1.935c0,0.167,0.169,0.302,0.377,0.302s0.377-0.135,0.377-0.302
	v-1.935h1.935c0.167,0,0.302-0.169,0.302-0.377S21.199,14.123,21.032,14.123z"/>
<path fill="#63B7DF" d="M13.738,14.5c0,2.752,2.231,4.982,4.982,4.982c2.752,0,4.982-2.231,4.982-4.982s-2.23-4.982-4.982-4.982
	C15.969,9.518,13.738,11.749,13.738,14.5z M22.823,14.5c0,2.262-1.84,4.103-4.103,4.103c-2.262,0-4.103-1.841-4.103-4.103
	s1.84-4.103,4.103-4.103C20.983,10.398,22.823,12.238,22.823,14.5z"/>
</svg>
