<?xml version="1.0" encoding="utf-8"?>
<!-- Generator: Adobe Illustrator 17.0.0, SVG Export Plug-In . SVG Version: 6.00 Build 0)  -->
<!DOCTYPE svg PUBLIC "-//W3C//DTD SVG 1.1//EN" "http://www.w3.org/Graphics/SVG/1.1/DTD/svg11.dtd">
<svg version="1.1"
	 id="Слой_1" xmlns:inkscape="http://www.inkscape.org/namespaces/inkscape" xmlns:sodipodi="http://sodipodi.sourceforge.net/DTD/sodipodi-0.dtd" xmlns:cc="http://creativecommons.org/ns#" xmlns:dc="http://purl.org/dc/elements/1.1/" xmlns:rdf="http://www.w3.org/1999/02/22-rdf-syntax-ns#" xmlns:svg="http://www.w3.org/2000/svg"
	 xmlns="http://www.w3.org/2000/svg" xmlns:xlink="http://www.w3.org/1999/xlink" x="0px" y="0px" width="17.378px" height="23px"
	 viewBox="0 0 17.378 23" enable-background="new 0 0 17.378 23" xml:space="preserve">
<path d="M4.217,0C3.123,0,2.3,0.966,2.3,2.044H0.767h-0.08C0.295,2.085-0.002,2.417,0,2.811v19.422C0,22.656,0.343,23,0.767,23
	h15.844c0.423,0,0.767-0.343,0.767-0.767V6.9c0.001-0.204-0.08-0.399-0.224-0.543l-4.089-4.089c-0.144-0.144-0.34-0.224-0.543-0.224
	H6.133C6.133,0.966,5.311,0,4.217,0z M4.217,1.533c0.18,0,0.383,0.174,0.383,0.511v5.367C4.594,7.816,4.962,8.194,5.367,8.194
	s0.772-0.378,0.767-0.783V3.578h0.767v3.833c0,0.863-0.671,1.533-1.533,1.533S3.835,8.273,3.835,7.411V2.044
	C3.833,1.707,4.037,1.533,4.217,1.533z M1.533,3.578H2.3v3.833c0,1.686,1.381,3.067,3.067,3.067s3.067-1.381,3.067-3.067V3.578
	h2.811v3.833c0,0.401,0.365,0.767,0.767,0.767h3.833v13.289H1.533V3.578z M12.778,4.145l2.5,2.5h-2.5V4.145z M3.043,13.5
	c-0.292,0.015-0.544,0.295-0.529,0.587c0.015,0.292,0.295,0.544,0.587,0.529h11.276c0.295,0.004,0.564-0.263,0.564-0.558
	s-0.269-0.561-0.564-0.558H3.102H3.043z M3.043,17.544c-0.292,0.015-0.544,0.295-0.529,0.587c0.015,0.292,0.295,0.544,0.587,0.529
	h11.276c0.295,0.004,0.564-0.263,0.564-0.558s-0.269-0.561-0.564-0.558H3.102H3.043z"/>
</svg>
