<?xml version="1.0" encoding="utf-8"?>
<!-- Generator: Adobe Illustrator 17.0.0, SVG Export Plug-In . SVG Version: 6.00 Build 0)  -->
<!DOCTYPE svg PUBLIC "-//W3C//DTD SVG 1.1//EN" "http://www.w3.org/Graphics/SVG/1.1/DTD/svg11.dtd">
<svg version="1.1"
	 id="Слой_1" xmlns:sodipodi="http://sodipodi.sourceforge.net/DTD/sodipodi-0.dtd" xmlns:inkscape="http://www.inkscape.org/namespaces/inkscape" xmlns:cc="http://creativecommons.org/ns#" xmlns:rdf="http://www.w3.org/1999/02/22-rdf-syntax-ns#" xmlns:svg="http://www.w3.org/2000/svg" xmlns:dc="http://purl.org/dc/elements/1.1/"
	 xmlns="http://www.w3.org/2000/svg" xmlns:xlink="http://www.w3.org/1999/xlink" x="0px" y="0px" width="16.364px"
	 height="20.002px" viewBox="0 -0.001 16.364 20.002" enable-background="new 0 -0.001 16.364 20.002" xml:space="preserve">
<g transform="translate(0,-952.36218)">
	<path fill="#63B7DF" d="M13.182,952.361c-1.752,0-3.182,1.43-3.182,3.182c0,0.369,0.068,0.721,0.185,1.051l-4.915,3.381
		c-0.56-0.491-1.288-0.795-2.088-0.795C1.43,959.18,0,960.61,0,962.362s1.43,3.182,3.182,3.182c0.801,0,1.535-0.303,2.095-0.795
		l4.908,3.374C10.067,968.455,10,968.81,10,969.181c0,1.752,1.43,3.182,3.182,3.182s3.182-1.43,3.182-3.182s-1.43-3.182-3.182-3.182
		c-1.055,0-1.992,0.518-2.571,1.314l-4.737-3.267c0.308-0.49,0.49-1.065,0.49-1.683c0-0.621-0.18-1.2-0.49-1.69l4.737-3.267
		c0.579,0.798,1.514,1.321,2.571,1.321c1.752,0,3.182-1.43,3.182-3.182C16.364,953.791,14.934,952.361,13.182,952.361
		L13.182,952.361z M13.182,953.27c1.261,0,2.273,1.012,2.273,2.273s-1.012,2.273-2.273,2.273s-2.273-1.012-2.273-2.273
		S11.921,953.27,13.182,953.27z M3.182,960.088c1.261,0,2.273,1.012,2.273,2.273c0,1.26-1.012,2.273-2.273,2.273
		s-2.273-1.012-2.273-2.273C0.909,961.101,1.921,960.088,3.182,960.088z M13.182,966.907c1.261,0,2.273,1.012,2.273,2.273
		s-1.012,2.273-2.273,2.273s-2.273-1.012-2.273-2.273S11.921,966.907,13.182,966.907z"/>
</g>
</svg>
