<?xml version="1.0" encoding="utf-8"?>
<!-- Generator: Adobe Illustrator 17.0.0, SVG Export Plug-In . SVG Version: 6.00 Build 0)  -->
<!DOCTYPE svg PUBLIC "-//W3C//DTD SVG 1.1//EN" "http://www.w3.org/Graphics/SVG/1.1/DTD/svg11.dtd">
<svg version="1.1" id="Слой_1" xmlns="http://www.w3.org/2000/svg" xmlns:xlink="http://www.w3.org/1999/xlink" x="0px" y="0px"
	 width="24.255px" height="19.999px" viewBox="0 0 24.255 19.999" enable-background="new 0 0 24.255 19.999" xml:space="preserve">
<g>
	<path fill="#63B7DF" d="M22.765,0.214H1.489c-0.723,0-1.277,0.553-1.277,1.277v17.021c0,0.723,0.553,1.277,1.277,1.277h21.277
		c0.723,0,1.277-0.553,1.277-1.277V1.49C24.042,0.767,23.489,0.214,22.765,0.214z M1.489,1.065h21.277
		c0.255,0,0.426,0.17,0.426,0.426v6.936l-2.979,1.106V4.895c0-0.255-0.17-0.426-0.426-0.426H4.467c-0.255,0-0.426,0.17-0.426,0.426
		v4.638L1.062,8.427V1.491C1.063,1.235,1.233,1.065,1.489,1.065z M19.361,9.831l-7.234,2.681L4.893,9.831V5.32h14.468V9.831z
		 M22.765,18.937H1.489c-0.255,0-0.426-0.17-0.426-0.426V9.319l10.936,4.043c0.111,0,0.143,0.113,0.255,0L23.19,9.319v9.191
		C23.191,18.767,23.021,18.937,22.765,18.937z M17.233,9.15L17.233,9.15H7.021"/>
	<path fill="#63B7DF" d="M22.765,0.214V0.001H1.489c-0.416,0-0.792,0.161-1.06,0.429C0.16,0.698-0.001,1.074,0,1.49V18.51
		c0,0.416,0.161,0.792,0.429,1.06c0.268,0.269,0.644,0.43,1.06,0.429h21.277c0.416,0,0.792-0.161,1.06-0.429
		c0.269-0.268,0.43-0.644,0.429-1.06V1.49c0-0.416-0.161-0.792-0.429-1.06c-0.268-0.269-0.644-0.43-1.06-0.429L22.765,0.214
		l0.001,0.213c0.307,0,0.57,0.116,0.759,0.305s0.304,0.452,0.305,0.759v17.021c0,0.307-0.116,0.57-0.305,0.759
		s-0.452,0.304-0.759,0.305H1.489c-0.307,0-0.57-0.116-0.759-0.305s-0.304-0.452-0.305-0.759V1.49c0-0.307,0.116-0.57,0.305-0.759
		s0.452-0.304,0.759-0.305h21.277L22.765,0.214L22.765,0.214z M1.489,1.065v0.213h21.277c0.081,0.001,0.127,0.024,0.158,0.055
		c0.03,0.031,0.054,0.077,0.055,0.158v6.788l-2.553,0.948V4.895c0.001-0.174-0.061-0.341-0.179-0.459
		c-0.118-0.119-0.285-0.18-0.459-0.179H4.467C4.293,4.256,4.126,4.317,4.008,4.436c-0.119,0.118-0.18,0.285-0.179,0.459v4.332
		L1.276,8.279V1.491C1.277,1.41,1.3,1.364,1.331,1.333c0.031-0.03,0.077-0.054,0.158-0.055L1.489,1.065l0-0.213
		C1.315,0.851,1.148,0.913,1.03,1.031C0.911,1.149,0.85,1.316,0.851,1.49v7.084l3.404,1.264V4.894
		C4.256,4.813,4.279,4.767,4.31,4.736c0.031-0.03,0.077-0.054,0.158-0.055h15.319c0.081,0.001,0.127,0.024,0.158,0.055
		c0.03,0.031,0.054,0.077,0.055,0.158v4.944l3.404-1.264V1.49c0.001-0.174-0.061-0.341-0.179-0.459
		c-0.118-0.119-0.285-0.18-0.459-0.179H1.489V1.065z M19.361,9.831l-0.074-0.2l-7.16,2.653L5.106,9.682v-4.15h14.043V9.83
		L19.361,9.831L19.287,9.63L19.361,9.831h0.213V5.108H4.68v4.871l7.447,2.76l7.447-2.76V9.831H19.361z M22.765,18.937v-0.213H1.489
		c-0.081-0.001-0.127-0.024-0.158-0.055c-0.03-0.031-0.054-0.077-0.055-0.158V9.625l10.685,3.95h0.038v-0.049l-0.015,0.047
		l0.015,0.002v-0.049l-0.015,0.047v-0.001v0.001l0,0v-0.001v0.001c0.003,0.001,0.015,0.007,0.042,0.02
		c0.026,0.012,0.073,0.032,0.137,0.032c0.048,0,0.099-0.014,0.14-0.035s0.073-0.048,0.103-0.077l-0.15-0.15l0.074,0.2l10.65-3.937
		v8.886c-0.001,0.081-0.024,0.127-0.055,0.158c-0.031,0.03-0.077,0.054-0.158,0.055v0.212v0.213
		c0.174,0.001,0.341-0.061,0.459-0.179c0.119-0.118,0.18-0.285,0.179-0.459V9.014l-11.266,4.165l-0.033,0.033L12.1,13.218
		l0.044,0.057l-0.026-0.066L12.1,13.218l0.044,0.057l-0.026-0.066l0.047,0.12V13.2l-0.047,0.009l0.047,0.12v-0.129v0.111
		l0.041-0.104c-0.003-0.001-0.018-0.007-0.041-0.007v0.111l0.041-0.104l-0.007,0.017l0.007-0.017h-0.001l-0.007,0.017l0.007-0.017
		c-0.001,0-0.022-0.012-0.057-0.027C12.113,13.166,12.06,13.15,12,13.15v0.213l0.074-0.2L0.851,9.015v9.497
		c-0.001,0.174,0.061,0.341,0.179,0.459c0.118,0.119,0.285,0.18,0.459,0.179h21.277L22.765,18.937L22.765,18.937z M17.233,8.937
		H7.021v0.426h10.213L17.233,8.937L17.233,8.937z"/>
	<line fill="none" x1="7.021" y1="7.873" x2="17.233" y2="7.873"/>
	<polyline fill="#63B7DF" points="7.021,8.086 17.233,8.086 17.233,7.661 7.021,7.661 	"/>
</g>
</svg>
